<svg width="58" height="60" viewBox="0 0 58 60" fill="none" xmlns="http://www.w3.org/2000/svg">
<path d="M8.16617 7.62357C7.92248 7.62357 7.67832 7.53009 7.49276 7.34454C7.12025 6.97203 7.12025 6.37024 7.49276 5.99773L13.2111 0.279383C13.5836 -0.0931278 14.1854 -0.0931278 14.5579 0.279383C14.9304 0.651429 14.9304 1.25368 14.5579 1.62572L8.83957 7.34454C8.65308 7.53009 8.40986 7.62357 8.16617 7.62357Z" fill="#D79081"/>
<path d="M19.5974 7.62357C19.3537 7.62357 19.11 7.53009 18.924 7.34454L13.2057 1.62572C12.8331 1.25368 12.8331 0.651429 13.2057 0.279383C13.5782 -0.0931278 14.1799 -0.0931278 14.5525 0.279383L20.2708 5.99773C20.6433 6.37024 20.6433 6.97203 20.2708 7.34454C20.0843 7.53009 19.8411 7.62357 19.5974 7.62357Z" fill="#D79081"/>
<path d="M19.5944 7.62357C19.3507 7.62357 19.1065 7.53009 18.921 7.34454C18.5485 6.97203 18.5485 6.37024 18.921 5.99773L24.6393 0.279383C25.0119 -0.0931278 25.6136 -0.0931278 25.9861 0.279383C26.3587 0.651429 26.3587 1.25368 25.9861 1.62572L20.2678 7.34454C20.0813 7.53009 19.8381 7.62357 19.5944 7.62357Z" fill="#D79081"/>
<path d="M31.0256 7.62357C30.7819 7.62357 30.5382 7.53009 30.3522 7.34454L24.6339 1.62572C24.2614 1.25368 24.2614 0.651429 24.6339 0.279383C25.0064 -0.0931278 25.6082 -0.0931278 25.9807 0.279383L31.699 5.99773C32.0715 6.37024 32.0715 6.97203 31.699 7.34454C31.5125 7.53009 31.2693 7.62357 31.0256 7.62357Z" fill="#D79081"/>
<path d="M31.0226 7.62357C30.7789 7.62357 30.5348 7.53009 30.3492 7.34454C29.9767 6.97203 29.9767 6.37024 30.3492 5.99773L36.0675 0.279383C36.44 -0.0931278 37.0418 -0.0931278 37.4143 0.279383C37.7868 0.651429 37.7868 1.25368 37.4143 1.62572L31.696 7.34454C31.5091 7.53009 31.2663 7.62357 31.0226 7.62357Z" fill="#D79081"/>
<path d="M42.4539 7.62357C42.2102 7.62357 41.966 7.53009 41.7805 7.34454L36.0621 1.62572C35.6896 1.25368 35.6896 0.651429 36.0621 0.279383C36.4346 -0.0931278 37.0364 -0.0931278 37.4089 0.279383L43.1273 5.99773C43.4998 6.37024 43.4998 6.97203 43.1273 7.34454C42.9408 7.53009 42.6975 7.62357 42.4539 7.62357Z" fill="#D79081"/>
<path d="M25.3128 24.7692C25.0692 24.7692 24.8255 24.6757 24.6394 24.4902L7.49276 7.34445C7.12025 6.97194 7.12025 6.37016 7.49276 5.99764C7.86527 5.62513 8.46706 5.62513 8.83957 5.99764L25.9862 23.1434C26.3588 23.5159 26.3588 24.1177 25.9862 24.4902C25.7998 24.6757 25.5565 24.7692 25.3128 24.7692Z" fill="#D79081"/>
<path d="M25.3083 24.7692C25.0646 24.7692 24.8204 24.6757 24.6349 24.4902C24.2623 24.1177 24.2623 23.5159 24.6349 23.1434L41.7815 5.99764C42.154 5.62513 42.7558 5.62513 43.1283 5.99764C43.5008 6.37016 43.5008 6.97194 43.1283 7.34445L25.9817 24.4902C25.7947 24.6757 25.5519 24.7692 25.3083 24.7692Z" fill="#D79081"/>
<path d="M36.7412 1.90536H13.8846C13.3581 1.90536 12.9321 1.47937 12.9321 0.952925C12.9321 0.426016 13.3581 0.000488281 13.8846 0.000488281H36.7412C37.2682 0.000488281 37.6937 0.426016 37.6937 0.952925C37.6937 1.47937 37.2672 1.90536 36.7412 1.90536Z" fill="#D79081"/>
<path d="M42.4541 7.62362H8.1663C7.63939 7.62362 7.21387 7.19763 7.21387 6.67119C7.21387 6.14428 7.63939 5.71875 8.1663 5.71875H42.4541C42.981 5.71875 43.4065 6.14428 43.4065 6.67119C43.4065 7.19763 42.98 7.62362 42.4541 7.62362Z" fill="#D79081"/>
<path d="M25.3126 24.7695C24.9136 24.7695 24.542 24.517 24.41 24.118L18.6935 6.97222C18.5265 6.47321 18.7963 5.93328 19.2953 5.76725C19.7971 5.5989 20.3342 5.87003 20.5002 6.36904L26.2158 23.5152C26.3823 24.0142 26.1125 24.5542 25.6135 24.7197C25.5135 24.7532 25.4117 24.7695 25.3126 24.7695Z" fill="#D79081"/>
<path d="M25.3129 24.7689C25.2138 24.7689 25.112 24.7526 25.012 24.7192C24.5139 24.5536 24.2432 24.0146 24.4102 23.5147L30.1229 6.36846C30.2876 5.87038 30.8238 5.59832 31.3274 5.76667C31.8255 5.9327 32.0962 6.4717 31.9297 6.97164L26.2169 24.1174C26.0835 24.5164 25.7119 24.7689 25.3129 24.7689Z" fill="#D79081"/>
<path d="M44.3358 43.8326C44.0921 43.8326 43.848 43.7392 43.6624 43.5531L31.2789 31.1705C30.9064 30.7985 30.9064 30.1962 31.2789 29.8242L43.6624 17.4402C44.0349 17.0681 44.6367 17.0681 45.0092 17.4402L57.3928 29.8242C57.7653 30.1962 57.7653 30.7985 57.3928 31.1705L45.0092 43.5531C44.8232 43.7401 44.5795 43.8326 44.3358 43.8326ZM33.2991 30.4962L44.3358 41.5334L55.3726 30.4962L44.3358 19.4604L33.2991 30.4962Z" fill="#D79081"/>
<path d="M44.3359 37.1632C44.0922 37.1632 43.848 37.0702 43.6625 36.8842L37.9478 31.1696C37.5753 30.7975 37.5753 30.1953 37.9478 29.8228L43.6625 24.1081C44.035 23.7361 44.6368 23.7361 45.0093 24.1081L50.7239 29.8228C51.0964 30.1953 51.0964 30.7975 50.7239 31.1696L45.0093 36.8842C44.8232 37.0712 44.5796 37.1632 44.3359 37.1632ZM39.968 30.4962L44.3359 34.8645L48.7037 30.4962L44.3359 26.1283L39.968 30.4962Z" fill="#D79081"/>
<path d="M44.3362 25.7331C43.8093 25.7331 43.3838 25.3075 43.3838 24.7806V18.1136C43.3838 17.5871 43.8093 17.1611 44.3362 17.1611C44.8627 17.1611 45.2887 17.5871 45.2887 18.1136V24.7806C45.2887 25.3066 44.8627 25.7331 44.3362 25.7331Z" fill="#D79081"/>
<path d="M56.7196 31.4483H50.0516C49.5247 31.4483 49.0991 31.0228 49.0991 30.4959C49.0991 29.9694 49.5247 29.5435 50.0516 29.5435H56.7196C57.2465 29.5435 57.672 29.9694 57.672 30.4959C57.672 31.0228 57.2465 31.4483 56.7196 31.4483Z" fill="#D79081"/>
<path d="M44.3362 43.8321C43.8093 43.8321 43.3838 43.4061 43.3838 42.8796V36.2102C43.3838 35.6838 43.8093 35.2578 44.3362 35.2578C44.8627 35.2578 45.2887 35.6838 45.2887 36.2102V42.8796C45.2887 43.4061 44.8627 43.8321 44.3362 43.8321Z" fill="#D79081"/>
<path d="M38.6205 31.4483H31.9524C31.4255 31.4483 31 31.0228 31 30.4959C31 29.9694 31.4255 29.5435 31.9524 29.5435H38.6205C39.1469 29.5435 39.5729 29.9694 39.5729 30.4959C39.5729 31.0228 39.1469 31.4483 38.6205 31.4483Z" fill="#D79081"/>
<path d="M32.9251 56.1898C32.3982 56.1898 31.9727 55.7643 31.9727 55.2374V42.8538C31.9727 42.3274 32.3982 41.9014 32.9251 41.9014C33.4515 41.9014 33.8775 42.3274 33.8775 42.8538V55.2374C33.8775 55.7643 33.4515 56.1898 32.9251 56.1898Z" fill="#D79081"/>
<path d="M32.9251 43.8064C32.6814 43.8064 32.4372 43.7134 32.2517 43.5274L28.441 39.7176C28.0685 39.3451 28.0685 38.7433 28.441 38.3708C28.8135 37.9988 29.4153 37.9988 29.7878 38.3708L33.5985 42.1806C33.9705 42.5531 33.9705 43.1549 33.5985 43.5274C33.4125 43.7134 33.1688 43.8064 32.9251 43.8064Z" fill="#D79081"/>
<path d="M18.6409 56.1898C18.114 56.1898 17.6885 55.7643 17.6885 55.2374V42.8538C17.6885 42.3274 18.114 41.9014 18.6409 41.9014C19.1674 41.9014 19.5933 42.3274 19.5933 42.8538V55.2374C19.5933 55.7643 19.1674 56.1898 18.6409 56.1898Z" fill="#D79081"/>
<path d="M18.6413 43.8064C18.3976 43.8064 18.1534 43.7134 17.9679 43.5274C17.5953 43.1549 17.5953 42.5531 17.9679 42.1806L21.7786 38.3708C22.1511 37.9988 22.7528 37.9988 23.1254 38.3708C23.4979 38.7433 23.4979 39.3451 23.1254 39.7176L19.3147 43.5274C19.1277 43.7134 18.885 43.8064 18.6413 43.8064Z" fill="#D79081"/>
<path d="M29.1144 39.9967H22.4519C21.925 39.9967 21.4995 39.5711 21.4995 39.0442C21.4995 38.5178 21.925 38.0918 22.4519 38.0918H29.1144C29.6408 38.0918 30.0668 38.5178 30.0668 39.0442C30.0668 39.5711 29.6408 39.9967 29.1144 39.9967Z" fill="#D79081"/>
<path d="M22.451 59.9998C22.2073 59.9998 21.9631 59.9068 21.7776 59.7207L17.9669 55.911C17.5944 55.5385 17.5944 54.9367 17.9669 54.5642C18.3394 54.1921 18.9412 54.1921 19.3137 54.5642L23.1244 58.3739C23.4969 58.7464 23.4969 59.3482 23.1244 59.7207C22.9374 59.9068 22.6947 59.9998 22.451 59.9998Z" fill="#D79081"/>
<path d="M29.1134 59.9998C28.8693 59.9998 28.6256 59.9068 28.44 59.7207C28.0675 59.3482 28.0675 58.7464 28.44 58.3739L32.2507 54.5642C32.6232 54.1921 33.225 54.1921 33.5975 54.5642C33.9695 54.9367 33.9695 55.5385 33.5975 55.911L29.7868 59.7207C29.6008 59.9068 29.3571 59.9998 29.1134 59.9998Z" fill="#D79081"/>
<path d="M29.1134 60.0001H22.451C21.9241 60.0001 21.4985 59.5746 21.4985 59.0477C21.4985 58.5212 21.9241 58.0952 22.451 58.0952H29.1134C29.6398 58.0952 30.0658 58.5212 30.0658 59.0477C30.0658 59.5746 29.6398 60.0001 29.1134 60.0001Z" fill="#D79081"/>
<path d="M29.1209 54.2835C28.5945 54.2835 28.1685 53.8579 28.1685 53.331V44.7591C28.1685 44.2326 28.5945 43.8066 29.1209 43.8066C29.6478 43.8066 30.0733 44.2326 30.0733 44.7591V53.331C30.0733 53.8579 29.6469 54.2835 29.1209 54.2835Z" fill="#D79081"/>
<path d="M29.1191 45.7074C28.7693 45.7074 28.4322 45.5148 28.2657 45.1795C28.0304 44.7103 28.222 44.1378 28.6921 43.9025L32.4991 42.0013C32.966 41.7683 33.5422 41.9557 33.7766 42.4282C34.012 42.8975 33.8203 43.47 33.3497 43.7053L29.5427 45.6065C29.4065 45.6748 29.2618 45.7074 29.1191 45.7074Z" fill="#D79081"/>
<path d="M32.9237 56.1901C32.7809 56.1901 32.634 56.158 32.4977 56.0892L28.694 54.1825C28.2243 53.9471 28.0336 53.3746 28.2699 52.9045C28.5052 52.4348 29.0786 52.2441 29.5483 52.4803L33.352 54.3871C33.8217 54.6224 34.0124 55.1949 33.7762 55.6655C33.6092 55.998 33.272 56.1901 32.9237 56.1901Z" fill="#D79081"/>
<path d="M29.1207 45.7113C28.877 45.7113 28.6333 45.6183 28.4473 45.4322L26.5387 43.5236C26.1661 43.1511 26.1661 42.5494 26.5387 42.1768C26.9112 41.8043 27.513 41.8043 27.8855 42.1768L29.7941 44.0854C30.1666 44.4579 30.1666 45.0597 29.7941 45.4322C29.6076 45.6183 29.3643 45.7113 29.1207 45.7113Z" fill="#D79081"/>
<path d="M27.212 43.8028H24.3528C23.8259 43.8028 23.4004 43.3773 23.4004 42.8504C23.4004 42.3235 23.8259 41.8979 24.3528 41.8979H27.212C27.7384 41.8979 28.1644 42.3235 28.1644 42.8504C28.1644 43.3773 27.7384 43.8028 27.212 43.8028Z" fill="#D79081"/>
<path d="M22.4464 45.7094C22.2023 45.7094 21.9586 45.616 21.773 45.4304C21.4005 45.0579 21.4005 44.4561 21.773 44.0836L23.6798 42.1768C24.0523 41.8043 24.6541 41.8043 25.0266 42.1768C25.3986 42.5494 25.3986 43.1511 25.0266 43.5237L23.1198 45.4304C22.9338 45.616 22.6901 45.7094 22.4464 45.7094Z" fill="#D79081"/>
<path d="M22.4461 54.2871C21.9192 54.2871 21.4937 53.8616 21.4937 53.3346V44.7571C21.4937 44.2307 21.9192 43.8047 22.4461 43.8047C22.9725 43.8047 23.3985 44.2307 23.3985 44.7571V53.3346C23.3985 53.8616 22.9725 54.2871 22.4461 54.2871Z" fill="#D79081"/>
<path d="M18.6422 56.1899C18.2925 56.1899 17.9562 55.9979 17.7888 55.6635C17.5535 55.1929 17.7442 54.6204 18.2143 54.3851L22.0194 52.482C22.4901 52.2481 23.0616 52.4374 23.2979 52.908C23.5327 53.3787 23.3425 53.9507 22.8719 54.186L19.0668 56.089C18.9296 56.1579 18.785 56.1899 18.6422 56.1899Z" fill="#D79081"/>
<path d="M22.4455 45.7096C22.3022 45.7096 22.1567 45.6771 22.0204 45.6096L18.2153 43.7066C17.7451 43.4713 17.5545 42.8988 17.7898 42.4286C18.026 41.958 18.5985 41.7696 19.0678 42.0026L22.8729 43.9056C23.3435 44.141 23.5342 44.7135 23.2989 45.1841C23.131 45.5171 22.7947 45.7096 22.4455 45.7096Z" fill="#D79081"/>
<path d="M24.3522 56.1916C24.1081 56.1916 23.8644 56.0986 23.6788 55.9126L21.773 54.0077C21.4005 53.6356 21.4005 53.0334 21.773 52.6609C22.1455 52.2888 22.7473 52.2888 23.1198 52.6609L25.0256 54.5657C25.3977 54.9383 25.3977 55.5405 25.0256 55.9126C24.8396 56.0986 24.5959 56.1916 24.3522 56.1916Z" fill="#D79081"/>
<path d="M24.3519 56.1919C23.8259 56.1919 23.3994 55.7664 23.3994 55.2404C23.3994 54.7139 23.8249 54.287 24.3509 54.287L27.2092 54.2852H27.2101C27.7356 54.2852 28.1625 54.7111 28.1625 55.2367C28.1625 55.7636 27.7365 56.19 27.211 56.19L24.3519 56.1919Z" fill="#D79081"/>
<path d="M27.2101 56.1903C26.9664 56.1903 26.7223 56.0973 26.5367 55.9113C26.1642 55.5388 26.1642 54.937 26.5367 54.5645L28.4453 52.6558C28.8178 52.2833 29.4196 52.2833 29.7921 52.6558C30.1646 53.0284 30.1646 53.6301 29.7921 54.0027L27.8835 55.9113C27.6975 56.0973 27.4538 56.1903 27.2101 56.1903Z" fill="#D79081"/>
<path d="M22.2629 59.9996C22.1089 59.9996 21.9517 59.9624 21.8066 59.8824C21.3458 59.6294 21.1765 59.0514 21.4295 58.59L23.5176 54.7821C23.7696 54.3213 24.3491 54.1511 24.81 54.405C25.2709 54.6584 25.4406 55.2365 25.1871 55.6978L23.0995 59.5053C22.926 59.8215 22.5991 59.9996 22.2629 59.9996Z" fill="#D79081"/>
<path d="M29.1141 60C28.7643 60 28.4272 59.8079 28.2607 59.4735L26.3577 55.6638C26.1223 55.1932 26.313 54.6207 26.7832 54.3854C27.2529 54.1514 27.8272 54.3407 28.0616 54.8113L29.9647 58.6211C30.1995 59.0917 30.0093 59.6638 29.5387 59.8991C29.4024 59.9679 29.2568 60 29.1141 60Z" fill="#D79081"/>
<path d="M27.2112 43.8031C27.0684 43.8031 26.9224 43.7705 26.7861 43.7031C26.3159 43.4677 26.1253 42.8953 26.3606 42.4251L28.2627 38.619C28.498 38.1484 29.0705 37.9601 29.5407 38.1931C30.0113 38.4284 30.202 39.0009 29.9667 39.4715L28.0646 43.2775C27.8976 43.6105 27.5604 43.8031 27.2112 43.8031Z" fill="#D79081"/>
<path d="M24.3539 43.803C24.0042 43.803 23.667 43.6105 23.5005 43.2761L21.5994 39.4705C21.364 38.9999 21.5547 38.4274 22.0249 38.1921C22.4955 37.9591 23.0689 38.1474 23.3033 38.6181L25.2045 42.4241C25.4398 42.8943 25.2491 43.4668 24.7785 43.7021C24.6422 43.7704 24.4967 43.803 24.3539 43.803Z" fill="#D79081"/>
<path d="M9.11779 42.8716C8.8941 42.8716 8.66994 42.7935 8.49089 42.6363L0.870462 35.973C0.663977 35.792 0.544922 35.5302 0.544922 35.2558L0.545852 26.6783C0.545852 26.4039 0.663977 26.1421 0.870462 25.9621L8.48996 19.2895C8.84899 18.9751 9.38659 18.9751 9.74562 19.2895L17.3633 25.9621C17.5697 26.1421 17.6879 26.4039 17.6879 26.6783L17.6907 35.2558C17.6907 35.5302 17.5725 35.792 17.3651 35.973L9.74469 42.6363C9.56424 42.7935 9.34148 42.8716 9.11779 42.8716ZM2.4498 34.8224L9.11779 40.6533L15.7858 34.8224L15.783 27.109L9.11779 21.2702L2.45073 27.109L2.4498 34.8224Z" fill="#D79081"/>
<path d="M9.11761 37.1547C8.91671 37.1547 8.7158 37.0919 8.54606 36.964L4.73537 34.1076C4.4954 33.9286 4.35449 33.6458 4.35449 33.3459V28.5818C4.35449 28.2828 4.4954 28.001 4.73444 27.8201L8.54513 24.9586C8.88322 24.7033 9.35107 24.7033 9.68917 24.9586L13.4999 27.8201C13.7389 28 13.8798 28.2819 13.8798 28.5818V33.3459C13.8798 33.6449 13.7389 33.9277 13.4989 34.1076L9.68824 36.9631C9.51942 37.091 9.31852 37.1547 9.11761 37.1547ZM6.25937 32.8706L9.11761 35.0117L11.9759 32.8706V29.059L9.11761 26.9123L6.25937 29.059V32.8706Z" fill="#D79081"/>
<path d="M16.7373 36.2079C16.5945 36.2079 16.4485 36.1758 16.3117 36.1079L12.502 34.1993C12.0323 33.9631 11.8416 33.3906 12.0769 32.9204C12.3132 32.4516 12.8829 32.2619 13.3563 32.4954L17.166 34.404C17.6353 34.6402 17.826 35.2127 17.5906 35.6833C17.4218 36.0149 17.087 36.2079 16.7373 36.2079Z" fill="#D79081"/>
<path d="M9.11748 42.8713C8.59057 42.8713 8.16504 42.4458 8.16504 41.9189V36.2024C8.16504 35.6755 8.59057 35.25 9.11748 35.25C9.64438 35.25 10.0699 35.6755 10.0699 36.2024V41.9189C10.0699 42.4449 9.64299 42.8713 9.11748 42.8713Z" fill="#D79081"/>
<path d="M1.49817 36.2079C1.14845 36.2079 0.812212 36.0158 0.644791 35.6824C0.409472 35.2117 0.600146 34.6392 1.06939 34.403L4.87914 32.4944C5.3535 32.2609 5.92319 32.4507 6.15851 32.9194C6.39383 33.3896 6.20316 33.9621 5.73345 34.1984L1.9237 36.107C1.78558 36.1749 1.64094 36.2079 1.49817 36.2079Z" fill="#D79081"/>
<path d="M5.30612 29.5354C5.16335 29.5354 5.01732 29.5028 4.88106 29.4354L1.0727 27.5305C0.602065 27.2952 0.411391 26.7227 0.64671 26.2526C0.882959 25.7819 1.45451 25.5931 1.92469 25.8266L5.73351 27.7314C6.20415 27.9668 6.39482 28.5392 6.1595 29.0094C5.99162 29.3429 5.65584 29.5354 5.30612 29.5354Z" fill="#D79081"/>
<path d="M9.11748 26.6741C8.59057 26.6741 8.16504 26.2481 8.16504 25.7217V20.0052C8.16504 19.4783 8.59057 19.0527 9.11748 19.0527C9.64438 19.0527 10.0699 19.4783 10.0699 20.0052V25.7217C10.0699 26.2481 9.64299 26.6741 9.11748 26.6741Z" fill="#D79081"/>
<path d="M12.9293 29.5353C12.5796 29.5353 12.2438 29.3428 12.0759 29.0084C11.8406 28.5383 12.0313 27.9658 12.5019 27.7305L16.3084 25.8256C16.78 25.5921 17.3506 25.7809 17.5868 26.2511C17.8222 26.7218 17.6315 27.2942 17.1609 27.5296L13.3539 29.4344C13.2172 29.5028 13.0721 29.5353 12.9293 29.5353Z" fill="#D79081"/>
</svg>
