<svg width="76" height="80" viewBox="0 0 76 80" fill="none" xmlns="http://www.w3.org/2000/svg">
<path d="M19.3382 14.6733C19.3382 13.937 18.7414 13.3402 18.0051 13.3402C16.5324 13.3402 15.3386 12.1464 15.3386 10.6737C15.3386 9.93739 14.7417 9.34058 14.0055 9.34058C13.2693 9.34058 12.6724 9.93739 12.6724 10.6737C12.6724 13.6189 15.0599 16.0065 18.0051 16.0065C18.7414 16.0065 19.3382 15.4096 19.3382 14.6733Z" fill="#D4A324"/>
<path d="M18.005 8.00735C19.4777 8.00735 20.6715 9.20114 20.6715 10.6738C20.6715 11.4101 21.2683 12.0069 22.0046 12.0069C22.7409 12.0069 23.3377 11.4101 23.3377 10.6738C23.3377 7.72863 20.9502 5.34106 18.005 5.34106C17.2687 5.34106 16.6719 5.93788 16.6719 6.67421C16.6719 7.41054 17.2687 8.00735 18.005 8.00735Z" fill="#D4A324"/>
<path d="M21.3553 36.1539C22.9232 34.8915 23.6438 32.8519 23.2168 30.8848C22.7898 28.9176 21.2884 27.3603 19.3381 26.8616V21.2475C24.925 20.5437 29.0021 15.6178 28.6495 9.99771C28.297 4.37767 23.6361 0 18.005 0C12.3738 0 7.71292 4.37767 7.3603 9.99771C7.00768 15.6178 11.0848 20.5437 16.6717 21.2475V26.8616C14.7214 27.3603 13.2202 28.9176 12.793 30.8848C12.366 32.8519 13.0866 34.8915 14.6545 36.1539L2.55455 55.336C-0.13189 60.3199 0.0630895 66.362 3.06512 71.1623C6.08934 76.5846 11.7966 79.9606 18.005 80C24.2118 79.9616 29.9183 76.5875 32.9434 71.1676C35.9528 66.3489 36.1358 60.2833 33.422 55.2919L21.3553 36.1539ZM10.0058 10.6739C10.0058 6.25607 13.5872 2.67472 18.005 2.67472C22.4228 2.67472 26.0042 6.25607 26.0042 10.6739C26.0042 15.0917 22.4228 18.6731 18.005 18.6731C13.589 18.6687 10.0102 15.0898 10.0058 10.6739ZM16.1196 30.1195C16.6197 29.6194 17.2979 29.3385 18.005 29.3385C19.4776 29.3385 20.6714 30.5323 20.6714 32.005C20.6667 32.7258 20.3671 33.4134 19.8421 33.9074C18.8129 32.9289 17.1971 32.9289 16.1678 33.9074C15.6429 33.4134 15.3432 32.7258 15.3385 32.005C15.3385 31.2979 15.6194 30.6196 16.1196 30.1195ZM30.641 69.8331C28.0864 74.4257 23.2602 77.2906 18.005 77.3337C12.7496 77.2903 7.92368 74.4235 5.3716 69.8292C2.85905 65.8676 2.65657 60.8648 4.84103 56.7132L18.005 35.8327L31.1383 56.6693C33.349 60.8279 33.1592 65.853 30.641 69.8331Z" fill="#D4A324"/>
<path d="M28.8411 58.0222L19.1328 42.6252C18.8728 42.2606 18.4527 42.0442 18.0049 42.0442C17.5571 42.0442 17.137 42.2606 16.8771 42.6252L14.4506 46.4755C14.0867 47.0962 14.2811 47.8937 14.8898 48.2775C15.4984 48.6612 16.3018 48.4926 16.705 47.8966L18.0049 45.8368L26.5467 59.3794C26.8456 59.9222 27.0626 60.5063 27.1907 61.1125C27.3241 61.7423 27.3733 62.3869 27.3374 63.0297C27.2943 63.7249 27.1658 64.4122 26.9548 65.0762C26.7268 65.8 26.4183 66.4959 26.0349 67.1506C25.6002 67.8953 25.0759 68.5839 24.4738 69.2011C23.9024 69.7879 23.2586 70.2995 22.558 70.7236C21.8754 71.1345 21.141 71.4524 20.3742 71.6688C18.825 72.1017 17.1866 72.1017 15.6373 71.6688C14.8705 71.4519 14.1361 71.1335 13.4535 70.7222C12.7522 70.2995 12.1083 69.7882 11.5378 69.2009C10.9366 68.5814 10.4137 67.8906 9.98058 67.1438C9.5978 66.4882 9.28924 65.7919 9.06067 65.0681C8.85179 64.4047 8.7243 63.7183 8.68071 63.0242C8.63884 62.3804 8.68368 61.7337 8.81398 61.1017C8.93678 60.5221 9.14004 59.9625 9.41798 59.4393L14.2734 51.7415C14.5278 51.3387 14.5479 50.8309 14.3264 50.4093C14.1048 49.9876 13.675 49.7162 13.1992 49.6973C12.7233 49.6784 12.2733 49.9148 12.019 50.3176L7.12884 58.0888C6.70435 58.8593 6.39579 59.6881 6.213 60.5485C6.03005 61.4148 5.96505 62.3019 6.01974 63.1856C6.07473 64.0966 6.24128 64.9974 6.51562 65.868C6.80278 66.7819 7.1918 67.6608 7.6755 68.4877C8.21732 69.4251 8.87335 70.2917 9.62858 71.0674C10.3591 71.8186 11.1831 72.4728 12.0804 73.014C12.9667 73.5475 13.9203 73.9599 14.916 74.2405C16.9366 74.8094 19.0748 74.8094 21.0954 74.2405C22.091 73.9601 23.0449 73.5476 23.931 73.014C24.8281 72.4726 25.6521 71.8184 26.3828 71.0674C27.1369 70.2919 27.792 69.4257 28.3332 68.4891C28.8169 67.6622 29.2059 66.7833 29.4931 65.8694C29.7681 64.9985 29.9355 64.0972 29.9916 63.1856C30.0455 62.3018 29.9801 61.4148 29.797 60.5485C29.6075 59.6631 29.2851 58.8115 28.8411 58.0222Z" fill="#D4A324"/>
<path d="M59.3341 14.6733C59.3341 13.937 58.7373 13.3402 58.0009 13.3402C56.5283 13.3402 55.3345 12.1464 55.3345 10.6737C55.3345 9.93739 54.7377 9.34058 54.0014 9.34058C53.265 9.34058 52.6682 9.93739 52.6682 10.6737C52.6682 13.6189 55.0558 16.0065 58.0009 16.0065C58.7373 16.0065 59.3341 15.4096 59.3341 14.6733Z" fill="#D4A324"/>
<path d="M58.0009 8.00735C59.4735 8.00735 60.6673 9.20114 60.6673 10.6738C60.6673 11.4101 61.2643 12.0069 62.0005 12.0069C62.7368 12.0069 63.3336 11.4101 63.3336 10.6738C63.3336 7.72863 60.946 5.34106 58.0009 5.34106C57.2645 5.34106 56.6677 5.93788 56.6677 6.67421C56.6677 7.41054 57.2645 8.00735 58.0009 8.00735Z" fill="#D4A324"/>
<path d="M73.4179 55.2919L61.3512 36.1539C62.9191 34.8915 63.6397 32.8519 63.2127 30.8848C62.7857 28.9176 61.2843 27.3603 59.334 26.8616V21.2475C64.921 20.5437 68.998 15.6178 68.6454 9.99771C68.2928 4.37767 63.6319 0 58.0007 0C52.3696 0 47.7087 4.37767 47.3561 9.99771C47.0034 15.6178 51.0805 20.5437 56.6674 21.2475V26.8616C54.7172 27.3603 53.2159 28.9176 52.7888 30.8848C52.3618 32.8519 53.0823 34.8915 54.6503 36.1539L42.5502 55.336C39.8637 60.3199 40.0587 66.362 43.0607 71.1623C46.0849 76.5846 51.7922 79.9606 58.0006 80C64.2074 79.9616 69.9139 76.5875 72.939 71.1676C75.9486 66.3489 76.1315 60.2833 73.4179 55.2919ZM50.0016 10.6739C50.0016 6.25607 53.5829 2.67472 58.0007 2.67472C62.4186 2.67472 65.9999 6.25607 65.9999 10.6739C65.9999 15.0917 62.4186 18.6731 58.0007 18.6731C53.5848 18.6687 50.0059 15.0898 50.0016 10.6739ZM56.1153 30.1195C56.6154 29.6194 57.2936 29.3385 58.0007 29.3385C59.4734 29.3385 60.6672 30.5323 60.6672 32.005C60.6625 32.7258 60.3628 33.4134 59.8379 33.9074C58.8086 32.9289 57.1929 32.9289 56.1636 33.9074C55.6386 33.4134 55.339 32.7258 55.3343 32.005C55.3343 31.2979 55.6154 30.6196 56.1153 30.1195ZM70.6368 69.8331C68.1163 74.459 63.2694 77.3378 58.0014 77.3378C52.7333 77.3378 47.8865 74.459 45.366 69.8331C42.8523 65.8702 42.6503 60.8656 44.8366 56.713L58.0006 35.8325L71.1339 56.6691C73.3448 60.8279 73.155 65.853 70.6368 69.8331Z" fill="#D4A324"/>
<path d="M68.8371 58.0222L59.1287 42.6252C58.8687 42.2606 58.4486 42.0442 58.0008 42.0442C57.5531 42.0442 57.133 42.2606 56.873 42.6252L54.4465 46.4755C54.0827 47.0962 54.277 47.8937 54.8857 48.2775C55.4944 48.6612 56.2977 48.4926 56.701 47.8966L58.0008 45.8368L66.5426 59.3794C66.8415 59.9222 67.0585 60.5063 67.1866 61.1125C67.316 61.7447 67.3608 62.3912 67.3199 63.035C67.2768 63.7302 67.1483 64.4175 66.9373 65.0815C66.7093 65.8053 66.4008 66.5012 66.0174 67.156C65.5865 67.8981 65.0667 68.5849 64.4696 69.2011C63.8982 69.7879 63.2544 70.2996 62.5538 70.7236C61.8712 71.1345 61.1368 71.4524 60.37 71.6688C58.8208 72.1017 57.1823 72.1017 55.6331 71.6688C54.8663 71.4519 54.1319 71.1335 53.4493 70.7222C52.748 70.2996 52.1041 69.7882 51.5335 69.2009C50.9324 68.5815 50.4094 67.8906 49.9764 67.1438C49.5936 66.4882 49.285 65.7919 49.0565 65.0681C48.8476 64.4047 48.7201 63.7184 48.6765 63.0242C48.6346 62.3804 48.6795 61.7337 48.8098 61.1018C48.9326 60.5221 49.1358 59.9625 49.4138 59.4393L54.2692 51.7415C54.5236 51.3387 54.5437 50.8309 54.3222 50.4093C54.1006 49.9876 53.6708 49.7162 53.1949 49.6973C52.719 49.6784 52.2691 49.9148 52.0148 50.3176L47.1193 58.0835C46.6948 58.854 46.3863 59.6828 46.2035 60.5432C46.0205 61.4095 45.9555 62.2966 46.0102 63.1803C46.0652 64.0908 46.2318 64.9914 46.5061 65.8614C46.7945 66.7779 47.1853 67.659 47.6713 68.4879C48.2131 69.4253 48.8691 70.2919 49.6244 71.0676C50.3549 71.8188 51.1789 72.4729 52.0762 73.0141C52.9625 73.5477 53.9161 73.9601 54.9118 74.2407C56.9324 74.8096 59.0706 74.8096 61.0912 74.2407C62.0868 73.9603 63.0406 73.5478 63.9268 73.0141C64.8239 72.4728 65.6479 71.8186 66.3786 71.0676C67.1327 70.2921 67.7878 69.4259 68.329 68.4893C68.8127 67.6623 69.2017 66.7835 69.4889 65.8695C69.7638 64.9987 69.9313 64.0974 69.9874 63.1858C70.0413 62.3019 69.9759 61.415 69.7927 60.5487C69.6034 59.6632 69.2811 58.8115 68.8371 58.0222Z" fill="#D4A324"/>
</svg>
