<svg width="62" height="74" viewBox="0 0 62 74" fill="none" xmlns="http://www.w3.org/2000/svg">
<path d="M54.3884 7.14245C53.9768 6.45505 53.0858 6.23132 52.3981 6.64266C51.7105 7.05428 51.4867 7.94532 51.8981 8.633C56.2834 15.9603 58.7865 25.4703 59.0063 35.5492H55.2241C55.016 26.9405 52.9623 18.7933 49.3856 12.4706C47.3362 8.84849 44.8616 5.9398 42.0313 3.82502C38.6852 1.32261 34.8706 0 30.9999 0C27.1293 0 23.3146 1.32261 19.9689 3.82459C17.1381 5.93951 14.6637 8.84835 12.6141 12.4706C9.03741 18.7931 6.98377 26.9403 6.77564 35.549H2.99341C3.21309 25.4703 5.71652 15.9602 10.1016 8.63271C10.5131 7.94503 10.2892 7.05399 9.60181 6.64237C8.91369 6.23118 8.02309 6.45491 7.61147 7.14216C2.75074 15.2645 0.0737305 25.8681 0.0737305 37C0.0737305 48.1319 2.75074 58.7355 7.61147 66.8576C7.88333 67.3117 8.36433 67.5636 8.85805 67.5636C9.11156 67.5636 9.36853 67.497 9.60181 67.3573C10.2893 66.9457 10.5132 66.0547 10.1016 65.367C5.71637 58.0398 3.21309 48.5297 2.99341 38.451H6.77564C6.98377 47.0597 9.03741 55.2069 12.6141 61.5296C14.6636 65.1516 17.1381 68.0605 19.9685 70.1751C23.3146 72.6774 27.1293 74 30.9999 74C34.8706 74 38.6852 72.6774 42.031 70.1754C44.8616 68.0605 47.3362 65.1517 49.3858 61.5294C52.9625 55.2069 55.0161 47.0597 55.2242 38.451H59.0065C58.7866 48.5297 56.2834 58.0398 51.8983 65.3671C51.4868 66.0548 51.7107 66.9459 52.3982 67.3575C52.6316 67.4971 52.8885 67.5637 53.142 67.5637C53.6354 67.5637 54.1166 67.3118 54.3886 66.8577C59.2491 58.7355 61.9263 48.1319 61.9263 37C61.9263 25.8681 59.249 15.2645 54.3884 7.14245ZM46.8602 60.1003C45.0099 63.3702 42.8006 65.9778 40.2939 67.8509C37.4531 69.9752 34.2392 71.0981 31.0001 71.0981C27.761 71.0981 24.5471 69.9754 21.7059 67.8506C19.1994 65.9778 16.9901 63.3703 15.1401 60.1006C11.6056 53.8526 9.65919 45.6486 9.65919 37.0001C9.65919 28.3517 11.6057 20.1477 15.14 13.8999C16.9902 10.63 19.1995 8.02235 21.7063 6.14937C24.5469 4.02476 27.7607 2.9019 30.9999 2.9019C34.2392 2.9019 37.453 4.02462 40.2942 6.14937C42.8006 8.02221 45.0098 10.6297 46.8599 13.8994C50.3944 20.1474 52.3408 28.3514 52.3408 36.9999C52.3408 45.6483 50.3944 53.8526 46.8602 60.1003Z" fill="#0E2A45"/>
<path d="M46.8661 22.118C46.8649 22.114 46.8636 22.1101 46.8623 22.1061C46.8599 22.0987 46.8577 22.091 46.8554 22.0835C45.3632 17.4302 43.1811 13.5049 40.5449 10.7319C37.704 7.74326 34.4034 6.16382 31 6.16382C27.5626 6.16382 24.2357 7.77202 21.3794 10.814C18.7769 13.5813 16.6208 17.4782 15.1451 22.0826C15.1426 22.0902 15.1405 22.098 15.138 22.1056C15.1367 22.11 15.1353 22.1141 15.1341 22.1185C13.6865 26.6381 12.921 31.7826 12.9209 36.9993C12.9209 36.9999 12.9209 37.0004 12.9209 37.0012C12.921 42.2131 13.6865 47.3574 15.1338 51.8808C15.1354 51.8861 15.1371 51.8913 15.1387 51.8965C15.1409 51.9031 15.1428 51.9098 15.1448 51.9166C16.6209 56.5221 18.7767 60.4193 21.3787 63.1855C24.2357 66.2283 27.5626 67.8366 31.0002 67.8366C34.4377 67.8366 37.7645 66.2284 40.6207 63.1865C43.2235 60.4193 45.3794 56.5223 46.8552 51.9178C46.8577 51.9103 46.8599 51.9025 46.8623 51.8948C46.8636 51.8905 46.8651 51.8863 46.8662 51.882C48.3139 47.3623 49.0793 42.2179 49.0794 37.0012C49.0794 37.0006 49.0794 37 49.0794 36.9993C49.0791 31.782 48.3136 26.6371 46.8661 22.118ZM31 9.06572C36.1501 9.06572 41.0111 14.049 43.813 22.1348L39.314 26.6338L33.0521 20.3718L34.6306 18.7933C35.1972 18.2267 35.1972 17.3079 34.6306 16.7412C34.0639 16.1748 33.1454 16.1748 32.5786 16.7412L31 18.3196L24.5022 11.8218C26.5362 10.0157 28.7602 9.06572 31 9.06572ZM28.948 37L22.686 43.262L16.4239 37L22.6859 30.738L28.948 37ZM24.7381 28.6858L31 22.4239L37.262 28.6858L31 34.9479L24.7381 28.6858ZM31 39.0521L37.262 45.314L31 51.5763L24.7381 45.3142L31 39.0521ZM33.0521 37L39.314 30.738L45.5761 37L39.3142 43.262L33.0521 37ZM22.5146 13.9383L28.9481 20.3718L22.686 26.6339L18.187 22.135C19.308 18.9018 20.7848 16.1089 22.5146 13.9383ZM17.2418 25.2938L20.634 28.686L15.9543 33.3659C16.1564 30.572 16.5908 27.8487 17.2418 25.2938ZM15.9542 40.6345L20.6338 45.314L17.2421 48.7057C16.5913 46.1498 16.1565 43.4267 15.9542 40.6345ZM18.1872 51.865L22.686 47.3662L28.948 53.6283L22.5146 60.0617C20.7853 57.8917 19.3083 55.0988 18.1872 51.865ZM31 64.9343C28.7605 64.9343 26.5366 63.9844 24.5023 62.1781L31 55.6804L37.4977 62.1782C35.4639 63.9843 33.2398 64.9343 31 64.9343ZM39.4854 60.0617L33.0521 53.6282L39.314 47.3661L43.813 51.865C42.692 55.0982 41.2152 57.8911 39.4854 60.0617ZM44.7584 48.7062L41.3662 45.314L46.0459 40.6342C45.8438 43.428 45.4092 46.1513 44.7584 48.7062ZM41.3662 28.6858L44.7584 25.2937C45.4095 27.8483 45.844 30.5717 46.046 33.3656L41.3662 28.6858Z" fill="#0E2A45"/>
<path d="M36.5137 13.3005C34.6465 13.3005 34.6433 16.2024 36.5137 16.2024C38.3809 16.2026 38.384 13.3005 36.5137 13.3005Z" fill="#0E2A45"/>
</svg>
