<svg width="80" height="80" viewBox="0 0 80 80" fill="none" xmlns="http://www.w3.org/2000/svg">
<path d="M79.1596 54.3265L52.3514 7.89304C51.726 6.8096 50.716 6.03429 49.5078 5.7096L29.0492 0.215685C28.3595 0.0305287 27.6566 -0.0341589 26.9647 0.0167786C26.9042 0.00974737 26.843 0.00505987 26.7806 0.00505987H5.71919C3.18168 0.00505987 0.98215 1.63662 0.245899 4.06491C-0.230664 5.6371 -0.00800775 7.3396 0.85715 8.73616C1.72231 10.1327 3.14747 11.0904 4.76715 11.3638L12.4167 12.6551L8.24794 16.8191C7.36138 17.7048 6.87325 18.8826 6.87325 20.1356V73.75C6.87325 77.1963 9.677 80 13.1233 80H42.1856C43.9536 80 45.6192 79.2442 46.79 77.9691C46.8469 77.9859 46.9033 78.0039 46.961 78.0194C47.4994 78.1636 48.0458 78.235 48.5886 78.235C49.6716 78.235 50.7405 77.9509 51.7035 77.395L76.8723 62.8639C78.318 62.0292 79.3523 60.6814 79.7843 59.0689C80.2162 57.4564 79.9943 55.7723 79.1596 54.3265ZM5.28747 8.28257C4.542 8.15663 3.912 7.73335 3.51387 7.09054C3.11559 6.44772 3.01715 5.69522 3.23653 4.97163C3.57043 3.87006 4.56825 3.13006 5.71934 3.13006H21.9525L15.1308 9.94413L5.28747 8.28257ZM20.1166 9.38085L19.7556 10.7249L18.9133 10.5827L20.1166 9.38085ZM42.1858 76.8752H17.4981V63.1275C17.4981 62.2645 16.7986 61.565 15.9356 61.565C15.0726 61.565 14.3731 62.2645 14.3731 63.1275V76.8753H13.1231C11.4 76.8753 9.9981 75.4734 9.9981 73.7503V20.1356C9.9981 19.7179 10.1609 19.3252 10.4564 19.0301L16.1994 13.2935L18.9415 13.7565L15.8909 25.1162C15.5659 26.3263 15.7319 27.5906 16.3586 28.6757L43.166 75.1073C43.4111 75.5322 43.7017 75.9203 44.0294 76.2691C43.5017 76.6552 42.8586 76.8752 42.1858 76.8752ZM76.7655 58.2601C76.5496 59.0664 76.0324 59.7403 75.3096 60.1576L50.1408 74.6887C49.4178 75.1061 48.5757 75.2167 47.7696 75.0009C46.9633 74.7848 46.2894 74.2678 45.8721 73.5448L19.0647 27.1135C18.8559 26.7518 18.8005 26.3304 18.9087 25.9271L22.0367 14.2793L26.7166 15.0693C26.8252 15.6585 27.035 16.2312 27.3434 16.7654C28.053 17.9943 29.1986 18.8734 30.5692 19.2406C31.0269 19.3632 31.4914 19.4238 31.9528 19.4238C32.8734 19.4238 33.7819 19.1824 34.6005 18.7098C35.8294 18.0002 36.7084 16.8546 37.0756 15.484C37.443 14.1134 37.2545 12.6816 36.545 11.4527C35.8355 10.2238 34.6898 9.34476 33.3192 8.97757C31.9486 8.61023 30.5169 8.79882 29.288 9.5082C28.298 10.0798 27.5355 10.9348 27.0842 11.9619L22.8509 11.2474L24.4102 5.44132C24.6267 4.63522 25.1441 3.96163 25.8672 3.5446C26.3484 3.2671 26.8822 3.12538 27.4231 3.12538C27.6952 3.12538 27.9689 3.16116 28.2386 3.23366L40.0881 6.41585C40.0989 6.43663 40.1083 6.45788 40.1202 6.47835L47.6996 19.606C47.9889 20.1074 48.5141 20.3874 49.0541 20.3874C49.3191 20.3874 49.5878 20.3199 49.8339 20.1779C50.5813 19.7465 50.8374 18.7909 50.4058 18.0435L44.3539 7.56148L48.6971 8.72773C49.0999 8.83585 49.4364 9.09445 49.645 9.45554L76.4533 55.8889C76.8708 56.6119 76.9815 57.4539 76.7655 58.2601ZM30.6758 12.5684L30.4352 12.5277C30.5598 12.4091 30.6977 12.3029 30.8505 12.2146C31.1875 12.0199 31.5616 11.9207 31.9406 11.9207C32.1306 11.9207 32.3219 11.9457 32.5103 11.9962C33.0747 12.1474 33.5464 12.5093 33.8386 13.0154C34.1308 13.5215 34.2083 14.1109 34.057 14.6754C33.9058 15.2398 33.5439 15.7115 33.0378 16.0037C32.5319 16.296 31.9423 16.3735 31.3778 16.2221C31.0084 16.1232 30.6802 15.9326 30.4145 15.6718C30.4156 15.6716 30.4166 15.6718 30.4177 15.6718C31.1663 15.6718 31.8277 15.132 31.9564 14.3691C32.1 13.5182 31.5267 12.7119 30.6758 12.5684Z" fill="#79B5C5"/>
<path d="M17.0401 54.0398C16.7495 53.7492 16.3464 53.582 15.9354 53.582C15.5245 53.582 15.1214 53.7492 14.8307 54.0398C14.5401 54.3305 14.3729 54.7336 14.3729 55.1461C14.3729 55.5555 14.5401 55.9586 14.8307 56.2508C15.1214 56.5414 15.5245 56.707 15.9354 56.707C16.3464 56.707 16.7495 56.5414 17.0401 56.2508C17.3307 55.9586 17.4979 55.557 17.4979 55.1461C17.4978 54.7336 17.3306 54.3305 17.0401 54.0398Z" fill="#79B5C5"/>
<path d="M54.1495 24.6336C53.8589 24.343 53.4557 24.1758 53.0448 24.1758C52.6323 24.1758 52.2307 24.343 51.9386 24.6336C51.6479 24.9242 51.4823 25.3273 51.4823 25.7383C51.4823 26.1508 51.6479 26.5523 51.9386 26.843C52.2307 27.1352 52.6339 27.3008 53.0448 27.3008C53.4557 27.3008 53.8573 27.1352 54.1495 26.843C54.4401 26.5523 54.6073 26.1492 54.6073 25.7383C54.6073 25.3273 54.4401 24.9258 54.1495 24.6336Z" fill="#79B5C5"/>
</svg>
