<svg width="80" height="80" viewBox="0 0 80 80" fill="none" xmlns="http://www.w3.org/2000/svg">
<path d="M40 5.33326C38.0541 5.32951 36.3892 6.72998 36.0595 8.64763C35.7299 10.5654 36.8313 12.4414 38.6667 13.0878V14.6665C38.6667 15.4029 39.2636 15.9998 40 15.9998C40.7364 15.9998 41.3333 15.4028 41.3333 14.6665V13.0879C43.1688 12.4415 44.2702 10.5654 43.9405 8.64779C43.6108 6.72998 41.9459 5.32967 40 5.33326ZM40 10.6667C39.2636 10.6667 38.6667 10.0698 38.6667 9.33341C38.6667 8.59701 39.2636 7.99998 40 7.99998C40.7364 7.99998 41.3333 8.59685 41.3333 9.33326C41.3333 10.0697 40.7364 10.6667 40 10.6667Z" fill="#79B5C5"/>
<path d="M79.9573 10.8933C79.9783 10.8192 79.9927 10.7433 80 10.6666V4C80 1.79078 78.2092 0 76 0H4C1.79078 0 0 1.79078 0 4V10.6667C0.008125 10.7441 0.02375 10.8205 0.0467188 10.8947C0.05125 10.9758 0.06375 11.0561 0.0840625 11.1347L7.95078 32.1027L0.029375 69.0547C0.0260937 69.1017 0.0260937 69.1489 0.029375 69.1961C0.0170312 69.2412 0.0071875 69.2872 0 69.3334V76C0 78.2092 1.79078 80 4 80H76C78.2091 80 80 78.2092 80 76V69.3333C79.9931 69.2884 79.9837 69.2439 79.972 69.2C79.9753 69.153 79.9753 69.1058 79.972 69.0586L72.052 32.1027L79.9188 11.1347C79.9389 11.0556 79.9519 10.9748 79.9573 10.8933ZM33.3333 2.66672H46.6666V18.6667H33.3333V2.66672ZM77.3333 76C77.3333 76.7364 76.7364 77.3333 76 77.3333H4C3.26359 77.3333 2.66672 76.7364 2.66672 76V70.6667H77.3334V76H77.3333ZM77.3333 9.33328H53.3333C52.5969 9.33328 52 9.93016 52 10.6666C52 11.403 52.597 11.9998 53.3333 11.9998H76.7427L69.4173 31.5319C69.4041 31.5678 69.4106 31.6039 69.4 31.6398C69.3772 31.727 69.3634 31.8164 69.3586 31.9066C69.3492 31.9952 69.3492 32.0845 69.3586 32.1733C69.3586 32.2106 69.3519 32.2453 69.3586 32.2827L77.0173 68H2.98266L10.412 33.3333H65.3334C66.0698 33.3333 66.6667 32.7363 66.6667 32C66.6667 31.2638 66.0698 30.6667 65.3334 30.6667H10.2573L3.25734 12H26.6667C27.4031 12 28 11.4031 28 10.6667C28 9.93031 27.4031 9.33344 26.6667 9.33344H2.66672V4C2.66672 3.26359 3.26359 2.66672 4 2.66672H30.6667V18.6667C30.6667 20.1395 31.8606 21.3334 33.3334 21.3334H46.6667C48.1395 21.3334 49.3334 20.1395 49.3334 18.6667V2.66672H76C76.7364 2.66672 77.3333 3.26359 77.3333 4V9.33328Z" fill="#79B5C5"/>
</svg>
