<svg width="130" height="121" viewBox="0 0 130 121" xmlns="http://www.w3.org/2000/svg" fill="none"><path d="M52.937 25.93l3.265 4.473-.107.135-3.994-3.559-1.32 14.791-.188.014c-.414-4.672-.828-9.347-1.263-14.274l-2.417 1.888-.177-.149 2.109-3.304-17.225-1.486-.002-.226c5.432-.474 10.862-.95 16.505-1.443l-2.846-3.977.105-.156 3.941 2.939c.434-4.617.847-9.034 1.261-13.452l.188-.007c.458 4.533.913 9.063 1.395 13.841l4.951-4.386.09.108c-1.163 1.657-2.323 3.311-3.641 5.192 12.542.274 24.812.541 37.082.81v.101c-12.474.705-24.943 1.409-37.708 2.128zM92.303 24.946c-7.845 8.503-15.554 16.864-23.264 25.223l.197.226c6.166-6.461 12.331-12.923 18.622-19.514.773 1.522 1.506 2.96 2.317 4.552-9.253 7.406-18.482 14.796-27.713 22.186l-.134-.149c1.684-2.121 3.361-4.249 5.051-6.365 6.634-8.306 13.284-16.6 19.896-24.925.652-.82 1.344-1.277 2.33-1.241.821.031 1.644.007 2.698.007zM60.27 57.496c-9.185-7.279-18.368-14.556-27.621-21.888l2.262-4.275c4.626 4.768 9.161 9.443 13.159 13.565-5.48-6.185-11.473-12.944-17.542-19.793 1.152.06 2.268.082 3.376.197.28.029.589.303.793.553 8.511 10.391 17.01 20.793 25.508 31.194l.18.298-.114.149zM81.778 22.537c-3.315 0-6.483.002-9.649-.002-.773 0-.596-.652-.591-1.13.035-3.804.094-7.611.125-11.415.02-2.393.004-4.785.004-7.178l.372-.252c.162.293.291.62.493.878 1.9 2.429 3.84 4.824 5.706 7.284.495.652.904 1.455 1.136 2.263.806 2.823 1.52 5.68 2.26 8.527.066.264.077.546.144 1.027zM63.795 54.188l-1.826 2.939-.096-.041c.749-2.744 1.487-5.492 2.249-8.234 2.082-7.503 4.189-14.998 6.236-22.513.232-.854.567-1.174 1.344-1.159 1.885.034 3.77.01 5.793.01-1.001 2.082-1.975 4.127-2.963 6.163-3.271 6.75-6.551 13.495-9.816 20.248-.184.382-.271.82-.403 1.231l-.519 1.356zM30 23.665c4.745-6.666 9.292-13.055 13.84-19.442l.191.072c-.517 3.191-1.038 6.38-1.552 9.571-.427 2.64-.825 5.286-1.298 7.914-.072.404-.451 1.027-.727 1.053-3.374.322-6.755.553-10.453.832zM78.485 3.9l14.613 19.055c-1.171 0-2.065.012-2.956-.002-2.295-.034-4.587-.087-6.882-.111-.53-.005-.861-.128-1.001-.796-1.217-5.757-2.47-11.506-3.707-17.259-.042-.192-.033-.392-.068-.887zM55.46 21.801c1.664-2.573 3.234-4.999 4.802-7.426l-.149-.195-3.508 1.736-.081-.152 4.675-4.153c3.17 3.388 6.288 6.719 9.538 10.191-5.145-.002-10.111-.002-15.276-.002zM61.317 52.646l-7.166-22.198.193-.099 6.938 12.637c2.595-5.456 5.093-10.711 7.591-15.965l.173.067c-2.498 8.505-4.994 17.011-7.493 25.516l-.236.041zM63.795 54.188l.519-1.354c1.125-1.912 2.277-3.804 3.37-5.735 4-7.067 7.99-14.142 11.963-21.229.379-.673.775-1.046 1.552-1 1.303.075 2.612.022 3.978.022-.105.185-.21.421-.355.62-6.82 9.381-13.643 18.757-20.472 28.13-.155.209-.37.365-.556.546zM68.159 17.487l-6.772-7.911-6.157 6.399-.234-.183c2.207-5.184 4.414-10.372 6.722-15.792 2.332 5.87 4.569 11.497 6.805 17.124l-.364.363zM48.729 18.54l-4.473-3.398-1.259 1.599c-.341-1.46.313-5.052 1.09-6.108 2.179-2.951 4.357-5.899 6.538-8.845.221-.298.466-.577.825-1.017v5.774l-.14.038-.486-3.338-.225-.014c-.615 5.033-1.228 10.066-1.87 15.308zM60.331 55.597c-2.352-5.94-4.545-11.963-7.118-17.788-1.283-2.907-1.34-5.709-.906-8.698.015-.111.079-.214.201-.539 2.706 9.116 5.358 18.047 8.007 26.981l-.184.043zM36.096 25.66c1.154 0 2.102-.055 3.039.029.337.031.775.313.953.625 2.627 4.658 5.22 9.34 7.692 14.132-3.864-4.889-7.727-9.78-11.683-14.787zM16.755 85.422c1.404 0 2.478.348 3.222 1.044.744.684 1.116 1.596 1.116 2.736 0 1.08-.366 1.986-1.098 2.718-.72.72-1.932 1.08-3.636 1.08l-.774-.018c-.504-.024-1.002-.036-1.494-.036-.912 0-1.62.018-2.124.054v-.36c.432-.024.744-.072.936-.144.204-.072.342-.21.414-.414.072-.204.108-.534.108-.99v-8.928c0-.456-.036-.786-.108-.99-.072-.204-.21-.342-.414-.414-.192-.072-.504-.12-.936-.144v-.36c1.176.036 2.916.054 5.22.054 1.512 0 2.586-.018 3.222-.054-.084.792-.126 1.5-.126 2.124 0 .468.018.84.054 1.116h-.414c-.084-.78-.192-1.356-.324-1.728-.132-.384-.354-.66-.666-.828-.312-.18-.786-.27-1.422-.27h-.954c-.432 0-.75.036-.954.108-.192.06-.324.192-.396.396-.072.204-.108.534-.108.99v3.294l1.656-.036zm-.45 7.218c1.14 0 1.92-.3 2.34-.9.432-.6.648-1.44.648-2.52 0-1.212-.24-2.088-.72-2.628-.48-.552-1.29-.828-2.43-.828-.42 0-.768.006-1.044.018v5.31c0 .444.03.774.09.99.06.216.168.366.324.45.168.072.432.108.792.108zm11.893-9.162c.636 0 1.206.174 1.71.522.516.348.918.858 1.206 1.53.288.672.432 1.476.432 2.412 0 .924-.15 1.788-.45 2.592-.288.804-.744 1.458-1.368 1.962-.612.504-1.38.756-2.304.756-.456 0-.87-.09-1.242-.27-.372-.18-.66-.414-.864-.702v2.304c0 .492.144.828.432 1.008.288.192.72.288 1.296.288v.378l-.414-.018c-1.116-.036-1.842-.054-2.178-.054-.288 0-.936.024-1.944.072v-.378c.444 0 .75-.084.918-.252.18-.156.27-.444.27-.864v-9.072c0-.552-.102-.954-.306-1.206-.204-.252-.558-.378-1.062-.378v-.378c.372.036.744.054 1.116.054.756 0 1.38-.084 1.872-.252v1.908c.264-.624.648-1.104 1.152-1.44.504-.348 1.08-.522 1.728-.522zm-.972 9.36c1.716 0 2.574-1.548 2.574-4.644 0-2.784-.696-4.176-2.088-4.176-.54 0-1.026.198-1.458.594-.432.384-.744.942-.936 1.674v5.4c.168.348.414.63.738.846.324.204.714.306 1.17.306zm15.913-8.712c-.504 0-.858.096-1.062.288-.204.18-.306.516-.306 1.008v5.904c0 .492.102.834.306 1.026.204.18.558.27 1.062.27v.378c-1.104-.048-1.824-.072-2.16-.072-.336 0-1.008.024-2.016.072v-.378c.444 0 .75-.09.918-.27.18-.192.27-.534.27-1.026v-5.472l-4.23 5.85c.036.336.144.576.324.72.18.132.462.198.846.198v.378c-1.008-.048-1.68-.072-2.016-.072-.336 0-1.056.024-2.16.072v-.378c.504 0 .858-.09 1.062-.27.204-.192.306-.534.306-1.026v-5.904c0-.492-.102-.828-.306-1.008-.204-.192-.558-.288-1.062-.288v-.378c1.104.048 1.824.072 2.16.072.336 0 1.008-.024 2.016-.072v.378c-.444 0-.756.096-.936.288-.168.18-.252.516-.252 1.008v5.688l4.248-5.85c-.012-.432-.108-.726-.288-.882-.18-.168-.48-.252-.9-.252v-.378c1.008.048 1.68.072 2.016.072.336 0 1.056-.024 2.16-.072v.378zm10.134 0c-.504 0-.858.096-1.062.288-.204.18-.306.516-.306 1.008v5.904c0 .492.102.834.306 1.026.204.18.558.27 1.062.27v.378c-1.104-.048-1.836-.072-2.196-.072-.276 0-.972.018-2.088.054l-.432.018v-.378c.576 0 1.008-.09 1.296-.27.288-.192.432-.534.432-1.026v-5.904c0-.492-.09-.828-.27-1.008-.168-.192-.474-.288-.918-.288h-.162c-.288 0-.486.09-.594.27-.096.168-.168.51-.216 1.026-.132 1.428-.27 2.598-.414 3.51-.132.9-.342 1.71-.63 2.43-.516 1.26-1.194 1.89-2.034 1.89-.348 0-.648-.096-.9-.288-.24-.192-.36-.456-.36-.792 0-.288.09-.516.27-.684.18-.18.414-.27.702-.27.264 0 .48.078.648.234.168.144.252.354.252.63 0 .42-.228.714-.684.882l.18.018c.384 0 .708-.174.972-.522.276-.348.498-.744.666-1.188.48-1.236.816-3.186 1.008-5.85.036-.48-.066-.816-.306-1.008-.228-.192-.6-.288-1.116-.288v-.378c.528.048.936.072 1.224.072h3.492c.348 0 1.074-.024 2.178-.072v.378zm10.143 0c-.504 0-.858.096-1.062.288-.204.18-.306.516-.306 1.008v5.904c0 .492.102.834.306 1.026.204.18.558.27 1.062.27v.378c-1.104-.048-1.836-.072-2.196-.072-.276 0-.972.018-2.088.054l-.432.018v-.378c.576 0 1.008-.09 1.296-.27.288-.192.432-.534.432-1.026v-5.904c0-.492-.09-.828-.27-1.008-.168-.192-.474-.288-.918-.288h-.162c-.288 0-.486.09-.594.27-.096.168-.168.51-.216 1.026-.132 1.428-.27 2.598-.414 3.51-.132.9-.342 1.71-.63 2.43-.516 1.26-1.194 1.89-2.034 1.89-.348 0-.648-.096-.9-.288-.24-.192-.36-.456-.36-.792 0-.288.09-.516.27-.684.18-.18.414-.27.702-.27.264 0 .48.078.648.234.168.144.252.354.252.63 0 .42-.228.714-.684.882l.18.018c.384 0 .708-.174.972-.522.276-.348.498-.744.666-1.188.48-1.236.816-3.186 1.008-5.85.036-.48-.066-.816-.306-1.008-.228-.192-.6-.288-1.116-.288v-.378c.528.048.936.072 1.224.072h3.492c.348 0 1.074-.024 2.178-.072v.378zm11.277 0c-.504 0-.858.096-1.062.288-.204.18-.306.516-.306 1.008v5.904c0 .492.102.834.306 1.026.204.18.558.27 1.062.27v.378c-1.104-.048-1.824-.072-2.16-.072-.336 0-1.008.024-2.016.072v-.378c.444 0 .75-.09.918-.27.18-.192.27-.534.27-1.026v-5.472l-4.23 5.85c.036.336.144.576.324.72.18.132.462.198.846.198v.378c-1.008-.048-1.68-.072-2.016-.072-.336 0-1.056.024-2.16.072v-.378c.504 0 .858-.09 1.062-.27.204-.192.306-.534.306-1.026v-5.904c0-.492-.102-.828-.306-1.008-.204-.192-.558-.288-1.062-.288v-.378c1.104.048 1.824.072 2.16.072.336 0 1.008-.024 2.016-.072v.378c-.444 0-.756.096-.936.288-.168.18-.252.516-.252 1.008v5.688l4.248-5.85c-.012-.432-.108-.726-.288-.882-.18-.168-.48-.252-.9-.252v-.378c1.008.048 1.68.072 2.016.072.336 0 1.056-.024 2.16-.072v.378zm3.456 9c-.756 0-1.32-.186-1.692-.558-.36-.384-.54-.912-.54-1.584 0-.54.144-.984.432-1.332.3-.348.648-.624 1.044-.828.408-.204.942-.42 1.602-.648.672-.228 1.17-.438 1.494-.63.324-.192.486-.45.486-.774v-1.116c0-.696-.15-1.17-.45-1.422-.288-.264-.696-.396-1.224-.396-.84 0-1.434.216-1.782.648.24.06.438.186.594.378.168.192.252.432.252.72 0 .3-.096.54-.288.72-.192.168-.438.252-.738.252-.336 0-.588-.102-.756-.306-.168-.216-.252-.474-.252-.774 0-.288.066-.528.198-.72.144-.192.354-.384.63-.576.288-.204.654-.372 1.098-.504.444-.132.93-.198 1.458-.198.936 0 1.644.222 2.124.666.3.276.498.612.594 1.008.108.384.162.894.162 1.53v5.004c0 .3.042.516.126.648.084.132.228.198.432.198.144 0 .276-.03.396-.09.132-.072.27-.168.414-.288l.198.306c-.312.24-.582.414-.81.522-.216.096-.492.144-.828.144-.576 0-.978-.144-1.206-.432-.228-.288-.342-.678-.342-1.17-.36.6-.774 1.02-1.242 1.26-.468.228-.996.342-1.584.342zm.792-.72c.792 0 1.47-.456 2.034-1.368v-3.528c-.108.168-.258.306-.45.414-.192.108-.486.252-.882.432-.456.192-.828.378-1.116.558-.276.168-.516.402-.72.702-.204.3-.306.684-.306 1.152 0 .54.132.948.396 1.224s.612.414 1.044.414zm15.715-8.28c-.504 0-.858.096-1.062.288-.204.18-.306.516-.306 1.008v5.904c0 .492.102.834.306 1.026.204.18.558.27 1.062.27v.378c-1.104-.048-1.824-.072-2.16-.072-.336 0-1.008.024-2.016.072v-.378c.444 0 .75-.09.918-.27.18-.192.27-.534.27-1.026v-2.916h-3.978v2.916c0 .492.084.834.252 1.026.18.18.492.27.936.27v.378c-1.008-.048-1.68-.072-2.016-.072-.336 0-1.056.024-2.16.072v-.378c.504 0 .858-.09 1.062-.27.204-.192.306-.534.306-1.026v-5.904c0-.492-.102-.828-.306-1.008-.204-.192-.558-.288-1.062-.288v-.378c1.104.048 1.824.072 2.16.072.336 0 1.008-.024 2.016-.072v.378c-.444 0-.756.096-.936.288-.168.18-.252.516-.252 1.008v2.628h3.978v-2.628c0-.492-.09-.828-.27-1.008-.168-.192-.474-.288-.918-.288v-.378c1.008.048 1.68.072 2.016.072.336 0 1.056-.024 2.16-.072v.378zm9.924-.378c-.084.792-.126 1.488-.126 2.088 0 .468.018.84.054 1.116h-.414c-.06-.804-.186-1.41-.378-1.818-.18-.408-.432-.678-.756-.81-.312-.144-.738-.216-1.278-.216h-.702v7.038c0 .552.156.936.468 1.152.324.216.804.324 1.44.324v.378l-.45-.018c-1.188-.036-1.944-.054-2.268-.054-.324 0-1.08.018-2.268.054l-.45.018v-.378c.636 0 1.11-.108 1.422-.324.324-.216.486-.6.486-1.152v-7.038h-.882c-.528 0-.936.072-1.224.216-.288.132-.516.402-.684.81-.156.408-.264 1.02-.324 1.836h-.414c.036-.276.054-.648.054-1.116 0-.6-.042-1.296-.126-2.088h1.728c.552 0 .972.006 1.26.018l1.404.018c.324 0 .798-.012 1.422-.036l1.278-.018h1.728zm5.286 3.852c1.248 0 2.16.234 2.736.702.588.456.882 1.08.882 1.872 0 .48-.132.936-.396 1.368-.264.42-.69.768-1.278 1.044-.576.276-1.314.414-2.214.414-.132 0-.402-.012-.81-.036-.432-.024-.774-.036-1.026-.036-.312 0-1.02.024-2.124.072v-.378c.504 0 .858-.09 1.062-.27.204-.192.306-.534.306-1.026v-5.904c0-.492-.09-.828-.27-1.008-.168-.192-.474-.288-.918-.288v-.378c1.008.048 1.68.072 2.016.072.336 0 1.056-.024 2.16-.072v.378c-.504 0-.858.096-1.062.288-.204.18-.306.516-.306 1.008v2.178h1.242zm7.074 3.726c0 .492.102.834.306 1.026.204.18.558.27 1.062.27v.378c-1.104-.048-1.836-.072-2.196-.072-.312 0-.972.024-1.98.072v-.378c.444 0 .75-.09.918-.27.18-.192.27-.534.27-1.026v-5.904c0-.492-.09-.828-.27-1.008-.168-.192-.474-.288-.918-.288v-.378c1.008.048 1.668.072 1.98.072.336 0 1.008-.024 2.016-.072v.378c-.444 0-.756.096-.936.288-.168.18-.252.516-.252 1.008v5.904zm-7.542 1.296c.888 0 1.506-.21 1.854-.63.36-.432.54-1.002.54-1.71 0-.828-.234-1.428-.702-1.8-.468-.384-1.23-.576-2.286-.576h-.18v3.42c0 .48.054.816.162 1.008.12.192.324.288.612.288zm-76.154 23.478c-.264.396-.534.69-.81.882-.276.18-.648.27-1.116.27-.48 0-.882-.138-1.206-.414-.312-.276-.552-.786-.72-1.53l-.504-2.232c-.144-.612-.288-1.08-.432-1.404-.132-.336-.36-.6-.684-.792-.312-.204-.756-.306-1.332-.306h-1.188v4.518c0 .456.036.786.108.99.072.204.204.342.396.414.204.072.522.12.954.144v.36c-.552-.036-1.314-.054-2.286-.054-1.032 0-1.8.018-2.304.054v-.36c.432-.024.744-.072.936-.144.204-.072.342-.21.414-.414.072-.204.108-.534.108-.99v-8.928c0-.456-.036-.786-.108-.99-.072-.204-.21-.342-.414-.414-.192-.072-.504-.12-.936-.144v-.36c.504.036 1.272.054 2.304.054.96 0 1.722-.018 2.286-.054v.36c-.432.024-.75.072-.954.144-.192.072-.324.21-.396.414-.072.204-.108.534-.108.99v4.068c.888-.012 1.596-.36 2.124-1.044l1.728-2.196c.612-.756.918-1.332.918-1.728 0-.42-.372-.636-1.116-.648v-.36c.684.036 1.374.054 2.07.054.66 0 1.17-.018 1.53-.054v.36c-.816.12-1.524.558-2.124 1.314l-3.384 4.32c.96.036 1.74.246 2.34.63.612.372 1.026 1.026 1.242 1.962l.522 2.268c.132.576.252.966.36 1.17.12.204.294.306.522.306.204 0 .372-.054.504-.162.144-.108.306-.282.486-.522l.27.198zm5.005-8.622c1.224 0 2.208.408 2.952 1.224.756.804 1.134 2.028 1.134 3.672 0 1.644-.378 2.868-1.134 3.672-.744.804-1.728 1.206-2.952 1.206s-2.214-.402-2.97-1.206c-.744-.804-1.116-2.028-1.116-3.672 0-1.644.372-2.868 1.116-3.672.756-.816 1.746-1.224 2.97-1.224zm0 .36c-.72 0-1.29.372-1.71 1.116-.42.732-.63 1.872-.63 3.42 0 1.548.21 2.688.63 3.42.42.732.99 1.098 1.71 1.098s1.29-.366 1.71-1.098c.42-.732.63-1.872.63-3.42 0-1.548-.21-2.688-.63-3.42-.42-.744-.99-1.116-1.71-1.116zm9.951-.36c.804 0 1.5.192 2.088.576.564.372.846.834.846 1.386 0 .312-.09.558-.27.738-.18.18-.408.27-.684.27-.276 0-.51-.078-.702-.234-.192-.168-.288-.39-.288-.666 0-.252.072-.462.216-.63.144-.18.324-.3.54-.36-.12-.216-.336-.396-.648-.54-.3-.144-.624-.216-.972-.216-.444 0-.858.144-1.242.432-.384.276-.702.744-.954 1.404-.252.648-.378 1.506-.378 2.574 0 1.488.24 2.574.72 3.258.48.672 1.104 1.008 1.872 1.008.516 0 1.002-.15 1.458-.45.468-.3.852-.768 1.152-1.404l.342.126c-.204.684-.588 1.272-1.152 1.764-.552.492-1.272.738-2.16.738-.744 0-1.422-.192-2.034-.576-.6-.384-1.074-.936-1.422-1.656-.348-.732-.522-1.578-.522-2.538 0-.972.174-1.836.522-2.592.36-.756.858-1.344 1.494-1.764.636-.432 1.362-.648 2.178-.648zm13.128.27c-.084.792-.126 1.488-.126 2.088 0 .468.018.84.054 1.116h-.414c-.06-.804-.186-1.41-.378-1.818-.18-.408-.432-.678-.756-.81-.312-.144-.738-.216-1.278-.216h-.702v7.038c0 .552.156.936.468 1.152.324.216.804.324 1.44.324v.378l-.45-.018c-1.188-.036-1.944-.054-2.268-.054-.324 0-1.08.018-2.268.054l-.45.018v-.378c.636 0 1.11-.108 1.422-.324.324-.216.486-.6.486-1.152v-7.038h-.882c-.528 0-.936.072-1.224.216-.288.132-.516.402-.684.81-.156.408-.264 1.02-.324 1.836h-.414c.036-.276.054-.648.054-1.116 0-.6-.042-1.296-.126-2.088h1.728c.552 0 .972.006 1.26.018l1.404.018c.324 0 .798-.012 1.422-.036l1.278-.018h1.728zm6.835-.27c.636 0 1.206.174 1.71.522.516.348.918.858 1.206 1.53.288.672.432 1.476.432 2.412 0 .924-.15 1.788-.45 2.592-.288.804-.744 1.458-1.368 1.962-.612.504-1.38.756-2.304.756-.456 0-.87-.09-1.242-.27-.372-.18-.66-.414-.864-.702v2.304c0 .492.144.828.432 1.008.288.192.72.288 1.296.288v.378l-.414-.018c-1.116-.036-1.842-.054-2.178-.054-.288 0-.936.024-1.944.072v-.378c.444 0 .75-.084.918-.252.18-.156.27-.444.27-.864v-9.072c0-.552-.102-.954-.306-1.206-.204-.252-.558-.378-1.062-.378v-.378c.372.036.744.054 1.116.054.756 0 1.38-.084 1.872-.252v1.908c.264-.624.648-1.104 1.152-1.44.504-.348 1.08-.522 1.728-.522zm-.972 9.36c1.716 0 2.574-1.548 2.574-4.644 0-2.784-.696-4.176-2.088-4.176-.54 0-1.026.198-1.458.594-.432.384-.744.942-.936 1.674v5.4c.168.348.414.63.738.846.324.204.714.306 1.17.306zm10.099-9.36c1.224 0 2.208.408 2.952 1.224.756.804 1.134 2.028 1.134 3.672 0 1.644-.378 2.868-1.134 3.672-.744.804-1.728 1.206-2.952 1.206s-2.214-.402-2.97-1.206c-.744-.804-1.116-2.028-1.116-3.672 0-1.644.372-2.868 1.116-3.672.756-.816 1.746-1.224 2.97-1.224zm0 .36c-.72 0-1.29.372-1.71 1.116-.42.732-.63 1.872-.63 3.42 0 1.548.21 2.688.63 3.42.42.732.99 1.098 1.71 1.098s1.29-.366 1.71-1.098c.42-.732.63-1.872.63-3.42 0-1.548-.21-2.688-.63-3.42-.42-.744-.99-1.116-1.71-1.116zm17.205.252c-.432.024-.75.072-.954.144-.192.072-.324.21-.396.414-.072.204-.108.534-.108.99v5.454c0 .456.036.786.108.99.072.204.204.342.396.414.204.072.522.12.954.144v.36c-.552-.036-1.296-.054-2.232-.054-1.032 0-1.8.018-2.304.054v-.36c.432-.024.744-.072.936-.144.204-.072.342-.21.414-.414.072-.204.108-.534.108-.99v-6.318l-3.348 8.316h-.288l-3.204-8.208v6.21c0 .456.036.786.108.99.072.204.204.342.396.414.204.072.522.12.954.144v.36c-.432-.036-.978-.054-1.638-.054-.72 0-1.278.018-1.674.054v-.36c.432-.024.744-.072.936-.144.204-.072.342-.21.414-.414.072-.204.108-.534.108-.99v-5.454c0-.456-.036-.786-.108-.99-.072-.204-.21-.342-.414-.414-.192-.072-.504-.12-.936-.144v-.36c.396.036.954.054 1.674.054.528 0 .99-.018 1.386-.054l2.754 7.29 2.88-7.236h.846c.912 0 1.656-.018 2.232-.054v.36zm5.219 3.51c1.248 0 2.16.234 2.736.702.588.456.882 1.08.882 1.872 0 .48-.132.936-.396 1.368-.264.42-.69.768-1.278 1.044-.576.276-1.314.414-2.214.414-.132 0-.402-.012-.81-.036-.432-.024-.774-.036-1.026-.036-.312 0-1.02.024-2.124.072v-.378c.504 0 .858-.09 1.062-.27.204-.192.306-.534.306-1.026v-5.904c0-.492-.09-.828-.27-1.008-.168-.192-.474-.288-.918-.288v-.378c1.008.048 1.68.072 2.016.072.336 0 1.056-.024 2.16-.072v.378c-.504 0-.858.096-1.062.288-.204.18-.306.516-.306 1.008v2.178h1.242zm7.074 3.726c0 .492.102.834.306 1.026.204.18.558.27 1.062.27v.378c-1.104-.048-1.836-.072-2.196-.072-.312 0-.972.024-1.98.072v-.378c.444 0 .75-.09.918-.27.18-.192.27-.534.27-1.026v-5.904c0-.492-.09-.828-.27-1.008-.168-.192-.474-.288-.918-.288v-.378c1.008.048 1.668.072 1.98.072.336 0 1.008-.024 2.016-.072v.378c-.444 0-.756.096-.936.288-.168.18-.252.516-.252 1.008v5.904zm-7.542 1.296c.888 0 1.506-.21 1.854-.63.36-.432.54-1.002.54-1.71 0-.828-.234-1.428-.702-1.8-.468-.384-1.23-.576-2.286-.576h-.18v3.42c0 .48.054.816.162 1.008.12.192.324.288.612.288z" fill="#403637"/></svg>