<svg width="75" height="15" viewBox="0 0 75 15" xmlns="http://www.w3.org/2000/svg" fill="none"><path d="M10.813 11.381h-1.639v-4.189c0-.805-.108-1.388-.325-1.749-.212-.36-.572-.541-1.08-.541-.428 0-.793.228-1.094.684-.297.455-.445 1.001-.445 1.637v4.159h-1.646v-4.332c0-1.431-.476-2.147-1.427-2.147-.442 0-.808.215-1.095.646-.282.431-.424.989-.424 1.674v4.16h-1.638v-7.688h1.639v1.216h.028c.522-.932 1.282-1.397 2.281-1.397.499 0 .934.147 1.306.443.377.289.633.673.77 1.149.536-1.062 1.337-1.592 2.401-1.592 1.591 0 2.387 1.044 2.387 3.13v4.738zm9.279-3.371h-4.93c.019.711.224 1.259.614 1.644.396.385.937.578 1.625.578.772 0 1.48-.245 2.125-.736v1.405c-.659.441-1.53.66-2.614.66-1.063 0-1.899-.347-2.506-1.044-.603-.7-.904-1.684-.904-2.95 0-1.196.332-2.17.996-2.92.669-.755 1.497-1.133 2.486-1.133.989 0 1.754.337 2.296 1.013.542.676.813 1.614.813 2.816v.668zm-1.582-1.231c-.004-.626-.143-1.112-.417-1.456-.272-.351-.649-.526-1.129-.526-.471 0-.871.183-1.201.548-.324.365-.525.844-.6 1.434h3.347zm10.875 4.602h-1.638v-1.306h-.029c-.527.99-1.339 1.486-2.436 1.486-.89 0-1.604-.343-2.14-1.028-.532-.691-.798-1.629-.798-2.815 0-1.271.294-2.29.883-3.055.593-.766 1.382-1.149 2.365-1.149.975 0 1.685.416 2.127 1.246h.027v-4.76h1.639v11.381zm-1.617-3.514v-1.006c0-.545-.168-1.008-.502-1.389-.334-.38-.761-.57-1.278-.57-.613 0-1.095.242-1.448.728-.349.485-.522 1.158-.522 2.02 0 .781.167 1.398.502 1.854.339.45.792.676 1.362.676.561 0 1.015-.217 1.363-.653.349-.44.522-.994.522-1.66h.001zm5.74-5.788c-.269 0-.499-.092-.693-.278-.186-.18-.29-.438-.282-.705 0-.285.094-.523.282-.714.193-.19.424-.285.693-.285.277 0 .513.095.706.285.193.19.289.429.289.714 0 .27-.096.503-.289.698-.193.19-.429.285-.706.285zm.811 9.302h-1.638v-7.688h1.638v7.688zm8.857 0h-1.589v-1.201h-.028c-.499.921-1.231 1.381-2.196 1.381-.711 0-1.269-.205-1.674-.615-.4-.411-.6-.954-.6-1.63 0-1.452.786-2.297 2.358-2.537l2.147-.323c0-1.096-.49-1.644-1.469-1.644-.862 0-1.639.315-2.331.946v-1.524c.763-.481 1.644-.721 2.642-.721 1.827-.001 2.74.956 2.74 2.866v5.002zm-1.582-3.776l-1.518.225c-.471.065-.826.187-1.066.367-.236.175-.353.486-.353.932 0 .326.108.592.324.803.221.205.516.308.883.308.499 0 .91-.184 1.236-.555.329-.375.494-.846.494-1.411v-.669.001zm10.395 2.665h-.028v1.111h-1.639v-11.381h1.639v5.045h.028c.561-1.021 1.379-1.531 2.458-1.531.913 0 1.627.345 2.14 1.036.518.686.777 1.607.777 2.763 0 1.286-.289 2.317-.869 3.093-.578.771-1.37 1.156-2.373 1.156-.942 0-1.652-.431-2.133-1.292v.001zm-.043-3.056v.953c0 .561.168 1.036.502 1.426.339.391.767.586 1.285.586.607 0 1.083-.251 1.427-.751.349-.506.522-1.209.522-2.11 0-.755-.162-1.346-.487-1.772-.321-.431-.756-.646-1.307-.646-.584 0-1.055.221-1.412.66-.353.441-.53.992-.53 1.652zm13.629 4.167h-1.589v-1.201h-.028c-.499.921-1.232 1.381-2.197 1.381-.71 0-1.269-.205-1.674-.615-.4-.411-.601-.954-.601-1.63 0-1.452.786-2.297 2.359-2.537l2.147-.323c0-1.096-.489-1.644-1.469-1.644-.862 0-1.639.315-2.331.946v-1.524c.763-.481 1.644-.721 2.642-.721 1.827 0 2.74.956 2.74 2.867v5.001h.001zm-1.582-3.776l-1.518.225c-.471.065-.827.187-1.067.367-.236.175-.353.486-.353.932 0 .326.108.592.325.803.221.205.516.308.882.308.499 0 .911-.184 1.236-.555.329-.375.494-.846.494-1.411v-.669.001zm11.009-3.912l-3.263 8.919c-.678 1.592-1.629 2.388-2.853 2.388-.344 0-.63-.033-.862-.098v-1.449c.26.091.495.136.706.136.613 0 1.07-.321 1.371-.961l.487-1.262-2.875-7.672h1.816l1.723 5.586.128.555h.034l.128-.541 1.808-5.6h1.653z" fill="#2D2D2D"/></svg>