<svg width="79" height="79" viewBox="0 0 79 79" fill="none" xmlns="http://www.w3.org/2000/svg">
<path d="M78.1703 53.6471L51.6972 7.79391C51.0795 6.72401 50.0821 5.95838 48.8891 5.63775L28.6862 0.212501C28.0051 0.0296588 27.3109 -0.0342203 26.6277 0.0160807C26.568 0.00913728 26.5075 0.00450835 26.4459 0.00450835H5.64771C3.14192 0.00450835 0.969875 1.61568 0.242826 4.01362C-0.227782 5.56616 -0.00790767 7.24739 0.846437 8.6265C1.70078 10.0056 3.10813 10.9513 4.70758 11.2213L12.2615 12.4964L8.14486 16.6085C7.26938 17.483 6.78735 18.6461 6.78735 19.8834V72.8278C6.78735 76.231 9.55607 78.9997 12.9593 78.9997H41.6584C43.4043 78.9997 45.0491 78.2534 46.2053 76.9942C46.2614 77.0108 46.3171 77.0286 46.3741 77.0438C46.9058 77.1863 47.4454 77.2568 47.9814 77.2568C49.0508 77.2568 50.1064 76.9763 51.0573 76.4273L75.9115 62.0778C77.3393 61.2535 78.3605 59.9225 78.7872 58.3302C79.2137 56.7378 78.9946 55.0748 78.1703 53.6471ZM5.22139 8.17857C4.48523 8.05421 3.86311 7.63621 3.46996 7.00144C3.07665 6.36666 2.97945 5.62356 3.19608 4.90901C3.52581 3.82121 4.51116 3.09046 5.64787 3.09046H21.6781L14.9417 9.81937L5.22139 8.17857ZM19.8651 9.26313L19.5087 10.5904L18.6769 10.45L19.8651 9.26313ZM41.6586 75.9139H17.2794V62.3381C17.2794 61.4859 16.5886 60.7951 15.7365 60.7951C14.8843 60.7951 14.1935 61.4859 14.1935 62.3381V75.9141H12.9591C11.2575 75.9141 9.87315 74.5297 9.87315 72.8281V19.8834C9.87315 19.471 10.0339 19.0832 10.3257 18.7918L15.9969 13.1269L18.7048 13.5841L15.6923 24.8018C15.3714 25.9968 15.5352 27.2453 16.1541 28.3169L42.6265 74.1682C42.8686 74.5877 43.1556 74.971 43.4791 75.3154C42.9581 75.6967 42.323 75.9139 41.6586 75.9139ZM75.8062 57.5315C75.5929 58.3277 75.0822 58.9932 74.3684 59.4053L49.5142 73.7548C48.8002 74.167 47.9686 74.2762 47.1726 74.0631C46.3764 73.8497 45.7109 73.3392 45.2988 72.6252L18.8264 26.7742C18.6203 26.417 18.5655 26.0009 18.6724 25.6026L21.7613 14.1004L26.3827 14.8805C26.4899 15.4623 26.6971 16.0278 27.0017 16.5554C27.7024 17.7689 28.8337 18.637 30.1872 18.9996C30.6391 19.1207 31.0978 19.1806 31.5535 19.1806C32.4626 19.1806 33.3597 18.9422 34.1681 18.4755C35.3816 17.7748 36.2497 16.6435 36.6123 15.29C36.975 13.9365 36.789 12.5227 36.0883 11.3091C35.3876 10.0956 34.2563 9.22748 32.9028 8.86489C31.5493 8.50213 30.1355 8.68837 28.9219 9.38888C27.9443 9.9533 27.1913 10.7976 26.7457 11.812L22.5654 11.1064L24.1051 5.37283C24.3189 4.5768 24.8298 3.91163 25.5439 3.49981C26.0191 3.22578 26.5462 3.08583 27.0804 3.08583C27.349 3.08583 27.6194 3.12116 27.8857 3.19276L39.5871 6.33518C39.5978 6.3557 39.607 6.37668 39.6188 6.3969L47.1034 19.3605C47.3892 19.8556 47.9078 20.1321 48.441 20.1321C48.7027 20.1321 48.9681 20.0655 49.2111 19.9252C49.9491 19.4992 50.202 18.5555 49.7759 17.8175L43.7996 7.46649L48.0885 8.61816C48.4862 8.72494 48.8186 8.9803 49.0246 9.33688L75.4979 55.1899C75.9101 55.9039 76.0194 56.7354 75.8062 57.5315ZM30.2924 12.4108L30.0548 12.3707C30.1779 12.2536 30.314 12.1486 30.4649 12.0615C30.7977 11.8692 31.1671 11.7712 31.5415 11.7712C31.7291 11.7712 31.9179 11.7959 32.104 11.8458C32.6613 11.9951 33.1272 12.3525 33.4157 12.8522C33.7042 13.352 33.7808 13.934 33.6314 14.4915C33.4821 15.0488 33.1247 15.5146 32.6249 15.8032C32.1253 16.0919 31.5431 16.1684 30.9857 16.0189C30.6209 15.9212 30.2967 15.733 30.0344 15.4755C30.0355 15.4753 30.0364 15.4755 30.0375 15.4755C30.7768 15.4755 31.4299 14.9424 31.557 14.1891C31.6988 13.3488 31.1327 12.5526 30.2924 12.4108Z" fill="#D79081"/>
<path d="M16.8272 53.364C16.5402 53.077 16.1421 52.9119 15.7363 52.9119C15.3305 52.9119 14.9324 53.077 14.6455 53.364C14.3585 53.6509 14.1934 54.049 14.1934 54.4564C14.1934 54.8606 14.3585 55.2587 14.6455 55.5473C14.9324 55.8343 15.3305 55.9978 15.7363 55.9978C16.1421 55.9978 16.5402 55.8343 16.8272 55.5473C17.1142 55.2587 17.2793 54.8622 17.2793 54.4564C17.2792 54.049 17.1141 53.6509 16.8272 53.364Z" fill="#D79081"/>
<path d="M53.4727 24.3251C53.1857 24.0381 52.7876 23.873 52.3818 23.873C51.9745 23.873 51.578 24.0381 51.2894 24.3251C51.0024 24.6121 50.8389 25.0102 50.8389 25.416C50.8389 25.8234 51.0024 26.2199 51.2894 26.5069C51.578 26.7954 51.976 26.959 52.3818 26.959C52.7876 26.959 53.1842 26.7954 53.4727 26.5069C53.7597 26.2199 53.9248 25.8218 53.9248 25.416C53.9248 25.0102 53.7597 24.6137 53.4727 24.3251Z" fill="#D79081"/>
</svg>
