<svg width="100%" height="100%" viewBox="0 0 63 80" fill="none" xmlns="http://www.w3.org/2000/svg" style="color: inherit;">
<path d="M11.1347 39.9966C11.1347 26.6969 15.224 14.2838 21.8027 7.60182C22.3171 7.07974 22.3154 6.23498 21.7987 5.71494C21.2822 5.19505 20.4465 5.19677 19.9321 5.719C12.7716 12.9916 8.49629 25.806 8.49629 39.9966C8.49629 54.1871 12.7716 67.0015 19.9321 74.2741C20.2647 74.6118 20.7505 74.7446 21.2062 74.6221C21.6619 74.4998 22.0184 74.1408 22.1414 73.6807C22.2645 73.2205 22.1353 72.729 21.8026 72.3912C15.2242 65.7095 11.1347 53.2964 11.1347 39.9966Z" fill="currentColor"/>
<path d="M60.1232 49.0882L47.2389 48.2148C45.8802 48.1009 44.6696 49.0783 44.4792 50.443C42.6785 61.3398 38.134 70.25 32.2479 74.5503C24.3263 68.8231 19.0496 55.122 19.0496 39.9968C19.0496 24.8716 24.3264 11.1689 32.2479 5.44312C38.134 9.74348 42.6785 18.6616 44.4792 29.5505C44.682 30.834 45.7749 31.78 47.0608 31.7853C47.1188 31.7853 47.1783 31.7853 47.2389 31.7853L60.1232 30.912C60.8751 30.8599 61.569 30.4854 62.03 29.8828C62.491 29.2803 62.6751 28.5071 62.5358 27.7584C59.4385 11.1942 50.4656 0.0693827 40.1879 1.88631e-06C40.1774 1.88631e-06 40.1681 1.88631e-06 40.1562 1.88631e-06H24.3263C11.2336 -0.00671743 0.581299 17.9389 0.581299 39.9966C0.581299 62.0544 11.2336 80 24.3263 80H40.1562C40.1681 80 40.1774 79.9933 40.1879 79.9933C50.4655 79.9239 59.4385 68.7923 62.5358 52.2416C62.6751 51.4929 62.491 50.7197 62.03 50.1172C61.569 49.5146 60.8751 49.1401 60.1232 49.0882ZM36.4125 3.26699C36.4931 3.24168 36.5722 3.22027 36.6526 3.19636C37.1465 3.04698 37.6492 2.929 38.1578 2.84305C38.2449 2.82711 38.3319 2.80836 38.4217 2.79633C38.9895 2.71054 39.5626 2.66585 40.1366 2.66304C49.1267 2.68835 57.0825 12.9625 59.9438 28.2452L47.0872 29.1106C45.2642 18.0776 40.6945 8.87559 34.6871 3.95643C35.2463 3.68797 35.8228 3.45764 36.4125 3.26699ZM24.3264 77.3251C12.6888 77.3331 3.21983 60.5837 3.21983 39.9966C3.21983 19.4096 12.6888 2.66023 24.3264 2.66023H31.566L31.5369 2.68023H31.525C22.3477 8.66073 16.4114 23.3006 16.4114 39.9966C16.4114 56.6927 22.3477 71.3326 31.5185 77.3012L31.5555 77.3252H24.3264V77.3251ZM40.1259 77.3332C39.5519 77.3302 38.9787 77.2857 38.4111 77.1999C38.324 77.1879 38.237 77.1693 38.1472 77.1532C37.6387 77.0673 37.136 76.9493 36.6419 76.7999C36.5614 76.7758 36.4822 76.7546 36.4019 76.7293C35.8121 76.5386 35.2358 76.3083 34.6763 76.0398C40.6838 71.118 45.2574 61.9146 47.0606 50.8751L59.9437 51.7484C57.0825 67.0323 49.1266 77.3051 40.1259 77.3332Z" fill="currentColor"/>
</svg>
