<svg width="100%" height="100%" viewBox="0 0 80 80" xmlns="http://www.w3.org/2000/svg" fill="none" style="color: inherit;"><path d="M13.333 14.125v-7.459c.005-3.68 2.987-6.662 6.667-6.667h53.333c3.68.005 6.662 2.987 6.667 6.667v29.333c-.01 3.405-2.591 6.253-5.979 6.598l-5.012 13.01c-1.324 3.435-5.182 5.147-8.618 3.824l-31.298-12.057c2.163 5.649 1.547 11.986-1.661 17.114l-.766 1.225v12.952c0 .737-.597 1.333-1.333 1.333h-24c-.737 0-1.333-.597-1.333-1.333v-44.012c.013-4.611 1.848-9.029 5.108-12.29l8.225-8.24zm0 7.974l-4.047 10.505c-.793 2.062.235 4.376 2.296 5.169l2.313.893c-.369-.841-.561-1.749-.563-2.667v-13.901zm64 13.901v-29.333c0-2.209-1.791-4-4-4h-53.333c-2.209 0-4 1.791-4 4v8.475h.012l-.012.03v20.828c.01.233.041.463.091.691l12.213-12.215c2.745-2.682 7.122-2.703 9.892-.049 2.771 2.656 2.937 7.029.375 9.886l-5.207 5.687h39.969c2.209 0 4-1.791 4-4zm-17.081 6.667l9.481 3.65 1.403-3.65h-10.884zm1.099 14.277c2.061.795 4.376-.233 5.171-2.294l2.249-5.849-15.916-6.133v-.008h-21.935l-1.733 1.889 32.164 12.396zm-58.684 20.39h21.333v-10.667h-21.333v10.667zm0-13.333h21.927l.578-.924c3.251-5.195 3.38-11.757.338-17.076-.288-.503-.217-1.135.175-1.563l10.926-11.92c1.629-1.783 1.538-4.54-.207-6.211-1.745-1.671-4.503-1.643-6.214.061l-21.247 21.242-1.885-1.885 4.933-4.933-1.368-.533c-3.433-1.324-5.143-5.179-3.823-8.614l4.513-11.719-4.319 4.328c-2.76 2.759-4.316 6.499-4.327 10.402v29.345zM64.8 18.667c-1.915 0-3.467-1.552-3.467-3.467v-6.4c0-1.915 1.552-3.467 3.467-3.467h6.4c1.915 0 3.467 1.552 3.467 3.467v6.4c0 1.915-1.552 3.467-3.467 3.467h-6.4zm7.2-3.467v-1.867h-2.667v-2.667h2.667v-1.867c0-.442-.358-.8-.8-.8h-6.4c-.442 0-.8.358-.8.8v1.867h2.667v2.667h-2.667v1.867c0 .442.358.8.8.8h6.4c.442 0 .8-.358.8-.8zM73.333 22.667h-5.333v2.667h5.333v-2.667zM73.333 30.667h-5.333v2.667h5.333v-2.667zM49.333 30.667h-5.333v2.667h5.333v-2.667zM65.333 22.667h-5.333v2.667h5.333v-2.667zM57.333 22.667h-5.333v2.667h5.333v-2.667zM49.333 22.667h-5.333v2.667h5.333v-2.667zM24 6.667h-2.667v4h2.667v-4zM29.333 6.667h-2.667v4h2.667v-4zM34.667 6.667h-2.667v4h2.667v-4zM40 6.667h-2.667v4h2.667v-4zM21.333 69.333h-2.667v2.667h2.667v-2.667z" fill="currentColor"/></svg>