<svg width="100%" height="100%" viewBox="0 0 79 79" xmlns="http://www.w3.org/2000/svg" fill="none" style="color: inherit;"><path d="M78.171 53.647l-26.473-45.853c-.618-1.07-1.615-1.836-2.808-2.156l-20.203-5.425c-.681-.183-1.375-.247-2.058-.196l-.182-.012h-20.798c-2.506 0-4.678 1.611-5.405 4.009-.471 1.553-.251 3.234.604 4.613.854 1.379 2.262 2.325 3.861 2.595l7.554 1.275-4.117 4.112c-.875.875-1.358 2.038-1.358 3.275v52.944c0 3.403 2.769 6.172 6.172 6.172h28.699c1.746 0 3.391-.746 4.547-2.005l.169.05c.532.142 1.071.213 1.607.213 1.069 0 2.125-.281 3.076-.829l24.854-14.349c1.428-.824 2.449-2.155 2.876-3.748.426-1.592.207-3.255-.617-4.683zm-72.949-45.469c-.736-.124-1.358-.542-1.751-1.177-.393-.635-.491-1.378-.274-2.092.33-1.088 1.315-1.819 2.452-1.819h16.03l-6.736 6.729-9.72-1.641zm14.644 1.085l-.356 1.327-.832-.14 1.188-1.187zm21.793 66.651h-24.379v-13.576c0-.852-.691-1.543-1.543-1.543s-1.543.691-1.543 1.543v13.576h-1.234c-1.702 0-3.086-1.384-3.086-3.086v-52.945c0-.412.161-.8.453-1.092l5.671-5.665 2.708.457-3.013 11.218c-.321 1.195-.157 2.444.462 3.515l26.472 45.851c.242.419.529.803.853 1.147-.521.381-1.156.599-1.821.599zm34.148-18.382c-.213.796-.724 1.462-1.438 1.874l-24.854 14.35c-.714.412-1.546.521-2.342.308-.796-.213-1.462-.724-1.874-1.438l-26.472-45.851c-.206-.357-.261-.773-.154-1.172l3.089-11.502 4.621.78c.107.582.314 1.147.619 1.675.701 1.213 1.832 2.082 3.185 2.444.452.121.911.181 1.366.181.909 0 1.806-.238 2.615-.705 1.214-.701 2.082-1.832 2.444-3.186.363-1.353.177-2.767-.524-3.981-.701-1.214-1.832-2.082-3.185-2.444-1.354-.363-2.767-.177-3.981.524-.978.564-1.731 1.409-2.176 2.423l-4.18-.706 1.54-5.734c.214-.796.725-1.461 1.439-1.873.475-.274 1.002-.414 1.536-.414.269 0 .539.035.805.107l11.702 3.142.032.062 7.485 12.964c.286.495.804.772 1.338.772.262 0 .527-.067.77-.207.738-.426.991-1.37.565-2.108l-5.976-10.351 4.289 1.152c.398.107.73.362.936.719l26.473 45.853c.412.714.522 1.545.308 2.342zm-45.514-45.121l-.238-.04c.123-.117.259-.222.41-.309.333-.192.702-.29 1.076-.29.188 0 .377.025.563.075.557.149 1.023.507 1.312 1.006.289.5.365 1.082.216 1.639-.149.557-.507 1.023-1.007 1.312-.5.289-1.082.365-1.639.216-.365-.098-.689-.286-.951-.543h.003c.739 0 1.392-.533 1.52-1.286.142-.84-.424-1.636-1.265-1.778zM16.828 53.364c-.287-.287-.685-.452-1.091-.452-.406 0-.804.165-1.091.452-.287.287-.452.685-.452 1.092 0 .404.165.802.452 1.091.287.287.685.45 1.091.45.406 0 .804-.163 1.091-.45.287-.289.452-.685.452-1.091 0-.407-.165-.806-.452-1.092zM53.473 24.325c-.287-.287-.685-.452-1.091-.452-.407 0-.804.165-1.092.452-.287.287-.451.685-.451 1.091 0 .407.164.804.451 1.091.288.288.687.452 1.092.452.406 0 .802-.164 1.091-.452.287-.287.452-.685.452-1.091 0-.406-.165-.802-.452-1.091z" fill="currentColor"/></svg>