<svg width="100%" height="100%" viewBox="0 0 51 80" fill="none" xmlns="http://www.w3.org/2000/svg" style="color:inherit;">
<path d="M31.7403 11.613C31.7403 8.05557 28.789 5.16138 25.1614 5.16138C21.5337 5.16138 18.5824 8.05557 18.5824 11.613C18.5824 15.1704 21.5337 18.0646 25.1614 18.0646C28.789 18.0646 31.7403 15.1704 31.7403 11.613ZM21.214 11.613C21.214 9.4788 22.9851 7.74202 25.1614 7.74202C27.3377 7.74202 29.1087 9.4788 29.1087 11.613C29.1087 13.7472 27.3377 15.484 25.1614 15.484C22.9851 15.484 21.214 13.7472 21.214 11.613Z" fill="currentColor"/>
<path d="M50.1614 50.3226C50.1614 48.4387 49.1166 46.8052 47.5759 45.9032C48.3561 45.0026 48.8456 43.8529 48.8456 42.5806C48.8456 39.92 46.7759 37.7497 44.1364 37.4735C44.6087 36.7006 44.8982 35.8052 44.8982 34.8387C44.8982 31.9923 42.5377 29.6774 39.6351 29.6774C39.0785 29.6774 38.5522 29.7858 38.0482 29.9432C38.2087 29.449 38.3193 28.9329 38.3193 28.3871C38.3193 25.5406 35.9587 23.2258 33.0561 23.2258C31.9653 23.2258 30.9509 23.5535 30.1101 24.1123C29.8995 23.5239 29.5864 22.9897 29.1864 22.52C33.7377 20.9006 37.0035 16.6297 37.0035 11.6129C37.0035 5.20903 31.6916 0 25.1614 0C18.6311 0 13.3193 5.20903 13.3193 11.6129C13.3193 16.6297 16.5851 20.9006 21.1364 22.52C20.7364 22.9897 20.4232 23.5239 20.2127 24.1123C19.3719 23.5535 18.3574 23.2258 17.2666 23.2258C14.364 23.2258 12.0035 25.5406 12.0035 28.3871C12.0035 28.9329 12.114 29.449 12.2745 29.9432C11.7706 29.7858 11.2443 29.6774 10.6877 29.6774C7.78506 29.6774 5.42453 31.9923 5.42453 34.8387C5.42453 35.8052 5.71401 36.7006 6.18638 37.4735C3.5469 37.7497 1.47717 39.92 1.47717 42.5806C1.47717 43.8529 1.96664 45.0026 2.7469 45.9032C1.20611 46.8052 0.161377 48.4387 0.161377 50.3226C0.161377 52.2065 1.20611 53.84 2.7469 54.7419C1.96664 55.6426 1.47717 56.7923 1.47717 58.0645C1.47717 60.7252 3.5469 62.8955 6.18638 63.1703C5.71401 63.9445 5.42453 64.84 5.42453 65.8064C5.42453 68.6529 7.78506 70.9677 10.6877 70.9677C11.2443 70.9677 11.7706 70.8594 12.2745 70.7019C12.114 71.1961 12.0035 71.7123 12.0035 72.2581C12.0035 75.1045 14.364 77.4193 17.2666 77.4193C18.3574 77.4193 19.3719 77.0916 20.2127 76.5329C20.9324 78.5445 22.8666 80 25.1614 80C27.4561 80 29.3903 78.5445 30.1101 76.5329C30.9509 77.0916 31.9653 77.4193 33.0561 77.4193C35.9587 77.4193 38.3193 75.1045 38.3193 72.2581C38.3193 71.7123 38.2087 71.1961 38.0482 70.7019C38.5522 70.8594 39.0785 70.9677 39.6351 70.9677C42.5377 70.9677 44.8982 68.6529 44.8982 65.8064C44.8982 64.84 44.6087 63.9445 44.1364 63.1703C46.7759 62.8955 48.8456 60.7252 48.8456 58.0645C48.8456 56.7923 48.3561 55.6426 47.5759 54.7419C49.1166 53.84 50.1614 52.2065 50.1614 50.3226ZM43.5824 40C45.0324 40 46.214 41.1574 46.214 42.5806C46.214 44.0026 45.0324 45.1613 43.5824 45.1613C42.1324 45.1613 40.9509 44.0026 40.9509 42.5806C40.9509 41.1574 42.1324 40 43.5824 40ZM39.6351 32.2581C41.0851 32.2581 42.2666 33.4155 42.2666 34.8387C42.2666 36.2606 41.0851 37.4194 39.6351 37.4194C38.1851 37.4194 37.0035 36.2606 37.0035 34.8387C37.0035 33.4155 38.1851 32.2581 39.6351 32.2581ZM33.0561 25.8064C34.5061 25.8064 35.6877 26.9639 35.6877 28.3871C35.6877 29.809 34.5061 30.9677 33.0561 30.9677C31.6061 30.9677 30.4245 29.809 30.4245 28.3871C30.4245 26.9639 31.6061 25.8064 33.0561 25.8064ZM33.0561 33.5484C33.6127 33.5484 34.139 33.44 34.643 33.2826C34.4824 33.7768 34.3719 34.2929 34.3719 34.8387C34.3719 35.4477 34.4995 36.0232 34.6969 36.5665L30.164 41.0116L26.4772 39.2026V30.7845C27.064 30.6348 27.6193 30.4065 28.1074 30.0813C28.8272 32.0929 30.7614 33.5484 33.0561 33.5484ZM29.1087 43.3781V57.2671L25.1614 59.2026L21.214 57.2671V43.3781L25.1614 41.4426L29.1087 43.3781ZM22.5298 25.8064C22.5298 24.3832 23.7114 23.2258 25.1614 23.2258C26.6114 23.2258 27.793 24.3832 27.793 25.8064C27.793 27.2284 26.6114 28.3871 25.1614 28.3871C23.7114 28.3871 22.5298 27.2284 22.5298 25.8064ZM15.9509 11.6129C15.9509 6.63355 20.0837 2.58065 25.1614 2.58065C30.239 2.58065 34.3719 6.63355 34.3719 11.6129C34.3719 16.5923 30.239 20.6452 25.1614 20.6452C20.0837 20.6452 15.9509 16.5923 15.9509 11.6129ZM22.2153 30.0813C22.7035 30.4065 23.2587 30.6348 23.8456 30.7845V39.2026L20.1574 41.0103L15.6245 36.5652C15.8232 36.0232 15.9509 35.4477 15.9509 34.8387C15.9509 34.2929 15.8403 33.7768 15.6798 33.2826C16.1837 33.44 16.7101 33.5484 17.2666 33.5484C19.5614 33.5484 21.4956 32.0929 22.2153 30.0813ZM17.2666 25.8064C18.7166 25.8064 19.8982 26.9639 19.8982 28.3871C19.8982 29.809 18.7166 30.9677 17.2666 30.9677C15.8166 30.9677 14.6351 29.809 14.6351 28.3871C14.6351 26.9639 15.8166 25.8064 17.2666 25.8064ZM14.1087 38.7277L18.5824 43.1148V49.0323H10.5009C10.2982 48.2697 9.92322 47.5832 9.41796 47C10.9587 46.0981 12.0035 44.4645 12.0035 42.5806C12.0035 41.6142 11.714 40.7187 11.2416 39.9445C12.3337 39.831 13.3193 39.3974 14.1087 38.7277ZM10.6877 32.2581C12.1377 32.2581 13.3193 33.4155 13.3193 34.8387C13.3193 36.2606 12.1377 37.4194 10.6877 37.4194C9.23769 37.4194 8.05611 36.2606 8.05611 34.8387C8.05611 33.4155 9.23769 32.2581 10.6877 32.2581ZM6.74032 40C8.19032 40 9.3719 41.1574 9.3719 42.5806C9.3719 44.0026 8.19032 45.1613 6.74032 45.1613C5.29032 45.1613 4.10875 44.0026 4.10875 42.5806C4.10875 41.1574 5.29032 40 6.74032 40ZM2.79296 50.3226C2.79296 48.8994 3.97453 47.7419 5.42453 47.7419C6.87453 47.7419 8.05611 48.8994 8.05611 50.3226C8.05611 51.7445 6.87453 52.9032 5.42453 52.9032C3.97453 52.9032 2.79296 51.7445 2.79296 50.3226ZM6.74032 60.6452C5.29032 60.6452 4.10875 59.4865 4.10875 58.0645C4.10875 56.6413 5.29032 55.4839 6.74032 55.4839C8.19032 55.4839 9.3719 56.6413 9.3719 58.0645C9.3719 59.4865 8.19032 60.6452 6.74032 60.6452ZM10.6877 68.3871C9.23769 68.3871 8.05611 67.2284 8.05611 65.8064C8.05611 64.3832 9.23769 63.2258 10.6877 63.2258C12.1377 63.2258 13.3193 64.3832 13.3193 65.8064C13.3193 67.2284 12.1377 68.3871 10.6877 68.3871ZM11.2416 60.6994C11.714 59.9264 12.0035 59.031 12.0035 58.0645C12.0035 56.1806 10.9587 54.5471 9.41796 53.6452C9.92322 53.0619 10.2982 52.3755 10.5009 51.6129H18.5824V57.5303L14.1087 61.9174C13.3193 61.2477 12.3337 60.8142 11.2416 60.6994ZM17.2666 74.8387C15.8166 74.8387 14.6351 73.68 14.6351 72.2581C14.6351 70.8348 15.8166 69.6774 17.2666 69.6774C18.7166 69.6774 19.8982 70.8348 19.8982 72.2581C19.8982 73.68 18.7166 74.8387 17.2666 74.8387ZM17.2666 67.0968C16.7101 67.0968 16.1837 67.2052 15.6798 67.3626C15.8403 66.8684 15.9509 66.3523 15.9509 65.8064C15.9509 65.1974 15.8232 64.6219 15.6259 64.0787L20.1587 59.6348L23.8456 61.4426V69.8606C23.2587 70.0103 22.7035 70.2387 22.2153 70.5639C21.4956 68.5523 19.5614 67.0968 17.2666 67.0968ZM25.1614 77.4193C23.7114 77.4193 22.5298 76.2606 22.5298 74.8387C22.5298 73.4155 23.7114 72.2581 25.1614 72.2581C26.6114 72.2581 27.793 73.4155 27.793 74.8387C27.793 76.2606 26.6114 77.4193 25.1614 77.4193ZM28.1074 70.5639C27.618 70.2387 27.064 70.0103 26.4772 69.8606V61.4426L30.1653 59.6348L34.6982 64.0787C34.4995 64.6219 34.3719 65.1974 34.3719 65.8064C34.3719 66.3523 34.4824 66.8684 34.643 67.3626C34.139 67.2052 33.6127 67.0968 33.0561 67.0968C30.7614 67.0968 28.8272 68.5523 28.1074 70.5639ZM33.0561 74.8387C31.6061 74.8387 30.4245 73.68 30.4245 72.2581C30.4245 70.8348 31.6061 69.6774 33.0561 69.6774C34.5061 69.6774 35.6877 70.8348 35.6877 72.2581C35.6877 73.68 34.5061 74.8387 33.0561 74.8387ZM36.2127 61.9161L31.7403 57.5303V51.6129H34.3719V49.0323H31.7403V43.1148L36.2127 38.7277C37.0022 39.3961 37.989 39.831 39.0811 39.9445C38.6087 40.7187 38.3193 41.6142 38.3193 42.5806C38.3193 44.4645 39.364 46.0981 40.9048 47C40.3995 47.5832 40.0245 48.2697 39.8219 49.0323H37.0035V51.6129H39.8219C40.0232 52.3755 40.3995 53.0619 40.9048 53.6452C39.364 54.5471 38.3193 56.1806 38.3193 58.0645C38.3193 59.031 38.6087 59.9264 39.0811 60.6994C37.989 60.8142 37.0035 61.2477 36.2127 61.9161ZM39.6351 68.3871C38.1851 68.3871 37.0035 67.2284 37.0035 65.8064C37.0035 64.3832 38.1851 63.2258 39.6351 63.2258C41.0851 63.2258 42.2666 64.3832 42.2666 65.8064C42.2666 67.2284 41.0851 68.3871 39.6351 68.3871ZM43.5824 60.6452C42.1324 60.6452 40.9509 59.4865 40.9509 58.0645C40.9509 56.6413 42.1324 55.4839 43.5824 55.4839C45.0324 55.4839 46.214 56.6413 46.214 58.0645C46.214 59.4865 45.0324 60.6452 43.5824 60.6452ZM44.8982 52.9032C43.4482 52.9032 42.2666 51.7445 42.2666 50.3226C42.2666 48.8994 43.4482 47.7419 44.8982 47.7419C46.3482 47.7419 47.5298 48.8994 47.5298 50.3226C47.5298 51.7445 46.3482 52.9032 44.8982 52.9032Z" fill="currentColor"/>
</svg>
