<svg width="100%" height="100%" viewBox="0 0 81 54" fill="none" xmlns="http://www.w3.org/2000/svg" style="color:inherit;">
<path d="M79.7343 53.1614H34.1725C33.4722 53.1614 32.9067 52.5959 32.9067 51.8957V20.2589C32.9067 19.5587 33.4722 18.9932 34.1725 18.9932H79.7343C80.4339 18.9932 81 19.5587 81 20.2589V51.8957C81 52.5959 80.4339 53.1614 79.7343 53.1614ZM35.4382 50.63H78.4686V21.5247H35.4382V50.63Z" fill="currentColor"/>
<path d="M29.1158 53.1612H13.9269C13.2273 53.1612 12.6611 52.5957 12.6611 51.8955V1.26574C12.6611 0.566124 13.2273 0 13.9269 0H29.1158C29.816 0 30.3815 0.566124 30.3815 1.26574V51.8955C30.3815 52.5957 29.816 53.1612 29.1158 53.1612ZM15.1926 50.6297H27.8501V2.53149H15.1926V50.6297Z" fill="currentColor"/>
<path d="M53.1407 53.1614C52.4411 53.1614 51.875 52.5959 51.875 51.8957V20.2589C51.875 19.5587 52.4411 18.9932 53.1407 18.9932C53.841 18.9932 54.4065 19.5587 54.4065 20.2589V51.8957C54.4065 52.5959 53.841 53.1614 53.1407 53.1614Z" fill="currentColor"/>
<path d="M60.734 53.1614C60.0344 53.1614 59.4683 52.5959 59.4683 51.8957V20.2589C59.4683 19.5587 60.0344 18.9932 60.734 18.9932C61.4342 18.9932 61.9998 19.5587 61.9998 20.2589V51.8957C61.9998 52.5959 61.4342 53.1614 60.734 53.1614Z" fill="currentColor"/>
<path d="M40.948 21.5221C40.8516 21.5221 40.7546 21.5104 40.6557 21.4887C39.9758 21.3268 39.5543 20.6457 39.7163 19.9646C41.6136 11.9425 48.7044 6.33936 56.9596 6.33936C65.2135 6.33936 72.3055 11.9425 74.2041 19.9646C74.366 20.6445 73.9445 21.3268 73.2647 21.4875C72.5854 21.6482 71.9019 21.2279 71.7424 20.5487C70.1145 13.673 64.0349 8.87084 56.9596 8.87084C49.883 8.87084 43.8046 13.673 42.1798 20.5487C42.0401 21.1296 41.5216 21.5221 40.948 21.5221Z" fill="currentColor"/>
<path d="M44.8638 21.5598C44.7402 21.5598 44.6135 21.5406 44.4881 21.5029C43.8212 21.2952 43.4479 20.5851 43.6556 19.9183C45.4757 14.063 50.8217 10.1304 56.9582 10.1304C63.0744 10.1304 68.4154 14.0475 70.2486 19.8775C70.4575 20.5431 70.0879 21.2545 69.421 21.4646C68.7486 21.6735 68.0434 21.3014 67.8333 20.637C66.3339 15.8664 61.9631 12.6619 56.9582 12.6619C51.9373 12.6619 47.5628 15.8806 46.0727 20.6698C45.9046 21.213 45.4046 21.5598 44.8638 21.5598Z" fill="currentColor"/>
<path d="M56.9558 8.86268C56.6319 8.86268 56.3075 8.73908 56.0609 8.49186L49.7297 2.16067C49.2346 1.66623 49.2346 0.865873 49.7297 0.370824C50.2247 -0.123608 51.0245 -0.123608 51.5195 0.370824L57.8507 6.70264C58.3458 7.19707 58.3458 7.99743 57.8507 8.49186C57.6035 8.73908 57.2796 8.86268 56.9558 8.86268Z" fill="currentColor"/>
<path d="M56.9561 8.86268C56.6323 8.86268 56.3078 8.73908 56.0612 8.49186C55.5662 7.99743 55.5662 7.19707 56.0612 6.70264L62.3924 0.370824C62.8875 -0.123608 63.6872 -0.123608 64.1822 0.370824C64.6773 0.865873 64.6773 1.66623 64.1822 2.16067L57.8511 8.49186C57.6039 8.73908 57.28 8.86268 56.9561 8.86268Z" fill="currentColor"/>
<path d="M63.287 2.53149H50.6246C49.9244 2.53149 49.3589 1.96598 49.3589 1.26574C49.3589 0.566124 49.9244 0 50.6246 0H63.287C63.9872 0 64.5527 0.566124 64.5527 1.26574C64.5527 1.96598 63.9872 2.53149 63.287 2.53149Z" fill="currentColor"/>
<path d="M7.59693 44.3068C3.40725 44.3068 0 40.8989 0 36.7092C0 32.5214 3.40725 29.1135 7.59693 29.1135C8.29717 29.1135 8.86268 29.6796 8.86268 30.3793C8.86268 31.0795 8.29717 31.645 7.59693 31.645C4.8034 31.645 2.53149 33.9175 2.53149 36.7092C2.53149 39.5028 4.8034 41.7753 7.59693 41.7753C10.3892 41.7753 12.6611 39.5028 12.6611 36.7092C12.6611 36.0096 13.2273 35.4435 13.9269 35.4435C14.6271 35.4435 15.1926 36.0096 15.1926 36.7092C15.1926 40.8989 11.7841 44.3068 7.59693 44.3068Z" fill="currentColor"/>
<path d="M13.9268 31.645H7.5968C6.89718 31.645 6.33105 31.0795 6.33105 30.3793C6.33105 29.6796 6.89718 29.1135 7.5968 29.1135H13.9268C14.627 29.1135 15.1925 29.6796 15.1925 30.3793C15.1925 31.0795 14.627 31.645 13.9268 31.645Z" fill="currentColor"/>
<path d="M7.59791 24.0493C3.40822 24.0493 0.000976562 20.6421 0.000976562 16.4536C0.000976562 12.2639 3.40822 8.85669 7.59791 8.85669C11.7864 8.85669 15.1936 12.2639 15.1936 16.4536C15.1936 17.1539 14.6281 17.7194 13.9279 17.7194C13.2282 17.7194 12.6621 17.1539 12.6621 16.4536C12.6621 13.6601 10.3902 11.3882 7.59791 11.3882C4.80437 11.3882 2.53246 13.6601 2.53246 16.4536C2.53246 19.2459 4.80437 21.5178 7.59791 21.5178C8.29815 21.5178 8.86365 22.084 8.86365 22.7836C8.86365 23.4838 8.29815 24.0493 7.59791 24.0493Z" fill="currentColor"/>
<path d="M13.9282 24.0493H7.59826C6.89864 24.0493 6.33252 23.4838 6.33252 22.7836C6.33252 22.0839 6.89864 21.5178 7.59826 21.5178H13.9282C14.6285 21.5178 15.194 22.0839 15.194 22.7836C15.194 23.4838 14.6285 24.0493 13.9282 24.0493Z" fill="currentColor"/>
<path d="M10.1296 31.645C7.33734 31.645 5.06543 29.3743 5.06543 26.582C5.06543 23.7904 7.33734 21.5178 10.1296 21.5178C10.8299 21.5178 11.3954 22.0839 11.3954 22.7836C11.3954 23.4838 10.8299 24.0493 10.1296 24.0493C8.73225 24.0493 7.59692 25.1846 7.59692 26.582C7.59692 27.9782 8.73225 29.1135 10.1296 29.1135C10.8299 29.1135 11.3954 29.6796 11.3954 30.3793C11.3954 31.0795 10.8299 31.645 10.1296 31.645Z" fill="currentColor"/>
<path d="M29.1098 24.0493H13.9283C13.2287 24.0493 12.6626 23.4838 12.6626 22.7836C12.6626 22.0839 13.2287 21.5178 13.9283 21.5178H29.1098C29.8095 21.5178 30.3756 22.0839 30.3756 22.7836C30.3756 23.4838 29.8095 24.0493 29.1098 24.0493Z" fill="currentColor"/>
<path d="M29.1158 31.645H13.9269C13.2273 31.645 12.6611 31.0795 12.6611 30.3793C12.6611 29.6796 13.2273 29.1135 13.9269 29.1135H29.1158C29.816 29.1135 30.3815 29.6796 30.3815 30.3793C30.3815 31.0795 29.816 31.645 29.1158 31.645Z" fill="currentColor"/>
</svg>
