<svg width="100%" height="100%" viewBox="0 0 44 58" xmlns="http://www.w3.org/2000/svg" fill="none" style="color: inherit;"><path d="M1.159 9.062c-.501 0-.906-.405-.906-.906v-2.719c0-.501.405-.906.906-.906s.906.405.906.906v2.719c0 .501-.405.906-.906.906zM1.158 6.343c-.426 0-.805-.302-.889-.736-.094-.49.227-.966.719-1.06l23.565-4.531c.488-.092.965.228 1.061.719.094.491-.227.966-.719 1.061l-23.566 4.531-.172.015zM36.506 1.812h-11.781c-.501 0-.906-.405-.906-.906s.405-.906.906-.906h11.781c.501 0 .906.405.906.906s-.405.906-.906.906zM24.717 9.062h-23.557c-.501 0-.906-.405-.906-.906s.405-.906.906-.906h23.557c.501 0 .906.405.906.906s-.405.906-.906.906zM1.159 25.381c-.501 0-.906-.405-.906-.906v-2.719c0-.501.405-.906.906-.906s.906.405.906.906v2.719c0 .501-.405.906-.906.906zM24.726 29.911l-.172-.016-23.565-4.531c-.492-.094-.813-.57-.719-1.061.095-.491.575-.807 1.061-.72l23.566 4.531c.492.094.813.57.72 1.061-.085.434-.464.736-.89.736zM24.717 22.662h-23.557c-.501 0-.906-.405-.906-.906s.405-.906.906-.906h23.557c.501 0 .906.405.906.906s-.405.906-.906.906zM36.506 6.345c-.501 0-.906-.405-.906-.906v-4.533c0-.501.405-.906.906-.906s.906.405.906.906v4.533c0 .501-.405.906-.906.906zM42.849 6.345h-6.343c-.501 0-.906-.405-.906-.906s.405-.906.906-.906h6.343c.501 0 .906.405.906.906s-.405.906-.906.906zM39.224 9.97c-.501 0-.906-.405-.906-.906s.405-.906.906-.906c1.499 0 2.719-1.22 2.719-2.719 0-.501.405-.906.906-.906s.906.405.906.906c0 2.498-2.033 4.531-4.531 4.531zM24.717 58c-.501 0-.906-.405-.906-.906v-48.938c0-.501.405-.906.906-.906s.906.405.906.906v48.938c0 .501-.405.906-.906.906zM36.506 58c-.501 0-.906-.405-.906-.906v-48.03c0-.501.405-.906.906-.906s.906.405.906.906v48.03c0 .501-.405.906-.906.906zM39.224 9.97h-2.719c-.501 0-.906-.405-.906-.906s.405-.906.906-.906h2.719c.501 0 .906.405.906.906s-.405.906-.906.906zM42.849 26.287h-6.343c-.501 0-.906-.405-.906-.906s.405-.906.906-.906h6.343c.501 0 .906.405.906.906s-.405.906-.906.906zM42.849 26.287c-.501 0-.906-.405-.906-.906 0-1.499-1.22-2.719-2.719-2.719-.501 0-.906-.405-.906-.906s.405-.906.906-.906c2.498 0 4.531 2.033 4.531 4.531 0 .501-.405.906-.906.906zM39.224 22.662h-2.719c-.501 0-.906-.405-.906-.906s.405-.906.906-.906h2.719c.501 0 .906.405.906.906s-.405.906-.906.906zM27.444 41.692h-2.727c-.501 0-.906-.405-.906-.906v-19.03c0-.501.405-.906.906-.906h2.727c.501 0 .906.405.906.906v19.03c0 .501-.405.906-.906.906zm-1.821-1.812h.915v-17.218h-.915v17.218zM36.514 41.692h-2.727c-.501 0-.906-.405-.906-.906v-19.032c0-.501.405-.906.906-.906h2.727c.501 0 .906.405.906.906v19.032c0 .501-.406.906-.906.906zm-1.82-1.812h.914v-17.22h-.914v17.22zM39.224 32.625h-2.711c-.501 0-.906-.405-.906-.906s.405-.906.906-.906h2.711c.501 0 .906.405.906.906s-.405.906-.906.906zM39.224 34.438c-.501 0-.906-.405-.906-.906v-3.621c0-.501.405-.906.906-.906s.906.405.906.906v3.621c0 .501-.405.906-.906.906zM25.633 9.06h-.916c-.501 0-.906-.405-.906-.906s.405-.906.906-.906h.916c.501 0 .906.405.906.906s-.405.906-.906.906zM25.633 11.781h-.916c-.501 0-.906-.405-.906-.906s.405-.906.906-.906h.916c.501 0 .906.405.906.906s-.405.906-.906.906zM27.447 14.499h-2.731c-.501 0-.906-.405-.906-.906s.405-.906.906-.906h2.731c.501 0 .906.405.906.906s-.405.906-.906.906zM25.633 17.22h-.916c-.501 0-.906-.405-.906-.906s.405-.906.906-.906h.916c.501 0 .906.405.906.906s-.405.906-.906.906zM25.633 19.94h-.916c-.501 0-.906-.405-.906-.906s.405-.906.906-.906h.916c.501 0 .906.405.906.906s-.405.906-.906.906zM25.633 44.407h-.916c-.501 0-.906-.405-.906-.906s.405-.906.906-.906h.916c.501 0 .906.405.906.906s-.405.906-.906.906zM25.633 47.126h-.916c-.501 0-.906-.405-.906-.906s.405-.906.906-.906h.916c.501 0 .906.405.906.906s-.405.906-.906.906zM27.447 49.846h-2.731c-.501 0-.906-.405-.906-.906s.405-.906.906-.906h2.731c.501 0 .906.405.906.906s-.405.906-.906.906zM25.633 52.564h-.916c-.501 0-.906-.405-.906-.906s.405-.906.906-.906h.916c.501 0 .906.405.906.906s-.405.906-.906.906zM25.633 55.281h-.916c-.501 0-.906-.405-.906-.906s.405-.906.906-.906h.916c.501 0 .906.405.906.906s-.405.906-.906.906zM27.447 57.996h-2.731c-.501 0-.906-.405-.906-.906s.405-.906.906-.906h2.731c.501 0 .906.405.906.906s-.405.906-.906.906zM36.514 28.098h-.914c-.501 0-.906-.405-.906-.906s.405-.906.906-.906h.914c.501 0 .906.405.906.906s-.406.906-.906.906zM36.514 32.625h-.914c-.501 0-.906-.405-.906-.906s.405-.906.906-.906h.914c.501 0 .906.405.906.906s-.406.906-.906.906zM36.514 37.154h-.914c-.501 0-.906-.405-.906-.906s.405-.906.906-.906h.914c.501 0 .906.405.906.906s-.406.906-.906.906zM2.972 11.779c-.232 0-.464-.089-.641-.265-.354-.355-.354-.927 0-1.281l2.718-2.719c.354-.354.927-.354 1.281 0 .354.354.354.927 0 1.281l-2.718 2.719c-.177.176-.408.265-.641.265zM12.038 22.658c-.26 0-.518-.111-.698-.325l-9.065-10.88c-.321-.385-.268-.957.116-1.277.386-.32.956-.268 1.277.116l9.065 10.879c.321.385.269.957-.116 1.277-.17.142-.375.21-.58.21zM21.102 11.777c-.232 0-.464-.089-.641-.266l-2.718-2.717c-.355-.354-.355-.927 0-1.281.354-.354.927-.354 1.281 0l2.718 2.717c.354.354.354.927 0 1.281-.177.177-.409.266-.641.266zM12.035 22.657c-.204 0-.409-.069-.58-.209-.385-.321-.436-.892-.116-1.277l9.066-10.88c.321-.384.891-.435 1.276-.116.384.321.436.892.116 1.277l-9.064 10.88c-.18.215-.438.325-.698.325zM21.102 11.779h-18.13c-.501 0-.906-.405-.906-.906s.405-.906.906-.906h18.13c.501 0 .906.405.906.906s-.405.906-.906.906zM12.037 22.658c-.501 0-.906-.405-.906-.906v-9.973c0-.501.405-.906.906-.906s.906.405.906.906v9.973c0 .501-.405.906-.906.906z" fill="currentColor"/></svg>