<svg width="130" height="121" viewBox="0 0 130 121" fill="none" xmlns="http://www.w3.org/2000/svg">
<path d="M52.9374 25.9301C54.1657 27.6134 55.1838 29.0081 56.202 30.4028C56.1669 30.4485 56.1297 30.4918 56.0947 30.5375C54.8291 29.4097 53.5636 28.2819 52.101 26.9785C51.6456 32.0909 51.2121 36.9316 50.7807 41.7699C50.7172 41.7747 50.6537 41.7795 50.5924 41.7843C50.1786 37.1119 49.7648 32.4372 49.3291 27.51C48.4161 28.2218 47.6629 28.8109 46.9119 29.3977C46.8527 29.3472 46.7936 29.2967 46.7345 29.2486C47.3957 28.2121 48.0548 27.1781 48.843 25.9445C42.9839 25.4395 37.3021 24.9489 31.6181 24.4584C31.6181 24.3838 31.6159 24.3069 31.6159 24.2323C37.0481 23.7586 42.4781 23.2825 48.1205 22.7895C47.0651 21.3154 46.1696 20.0626 45.2741 18.8121C45.3091 18.7592 45.3442 18.7087 45.3792 18.6558C46.6404 19.5961 47.9015 20.5363 49.3203 21.5944C49.7539 16.9774 50.1677 12.5599 50.5815 8.14247C50.645 8.14006 50.7063 8.13766 50.7698 8.13525C51.2274 12.6681 51.6828 17.1986 52.1645 21.9767C53.9314 20.4113 55.5232 18.9997 57.115 17.5906C57.1457 17.6266 57.1741 17.6627 57.2048 17.6988C56.0421 19.3556 54.8817 21.01 53.5636 22.8905C66.1052 23.1647 78.3752 23.4316 90.6452 23.7009C90.6452 23.7346 90.6452 23.7682 90.6452 23.8019C78.1716 24.5065 65.7023 25.2111 52.9374 25.9301Z" fill="#403637"/>
<path d="M92.3026 24.9462C84.4576 33.4493 76.7483 41.8104 69.039 50.1692C69.1047 50.2437 69.1704 50.3207 69.236 50.3952C75.4017 43.9338 81.5674 37.4723 87.8579 30.881C88.6308 32.4032 89.3643 33.8412 90.1744 35.4331C80.9215 42.8396 71.6927 50.2293 62.4617 57.6189C62.4179 57.5684 62.3719 57.5204 62.3281 57.4699C64.0119 55.3489 65.689 53.2207 67.3793 51.1046C74.0136 42.7987 80.6631 34.5049 87.2755 26.1798C87.9279 25.3598 88.6198 24.9029 89.6051 24.939C90.4262 24.9703 91.2494 24.9462 92.3026 24.9462Z" fill="#403637"/>
<path d="M60.27 57.4964C51.085 50.2173 41.9022 42.9407 32.6493 35.6087C33.4112 34.1683 34.1338 32.8024 34.9111 31.3332C39.5375 36.1017 44.072 40.7765 48.07 44.8981C42.5897 38.7132 36.597 31.9536 30.5276 25.105C31.6793 25.1651 32.796 25.1867 33.9039 25.3022C34.1841 25.331 34.4929 25.6052 34.6965 25.8552C43.2071 36.246 51.7068 46.6487 60.2043 57.0491C60.2766 57.1381 60.3248 57.2463 60.3839 57.3473C60.3488 57.3954 60.3094 57.4459 60.27 57.4964Z" fill="#403637"/>
<path d="M81.7777 22.5369C78.4628 22.5369 75.2945 22.5393 72.1285 22.5345C71.3556 22.5345 71.5329 21.8828 71.5373 21.4043C71.5724 17.6 71.6315 13.7934 71.6621 9.98913C71.6818 7.59645 71.6665 5.20377 71.6665 2.81109C71.7913 2.72692 71.9139 2.64276 72.0387 2.55859C72.2007 2.85197 72.3299 3.17901 72.5314 3.43631C74.4319 5.86506 76.3718 8.26015 78.2372 10.7202C78.7321 11.3718 79.1415 12.175 79.3736 12.983C80.1793 15.8061 80.8931 18.6629 81.6332 21.5101C81.6989 21.7746 81.7098 22.0559 81.7777 22.5369Z" fill="#403637"/>
<path d="M63.7951 54.1876C63.1864 55.1664 62.5777 56.1451 61.969 57.1262C61.9362 57.1118 61.9033 57.0997 61.8727 57.0853C62.6215 54.3415 63.3594 51.593 64.1213 48.8516C66.2035 41.3489 68.3099 33.8534 70.357 26.3387C70.5891 25.4851 70.9241 25.1652 71.7014 25.1797C73.5866 25.2133 75.4717 25.1893 77.4949 25.1893C76.4942 27.2718 75.5199 29.3158 74.5324 31.3525C71.2613 38.1026 67.9814 44.8478 64.7169 51.6002C64.5329 51.9825 64.4454 52.4202 64.314 52.8314C64.141 53.2859 63.968 53.7356 63.7951 54.1876Z" fill="#403637"/>
<path d="M30 23.6647C34.7447 16.9989 39.2923 10.6096 43.8399 4.22266C43.9034 4.2467 43.9669 4.27075 44.0304 4.2948C43.5137 7.48584 42.9926 10.6745 42.4781 13.8655C42.0511 16.5059 41.6526 19.1511 41.1797 21.7794C41.1074 22.1834 40.7286 22.8062 40.4528 22.8327C37.0787 23.1549 33.6981 23.3858 30 23.6647Z" fill="#403637"/>
<path d="M78.4847 3.90039C83.4089 10.321 88.1689 16.5275 93.0975 22.9553C91.9261 22.9553 91.0328 22.9673 90.1417 22.9529C87.847 22.9192 85.5546 22.8663 83.26 22.8423C82.7301 22.8374 82.3995 22.7148 82.2594 22.0463C81.042 16.2894 79.7896 10.5398 78.5526 4.78773C78.511 4.59535 78.5197 4.39576 78.4847 3.90039Z" fill="#403637"/>
<path d="M55.4597 21.801C57.1237 19.228 58.6936 16.8017 60.2613 14.3753C60.2109 14.3104 60.1605 14.2455 60.1124 14.1805C58.9432 14.7601 57.774 15.3372 56.6048 15.9167C56.5785 15.8662 56.55 15.8157 56.5238 15.7652C58.1221 14.344 59.7204 12.9253 61.1984 11.6123C64.3688 15.0005 67.4866 18.331 70.7359 21.8034C65.5905 21.801 60.6247 21.801 55.4597 21.801Z" fill="#403637"/>
<path d="M61.3167 52.646C58.9279 45.2467 56.5392 37.8475 54.1504 30.4482C54.2139 30.4145 54.2796 30.3833 54.3431 30.3496C56.6114 34.4809 58.8797 38.6122 61.2816 42.9863C63.8762 37.53 66.3745 32.2758 68.8727 27.0215C68.9296 27.0431 68.9887 27.0672 69.0457 27.0888C66.5474 35.5943 64.0514 44.0997 61.5531 52.6051C61.4765 52.6196 61.3977 52.634 61.3167 52.646Z" fill="#403637"/>
<path d="M63.7952 54.1877C63.9681 53.7356 64.1411 53.2859 64.3141 52.8338C65.4395 50.9221 66.5912 49.0296 67.6837 47.0986C71.684 40.0312 75.6733 32.9565 79.6472 25.8698C80.026 25.1965 80.4223 24.8238 81.1996 24.8695C82.5024 24.944 83.8117 24.8911 85.178 24.8911C85.0729 25.0763 84.9678 25.3119 84.8233 25.5115C78.0029 34.8923 71.1804 44.2682 64.3513 53.6418C64.1958 53.851 63.9813 54.0073 63.7952 54.1877Z" fill="#403637"/>
<path d="M68.1588 17.487C65.9212 14.8731 63.6857 12.2616 61.3867 9.57553C59.2212 11.8263 57.2244 13.8992 55.2298 15.9745C55.1509 15.9143 55.0743 15.8542 54.9955 15.7917C57.2025 10.6072 59.4095 5.4202 61.7173 0C64.0491 5.86988 66.2868 11.4969 68.5223 17.1239C68.4019 17.2441 68.2815 17.3644 68.1588 17.487Z" fill="#403637"/>
<path d="M48.7291 18.5399C47.1483 17.3399 45.7273 16.2602 44.2559 15.142C43.8114 15.7071 43.4151 16.2121 42.9969 16.7411C42.6554 15.2815 43.31 11.6888 44.0873 10.6332C46.2659 7.68261 48.4444 4.73444 50.6252 1.78867C50.8463 1.49049 51.0916 1.21155 51.4506 0.771484C51.4506 2.83472 51.4506 4.68875 51.4506 6.54518C51.4047 6.5572 51.3565 6.57163 51.3105 6.58366C51.1485 5.47028 50.9865 4.3569 50.8244 3.24593C50.75 3.24112 50.6756 3.23631 50.5989 3.2315C49.9837 8.26455 49.3706 13.2976 48.7291 18.5399Z" fill="#403637"/>
<path d="M60.3314 55.5968C57.9799 49.6572 55.786 43.6334 53.2133 37.8092C51.9302 34.9019 51.8733 32.1005 52.3068 29.1114C52.3222 29.0008 52.3857 28.8974 52.5083 28.5728C55.2145 37.689 57.866 46.6201 60.5153 55.5535C60.454 55.568 60.3927 55.5824 60.3314 55.5968Z" fill="#403637"/>
<path d="M36.0956 25.6604C37.2495 25.6604 38.1975 25.6051 39.1346 25.6893C39.4718 25.7205 39.9097 26.0019 40.0871 26.3145C42.7145 30.9724 45.3069 35.6544 47.7788 40.4469C43.9143 35.5582 40.052 30.667 36.0956 25.6604Z" fill="#403637"/>
<path d="M16.7549 85.422C18.1589 85.422 19.2329 85.77 19.9769 86.466C20.7209 87.15 21.0929 88.062 21.0929 89.202C21.0929 90.282 20.7269 91.188 19.9949 91.92C19.2749 92.64 18.0629 93 16.3589 93L15.5849 92.982C15.0809 92.958 14.5829 92.946 14.0909 92.946C13.1789 92.946 12.4709 92.964 11.9669 93V92.64C12.3989 92.616 12.7109 92.568 12.9029 92.496C13.1069 92.424 13.2449 92.286 13.3169 92.082C13.3889 91.878 13.4249 91.548 13.4249 91.092V82.164C13.4249 81.708 13.3889 81.378 13.3169 81.174C13.2449 80.97 13.1069 80.832 12.9029 80.76C12.7109 80.688 12.3989 80.64 11.9669 80.616V80.256C13.1429 80.292 14.8829 80.31 17.1869 80.31C18.6989 80.31 19.7729 80.292 20.4089 80.256C20.3249 81.048 20.2829 81.756 20.2829 82.38C20.2829 82.848 20.3009 83.22 20.3369 83.496H19.9229C19.8389 82.716 19.7309 82.14 19.5989 81.768C19.4669 81.384 19.2449 81.108 18.9329 80.94C18.6209 80.76 18.1469 80.67 17.5109 80.67H16.5569C16.1249 80.67 15.8069 80.706 15.6029 80.778C15.4109 80.838 15.2789 80.97 15.2069 81.174C15.1349 81.378 15.0989 81.708 15.0989 82.164V85.458L16.7549 85.422ZM16.3049 92.64C17.4449 92.64 18.2249 92.34 18.6449 91.74C19.0769 91.14 19.2929 90.3 19.2929 89.22C19.2929 88.008 19.0529 87.132 18.5729 86.592C18.0929 86.04 17.2829 85.764 16.1429 85.764C15.7229 85.764 15.3749 85.77 15.0989 85.782V91.092C15.0989 91.536 15.1289 91.866 15.1889 92.082C15.2489 92.298 15.3569 92.448 15.5129 92.532C15.6809 92.604 15.9449 92.64 16.3049 92.64ZM28.1976 83.478C28.8336 83.478 29.4036 83.652 29.9076 84C30.4236 84.348 30.8256 84.858 31.1136 85.53C31.4016 86.202 31.5456 87.006 31.5456 87.942C31.5456 88.866 31.3956 89.73 31.0956 90.534C30.8076 91.338 30.3516 91.992 29.7276 92.496C29.1156 93 28.3476 93.252 27.4236 93.252C26.9676 93.252 26.5536 93.162 26.1816 92.982C25.8096 92.802 25.5216 92.568 25.3176 92.28V94.584C25.3176 95.076 25.4616 95.412 25.7496 95.592C26.0376 95.784 26.4696 95.88 27.0456 95.88V96.258L26.6316 96.24C25.5156 96.204 24.7896 96.186 24.4536 96.186C24.1656 96.186 23.5176 96.21 22.5096 96.258V95.88C22.9536 95.88 23.2596 95.796 23.4276 95.628C23.6076 95.472 23.6976 95.184 23.6976 94.764V85.692C23.6976 85.14 23.5956 84.738 23.3916 84.486C23.1876 84.234 22.8336 84.108 22.3296 84.108V83.73C22.7016 83.766 23.0736 83.784 23.4456 83.784C24.2016 83.784 24.8256 83.7 25.3176 83.532V85.44C25.5816 84.816 25.9656 84.336 26.4696 84C26.9736 83.652 27.5496 83.478 28.1976 83.478ZM27.2256 92.838C28.9416 92.838 29.7996 91.29 29.7996 88.194C29.7996 85.41 29.1036 84.018 27.7116 84.018C27.1716 84.018 26.6856 84.216 26.2536 84.612C25.8216 84.996 25.5096 85.554 25.3176 86.286V91.686C25.4856 92.034 25.7316 92.316 26.0556 92.532C26.3796 92.736 26.7696 92.838 27.2256 92.838ZM43.1386 84.126C42.6346 84.126 42.2806 84.222 42.0766 84.414C41.8726 84.594 41.7706 84.93 41.7706 85.422V91.326C41.7706 91.818 41.8726 92.16 42.0766 92.352C42.2806 92.532 42.6346 92.622 43.1386 92.622V93C42.0346 92.952 41.3146 92.928 40.9786 92.928C40.6426 92.928 39.9706 92.952 38.9626 93V92.622C39.4066 92.622 39.7126 92.532 39.8806 92.352C40.0606 92.16 40.1506 91.818 40.1506 91.326V85.854L35.9206 91.704C35.9566 92.04 36.0646 92.28 36.2446 92.424C36.4246 92.556 36.7066 92.622 37.0906 92.622V93C36.0826 92.952 35.4106 92.928 35.0746 92.928C34.7386 92.928 34.0186 92.952 32.9146 93V92.622C33.4186 92.622 33.7726 92.532 33.9766 92.352C34.1806 92.16 34.2826 91.818 34.2826 91.326V85.422C34.2826 84.93 34.1806 84.594 33.9766 84.414C33.7726 84.222 33.4186 84.126 32.9146 84.126V83.748C34.0186 83.796 34.7386 83.82 35.0746 83.82C35.4106 83.82 36.0826 83.796 37.0906 83.748V84.126C36.6466 84.126 36.3346 84.222 36.1546 84.414C35.9866 84.594 35.9026 84.93 35.9026 85.422V91.11L40.1506 85.26C40.1386 84.828 40.0426 84.534 39.8626 84.378C39.6826 84.21 39.3826 84.126 38.9626 84.126V83.748C39.9706 83.796 40.6426 83.82 40.9786 83.82C41.3146 83.82 42.0346 83.796 43.1386 83.748V84.126ZM53.2722 84.126C52.7682 84.126 52.4142 84.222 52.2102 84.414C52.0062 84.594 51.9042 84.93 51.9042 85.422V91.326C51.9042 91.818 52.0062 92.16 52.2102 92.352C52.4142 92.532 52.7682 92.622 53.2722 92.622V93C52.1682 92.952 51.4362 92.928 51.0762 92.928C50.8002 92.928 50.1042 92.946 48.9882 92.982L48.5562 93V92.622C49.1322 92.622 49.5642 92.532 49.8522 92.352C50.1402 92.16 50.2842 91.818 50.2842 91.326V85.422C50.2842 84.93 50.1942 84.594 50.0142 84.414C49.8462 84.222 49.5402 84.126 49.0962 84.126H48.9342C48.6462 84.126 48.4482 84.216 48.3402 84.396C48.2442 84.564 48.1722 84.906 48.1242 85.422C47.9922 86.85 47.8542 88.02 47.7102 88.932C47.5782 89.832 47.3682 90.642 47.0802 91.362C46.5642 92.622 45.8862 93.252 45.0462 93.252C44.6982 93.252 44.3982 93.156 44.1462 92.964C43.9062 92.772 43.7862 92.508 43.7862 92.172C43.7862 91.884 43.8762 91.656 44.0562 91.488C44.2362 91.308 44.4702 91.218 44.7582 91.218C45.0222 91.218 45.2382 91.296 45.4062 91.452C45.5742 91.596 45.6582 91.806 45.6582 92.082C45.6582 92.502 45.4302 92.796 44.9742 92.964C44.9982 92.976 45.0582 92.982 45.1542 92.982C45.5382 92.982 45.8622 92.808 46.1262 92.46C46.4022 92.112 46.6242 91.716 46.7922 91.272C47.2722 90.036 47.6082 88.086 47.8002 85.422C47.8362 84.942 47.7342 84.606 47.4942 84.414C47.2662 84.222 46.8942 84.126 46.3782 84.126V83.748C46.9062 83.796 47.3142 83.82 47.6022 83.82H49.1322H51.0942C51.4422 83.82 52.1682 83.796 53.2722 83.748V84.126ZM63.4147 84.126C62.9107 84.126 62.5567 84.222 62.3527 84.414C62.1487 84.594 62.0467 84.93 62.0467 85.422V91.326C62.0467 91.818 62.1487 92.16 62.3527 92.352C62.5567 92.532 62.9107 92.622 63.4147 92.622V93C62.3107 92.952 61.5787 92.928 61.2187 92.928C60.9427 92.928 60.2467 92.946 59.1307 92.982L58.6987 93V92.622C59.2747 92.622 59.7067 92.532 59.9947 92.352C60.2827 92.16 60.4267 91.818 60.4267 91.326V85.422C60.4267 84.93 60.3367 84.594 60.1567 84.414C59.9887 84.222 59.6827 84.126 59.2387 84.126H59.0767C58.7887 84.126 58.5907 84.216 58.4827 84.396C58.3867 84.564 58.3147 84.906 58.2667 85.422C58.1347 86.85 57.9967 88.02 57.8527 88.932C57.7207 89.832 57.5107 90.642 57.2227 91.362C56.7067 92.622 56.0287 93.252 55.1887 93.252C54.8407 93.252 54.5407 93.156 54.2887 92.964C54.0487 92.772 53.9287 92.508 53.9287 92.172C53.9287 91.884 54.0187 91.656 54.1987 91.488C54.3787 91.308 54.6127 91.218 54.9007 91.218C55.1647 91.218 55.3807 91.296 55.5487 91.452C55.7167 91.596 55.8007 91.806 55.8007 92.082C55.8007 92.502 55.5727 92.796 55.1167 92.964C55.1407 92.976 55.2007 92.982 55.2967 92.982C55.6807 92.982 56.0047 92.808 56.2687 92.46C56.5447 92.112 56.7667 91.716 56.9347 91.272C57.4147 90.036 57.7507 88.086 57.9427 85.422C57.9787 84.942 57.8767 84.606 57.6367 84.414C57.4087 84.222 57.0367 84.126 56.5207 84.126V83.748C57.0487 83.796 57.4567 83.82 57.7447 83.82H59.2747H61.2367C61.5847 83.82 62.3107 83.796 63.4147 83.748V84.126ZM74.6913 84.126C74.1873 84.126 73.8333 84.222 73.6293 84.414C73.4253 84.594 73.3233 84.93 73.3233 85.422V91.326C73.3233 91.818 73.4253 92.16 73.6293 92.352C73.8333 92.532 74.1873 92.622 74.6913 92.622V93C73.5873 92.952 72.8673 92.928 72.5313 92.928C72.1953 92.928 71.5233 92.952 70.5153 93V92.622C70.9593 92.622 71.2653 92.532 71.4333 92.352C71.6133 92.16 71.7033 91.818 71.7033 91.326V85.854L67.4733 91.704C67.5093 92.04 67.6173 92.28 67.7973 92.424C67.9773 92.556 68.2593 92.622 68.6433 92.622V93C67.6353 92.952 66.9633 92.928 66.6273 92.928C66.2913 92.928 65.5713 92.952 64.4673 93V92.622C64.9713 92.622 65.3253 92.532 65.5293 92.352C65.7333 92.16 65.8353 91.818 65.8353 91.326V85.422C65.8353 84.93 65.7333 84.594 65.5293 84.414C65.3253 84.222 64.9713 84.126 64.4673 84.126V83.748C65.5713 83.796 66.2913 83.82 66.6273 83.82C66.9633 83.82 67.6353 83.796 68.6433 83.748V84.126C68.1993 84.126 67.8873 84.222 67.7073 84.414C67.5393 84.594 67.4553 84.93 67.4553 85.422V91.11L71.7033 85.26C71.6913 84.828 71.5953 84.534 71.4153 84.378C71.2353 84.21 70.9353 84.126 70.5153 84.126V83.748C71.5233 83.796 72.1953 83.82 72.5313 83.82C72.8673 83.82 73.5873 83.796 74.6913 83.748V84.126ZM78.1469 93.126C77.3909 93.126 76.8269 92.94 76.4549 92.568C76.0949 92.184 75.9149 91.656 75.9149 90.984C75.9149 90.444 76.0589 90 76.3469 89.652C76.6469 89.304 76.9949 89.028 77.3909 88.824C77.7989 88.62 78.3329 88.404 78.9929 88.176C79.6649 87.948 80.1629 87.738 80.4869 87.546C80.8109 87.354 80.9729 87.096 80.9729 86.772V85.656C80.9729 84.96 80.8229 84.486 80.5229 84.234C80.2349 83.97 79.8269 83.838 79.2989 83.838C78.4589 83.838 77.8649 84.054 77.5169 84.486C77.7569 84.546 77.9549 84.672 78.1109 84.864C78.2789 85.056 78.3629 85.296 78.3629 85.584C78.3629 85.884 78.2669 86.124 78.0749 86.304C77.8829 86.472 77.6369 86.556 77.3369 86.556C77.0009 86.556 76.7489 86.454 76.5809 86.25C76.4129 86.034 76.3289 85.776 76.3289 85.476C76.3289 85.188 76.3949 84.948 76.5269 84.756C76.6709 84.564 76.8809 84.372 77.1569 84.18C77.4449 83.976 77.8109 83.808 78.2549 83.676C78.6989 83.544 79.1849 83.478 79.7129 83.478C80.6489 83.478 81.3569 83.7 81.8369 84.144C82.1369 84.42 82.3349 84.756 82.4309 85.152C82.5389 85.536 82.5929 86.046 82.5929 86.682V91.686C82.5929 91.986 82.6349 92.202 82.7189 92.334C82.8029 92.466 82.9469 92.532 83.1509 92.532C83.2949 92.532 83.4269 92.502 83.5469 92.442C83.6789 92.37 83.8169 92.274 83.9609 92.154L84.1589 92.46C83.8469 92.7 83.5769 92.874 83.3489 92.982C83.1329 93.078 82.8569 93.126 82.5209 93.126C81.9449 93.126 81.5429 92.982 81.3149 92.694C81.0869 92.406 80.9729 92.016 80.9729 91.524C80.6129 92.124 80.1989 92.544 79.7309 92.784C79.2629 93.012 78.7349 93.126 78.1469 93.126ZM78.9389 92.406C79.7309 92.406 80.4089 91.95 80.9729 91.038V87.51C80.8649 87.678 80.7149 87.816 80.5229 87.924C80.3309 88.032 80.0369 88.176 79.6409 88.356C79.1849 88.548 78.8129 88.734 78.5249 88.914C78.2489 89.082 78.0089 89.316 77.8049 89.616C77.6009 89.916 77.4989 90.3 77.4989 90.768C77.4989 91.308 77.6309 91.716 77.8949 91.992C78.1589 92.268 78.5069 92.406 78.9389 92.406ZM94.6537 84.126C94.1497 84.126 93.7957 84.222 93.5917 84.414C93.3877 84.594 93.2857 84.93 93.2857 85.422V91.326C93.2857 91.818 93.3877 92.16 93.5917 92.352C93.7957 92.532 94.1497 92.622 94.6537 92.622V93C93.5497 92.952 92.8297 92.928 92.4937 92.928C92.1577 92.928 91.4857 92.952 90.4777 93V92.622C90.9217 92.622 91.2277 92.532 91.3957 92.352C91.5757 92.16 91.6657 91.818 91.6657 91.326V88.41H87.6877V91.326C87.6877 91.818 87.7717 92.16 87.9397 92.352C88.1197 92.532 88.4317 92.622 88.8757 92.622V93C87.8677 92.952 87.1957 92.928 86.8597 92.928C86.5237 92.928 85.8037 92.952 84.6997 93V92.622C85.2037 92.622 85.5577 92.532 85.7617 92.352C85.9657 92.16 86.0677 91.818 86.0677 91.326V85.422C86.0677 84.93 85.9657 84.594 85.7617 84.414C85.5577 84.222 85.2037 84.126 84.6997 84.126V83.748C85.8037 83.796 86.5237 83.82 86.8597 83.82C87.1957 83.82 87.8677 83.796 88.8757 83.748V84.126C88.4317 84.126 88.1197 84.222 87.9397 84.414C87.7717 84.594 87.6877 84.93 87.6877 85.422V88.05H91.6657V85.422C91.6657 84.93 91.5757 84.594 91.3957 84.414C91.2277 84.222 90.9217 84.126 90.4777 84.126V83.748C91.4857 83.796 92.1577 83.82 92.4937 83.82C92.8297 83.82 93.5497 83.796 94.6537 83.748V84.126ZM104.578 83.748C104.494 84.54 104.452 85.236 104.452 85.836C104.452 86.304 104.47 86.676 104.506 86.952H104.092C104.032 86.148 103.906 85.542 103.714 85.134C103.534 84.726 103.282 84.456 102.958 84.324C102.646 84.18 102.22 84.108 101.68 84.108H100.978V91.146C100.978 91.698 101.134 92.082 101.446 92.298C101.77 92.514 102.25 92.622 102.886 92.622V93L102.436 92.982C101.248 92.946 100.492 92.928 100.168 92.928C99.8436 92.928 99.0876 92.946 97.8996 92.982L97.4496 93V92.622C98.0856 92.622 98.5596 92.514 98.8716 92.298C99.1956 92.082 99.3576 91.698 99.3576 91.146V84.108H98.4756C97.9476 84.108 97.5396 84.18 97.2516 84.324C96.9636 84.456 96.7356 84.726 96.5676 85.134C96.4116 85.542 96.3036 86.154 96.2436 86.97H95.8296C95.8656 86.694 95.8836 86.322 95.8836 85.854C95.8836 85.254 95.8416 84.558 95.7576 83.766H97.4856C98.0376 83.766 98.4576 83.772 98.7456 83.784L100.15 83.802C100.474 83.802 100.948 83.79 101.572 83.766L102.85 83.748H104.578ZM109.864 87.6C111.112 87.6 112.024 87.834 112.6 88.302C113.188 88.758 113.482 89.382 113.482 90.174C113.482 90.654 113.35 91.11 113.086 91.542C112.822 91.962 112.396 92.31 111.808 92.586C111.232 92.862 110.494 93 109.594 93C109.462 93 109.192 92.988 108.784 92.964C108.352 92.94 108.01 92.928 107.758 92.928C107.446 92.928 106.738 92.952 105.634 93V92.622C106.138 92.622 106.492 92.532 106.696 92.352C106.9 92.16 107.002 91.818 107.002 91.326V85.422C107.002 84.93 106.912 84.594 106.732 84.414C106.564 84.222 106.258 84.126 105.814 84.126V83.748C106.822 83.796 107.494 83.82 107.83 83.82C108.166 83.82 108.886 83.796 109.99 83.748V84.126C109.486 84.126 109.132 84.222 108.928 84.414C108.724 84.594 108.622 84.93 108.622 85.422V87.6H109.864ZM116.938 91.326C116.938 91.818 117.04 92.16 117.244 92.352C117.448 92.532 117.802 92.622 118.306 92.622V93C117.202 92.952 116.47 92.928 116.11 92.928C115.798 92.928 115.138 92.952 114.13 93V92.622C114.574 92.622 114.88 92.532 115.048 92.352C115.228 92.16 115.318 91.818 115.318 91.326V85.422C115.318 84.93 115.228 84.594 115.048 84.414C114.88 84.222 114.574 84.126 114.13 84.126V83.748C115.138 83.796 115.798 83.82 116.11 83.82C116.446 83.82 117.118 83.796 118.126 83.748V84.126C117.682 84.126 117.37 84.222 117.19 84.414C117.022 84.594 116.938 84.93 116.938 85.422V91.326ZM109.396 92.622C110.284 92.622 110.902 92.412 111.25 91.992C111.61 91.56 111.79 90.99 111.79 90.282C111.79 89.454 111.556 88.854 111.088 88.482C110.62 88.098 109.858 87.906 108.802 87.906H108.622V91.326C108.622 91.806 108.676 92.142 108.784 92.334C108.904 92.526 109.108 92.622 109.396 92.622ZM33.2423 116.1C32.9783 116.496 32.7083 116.79 32.4323 116.982C32.1563 117.162 31.7843 117.252 31.3163 117.252C30.8363 117.252 30.4343 117.114 30.1103 116.838C29.7983 116.562 29.5583 116.052 29.3903 115.308L28.8863 113.076C28.7423 112.464 28.5983 111.996 28.4543 111.672C28.3223 111.336 28.0943 111.072 27.7703 110.88C27.4583 110.676 27.0143 110.574 26.4383 110.574H25.2503V115.092C25.2503 115.548 25.2863 115.878 25.3583 116.082C25.4303 116.286 25.5623 116.424 25.7543 116.496C25.9583 116.568 26.2763 116.616 26.7083 116.64V117C26.1563 116.964 25.3943 116.946 24.4223 116.946C23.3903 116.946 22.6223 116.964 22.1183 117V116.64C22.5503 116.616 22.8623 116.568 23.0543 116.496C23.2583 116.424 23.3963 116.286 23.4683 116.082C23.5403 115.878 23.5763 115.548 23.5763 115.092V106.164C23.5763 105.708 23.5403 105.378 23.4683 105.174C23.3963 104.97 23.2583 104.832 23.0543 104.76C22.8623 104.688 22.5503 104.64 22.1183 104.616V104.256C22.6223 104.292 23.3903 104.31 24.4223 104.31C25.3823 104.31 26.1443 104.292 26.7083 104.256V104.616C26.2763 104.64 25.9583 104.688 25.7543 104.76C25.5623 104.832 25.4303 104.97 25.3583 105.174C25.2863 105.378 25.2503 105.708 25.2503 106.164V110.232C26.1383 110.22 26.8463 109.872 27.3743 109.188L29.1023 106.992C29.7143 106.236 30.0203 105.66 30.0203 105.264C30.0203 104.844 29.6483 104.628 28.9043 104.616V104.256C29.5883 104.292 30.2783 104.31 30.9743 104.31C31.6343 104.31 32.1443 104.292 32.5043 104.256V104.616C31.6883 104.736 30.9803 105.174 30.3803 105.93L26.9963 110.25C27.9563 110.286 28.7363 110.496 29.3363 110.88C29.9483 111.252 30.3623 111.906 30.5783 112.842L31.1003 115.11C31.2323 115.686 31.3523 116.076 31.4603 116.28C31.5803 116.484 31.7543 116.586 31.9823 116.586C32.1863 116.586 32.3543 116.532 32.4863 116.424C32.6303 116.316 32.7923 116.142 32.9723 115.902L33.2423 116.1ZM38.2474 107.478C39.4714 107.478 40.4554 107.886 41.1994 108.702C41.9554 109.506 42.3334 110.73 42.3334 112.374C42.3334 114.018 41.9554 115.242 41.1994 116.046C40.4554 116.85 39.4714 117.252 38.2474 117.252C37.0234 117.252 36.0334 116.85 35.2774 116.046C34.5334 115.242 34.1614 114.018 34.1614 112.374C34.1614 110.73 34.5334 109.506 35.2774 108.702C36.0334 107.886 37.0234 107.478 38.2474 107.478ZM38.2474 107.838C37.5274 107.838 36.9574 108.21 36.5374 108.954C36.1174 109.686 35.9074 110.826 35.9074 112.374C35.9074 113.922 36.1174 115.062 36.5374 115.794C36.9574 116.526 37.5274 116.892 38.2474 116.892C38.9674 116.892 39.5374 116.526 39.9574 115.794C40.3774 115.062 40.5874 113.922 40.5874 112.374C40.5874 110.826 40.3774 109.686 39.9574 108.954C39.5374 108.21 38.9674 107.838 38.2474 107.838ZM48.1988 107.478C49.0028 107.478 49.6988 107.67 50.2868 108.054C50.8508 108.426 51.1328 108.888 51.1328 109.44C51.1328 109.752 51.0428 109.998 50.8628 110.178C50.6828 110.358 50.4548 110.448 50.1788 110.448C49.9028 110.448 49.6688 110.37 49.4768 110.214C49.2848 110.046 49.1888 109.824 49.1888 109.548C49.1888 109.296 49.2608 109.086 49.4048 108.918C49.5488 108.738 49.7288 108.618 49.9448 108.558C49.8248 108.342 49.6088 108.162 49.2968 108.018C48.9968 107.874 48.6728 107.802 48.3248 107.802C47.8808 107.802 47.4668 107.946 47.0828 108.234C46.6988 108.51 46.3808 108.978 46.1288 109.638C45.8768 110.286 45.7508 111.144 45.7508 112.212C45.7508 113.7 45.9908 114.786 46.4708 115.47C46.9508 116.142 47.5748 116.478 48.3428 116.478C48.8588 116.478 49.3448 116.328 49.8008 116.028C50.2688 115.728 50.6528 115.26 50.9528 114.624L51.2948 114.75C51.0908 115.434 50.7068 116.022 50.1428 116.514C49.5908 117.006 48.8708 117.252 47.9828 117.252C47.2388 117.252 46.5608 117.06 45.9488 116.676C45.3488 116.292 44.8748 115.74 44.5268 115.02C44.1788 114.288 44.0048 113.442 44.0048 112.482C44.0048 111.51 44.1788 110.646 44.5268 109.89C44.8868 109.134 45.3848 108.546 46.0208 108.126C46.6568 107.694 47.3828 107.478 48.1988 107.478ZM61.3267 107.748C61.2427 108.54 61.2007 109.236 61.2007 109.836C61.2007 110.304 61.2187 110.676 61.2547 110.952H60.8407C60.7807 110.148 60.6547 109.542 60.4627 109.134C60.2827 108.726 60.0307 108.456 59.7067 108.324C59.3947 108.18 58.9687 108.108 58.4287 108.108H57.7267V115.146C57.7267 115.698 57.8827 116.082 58.1947 116.298C58.5187 116.514 58.9987 116.622 59.6347 116.622V117L59.1847 116.982C57.9967 116.946 57.2407 116.928 56.9167 116.928C56.5927 116.928 55.8367 116.946 54.6487 116.982L54.1987 117V116.622C54.8347 116.622 55.3087 116.514 55.6207 116.298C55.9447 116.082 56.1067 115.698 56.1067 115.146V108.108H55.2247C54.6967 108.108 54.2887 108.18 54.0007 108.324C53.7127 108.456 53.4847 108.726 53.3167 109.134C53.1607 109.542 53.0527 110.154 52.9927 110.97H52.5787C52.6147 110.694 52.6327 110.322 52.6327 109.854C52.6327 109.254 52.5907 108.558 52.5067 107.766H54.2347C54.7867 107.766 55.2067 107.772 55.4947 107.784L56.8987 107.802C57.2227 107.802 57.6967 107.79 58.3207 107.766L59.5987 107.748H61.3267ZM68.1615 107.478C68.7975 107.478 69.3675 107.652 69.8715 108C70.3875 108.348 70.7895 108.858 71.0775 109.53C71.3655 110.202 71.5095 111.006 71.5095 111.942C71.5095 112.866 71.3595 113.73 71.0595 114.534C70.7715 115.338 70.3155 115.992 69.6915 116.496C69.0795 117 68.3115 117.252 67.3875 117.252C66.9315 117.252 66.5175 117.162 66.1455 116.982C65.7735 116.802 65.4855 116.568 65.2815 116.28V118.584C65.2815 119.076 65.4255 119.412 65.7135 119.592C66.0015 119.784 66.4335 119.88 67.0095 119.88V120.258L66.5955 120.24C65.4795 120.204 64.7535 120.186 64.4175 120.186C64.1295 120.186 63.4815 120.21 62.4735 120.258V119.88C62.9175 119.88 63.2235 119.796 63.3915 119.628C63.5715 119.472 63.6615 119.184 63.6615 118.764V109.692C63.6615 109.14 63.5595 108.738 63.3555 108.486C63.1515 108.234 62.7975 108.108 62.2935 108.108V107.73C62.6655 107.766 63.0375 107.784 63.4095 107.784C64.1655 107.784 64.7895 107.7 65.2815 107.532V109.44C65.5455 108.816 65.9295 108.336 66.4335 108C66.9375 107.652 67.5135 107.478 68.1615 107.478ZM67.1895 116.838C68.9055 116.838 69.7635 115.29 69.7635 112.194C69.7635 109.41 69.0675 108.018 67.6755 108.018C67.1355 108.018 66.6495 108.216 66.2175 108.612C65.7855 108.996 65.4735 109.554 65.2815 110.286V115.686C65.4495 116.034 65.6955 116.316 66.0195 116.532C66.3435 116.736 66.7335 116.838 67.1895 116.838ZM77.2884 107.478C78.5124 107.478 79.4964 107.886 80.2404 108.702C80.9964 109.506 81.3744 110.73 81.3744 112.374C81.3744 114.018 80.9964 115.242 80.2404 116.046C79.4964 116.85 78.5124 117.252 77.2884 117.252C76.0644 117.252 75.0744 116.85 74.3184 116.046C73.5744 115.242 73.2024 114.018 73.2024 112.374C73.2024 110.73 73.5744 109.506 74.3184 108.702C75.0744 107.886 76.0644 107.478 77.2884 107.478ZM77.2884 107.838C76.5684 107.838 75.9984 108.21 75.5784 108.954C75.1584 109.686 74.9484 110.826 74.9484 112.374C74.9484 113.922 75.1584 115.062 75.5784 115.794C75.9984 116.526 76.5684 116.892 77.2884 116.892C78.0084 116.892 78.5784 116.526 78.9984 115.794C79.4184 115.062 79.6284 113.922 79.6284 112.374C79.6284 110.826 79.4184 109.686 78.9984 108.954C78.5784 108.21 78.0084 107.838 77.2884 107.838ZM94.4938 108.09C94.0618 108.114 93.7438 108.162 93.5398 108.234C93.3478 108.306 93.2158 108.444 93.1438 108.648C93.0718 108.852 93.0358 109.182 93.0358 109.638V115.092C93.0358 115.548 93.0718 115.878 93.1438 116.082C93.2158 116.286 93.3478 116.424 93.5398 116.496C93.7438 116.568 94.0618 116.616 94.4938 116.64V117C93.9418 116.964 93.1978 116.946 92.2618 116.946C91.2298 116.946 90.4618 116.964 89.9578 117V116.64C90.3898 116.616 90.7018 116.568 90.8938 116.496C91.0978 116.424 91.2358 116.286 91.3078 116.082C91.3798 115.878 91.4158 115.548 91.4158 115.092V108.774L88.0678 117.09H87.7798L84.5758 108.882V115.092C84.5758 115.548 84.6118 115.878 84.6838 116.082C84.7558 116.286 84.8878 116.424 85.0798 116.496C85.2838 116.568 85.6018 116.616 86.0338 116.64V117C85.6018 116.964 85.0558 116.946 84.3958 116.946C83.6758 116.946 83.1178 116.964 82.7218 117V116.64C83.1538 116.616 83.4658 116.568 83.6578 116.496C83.8618 116.424 83.9998 116.286 84.0718 116.082C84.1438 115.878 84.1798 115.548 84.1798 115.092V109.638C84.1798 109.182 84.1438 108.852 84.0718 108.648C83.9998 108.444 83.8618 108.306 83.6578 108.234C83.4658 108.162 83.1538 108.114 82.7218 108.09V107.73C83.1178 107.766 83.6758 107.784 84.3958 107.784C84.9238 107.784 85.3858 107.766 85.7818 107.73L88.5358 115.02L91.4158 107.784H92.2618C93.1738 107.784 93.9178 107.766 94.4938 107.73V108.09ZM99.7131 111.6C100.961 111.6 101.873 111.834 102.449 112.302C103.037 112.758 103.331 113.382 103.331 114.174C103.331 114.654 103.199 115.11 102.935 115.542C102.671 115.962 102.245 116.31 101.657 116.586C101.081 116.862 100.343 117 99.4431 117C99.3111 117 99.0411 116.988 98.6331 116.964C98.2011 116.94 97.8591 116.928 97.6071 116.928C97.2951 116.928 96.5871 116.952 95.4831 117V116.622C95.9871 116.622 96.3411 116.532 96.5451 116.352C96.7491 116.16 96.8511 115.818 96.8511 115.326V109.422C96.8511 108.93 96.7611 108.594 96.5811 108.414C96.4131 108.222 96.1071 108.126 95.6631 108.126V107.748C96.6711 107.796 97.3431 107.82 97.6791 107.82C98.0151 107.82 98.7351 107.796 99.8391 107.748V108.126C99.3351 108.126 98.9811 108.222 98.7771 108.414C98.5731 108.594 98.4711 108.93 98.4711 109.422V111.6H99.7131ZM106.787 115.326C106.787 115.818 106.889 116.16 107.093 116.352C107.297 116.532 107.651 116.622 108.155 116.622V117C107.051 116.952 106.319 116.928 105.959 116.928C105.647 116.928 104.987 116.952 103.979 117V116.622C104.423 116.622 104.729 116.532 104.897 116.352C105.077 116.16 105.167 115.818 105.167 115.326V109.422C105.167 108.93 105.077 108.594 104.897 108.414C104.729 108.222 104.423 108.126 103.979 108.126V107.748C104.987 107.796 105.647 107.82 105.959 107.82C106.295 107.82 106.967 107.796 107.975 107.748V108.126C107.531 108.126 107.219 108.222 107.039 108.414C106.871 108.594 106.787 108.93 106.787 109.422V115.326ZM99.2451 116.622C100.133 116.622 100.751 116.412 101.099 115.992C101.459 115.56 101.639 114.99 101.639 114.282C101.639 113.454 101.405 112.854 100.937 112.482C100.469 112.098 99.7071 111.906 98.6511 111.906H98.4711V115.326C98.4711 115.806 98.5251 116.142 98.6331 116.334C98.7531 116.526 98.9571 116.622 99.2451 116.622Z" fill="#403637"/>
</svg>
