<svg width="73" height="77" viewBox="0 0 73 77" fill="none" xmlns="http://www.w3.org/2000/svg">
<path d="M17.8516 77C9.55834 77 2.8125 70.2542 2.8125 61.961C2.8125 53.6689 9.55834 46.9231 17.8516 46.9231C26.1448 46.9231 32.8906 53.6689 32.8906 61.961C32.8906 70.2542 26.1448 77 17.8516 77ZM17.8516 49.3293C10.8854 49.3293 5.21875 54.996 5.21875 61.961C5.21875 68.9271 10.8854 74.5938 17.8516 74.5938C24.8177 74.5938 30.4844 68.9271 30.4844 61.961C30.4844 54.996 24.8177 49.3293 17.8516 49.3293Z" fill="#DD7D5C"/>
<path d="M16.0492 49.4473C15.3842 49.4473 14.8461 48.9092 14.8461 48.2442V32.4673C14.8461 31.8035 15.3842 31.2642 16.0492 31.2642C16.7148 31.2642 17.2523 31.8035 17.2523 32.4673V48.243C17.2523 48.908 16.7148 49.4473 16.0492 49.4473Z" fill="#DD7D5C"/>
<path d="M19.6562 49.4473C18.9907 49.4473 18.4531 48.9092 18.4531 48.2442V32.4673C18.4531 31.8035 18.9907 31.2642 19.6562 31.2642C20.3218 31.2642 20.8594 31.8035 20.8594 32.4673V48.243C20.8594 48.908 20.3218 49.4473 19.6562 49.4473Z" fill="#DD7D5C"/>
<path d="M19.6562 4.21094C18.9906 4.21094 18.4531 3.67165 18.4531 3.00781C18.4531 2.6759 18.1823 2.40625 17.8515 2.40625C17.522 2.40625 17.2523 2.6759 17.2523 3.00781C17.2523 3.67165 16.7148 4.21094 16.0492 4.21094C15.3842 4.21094 14.8461 3.67165 14.8461 3.00781C14.8461 1.34999 16.1949 0 17.8515 0C19.5105 0 20.8593 1.34999 20.8593 3.00781C20.8593 3.67165 20.3218 4.21094 19.6562 4.21094Z" fill="#DD7D5C"/>
<path d="M8.81873 33.6703C4.1807 33.6703 0.40625 29.8964 0.40625 25.2584C0.40625 20.6204 4.1807 16.8459 8.81873 16.8459C13.4567 16.8459 17.2306 20.6204 17.2306 25.2584C17.2306 25.9223 16.6931 26.4615 16.0275 26.4615C15.3625 26.4615 14.8244 25.9223 14.8244 25.2584C14.8244 21.9463 12.1308 19.2522 8.81873 19.2522C5.50602 19.2522 2.8125 21.9463 2.8125 25.2584C2.8125 28.5705 5.50602 31.2641 8.81873 31.2641C9.48373 31.2641 10.0219 31.8034 10.0219 32.4672C10.0219 33.1316 9.48373 33.6703 8.81873 33.6703Z" fill="#DD7D5C"/>
<path d="M8.81873 30.0793C6.16105 30.0793 3.9986 27.9174 3.9986 25.2586C3.9986 22.5997 6.16105 20.4373 8.81873 20.4373C11.4776 20.4373 13.6406 22.5997 13.6406 25.2586C13.6406 25.9224 13.1031 26.4617 12.4375 26.4617C11.7719 26.4617 11.2344 25.9224 11.2344 25.2586C11.2344 23.928 10.1517 22.8435 8.81873 22.8435C7.48813 22.8435 6.40485 23.9268 6.40485 25.2586C6.40485 26.5903 7.48637 27.673 8.81873 27.673C9.48374 27.673 10.0219 28.2123 10.0219 28.8762C10.0219 29.5406 9.48374 30.0793 8.81873 30.0793Z" fill="#DD7D5C"/>
<path d="M26.875 33.6897C26.2094 33.6897 25.6719 33.151 25.6719 32.4866C25.6719 31.8227 26.2094 31.2834 26.875 31.2834C30.1918 31.2834 32.8906 28.5846 32.8906 25.2678C32.8906 21.951 30.1918 19.2522 26.875 19.2522C23.5582 19.2522 20.8594 21.951 20.8594 25.2678C20.8594 25.9322 20.3218 26.4709 19.6562 26.4709C18.9907 26.4709 18.4531 25.9322 18.4531 25.2678C18.4531 20.6239 22.2323 16.8459 26.875 16.8459C31.5177 16.8459 35.2969 20.6239 35.2969 25.2678C35.2969 29.9117 31.5177 33.6897 26.875 33.6897Z" fill="#DD7D5C"/>
<path d="M26.875 30.0803C26.2094 30.0803 25.6719 29.5416 25.6719 28.8772C25.6719 28.2134 26.2094 27.6741 26.875 27.6741C28.2021 27.6741 29.2812 26.5949 29.2812 25.2678C29.2812 23.9407 28.2021 22.8616 26.875 22.8616C25.5479 22.8616 24.4688 23.9407 24.4688 25.2678C24.4688 25.9322 23.9312 26.4709 23.2656 26.4709C22.6 26.4709 22.0625 25.9322 22.0625 25.2678C22.0625 22.6137 24.2208 20.4553 26.875 20.4553C29.5292 20.4553 31.6875 22.6137 31.6875 25.2678C31.6875 27.922 29.5292 30.0803 26.875 30.0803Z" fill="#DD7D5C"/>
<path d="M26.875 30.0803H8.81873C8.15313 30.0803 7.6156 29.5416 7.6156 28.8772C7.6156 28.2134 8.15313 27.6741 8.81873 27.6741H26.875C27.5406 27.6741 28.0781 28.2134 28.0781 28.8772C28.0781 29.5416 27.5406 30.0803 26.875 30.0803Z" fill="#DD7D5C"/>
<path d="M26.875 33.6897H8.81873C8.15313 33.6897 7.6156 33.151 7.6156 32.4866C7.6156 31.8227 8.15313 31.2834 8.81873 31.2834H26.875C27.5406 31.2834 28.0781 31.8227 28.0781 32.4866C28.0781 33.151 27.5406 33.6897 26.875 33.6897Z" fill="#DD7D5C"/>
<path d="M23.2656 30.0791C22.6 30.0791 22.0625 29.5404 22.0625 28.876V25.2678C22.0625 24.604 22.6 24.0647 23.2656 24.0647C23.9312 24.0647 24.4688 24.604 24.4688 25.2678V28.876C24.4688 29.5404 23.9312 30.0791 23.2656 30.0791Z" fill="#DD7D5C"/>
<path d="M16.0275 30.0805C15.3625 30.0805 14.8243 29.5418 14.8243 28.8773V3.00781C14.8243 2.34398 15.3625 1.80469 16.0275 1.80469C16.6931 1.80469 17.2306 2.34398 17.2306 3.00781V28.8773C17.2306 29.5418 16.6931 30.0805 16.0275 30.0805Z" fill="#DD7D5C"/>
<path d="M19.7379 30.0805C19.0729 30.0805 18.5348 29.5418 18.5348 28.8773V3.00781C18.5348 2.34398 19.0729 1.80469 19.7379 1.80469C20.4035 1.80469 20.941 2.34398 20.941 3.00781V28.8773C20.941 29.5418 20.4035 30.0805 19.7379 30.0805Z" fill="#DD7D5C"/>
<path d="M12.4375 30.0804C11.7719 30.0804 11.2344 29.5417 11.2344 28.8773V25.2585C11.2344 24.5941 11.7719 24.0554 12.4375 24.0554C13.1031 24.0554 13.6406 24.5941 13.6406 25.2585V28.8773C13.6406 29.5417 13.1031 30.0804 12.4375 30.0804Z" fill="#DD7D5C"/>
<path d="M26.875 63.1641C26.2094 63.1641 25.6719 62.6265 25.6719 61.9609C25.6719 57.649 22.1635 54.1406 17.8516 54.1406C17.186 54.1406 16.6484 53.6031 16.6484 52.9375C16.6484 52.2719 17.186 51.7344 17.8516 51.7344C23.4906 51.7344 28.0781 56.3219 28.0781 61.9609C28.0781 62.6265 27.5406 63.1641 26.875 63.1641Z" fill="#DD7D5C"/>
<path d="M55.1531 77C46.8599 77 40.1141 70.2542 40.1141 61.961C40.1141 53.6689 46.8599 46.9231 55.1531 46.9231C63.4464 46.9231 70.1922 53.6689 70.1922 61.961C70.1922 70.2542 63.4464 77 55.1531 77ZM55.1531 49.3293C48.187 49.3293 42.5203 54.996 42.5203 61.961C42.5203 68.9271 48.187 74.5938 55.1531 74.5938C62.1193 74.5938 67.7859 68.9271 67.7859 61.961C67.7859 54.996 62.1193 49.3293 55.1531 49.3293Z" fill="#DD7D5C"/>
<path d="M53.3484 49.4473C52.6834 49.4473 52.1453 48.9092 52.1453 48.2442V32.4673C52.1453 31.8035 52.6834 31.2642 53.3484 31.2642C54.014 31.2642 54.5516 31.8035 54.5516 32.4673V48.243C54.5516 48.908 54.014 49.4473 53.3484 49.4473Z" fill="#DD7D5C"/>
<path d="M56.9578 49.4473C56.2928 49.4473 55.7547 48.9092 55.7547 48.2442V32.4673C55.7547 31.8035 56.2928 31.2642 56.9578 31.2642C57.6234 31.2642 58.1609 31.8035 58.1609 32.4673V48.243C58.1609 48.908 57.6234 49.4473 56.9578 49.4473Z" fill="#DD7D5C"/>
<path d="M56.9578 4.21094C56.2928 4.21094 55.7547 3.67165 55.7547 3.00781C55.7547 2.6759 55.4839 2.40625 55.1531 2.40625C54.8224 2.40625 54.5516 2.6759 54.5516 3.00781C54.5516 3.67165 54.014 4.21094 53.3484 4.21094C52.6834 4.21094 52.1453 3.67165 52.1453 3.00781C52.1453 1.34999 53.4941 0 55.1531 0C56.8121 0 58.1609 1.34999 58.1609 3.00781C58.1609 3.67165 57.6234 4.21094 56.9578 4.21094Z" fill="#DD7D5C"/>
<path d="M46.1203 33.6703C41.4823 33.6703 37.7078 29.8964 37.7078 25.2584C37.7078 20.6204 41.4823 16.8459 46.1203 16.8459C50.7583 16.8459 54.5322 20.6204 54.5322 25.2584C54.5322 25.9223 53.9947 26.4615 53.3291 26.4615C52.6641 26.4615 52.1259 25.9223 52.1259 25.2584C52.1259 21.9463 49.4324 19.2522 46.1203 19.2522C42.8082 19.2522 40.1141 21.9463 40.1141 25.2584C40.1141 28.5705 42.8082 31.2641 46.1203 31.2641C46.7853 31.2641 47.3234 31.8034 47.3234 32.4672C47.3234 33.1316 46.7853 33.6703 46.1203 33.6703Z" fill="#DD7D5C"/>
<path d="M46.1203 30.0793C43.4615 30.0793 41.2979 27.9174 41.2979 25.2586C41.2979 22.5997 43.4615 20.4373 46.1203 20.4373C48.778 20.4373 50.9399 22.5997 50.9399 25.2586C50.9399 25.9224 50.4024 26.4617 49.7368 26.4617C49.0718 26.4617 48.5336 25.9224 48.5336 25.2586C48.5336 23.928 47.4521 22.8435 46.1203 22.8435C44.7886 22.8435 43.7041 23.9268 43.7041 25.2586C43.7041 26.5903 44.7874 27.673 46.1203 27.673C46.7853 27.673 47.3235 28.2123 47.3235 28.8762C47.3235 29.5406 46.7853 30.0793 46.1203 30.0793Z" fill="#DD7D5C"/>
<path d="M64.1766 33.6897C63.5116 33.6897 62.9734 33.151 62.9734 32.4866C62.9734 31.8227 63.5116 31.2834 64.1766 31.2834C67.494 31.2834 70.1922 28.5846 70.1922 25.2678C70.1922 21.951 67.494 19.2522 64.1766 19.2522C60.8598 19.2522 58.1609 21.951 58.1609 25.2678C58.1609 25.9322 57.6234 26.4709 56.9578 26.4709C56.2928 26.4709 55.7547 25.9322 55.7547 25.2678C55.7547 20.6239 59.5339 16.8459 64.1766 16.8459C68.8193 16.8459 72.5984 20.6239 72.5984 25.2678C72.5984 29.9117 68.8193 33.6897 64.1766 33.6897Z" fill="#DD7D5C"/>
<path d="M64.1766 30.0803C63.5116 30.0803 62.9734 29.5416 62.9734 28.8772C62.9734 28.2134 63.5116 27.6741 64.1766 27.6741C65.5037 27.6741 66.5828 26.5949 66.5828 25.2678C66.5828 23.9407 65.5037 22.8616 64.1766 22.8616C62.8495 22.8616 61.7703 23.9407 61.7703 25.2678C61.7703 25.9322 61.2328 26.4709 60.5672 26.4709C59.9022 26.4709 59.3641 25.9322 59.3641 25.2678C59.3641 22.6137 61.5224 20.4553 64.1766 20.4553C66.8307 20.4553 68.9891 22.6137 68.9891 25.2678C68.9891 27.922 66.8307 30.0803 64.1766 30.0803Z" fill="#DD7D5C"/>
<path d="M64.1766 30.0803H46.1203C45.4547 30.0803 44.9172 29.5416 44.9172 28.8772C44.9172 28.2134 45.4547 27.6741 46.1203 27.6741H64.1766C64.8422 27.6741 65.3797 28.2134 65.3797 28.8772C65.3797 29.5416 64.8422 30.0803 64.1766 30.0803Z" fill="#DD7D5C"/>
<path d="M64.1766 33.6897H46.1203C45.4547 33.6897 44.9172 33.151 44.9172 32.4866C44.9172 31.8227 45.4547 31.2834 46.1203 31.2834H64.1766C64.8422 31.2834 65.3797 31.8227 65.3797 32.4866C65.3797 33.151 64.8422 33.6897 64.1766 33.6897Z" fill="#DD7D5C"/>
<path d="M60.5672 30.0791C59.9022 30.0791 59.3641 29.5404 59.3641 28.876V25.2678C59.3641 24.604 59.9022 24.0647 60.5672 24.0647C61.2328 24.0647 61.7703 24.604 61.7703 25.2678V28.876C61.7703 29.5404 61.2328 30.0791 60.5672 30.0791Z" fill="#DD7D5C"/>
<path d="M53.3291 30.0805C52.6641 30.0805 52.126 29.5418 52.126 28.8773V3.00781C52.126 2.34398 52.6641 1.80469 53.3291 1.80469C53.9947 1.80469 54.5322 2.34398 54.5322 3.00781V28.8773C54.5322 29.5418 53.9947 30.0805 53.3291 30.0805Z" fill="#DD7D5C"/>
<path d="M57.0395 30.0805C56.3745 30.0805 55.8364 29.5418 55.8364 28.8773V3.00781C55.8364 2.34398 56.3745 1.80469 57.0395 1.80469C57.7051 1.80469 58.2426 2.34398 58.2426 3.00781V28.8773C58.2426 29.5418 57.7051 30.0805 57.0395 30.0805Z" fill="#DD7D5C"/>
<path d="M49.7367 30.0804C49.0717 30.0804 48.5336 29.5417 48.5336 28.8773V25.2585C48.5336 24.5941 49.0717 24.0554 49.7367 24.0554C50.4023 24.0554 50.9398 24.5941 50.9398 25.2585V28.8773C50.9398 29.5417 50.4023 30.0804 49.7367 30.0804Z" fill="#DD7D5C"/>
<path d="M64.1766 63.1641C63.5116 63.1641 62.9734 62.6265 62.9734 61.9609C62.9734 57.649 59.4651 54.1406 55.1531 54.1406C54.4881 54.1406 53.95 53.6031 53.95 52.9375C53.95 52.2719 54.4881 51.7344 55.1531 51.7344C60.7922 51.7344 65.3797 56.3219 65.3797 61.9609C65.3797 62.6265 64.8422 63.1641 64.1766 63.1641Z" fill="#DD7D5C"/>
</svg>
