<svg width="79" height="79" viewBox="0 0 79 79" fill="none" xmlns="http://www.w3.org/2000/svg">
<path d="M39.5 5.26661C37.5784 5.26291 35.9344 6.64587 35.6088 8.53955C35.2832 10.4334 36.3709 12.2859 38.1834 12.9242V14.4832C38.1834 15.2104 38.7728 15.7998 39.5 15.7998C40.2272 15.7998 40.8166 15.2103 40.8166 14.4832V12.9244C42.6292 12.286 43.7168 10.4334 43.3912 8.53971C43.0657 6.64587 41.4216 5.26306 39.5 5.26661ZM39.5 10.5334C38.7728 10.5334 38.1834 9.94396 38.1834 9.21676C38.1834 8.48956 38.7728 7.89999 39.5 7.89999C40.2272 7.89999 40.8166 8.48941 40.8166 9.21661C40.8166 9.94381 40.2272 10.5334 39.5 10.5334Z" fill="#DD7D5C"/>
<path d="M78.9579 10.7571C78.9786 10.684 78.9927 10.609 79 10.5332V3.95C79 1.7684 77.2316 0 75.05 0H3.95C1.7684 0 0 1.7684 0 3.95V10.5334C0.00802344 10.6098 0.0234531 10.6852 0.0461348 10.7585C0.0506094 10.8386 0.0629531 10.9179 0.0830117 10.9955L7.8514 31.7014L0.0290078 68.1915C0.0257676 68.2379 0.0257676 68.2845 0.0290078 68.3311C0.0168184 68.3757 0.00709766 68.4211 0 68.4668V75.05C0 77.2316 1.7684 79 3.95 79H75.05C77.2314 79 79 77.2316 79 75.05V68.4666C78.9932 68.4223 78.984 68.3784 78.9724 68.335C78.9756 68.2886 78.9756 68.242 78.9724 68.1954L71.1514 31.7014L78.9198 10.9955C78.9397 10.9174 78.9525 10.8377 78.9579 10.7571ZM32.9166 2.63338H46.0832V18.4334H32.9166V2.63338ZM76.3666 75.05C76.3666 75.7772 75.7772 76.3666 75.05 76.3666H3.95C3.2228 76.3666 2.63338 75.7772 2.63338 75.05V69.7834H76.3668V75.05H76.3666ZM76.3666 9.21662H52.6666C51.9394 9.21662 51.35 9.80603 51.35 10.5332C51.35 11.2604 51.9396 11.8498 52.6666 11.8498H75.7834L68.5496 31.1377C68.5365 31.1732 68.543 31.2089 68.5325 31.2443C68.51 31.3304 68.4964 31.4187 68.4916 31.5077C68.4824 31.5952 68.4824 31.6835 68.4916 31.7711C68.4916 31.808 68.485 31.8422 68.4916 31.8791L76.0546 67.15H2.94537L10.2819 32.9166H64.5168C65.244 32.9166 65.8334 32.327 65.8334 31.6C65.8334 30.873 65.244 30.2834 64.5168 30.2834H10.1291L3.21663 11.85H26.3334C27.0606 11.85 27.65 11.2606 27.65 10.5334C27.65 9.80618 27.0606 9.21677 26.3334 9.21677H2.63338V3.95C2.63338 3.2228 3.2228 2.63338 3.95 2.63338H30.2834V18.4334C30.2834 19.8878 31.4624 21.0668 32.9168 21.0668H46.0834C47.5378 21.0668 48.7168 19.8878 48.7168 18.4334V2.63338H75.05C75.7772 2.63338 76.3666 3.2228 76.3666 3.95V9.21662Z" fill="#DD7D5C"/>
</svg>
