<svg width="80" height="80" viewBox="0 0 80 80" fill="none" xmlns="http://www.w3.org/2000/svg">
<path d="M13.3333 14.1253V6.66667C13.338 2.98667 16.32 0.00466667 20 0H73.3333C77.0133 0.00466667 79.9953 2.98667 80 6.66667V36C79.9897 39.405 77.4087 42.2527 74.0213 42.598L69.0093 55.6083C67.6853 59.0437 63.8273 60.755 60.3917 59.4327L29.0933 47.376C31.256 53.025 30.6407 59.362 27.4327 64.4897L26.6667 65.7147V78.6667C26.6667 79.4033 26.07 80 25.3333 80H1.33334C0.596664 80 0 79.4033 0 78.6667V34.655C0.0126648 30.044 1.84834 25.626 5.10834 22.365L13.3333 14.1253ZM13.3333 22.0993L9.28667 32.604C8.49367 34.666 9.52133 36.9797 11.583 37.7733L13.896 38.6667C13.5267 37.826 13.3353 36.9173 13.3333 36V22.0993ZM77.3333 36V6.66667C77.3333 4.458 75.542 2.66667 73.3333 2.66667H20C17.7913 2.66667 16 4.458 16 6.66667V15.1413H16.0117L16 15.1717V36C16.0103 36.2327 16.0407 36.4633 16.0907 36.6907L28.304 24.476C31.0493 21.794 35.426 21.7733 38.196 24.4273C40.9667 27.083 41.133 31.4563 38.5707 34.313L33.364 40H73.3333C75.542 40 77.3333 38.2087 77.3333 36ZM60.252 42.6667L69.7333 46.317L71.136 42.6667H60.252ZM61.3507 56.9437C63.412 57.7383 65.727 56.7107 66.5213 54.6493L68.7707 48.8L52.8547 42.6667V42.6587H30.92L29.187 44.548L61.3507 56.9437ZM2.66666 77.3333H24V66.6667H2.66666V77.3333ZM2.66666 64H24.5933L25.1717 63.076C28.4227 57.8807 28.552 51.3187 25.5093 46C25.2213 45.4967 25.292 44.8647 25.684 44.4373L36.6103 32.5173C38.2397 30.734 38.148 27.977 36.4037 26.3067C34.6587 24.636 31.9003 24.6633 30.1897 26.3673L8.94267 47.6093L7.05733 45.724L11.9907 40.7907L10.6227 40.2573C7.19 38.933 5.47933 35.0783 6.8 31.6437L11.313 19.925L6.99367 24.2533C4.23367 27.0127 2.67734 30.752 2.66666 34.655V64Z" fill="#DD7D5C"/>
<path d="M64.8 18.6666C62.8854 18.6666 61.3334 17.1146 61.3334 15.1999V8.79992C61.3334 6.88525 62.8854 5.33325 64.8 5.33325H71.2C73.1147 5.33325 74.6667 6.88525 74.6667 8.79992V15.1999C74.6667 17.1146 73.1147 18.6666 71.2 18.6666H64.8ZM72 15.1999V13.3333H69.3334V10.6666H72V8.79992C72 8.35825 71.6417 7.99992 71.2 7.99992H64.8C64.3584 7.99992 64 8.35825 64 8.79992V10.6666H66.6667V13.3333H64V15.1999C64 15.6416 64.3584 15.9999 64.8 15.9999H71.2C71.6417 15.9999 72 15.6416 72 15.1999Z" fill="#DD7D5C"/>
<path d="M73.3334 22.6667H68V25.3334H73.3334V22.6667Z" fill="#DD7D5C"/>
<path d="M73.3334 30.6667H68V33.3334H73.3334V30.6667Z" fill="#DD7D5C"/>
<path d="M49.3334 30.6667H44V33.3334H49.3334V30.6667Z" fill="#DD7D5C"/>
<path d="M65.3333 22.6667H60V25.3334H65.3333V22.6667Z" fill="#DD7D5C"/>
<path d="M57.3334 22.6667H52V25.3334H57.3334V22.6667Z" fill="#DD7D5C"/>
<path d="M49.3334 22.6667H44V25.3334H49.3334V22.6667Z" fill="#DD7D5C"/>
<path d="M24 6.66675H21.3333V10.6667H24V6.66675Z" fill="#DD7D5C"/>
<path d="M29.3334 6.66675H26.6667V10.6667H29.3334V6.66675Z" fill="#DD7D5C"/>
<path d="M34.6667 6.66675H32V10.6667H34.6667V6.66675Z" fill="#DD7D5C"/>
<path d="M40 6.66675H37.3333V10.6667H40V6.66675Z" fill="#DD7D5C"/>
<path d="M21.3333 69.3333H18.6666V71.9999H21.3333V69.3333Z" fill="#DD7D5C"/>
</svg>
