<svg width="0" height="0" class="hidden"><symbol viewBox="0 0 63 80" fill="none" xmlns="http://www.w3.org/2000/svg" color="inherit" id="bracelet-delivery-1"><path d="M11.135 39.997c0-13.3 4.089-25.713 10.668-32.395a1.344 1.344 0 0 0-.004-1.887 1.31 1.31 0 0 0-1.867.004c-7.16 7.273-11.436 20.087-11.436 34.278 0 14.19 4.276 27.004 11.436 34.277.333.338.819.47 1.274.348.456-.122.812-.481.935-.941a1.344 1.344 0 0 0-.338-1.29c-6.579-6.681-10.668-19.095-10.668-32.394z" fill="currentColor"></path><path d="M60.123 49.088l-12.884-.873a2.579 2.579 0 0 0-2.76 2.228C42.68 61.34 38.134 70.25 32.248 74.55 24.326 68.823 19.05 55.122 19.05 39.997c0-15.125 5.276-28.828 13.198-34.554 5.886 4.3 10.43 13.219 12.231 24.108a2.634 2.634 0 0 0 2.582 2.234h.178l12.884-.873a2.63 2.63 0 0 0 1.907-1.03 2.689 2.689 0 0 0 .506-2.124C59.438 11.194 50.466.07 40.188 0H24.326C11.234-.007.581 17.939.581 39.997.581 62.054 11.234 80 24.326 80h15.83c.012 0 .021-.007.032-.007 10.277-.07 19.25-11.2 22.348-27.751a2.689 2.689 0 0 0-.506-2.125 2.63 2.63 0 0 0-1.907-1.029zM36.413 3.267c.08-.025.16-.047.24-.07.494-.15.996-.268 1.505-.354.087-.016.174-.035.264-.047a12 12 0 0 1 1.715-.133c8.99.025 16.946 10.3 19.807 25.582l-12.857.866c-1.823-11.033-6.393-20.235-12.4-25.155.56-.268 1.136-.498 1.726-.689zM24.326 77.325C12.69 77.333 3.22 60.584 3.22 39.997 3.22 19.41 12.689 2.66 24.326 2.66h7.24l-.03.02h-.011C22.348 8.66 16.411 23.3 16.411 39.997c0 16.696 5.937 31.336 15.107 37.304l.037.024h-7.229zm15.8.008a11.89 11.89 0 0 1-1.715-.133c-.087-.012-.174-.03-.264-.047a12.252 12.252 0 0 1-1.505-.353c-.08-.024-.16-.045-.24-.07a13.953 13.953 0 0 1-1.726-.69c6.008-4.922 10.581-14.125 12.385-25.165l12.883.873c-2.861 15.284-10.817 25.557-19.818 25.585z" fill="currentColor"></path></symbol><symbol viewBox="0 0 80 80" fill="none" xmlns="http://www.w3.org/2000/svg" color="inherit" id="bracelet-delivery-2"><path d="M40 5.333a3.99 3.99 0 0 0-1.333 7.755v1.579a1.333 1.333 0 1 0 2.666 0v-1.58A3.99 3.99 0 0 0 40 5.334zm0 5.334A1.333 1.333 0 1 1 40 8a1.333 1.333 0 0 1 0 2.667z" fill="currentColor"></path><path d="M79.957 10.893c.021-.074.036-.15.043-.226V4a4 4 0 0 0-4-4H4a4 4 0 0 0-4 4v6.667a1.2 1.2 0 0 0 .047.228c.004.08.017.161.037.24l7.867 20.968L.029 69.055a1.017 1.017 0 0 0 0 .141 1.247 1.247 0 0 0-.029.137V76a4 4 0 0 0 4 4h72a4 4 0 0 0 4-4v-6.667a1.262 1.262 0 0 0-.028-.133 1.011 1.011 0 0 0 0-.141l-7.92-36.956 7.867-20.968c.02-.08.033-.16.038-.242zM33.333 2.667h13.334v16H33.333v-16zm44 73.333c0 .736-.597 1.333-1.333 1.333H4A1.333 1.333 0 0 1 2.667 76v-5.333h74.666V76zm0-66.667h-24a1.333 1.333 0 1 0 0 2.667h23.41l-7.326 19.532c-.013.036-.006.072-.017.108a1.335 1.335 0 0 0-.041.267c-.01.088-.01.177 0 .266 0 .038-.007.072 0 .11L77.017 68H2.983l7.429-34.667h54.921a1.333 1.333 0 0 0 0-2.666H10.257L3.257 12h23.41a1.333 1.333 0 1 0 0-2.667h-24V4c0-.736.597-1.333 1.333-1.333h26.667v16a2.667 2.667 0 0 0 2.666 2.666h13.334a2.667 2.667 0 0 0 2.666-2.666v-16H76c.736 0 1.333.597 1.333 1.333v5.333z" fill="currentColor"></path></symbol><symbol viewBox="0 0 62 74" fill="none" xmlns="http://www.w3.org/2000/svg" color="inherit" id="brooch-delivery-1"><path d="M54.388 7.142a1.451 1.451 0 0 0-2.49 1.491c4.385 7.327 6.888 16.837 7.108 26.916h-3.782c-.208-8.608-2.262-16.756-5.838-23.078-2.05-3.623-4.524-6.531-7.355-8.646C38.685 1.323 34.871 0 31 0c-3.87 0-7.685 1.323-11.031 3.825-2.83 2.115-5.305 5.023-7.355 8.646-3.577 6.322-5.63 14.47-5.838 23.078H2.993c.22-10.079 2.724-19.589 7.109-26.916a1.451 1.451 0 0 0-2.49-1.49C2.75 15.264.073 25.867.073 37c0 11.132 2.677 21.736 7.537 29.858a1.45 1.45 0 1 0 2.49-1.491C5.717 58.04 3.214 48.53 2.994 38.451h3.783c.208 8.609 2.261 16.756 5.838 23.079 2.05 3.622 4.524 6.53 7.354 8.645C23.316 72.677 27.13 74 31 74c3.87 0 7.685-1.323 11.031-3.825 2.83-2.114 5.305-5.023 7.355-8.646 3.576-6.322 5.63-14.47 5.838-23.078h3.783c-.22 10.079-2.724 19.589-7.109 26.916a1.451 1.451 0 0 0 2.49 1.49c4.862-8.12 7.539-18.724 7.539-29.857 0-11.132-2.677-21.736-7.538-29.858zM46.86 60.1c-1.85 3.27-4.06 5.878-6.566 7.75-2.84 2.125-6.055 3.248-9.294 3.248-3.239 0-6.453-1.123-9.294-3.247-2.507-1.873-4.716-4.48-6.566-7.75-3.534-6.248-5.48-14.452-5.48-23.1 0-8.65 1.946-16.853 5.48-23.101 1.85-3.27 4.06-5.878 6.566-7.75 2.84-2.125 6.055-3.248 9.294-3.248 3.24 0 6.453 1.123 9.294 3.247 2.507 1.873 4.716 4.48 6.566 7.75 3.534 6.248 5.48 14.452 5.48 23.1 0 8.65-1.946 16.854-5.48 23.101z" fill="currentColor"></path><path d="M46.866 22.118l-.004-.012-.007-.023c-1.492-4.653-3.674-8.578-6.31-11.351C37.704 7.743 34.403 6.164 31 6.164c-3.437 0-6.764 1.608-9.62 4.65-2.603 2.767-4.76 6.664-6.235 11.269l-.007.023-.004.012c-1.447 4.52-2.213 9.665-2.213 14.881v.002c0 5.212.766 10.356 2.213 14.88l.005.016.006.02c1.476 4.605 3.632 8.502 6.234 11.268 2.857 3.043 6.184 4.652 9.621 4.652 3.438 0 6.764-1.609 9.62-4.65 2.604-2.768 4.76-6.665 6.235-11.27l.007-.022.004-.013c1.448-4.52 2.213-9.664 2.213-14.88v-.003c0-5.217-.765-10.362-2.213-14.881zM31 9.066c5.15 0 10.011 4.983 12.813 13.069l-4.499 4.499-6.262-6.262 1.579-1.579a1.451 1.451 0 0 0-2.052-2.052L31 18.32l-6.498-6.498C26.536 10.016 28.76 9.066 31 9.066zM28.948 37l-6.262 6.262L16.424 37l6.262-6.262L28.948 37zm-4.21-8.314L31 22.424l6.262 6.262L31 34.948l-6.262-6.262zM31 39.052l6.262 6.262L31 51.576l-6.262-6.262L31 39.052zM33.052 37l6.262-6.262L45.576 37l-6.262 6.262L33.052 37zM22.515 13.938l6.433 6.434-6.262 6.262-4.499-4.499c1.121-3.233 2.598-6.026 4.328-8.197zm-5.273 11.356l3.392 3.392-4.68 4.68a46.39 46.39 0 0 1 1.288-8.072zm-1.288 15.34l4.68 4.68-3.392 3.392a46.458 46.458 0 0 1-1.288-8.072zm2.233 11.231l4.499-4.499 6.262 6.262-6.433 6.434c-1.73-2.17-3.207-4.963-4.328-8.197zM31 64.935c-2.24 0-4.463-.95-6.498-2.757L31 55.68l6.498 6.498c-2.034 1.806-4.258 2.756-6.498 2.756zm8.485-4.873l-6.433-6.434 6.262-6.262 4.499 4.499c-1.121 3.233-2.598 6.026-4.328 8.197zm5.273-11.356l-3.392-3.392 4.68-4.68a46.408 46.408 0 0 1-1.288 8.072zm-3.392-20.02l3.392-3.392a46.363 46.363 0 0 1 1.288 8.072l-4.68-4.68z" fill="currentColor"></path><path d="M36.514 13.3c-1.867 0-1.87 2.902 0 2.902 1.867 0 1.87-2.902 0-2.902z" fill="currentColor"></path></symbol><symbol viewBox="0 0 79 79" fill="none" xmlns="http://www.w3.org/2000/svg" color="inherit" id="brooch-delivery-2"><path d="M39.5 5.267a3.94 3.94 0 0 0-1.316 7.657v1.56a1.317 1.317 0 1 0 2.633 0v-1.56A3.94 3.94 0 0 0 39.5 5.267zm0 5.266a1.317 1.317 0 1 1 0-2.633 1.317 1.317 0 0 1 0 2.633z" fill="currentColor"></path><path d="M78.958 10.757c.02-.073.035-.148.042-.224V3.95A3.95 3.95 0 0 0 75.05 0H3.95A3.95 3.95 0 0 0 0 3.95v6.583c.008.077.023.152.046.226.005.08.017.159.037.236l7.768 20.706L.03 68.191a1.004 1.004 0 0 0 0 .14c-.012.045-.022.09-.029.136v6.583A3.95 3.95 0 0 0 3.95 79h71.1A3.95 3.95 0 0 0 79 75.05v-6.583a1.235 1.235 0 0 0-.028-.132 1.016 1.016 0 0 0 0-.14l-7.82-36.494 7.768-20.706c.02-.078.032-.157.038-.238zM32.917 2.633h13.166v15.8H32.917v-15.8zm43.45 72.417c0 .727-.59 1.317-1.317 1.317H3.95c-.727 0-1.317-.59-1.317-1.317v-5.267h73.734v5.267zm0-65.833h-23.7a1.317 1.317 0 1 0 0 2.633h23.116L68.55 31.138c-.013.035-.007.07-.017.106a1.324 1.324 0 0 0-.041.264 1.26 1.26 0 0 0 0 .263c0 .037-.007.071 0 .108l7.563 35.271H2.945l7.337-34.233h54.235a1.317 1.317 0 0 0 0-2.634H10.129L3.217 11.85h23.116a1.317 1.317 0 1 0 0-2.633h-23.7V3.95c0-.727.59-1.317 1.317-1.317h26.333v15.8a2.633 2.633 0 0 0 2.634 2.634h13.166a2.633 2.633 0 0 0 2.634-2.634v-15.8H75.05c.727 0 1.317.59 1.317 1.317v5.267z" fill="currentColor"></path></symbol><symbol viewBox="0 0 80 80" xmlns="http://www.w3.org/2000/svg" fill="none" color="inherit" id="delivery-3"><path d="M13.333 14.125V6.666A6.676 6.676 0 0 1 20-.001h53.333A6.676 6.676 0 0 1 80 6.666v29.333a6.653 6.653 0 0 1-5.979 6.598l-5.012 13.01a6.668 6.668 0 0 1-8.618 3.824L29.093 47.374a19.274 19.274 0 0 1-1.661 17.114l-.766 1.225v12.952c0 .737-.597 1.333-1.333 1.333h-24A1.333 1.333 0 0 1 0 78.665V34.653a17.45 17.45 0 0 1 5.108-12.29l8.225-8.24zm0 7.974L9.286 32.604a4 4 0 0 0 2.296 5.169l2.313.893a6.675 6.675 0 0 1-.563-2.667V22.098zm64 13.901V6.667a4 4 0 0 0-4-4H20a4 4 0 0 0-4 4v8.475h.012l-.012.03V36c.01.233.041.463.091.691l12.213-12.215a7.113 7.113 0 0 1 10.267 9.837L33.364 40h39.969a4 4 0 0 0 4-4zm-17.081 6.667l9.481 3.65 1.403-3.65H60.252zm1.099 14.277a4 4 0 0 0 5.171-2.294l2.249-5.849-15.916-6.133v-.008H30.92l-1.733 1.889 32.164 12.396zM2.667 77.334H24V66.667H2.667v10.667zm0-13.333h21.927l.578-.924a16.628 16.628 0 0 0 .338-17.076 1.334 1.334 0 0 1 .175-1.563l10.926-11.92a4.446 4.446 0 0 0-6.421-6.15L8.943 47.61l-1.885-1.885 4.933-4.933-1.368-.533A6.668 6.668 0 0 1 6.8 31.645l4.513-11.719-4.319 4.328a14.767 14.767 0 0 0-4.327 10.402v29.345zM64.8 18.667a3.467 3.467 0 0 1-3.467-3.467V8.8A3.467 3.467 0 0 1 64.8 5.333h6.4A3.467 3.467 0 0 1 74.667 8.8v6.4a3.467 3.467 0 0 1-3.467 3.467h-6.4zM72 15.2v-1.867h-2.667v-2.667H72V8.799a.8.8 0 0 0-.8-.8h-6.4a.8.8 0 0 0-.8.8v1.867h2.667v2.667H64V15.2a.8.8 0 0 0 .8.8h6.4a.8.8 0 0 0 .8-.8zm1.333 7.467H68v2.667h5.333v-2.667zm0 8H68v2.667h5.333v-2.667zm-24 0H44v2.667h5.333v-2.667zm16-8H60v2.667h5.333v-2.667zm-8 0H52v2.667h5.333v-2.667zm-8 0H44v2.667h5.333v-2.667zM24 6.667h-2.667v4H24v-4zm5.333 0h-2.667v4h2.667v-4zm5.334 0H32v4h2.667v-4zm5.333 0h-2.667v4H40v-4zM21.333 69.333h-2.667V72h2.667v-2.667z" fill="currentColor"></path></symbol><symbol viewBox="0 0 79 79" xmlns="http://www.w3.org/2000/svg" fill="none" color="inherit" id="delivery-4"><path d="M78.171 53.647L51.698 7.794a4.598 4.598 0 0 0-2.808-2.156L28.687.213a6.154 6.154 0 0 0-2.058-.196l-.182-.012H5.649A5.615 5.615 0 0 0 .244 4.014a5.646 5.646 0 0 0 4.465 7.208l7.554 1.275-4.117 4.112a4.602 4.602 0 0 0-1.358 3.275v52.944A6.18 6.18 0 0 0 12.96 79h28.699a6.183 6.183 0 0 0 4.547-2.005l.169.05a6.148 6.148 0 0 0 4.683-.616L75.912 62.08a6.13 6.13 0 0 0 2.876-3.748 6.135 6.135 0 0 0-.617-4.683zM5.222 8.178a2.526 2.526 0 0 1-1.751-1.177 2.528 2.528 0 0 1-.274-2.092A2.548 2.548 0 0 1 5.649 3.09h16.03l-6.736 6.729-9.72-1.641zm14.644 1.085l-.356 1.327-.832-.14 1.188-1.187zm21.793 66.651H17.28V62.338a1.543 1.543 0 0 0-3.086 0v13.576H12.96a3.089 3.089 0 0 1-3.086-3.086V19.883c0-.412.161-.8.453-1.092l5.671-5.665 2.708.457-3.013 11.218a4.596 4.596 0 0 0 .462 3.515l26.472 45.851c.242.419.529.803.853 1.147a3.086 3.086 0 0 1-1.821.599zm34.148-18.382a3.065 3.065 0 0 1-1.438 1.874l-24.854 14.35a3.069 3.069 0 0 1-2.342.308 3.065 3.065 0 0 1-1.874-1.438L18.827 26.775a1.534 1.534 0 0 1-.154-1.172l3.089-11.502 4.621.78c.107.582.314 1.147.619 1.675A5.212 5.212 0 0 0 30.187 19a5.216 5.216 0 0 0 3.981-.524 5.208 5.208 0 0 0 2.444-3.186 5.21 5.21 0 0 0-.524-3.981 5.209 5.209 0 0 0-3.185-2.444 5.21 5.21 0 0 0-3.981.524 5.201 5.201 0 0 0-2.176 2.423l-4.18-.706 1.54-5.734a3.068 3.068 0 0 1 1.439-1.873 3.066 3.066 0 0 1 2.341-.307l11.702 3.142.032.062 7.485 12.964a1.542 1.542 0 1 0 2.673-1.543L43.802 7.466l4.289 1.152c.398.107.73.362.936.719L75.5 55.19c.412.714.522 1.545.308 2.342zM30.293 12.411l-.238-.04a2.148 2.148 0 0 1 2.049-.524 2.15 2.15 0 0 1 1.312 1.006c.289.5.365 1.082.216 1.639a2.147 2.147 0 0 1-1.007 1.312c-.5.289-1.082.365-1.639.216a2.149 2.149 0 0 1-.951-.543h.003a1.543 1.543 0 0 0 .255-3.064zM16.828 53.364a1.554 1.554 0 0 0-1.091-.452c-.406 0-.804.165-1.091.452a1.555 1.555 0 0 0-.452 1.092c0 .404.165.802.452 1.091.287.287.685.45 1.091.45.406 0 .804-.163 1.091-.45.287-.289.452-.685.452-1.091 0-.407-.165-.806-.452-1.092zm36.645-29.039a1.554 1.554 0 0 0-1.091-.452c-.407 0-.804.165-1.092.452a1.553 1.553 0 0 0-.451 1.091c0 .407.164.804.451 1.091.288.288.687.452 1.092.452.406 0 .802-.164 1.091-.452.287-.287.452-.685.452-1.091 0-.406-.165-.802-.452-1.091z" fill="currentColor"></path></symbol><symbol viewBox="0 0 76 80" fill="none" xmlns="http://www.w3.org/2000/svg" color="inherit" id="earrings-delivery-1"><path d="M19.338 14.673c0-.736-.597-1.333-1.333-1.333a2.666 2.666 0 0 1-2.666-2.666 1.333 1.333 0 1 0-2.667 0 5.333 5.333 0 0 0 5.333 5.332c.736 0 1.333-.596 1.333-1.333zm-1.333-6.666a2.666 2.666 0 0 1 2.667 2.667 1.333 1.333 0 1 0 2.666 0 5.333 5.333 0 0 0-5.333-5.333 1.333 1.333 0 1 0 0 2.666z" fill="currentColor"></path><path d="M21.355 36.154a5.317 5.317 0 0 0-2.017-9.292v-5.614a10.665 10.665 0 1 0-2.666 0v5.614a5.317 5.317 0 0 0-2.018 9.292l-12.1 19.182a15.752 15.752 0 0 0 .511 15.826A17.232 17.232 0 0 0 18.005 80a17.23 17.23 0 0 0 14.938-8.832 15.76 15.76 0 0 0 .479-15.876L21.355 36.154zm-11.35-25.48a8 8 0 1 1 8 8 8.007 8.007 0 0 1-8-8zm6.115 19.445a2.666 2.666 0 0 1 4.551 1.886 2.636 2.636 0 0 1-.829 1.902 2.666 2.666 0 0 0-3.674 0 2.636 2.636 0 0 1-.83-1.902c0-.707.281-1.385.782-1.886zm14.52 39.715a14.596 14.596 0 0 1-12.636 7.5A14.59 14.59 0 0 1 5.372 69.83a13.1 13.1 0 0 1-.531-13.116l13.164-20.88L31.138 56.67a13.11 13.11 0 0 1-.497 13.164z" fill="currentColor"></path><path d="M28.841 58.022l-9.708-15.397a1.385 1.385 0 0 0-2.256 0l-2.426 3.85a1.333 1.333 0 0 0 2.254 1.422l1.3-2.06 8.542 13.542c.299.543.516 1.127.644 1.733a7.29 7.29 0 0 1 .146 1.918 8.493 8.493 0 0 1-.382 2.046c-.228.724-.537 1.42-.92 2.075a10.56 10.56 0 0 1-1.561 2.05 9.647 9.647 0 0 1-1.916 1.523 8.801 8.801 0 0 1-6.92.945 8.953 8.953 0 0 1-2.184-.947 9.527 9.527 0 0 1-1.916-1.521 10.563 10.563 0 0 1-2.477-4.133 8.6 8.6 0 0 1-.38-2.044 7.206 7.206 0 0 1 .133-1.922 6.35 6.35 0 0 1 .604-1.663l4.855-7.697a1.333 1.333 0 0 0-2.254-1.424l-4.89 7.77a8.956 8.956 0 0 0-.916 2.46 9.826 9.826 0 0 0-.193 2.638c.055.91.221 1.811.496 2.682a12.77 12.77 0 0 0 1.16 2.62 13.084 13.084 0 0 0 1.953 2.58c.73.75 1.554 1.405 2.451 1.946.887.534 1.84.946 2.836 1.227a11.4 11.4 0 0 0 6.18 0 11.56 11.56 0 0 0 2.835-1.227 12.257 12.257 0 0 0 2.452-1.947 13.1 13.1 0 0 0 1.95-2.578c.484-.827.873-1.706 1.16-2.62.275-.87.443-1.772.499-2.683a9.852 9.852 0 0 0-.195-2.638 8.99 8.99 0 0 0-.956-2.526zm30.493-43.349c0-.736-.597-1.333-1.333-1.333a2.666 2.666 0 0 1-2.666-2.666 1.333 1.333 0 1 0-2.667 0 5.333 5.333 0 0 0 5.333 5.332c.736 0 1.333-.596 1.333-1.333zM58 8.007a2.666 2.666 0 0 1 2.667 2.667 1.333 1.333 0 0 0 2.667 0A5.333 5.333 0 0 0 58 5.34a1.333 1.333 0 1 0 0 2.666z" fill="currentColor"></path><path d="M73.418 55.292L61.35 36.154a5.317 5.317 0 0 0-2.017-9.292v-5.614A10.665 10.665 0 0 0 58.001 0a10.666 10.666 0 0 0-1.334 21.247v5.615a5.317 5.317 0 0 0-2.017 9.292l-12.1 19.182a15.752 15.752 0 0 0 .51 15.826A17.232 17.232 0 0 0 58 80a17.23 17.23 0 0 0 14.939-8.832 15.76 15.76 0 0 0 .479-15.876zM50.002 10.674a8 8 0 1 1 7.999 8 8.007 8.007 0 0 1-8-8zm6.113 19.445a2.666 2.666 0 0 1 4.552 1.886 2.636 2.636 0 0 1-.83 1.902 2.666 2.666 0 0 0-3.673 0 2.636 2.636 0 0 1-.83-1.902c0-.707.281-1.385.781-1.886zm14.522 39.714a14.39 14.39 0 0 1-25.271 0 13.1 13.1 0 0 1-.53-13.12l13.165-20.88 13.133 20.836a13.11 13.11 0 0 1-.497 13.164z" fill="currentColor"></path><path d="M68.837 58.022L59.13 42.625a1.385 1.385 0 0 0-2.256 0l-2.426 3.85a1.333 1.333 0 0 0 2.254 1.422l1.3-2.06 8.542 13.542a6.35 6.35 0 0 1 .644 1.733c.129.633.174 1.28.133 1.923a8.493 8.493 0 0 1-.383 2.047 10.556 10.556 0 0 1-2.468 4.12 9.643 9.643 0 0 1-1.915 1.522 8.801 8.801 0 0 1-6.92.945 8.953 8.953 0 0 1-2.185-.947 9.527 9.527 0 0 1-1.916-1.521 10.559 10.559 0 0 1-2.477-4.133 8.6 8.6 0 0 1-.38-2.044 7.203 7.203 0 0 1 .134-1.922 6.35 6.35 0 0 1 .604-1.663l4.855-7.697a1.333 1.333 0 0 0-2.254-1.424l-4.896 7.766a8.965 8.965 0 0 0-.916 2.46 9.823 9.823 0 0 0-.193 2.636c.055.91.222 1.811.496 2.681.288.917.68 1.798 1.165 2.627a13.08 13.08 0 0 0 1.953 2.58 12.26 12.26 0 0 0 2.452 1.946c.886.534 1.84.946 2.836 1.227a11.4 11.4 0 0 0 6.18 0 11.56 11.56 0 0 0 2.835-1.227 12.253 12.253 0 0 0 2.452-1.946 13.1 13.1 0 0 0 1.95-2.579c.484-.827.873-1.706 1.16-2.62a11.2 11.2 0 0 0 .498-2.683 9.848 9.848 0 0 0-.194-2.637 8.984 8.984 0 0 0-.956-2.527z" fill="currentColor"></path></symbol><symbol viewBox="0 0 80 72" fill="none" xmlns="http://www.w3.org/2000/svg" color="inherit" id="earrings-delivery-2"><path d="M78.75 71.776H1.25c-.692 0-1.25-.559-1.25-1.25v-58.75c0-.69.558-1.25 1.25-1.25h77.5c.692 0 1.25.56 1.25 1.25v58.75c0 .691-.558 1.25-1.25 1.25zm-76.25-2.5h75v-56.25h-75v56.25z" fill="currentColor"></path><path d="M78.75 13.026H1.25A1.25 1.25 0 0 1 0 11.776V1.781c0-.69.558-1.25 1.25-1.25h77.5c.692 0 1.25.56 1.25 1.25v9.995c0 .69-.558 1.25-1.25 1.25zm-76.25-2.5h75V3.031h-75v7.495z" fill="currentColor"></path><path d="M48.754 13.025a1.25 1.25 0 0 1-1.25-1.25V8.03a1.25 1.25 0 1 1 2.5 0v3.746c0 .69-.559 1.25-1.25 1.25z" fill="currentColor"></path><path d="M48.754 9.279H31.228a1.25 1.25 0 0 1 0-2.5h17.526a1.25 1.25 0 1 1 0 2.5z" fill="currentColor"></path><path d="M31.227 13.025c-.69 0-1.25-.56-1.25-1.25V8.03a1.25 1.25 0 1 1 2.5 0v3.746c0 .69-.558 1.25-1.25 1.25zm43.772 55.011H5a1.25 1.25 0 0 1-1.25-1.25V15.53c0-.69.56-1.25 1.25-1.25h70c.69 0 1.25.56 1.25 1.25v51.257c0 .692-.56 1.25-1.25 1.25zm-68.748-2.5H73.75V16.78H6.25v48.757z" fill="currentColor"></path><path d="M27.5 59.28c-4.825 0-8.751-3.926-8.751-8.751 0-4.825 3.926-8.751 8.751-8.751 4.825 0 8.751 3.926 8.751 8.75 0 4.826-3.926 8.752-8.751 8.752zm0-15.002a6.258 6.258 0 0 0-6.251 6.25A6.258 6.258 0 0 0 27.5 56.78a6.258 6.258 0 0 0 6.251-6.251 6.258 6.258 0 0 0-6.251-6.251zm0-2.503a6.255 6.255 0 0 1-6.249-6.249A6.255 6.255 0 0 1 27.5 29.28a6.255 6.255 0 0 1 6.249 6.246 6.255 6.255 0 0 1-6.249 6.25zm0-9.995a3.752 3.752 0 0 0-3.749 3.746 3.754 3.754 0 0 0 3.749 3.75 3.754 3.754 0 0 0 3.749-3.75A3.752 3.752 0 0 0 27.5 31.78z" fill="currentColor"></path><path d="M27.5 31.776a1.25 1.25 0 0 1-1.25-1.25v-7.5a1.25 1.25 0 1 1 2.5 0v7.5c0 .69-.558 1.25-1.25 1.25z" fill="currentColor"></path><path d="M30 24.276h-5a1.25 1.25 0 1 1 0-2.5h5a1.25 1.25 0 1 1 0 2.5zm-2.5 20.002a1.25 1.25 0 0 1-1.25-1.25v-2.503c0-.691.558-1.25 1.25-1.25s1.25.559 1.25 1.25v2.503c0 .69-.558 1.25-1.25 1.25zm0 16.254c-.692 0-1.25-.558-1.25-1.25V58.03c0-.691.558-1.25 1.25-1.25s1.25.559 1.25 1.25v1.252c0 .692-.558 1.25-1.25 1.25zm25-1.252c-4.825 0-8.751-3.926-8.751-8.751 0-4.825 3.926-8.751 8.751-8.751 4.825 0 8.751 3.926 8.751 8.75 0 4.826-3.926 8.752-8.751 8.752zm0-15.002a6.258 6.258 0 0 0-6.251 6.25A6.258 6.258 0 0 0 52.5 56.78a6.258 6.258 0 0 0 6.251-6.251 6.258 6.258 0 0 0-6.251-6.251zm0-2.503a6.255 6.255 0 0 1-6.249-6.249A6.255 6.255 0 0 1 52.5 29.28a6.255 6.255 0 0 1 6.249 6.246 6.255 6.255 0 0 1-6.249 6.25zm0-9.995a3.752 3.752 0 0 0-3.749 3.746 3.754 3.754 0 0 0 3.749 3.75 3.754 3.754 0 0 0 3.749-3.75A3.752 3.752 0 0 0 52.5 31.78z" fill="currentColor"></path><path d="M52.5 31.776a1.25 1.25 0 0 1-1.25-1.25v-7.5a1.25 1.25 0 1 1 2.5 0v7.5c0 .69-.559 1.25-1.25 1.25z" fill="currentColor"></path><path d="M55 24.276h-5a1.25 1.25 0 1 1 0-2.5h5a1.25 1.25 0 1 1 0 2.5zm-2.5 20.002a1.25 1.25 0 0 1-1.25-1.25v-2.503a1.25 1.25 0 1 1 2.5 0v2.503c0 .69-.559 1.25-1.25 1.25zm0 16.254c-.691 0-1.25-.558-1.25-1.25V58.03a1.25 1.25 0 1 1 2.5 0v1.252c0 .692-.559 1.25-1.25 1.25z" fill="currentColor"></path></symbol><symbol viewBox="0 0 58 79" fill="none" xmlns="http://www.w3.org/2000/svg" color="inherit" id="necklace-delivery-1"><path d="M29.31 7.406c-1.865 0-11.173-.18-11.173-3.703C18.137.179 27.445 0 29.31 0c1.866 0 11.174.179 11.174 3.703S31.177 7.406 29.31 7.406zm-8.354-3.703c1.072.53 3.957 1.234 8.355 1.234 4.398 0 7.283-.703 8.355-1.234-1.072-.531-3.956-1.234-8.355-1.234-4.399 0-7.283.703-8.355 1.234z" fill="currentColor"></path><path d="M7.028 17.244c-.685 0-1.24-.552-1.24-1.234 0-.683.555-1.234 1.24-1.234 6.128 0 11.114-4.967 11.114-11.073 0-.683.554-1.234 1.24-1.234.684 0 1.239.551 1.239 1.234 0 7.466-6.098 13.541-13.593 13.541z" fill="currentColor"></path><path d="M2.076 22.215c-.685 0-1.24-.552-1.24-1.235 0-3.403 2.782-6.173 6.199-6.173a1.235 1.235 0 1 1 0 2.468c-2.05 0-3.72 1.662-3.72 3.706 0 .682-.554 1.234-1.239 1.234zm49.539-4.973c-7.494 0-13.592-6.074-13.592-13.54 0-.682.554-1.233 1.24-1.233.684 0 1.239.551 1.239 1.234 0 6.103 4.984 11.07 11.113 11.07a1.235 1.235 0 1 1 0 2.47z" fill="currentColor"></path><path d="M56.593 22.242a1.235 1.235 0 0 1-1.239-1.234 3.742 3.742 0 0 0-3.744-3.731 1.236 1.236 0 0 1 0-2.469c3.432 0 6.222 2.782 6.222 6.2 0 .681-.553 1.234-1.239 1.234z" fill="currentColor"></path><path d="M29.331 71.592C13.616 71.592.832 48.899.832 21.008c0-.683.554-1.235 1.24-1.235.685 0 1.238.552 1.238 1.235 0 26.082 11.917 48.115 26.021 48.115 14.104 0 26.02-22.035 26.02-48.115 0-.683.555-1.235 1.24-1.235.685 0 1.239.552 1.239 1.235 0 27.891-12.784 50.584-28.499 50.584z" fill="currentColor"></path><path d="M16.943 75.29c-.685 0-1.24-.552-1.24-1.235v-8.943c0-.682.555-1.235 1.24-1.235.685 0 1.239.553 1.239 1.235v8.944c0 .682-.554 1.234-1.24 1.234zm24.777 0a1.236 1.236 0 0 1-1.24-1.235v-8.943c0-.682.554-1.235 1.24-1.235.685 0 1.239.553 1.239 1.235v8.944c0 .682-.554 1.234-1.24 1.234z" fill="currentColor"></path><path d="M44.199 75.294l-29.734-.004c-.685 0-1.24-.554-1.24-1.235 0-.683.556-1.234 1.24-1.234l29.734.005c.685 0 1.239.553 1.239 1.234 0 .683-.555 1.234-1.24 1.234zm0 3.706l-29.734-.003c-.685 0-1.24-.552-1.24-1.234 0-.682.556-1.234 1.24-1.234l29.734.002c.685 0 1.239.553 1.239 1.234 0 .683-.555 1.235-1.24 1.235z" fill="currentColor"></path><path d="M14.465 78.997c-.685 0-1.24-.551-1.24-1.234v-3.708c0-.683.555-1.234 1.24-1.234.685 0 1.239.552 1.239 1.234v3.708c0 .683-.554 1.234-1.24 1.234zM44.199 79a1.236 1.236 0 0 1-1.239-1.234V74.06c0-.682.554-1.234 1.239-1.234.686 0 1.24.552 1.24 1.235v3.705c0 .683-.554 1.234-1.24 1.234zM13.864 23.452a3.095 3.095 0 0 1-3.098-3.086 3.095 3.095 0 0 1 3.098-3.086 3.095 3.095 0 0 1 3.098 3.086 3.095 3.095 0 0 1-3.098 3.086zm0-3.703a.62.62 0 0 0-.62.617.62.62 0 0 0 1.24 0 .62.62 0 0 0-.62-.617zm2.458 9.877a3.095 3.095 0 0 1-3.098-3.086 3.095 3.095 0 0 1 3.098-3.086 3.095 3.095 0 0 1 3.098 3.086 3.095 3.095 0 0 1-3.098 3.086zm0-3.703a.62.62 0 0 0-.62.617.62.62 0 0 0 1.24 0 .62.62 0 0 0-.62-.617zm3.738 9.874a3.095 3.095 0 0 1-3.099-3.086 3.095 3.095 0 0 1 3.098-3.085 3.095 3.095 0 0 1 3.098 3.085 3.095 3.095 0 0 1-3.098 3.086zm0-3.703a.62.62 0 0 0-.62.617.62.62 0 0 0 1.239 0 .62.62 0 0 0-.62-.617zm3.716 9.877a3.095 3.095 0 0 1-3.097-3.086 3.095 3.095 0 0 1 3.097-3.085 3.095 3.095 0 0 1 3.098 3.085 3.095 3.095 0 0 1-3.098 3.086zm0-3.703a.62.62 0 0 0-.62.617.62.62 0 0 0 1.24 0 .62.62 0 0 0-.62-.617zm5.556 8.64a3.095 3.095 0 0 1-3.097-3.086 3.095 3.095 0 0 1 3.097-3.085 3.095 3.095 0 0 1 3.098 3.085 3.095 3.095 0 0 1-3.098 3.086zm0-3.703a.62.62 0 0 0-.62.617.62.62 0 0 0 1.24 0 .62.62 0 0 0-.62-.617zm-6.817-27.159a3.095 3.095 0 0 1-3.098-3.086 3.095 3.095 0 0 1 3.098-3.086 3.095 3.095 0 0 1 3.098 3.086 3.095 3.095 0 0 1-3.098 3.086zm0-3.703a.62.62 0 0 0-.62.617.62.62 0 0 0 1.24 0 .62.62 0 0 0-.62-.617zm13.635 3.703a3.095 3.095 0 0 1-3.098-3.086 3.095 3.095 0 0 1 3.098-3.086 3.095 3.095 0 0 1 3.097 3.086 3.095 3.095 0 0 1-3.097 3.086zm0-3.703a.62.62 0 0 0-.62.617.62.62 0 0 0 1.239 0 .62.62 0 0 0-.62-.617zm-6.798 6.172a3.095 3.095 0 0 1-3.097-3.086 3.095 3.095 0 0 1 3.097-3.086 3.095 3.095 0 0 1 3.098 3.086 3.095 3.095 0 0 1-3.098 3.086zm0-3.703a.62.62 0 0 0-.62.617.62.62 0 0 0 1.24 0 .62.62 0 0 0-.62-.617z" fill="currentColor"></path><path d="M15.64 26.063c-.491 0-.957-.296-1.152-.78l-1.093-2.743a1.235 1.235 0 0 1 .696-1.604c.635-.25 1.355.06 1.609.693l1.093 2.744a1.234 1.234 0 0 1-1.152 1.69zm3.456 6.294c-.42 0-.83-.212-1.062-.597l-1.816-3.005a1.238 1.238 0 0 1 2.122-1.272l1.817 3.004a1.23 1.23 0 0 1-.423 1.693c-.199.12-.42.177-.638.177zm3.726 6.177c-.42 0-.831-.214-1.063-.6l-1.808-3.001a1.23 1.23 0 0 1 .425-1.693 1.242 1.242 0 0 1 1.7.423l1.808 3.002a1.231 1.231 0 0 1-1.062 1.869zm5.13 5.296a1.24 1.24 0 0 1-.825-.314l-2.797-2.485a1.231 1.231 0 0 1-.099-1.743 1.245 1.245 0 0 1 1.75-.1l2.796 2.487a1.23 1.23 0 0 1 .099 1.742 1.237 1.237 0 0 1-.924.413zM13.098 19.923a1.24 1.24 0 0 1-1.129-.723l-1.6-3.508a1.23 1.23 0 0 1 .614-1.634 1.237 1.237 0 0 1 1.64.611l1.601 3.509a1.23 1.23 0 0 1-.614 1.633 1.23 1.23 0 0 1-.512.112zM44.8 23.452a3.095 3.095 0 0 1-3.097-3.086 3.095 3.095 0 0 1 3.098-3.086 3.094 3.094 0 0 1 3.097 3.086 3.094 3.094 0 0 1-3.097 3.086zm0-3.703a.62.62 0 0 0-.619.617.62.62 0 0 0 1.24 0 .62.62 0 0 0-.62-.617zm-2.457 9.877a3.095 3.095 0 0 1-3.098-3.086 3.095 3.095 0 0 1 3.098-3.086 3.095 3.095 0 0 1 3.097 3.086 3.095 3.095 0 0 1-3.097 3.086zm0-3.703a.62.62 0 0 0-.62.617.62.62 0 0 0 1.24 0 .62.62 0 0 0-.62-.617zm-3.738 9.874a3.095 3.095 0 0 1-3.097-3.086 3.095 3.095 0 0 1 3.097-3.085 3.094 3.094 0 0 1 3.098 3.085 3.094 3.094 0 0 1-3.098 3.086zm0-3.703a.62.62 0 0 0-.619.617.62.62 0 0 0 1.239 0 .62.62 0 0 0-.62-.617zm-3.717 9.877a3.095 3.095 0 0 1-3.097-3.086 3.095 3.095 0 0 1 3.097-3.085 3.094 3.094 0 0 1 3.098 3.085 3.094 3.094 0 0 1-3.098 3.086zm0-3.703a.62.62 0 0 0-.62.617.62.62 0 0 0 1.24 0 .62.62 0 0 0-.62-.617z" fill="currentColor"></path><path d="M43.024 26.063a1.234 1.234 0 0 1-1.153-1.69l1.093-2.744a1.244 1.244 0 0 1 1.61-.693c.636.252.947.97.696 1.604l-1.094 2.743c-.194.484-.66.78-1.152.78zm-3.455 6.294c-.219 0-.439-.057-.639-.178a1.23 1.23 0 0 1-.422-1.693l1.816-3.004a1.238 1.238 0 0 1 2.123 1.272l-1.817 3.004a1.237 1.237 0 0 1-1.061.599zm-3.727 6.177a1.236 1.236 0 0 1-1.062-1.87l1.808-3.002a1.242 1.242 0 0 1 1.7-.423 1.23 1.23 0 0 1 .426 1.693l-1.808 3.002c-.232.386-.642.6-1.064.6zm-5.129 5.296c-.34 0-.68-.14-.925-.413a1.23 1.23 0 0 1 .1-1.742l2.796-2.486a1.245 1.245 0 0 1 1.75.099c.455.508.411 1.29-.1 1.743l-2.796 2.485a1.24 1.24 0 0 1-.825.314zm14.854-23.907c-.172 0-.345-.035-.512-.111a1.231 1.231 0 0 1-.615-1.634l1.601-3.509a1.237 1.237 0 0 1 1.64-.611 1.23 1.23 0 0 1 .616 1.633L46.696 19.2a1.24 1.24 0 0 1-1.13.723zm-17.959-3.889a1.26 1.26 0 0 1-.422-.074l-3.355-1.212a1.235 1.235 0 0 1-.744-1.582 1.244 1.244 0 0 1 1.588-.74l3.355 1.212a1.234 1.234 0 0 1-.422 2.396zm3.488-.005a1.232 1.232 0 0 1-.424-2.393l3.31-1.201a1.24 1.24 0 0 1 1.588.736 1.232 1.232 0 0 1-.74 1.583l-3.308 1.2a1.26 1.26 0 0 1-.425.075zm6.622-2.826c-.401 0-.795-.193-1.033-.551a1.23 1.23 0 0 1 .347-1.711l3.197-2.114a1.24 1.24 0 0 1 1.717.345 1.23 1.23 0 0 1-.347 1.71l-3.196 2.115c-.213.141-.45.206-.685.206zm-16.772-.011a1.23 1.23 0 0 1-.673-.199l-3.226-2.083a1.23 1.23 0 0 1-.366-1.707 1.241 1.241 0 0 1 1.714-.364l3.226 2.083a1.23 1.23 0 0 1 .366 1.707 1.241 1.241 0 0 1-1.04.563z" fill="currentColor"></path></symbol><symbol viewBox="0 0 79 79" fill="none" xmlns="http://www.w3.org/2000/svg" color="inherit" id="necklace-delivery-2"><path d="M39.5 5.267a3.94 3.94 0 0 0-1.316 7.657v1.56a1.317 1.317 0 1 0 2.633 0v-1.56A3.94 3.94 0 0 0 39.5 5.267zm0 5.266a1.317 1.317 0 1 1 0-2.633 1.317 1.317 0 0 1 0 2.633z" fill="currentColor"></path><path d="M78.958 10.757c.02-.073.035-.148.042-.224V3.95A3.95 3.95 0 0 0 75.05 0H3.95A3.95 3.95 0 0 0 0 3.95v6.583c.008.077.023.152.046.226.005.08.017.159.037.236l7.768 20.706L.03 68.191a1.004 1.004 0 0 0 0 .14c-.012.045-.022.09-.029.136v6.583A3.95 3.95 0 0 0 3.95 79h71.1A3.95 3.95 0 0 0 79 75.05v-6.583a1.235 1.235 0 0 0-.028-.132 1.016 1.016 0 0 0 0-.14l-7.82-36.494 7.768-20.706c.02-.078.032-.157.038-.238zM32.917 2.633h13.166v15.8H32.917v-15.8zm43.45 72.417c0 .727-.59 1.317-1.317 1.317H3.95c-.727 0-1.317-.59-1.317-1.317v-5.267h73.734v5.267zm0-65.833h-23.7a1.317 1.317 0 1 0 0 2.633h23.116L68.55 31.138c-.013.035-.007.07-.017.106a1.324 1.324 0 0 0-.041.264 1.26 1.26 0 0 0 0 .263c0 .037-.007.071 0 .108l7.563 35.271H2.945l7.337-34.233h54.235a1.317 1.317 0 0 0 0-2.634H10.129L3.217 11.85h23.116a1.317 1.317 0 1 0 0-2.633h-23.7V3.95c0-.727.59-1.317 1.317-1.317h26.333v15.8a2.633 2.633 0 0 0 2.634 2.634h13.166a2.633 2.633 0 0 0 2.634-2.634v-15.8H75.05c.727 0 1.317.59 1.317 1.317v5.267z" fill="currentColor"></path><path d="M46.967 48.08a2.611 2.611 0 0 0-.507.637h-3.05a10.725 10.725 0 0 0-1.184-4.304 12.63 12.63 0 0 0-3.276-3.971 15.464 15.464 0 0 0-4.764-2.623 18.055 18.055 0 0 0-11.538 0 15.444 15.444 0 0 0-4.762 2.622 12.655 12.655 0 0 0-3.277 3.972 1.317 1.317 0 0 0 2.338 1.21 10.023 10.023 0 0 1 2.603-3.14 12.89 12.89 0 0 1 3.958-2.176 15.413 15.413 0 0 1 9.82 0 12.88 12.88 0 0 1 3.95 2.175 9.99 9.99 0 0 1 2.603 3.143 8.021 8.021 0 0 1 0 7.505 10.015 10.015 0 0 1-2.602 3.142 12.902 12.902 0 0 1-3.958 2.175 15.406 15.406 0 0 1-9.82 0 12.89 12.89 0 0 1-3.958-2.175 10.02 10.02 0 0 1-2.603-3.142 1.317 1.317 0 1 0-2.338 1.211 12.652 12.652 0 0 0 3.277 3.971 15.445 15.445 0 0 0 4.768 2.62 17.956 17.956 0 0 0 11.538 0 15.468 15.468 0 0 0 4.764-2.623 12.629 12.629 0 0 0 3.276-3.971 10.87 10.87 0 0 0 1.021-2.988h3.214c.135.237.307.452.508.636 2.51 2.221 7.322 5.947 11.36 5.947 5.591 0 10.14-3.543 10.14-7.9s-4.549-7.9-10.14-7.9c-4.038 0-8.85 3.726-11.361 5.948zm18.867 1.953c0 2.905-3.367 5.267-7.506 5.267-2.28 0-5.875-1.975-9.611-5.247 3.737-3.311 7.331-5.286 9.611-5.286 4.139 0 7.505 2.362 7.505 5.266z" fill="currentColor"></path><path d="M54.158 49.343a1.317 1.317 0 0 0 .432 1.812 9.989 9.989 0 0 0 4.755 1.54 4.95 4.95 0 0 0 1.194-.14 3.888 3.888 0 0 0 2.458-1.863 1.317 1.317 0 1 0-2.276-1.317 1.24 1.24 0 0 1-.824.628 6.113 6.113 0 0 1-3.927-1.089 1.317 1.317 0 0 0-1.812.43z" fill="currentColor"></path></symbol><symbol viewBox="0 0 51 80" fill="none" xmlns="http://www.w3.org/2000/svg" color="inherit" id="pendant-delivery-1"><path d="M31.74 11.613c0-3.557-2.951-6.452-6.579-6.452-3.627 0-6.579 2.895-6.579 6.452s2.952 6.452 6.58 6.452c3.627 0 6.578-2.895 6.578-6.452zm-10.526 0c0-2.134 1.771-3.871 3.947-3.871 2.177 0 3.948 1.737 3.948 3.871s-1.771 3.871-3.948 3.871c-2.176 0-3.947-1.737-3.947-3.871z" fill="currentColor"></path><path d="M50.161 50.323c0-1.884-1.044-3.518-2.585-4.42.78-.9 1.27-2.05 1.27-3.322 0-2.661-2.07-4.831-4.71-5.108a5.035 5.035 0 0 0 .762-2.634c0-2.847-2.36-5.162-5.263-5.162a5.31 5.31 0 0 0-1.587.266c.16-.494.271-1.01.271-1.556 0-2.846-2.36-5.161-5.263-5.161-1.09 0-2.105.328-2.946.886a5.098 5.098 0 0 0-.924-1.592c4.552-1.62 7.818-5.89 7.818-10.907C37.004 5.209 31.692 0 25.16 0c-6.529 0-11.84 5.209-11.84 11.613 0 5.017 3.266 9.288 7.817 10.907-.4.47-.713 1.004-.923 1.592a5.309 5.309 0 0 0-2.946-.886c-2.903 0-5.263 2.315-5.263 5.161 0 .546.11 1.062.27 1.556a5.293 5.293 0 0 0-1.586-.266c-2.903 0-5.263 2.315-5.263 5.162 0 .966.289 1.862.761 2.635-2.64.276-4.709 2.446-4.709 5.107 0 1.272.49 2.422 1.27 3.322-1.54.902-2.586 2.536-2.586 4.42 0 1.883 1.045 3.517 2.586 4.419-.78.9-1.27 2.05-1.27 3.323 0 2.66 2.07 4.83 4.71 5.105a5.043 5.043 0 0 0-.762 2.636c0 2.847 2.36 5.162 5.263 5.162a5.29 5.29 0 0 0 1.586-.266 5.012 5.012 0 0 0-.27 1.556c0 2.847 2.36 5.161 5.263 5.161a5.31 5.31 0 0 0 2.946-.886A5.247 5.247 0 0 0 25.16 80a5.248 5.248 0 0 0 4.95-3.467 5.31 5.31 0 0 0 2.945.886c2.903 0 5.263-2.314 5.263-5.16 0-.547-.11-1.063-.27-1.557.503.157 1.03.266 1.586.266 2.903 0 5.263-2.315 5.263-5.162a5.05 5.05 0 0 0-.762-2.636c2.64-.275 4.71-2.445 4.71-5.105 0-1.273-.49-2.422-1.27-3.323 1.54-.902 2.585-2.535 2.585-4.42zM43.582 40c1.45 0 2.632 1.157 2.632 2.58s-1.182 2.581-2.632 2.581c-1.45 0-2.631-1.158-2.631-2.58 0-1.424 1.181-2.581 2.631-2.581zm-3.947-7.742c1.45 0 2.632 1.157 2.632 2.58s-1.182 2.581-2.632 2.581c-1.45 0-2.631-1.158-2.631-2.58 0-1.423 1.181-2.58 2.631-2.58zm-6.579-6.452c1.45 0 2.632 1.158 2.632 2.581 0 1.422-1.182 2.58-2.632 2.58-1.45 0-2.631-1.158-2.631-2.58 0-1.423 1.181-2.58 2.631-2.58zm0 7.742c.557 0 1.083-.108 1.587-.265a5.008 5.008 0 0 0-.271 1.556c0 .609.127 1.184.325 1.727l-4.533 4.446-3.687-1.81v-8.417a5.284 5.284 0 0 0 1.63-.704 5.248 5.248 0 0 0 4.95 3.467zm-3.947 9.83v13.89l-3.948 1.935-3.947-1.936V43.378l3.947-1.935 3.948 1.935zm-6.58-17.572c0-1.423 1.182-2.58 2.632-2.58 1.45 0 2.632 1.157 2.632 2.58 0 1.422-1.182 2.581-2.632 2.581-1.45 0-2.631-1.159-2.631-2.58zm-6.578-14.193c0-4.98 4.133-9.032 9.21-9.032 5.078 0 9.21 4.053 9.21 9.032 0 4.98-4.132 9.032-9.21 9.032-5.077 0-9.21-4.053-9.21-9.032zm6.264 18.468a5.285 5.285 0 0 0 1.63.704v8.418l-3.688 1.807-4.533-4.445a4.993 4.993 0 0 0 .327-1.726c0-.546-.11-1.062-.271-1.556.504.157 1.03.265 1.587.265a5.247 5.247 0 0 0 4.948-3.467zm-4.948-4.275c1.45 0 2.631 1.158 2.631 2.581 0 1.422-1.181 2.58-2.631 2.58-1.45 0-2.632-1.158-2.632-2.58 0-1.423 1.182-2.58 2.632-2.58zm-3.158 12.922l4.473 4.387v5.917h-8.081A5.096 5.096 0 0 0 9.418 47c1.54-.902 2.586-2.535 2.586-4.42a5.05 5.05 0 0 0-.762-2.636 5.248 5.248 0 0 0 2.867-1.216zm-3.421-6.47c1.45 0 2.631 1.157 2.631 2.58s-1.181 2.581-2.631 2.581c-1.45 0-2.632-1.158-2.632-2.58 0-1.423 1.182-2.58 2.632-2.58zM6.74 40c1.45 0 2.632 1.157 2.632 2.58S8.19 45.162 6.74 45.162c-1.45 0-2.631-1.158-2.631-2.58C4.109 41.157 5.29 40 6.74 40zM2.793 50.323c0-1.424 1.182-2.581 2.632-2.581 1.45 0 2.631 1.157 2.631 2.58 0 1.422-1.181 2.581-2.631 2.581-1.45 0-2.632-1.158-2.632-2.58zM6.74 60.645c-1.45 0-2.631-1.159-2.631-2.58 0-1.424 1.181-2.581 2.631-2.581 1.45 0 2.632 1.157 2.632 2.58 0 1.422-1.182 2.581-2.632 2.581zm3.948 7.742c-1.45 0-2.632-1.159-2.632-2.58 0-1.424 1.182-2.581 2.632-2.581 1.45 0 2.631 1.157 2.631 2.58 0 1.422-1.181 2.581-2.631 2.581zm.554-7.688a5.035 5.035 0 0 0 .761-2.634c0-1.884-1.044-3.518-2.585-4.42.505-.583.88-1.27 1.083-2.032h8.081v5.917l-4.473 4.387a5.259 5.259 0 0 0-2.867-1.218zm6.025 14.14c-1.45 0-2.632-1.159-2.632-2.58 0-1.424 1.182-2.582 2.632-2.582 1.45 0 2.631 1.158 2.631 2.581 0 1.422-1.181 2.58-2.631 2.58zm0-7.742c-.557 0-1.083.108-1.587.266.16-.495.27-1.01.27-1.557 0-.609-.127-1.184-.324-1.727l4.533-4.444 3.687 1.808v8.418a5.285 5.285 0 0 0-1.63.703 5.247 5.247 0 0 0-4.95-3.467zm7.894 10.322c-1.45 0-2.631-1.158-2.631-2.58 0-1.424 1.181-2.58 2.631-2.58 1.45 0 2.632 1.156 2.632 2.58 0 1.422-1.182 2.58-2.632 2.58zm2.946-6.855a5.298 5.298 0 0 0-1.63-.703v-8.418l3.688-1.808 4.533 4.444a5.005 5.005 0 0 0-.326 1.727c0 .546.11 1.062.271 1.557a5.294 5.294 0 0 0-1.587-.266 5.248 5.248 0 0 0-4.949 3.467zm4.95 4.275c-1.45 0-2.633-1.159-2.633-2.58 0-1.424 1.182-2.582 2.632-2.582 1.45 0 2.632 1.158 2.632 2.581 0 1.422-1.182 2.58-2.632 2.58zm3.156-12.923L31.74 57.53v-5.917h2.632v-2.58H31.74v-5.918l4.473-4.387a5.262 5.262 0 0 0 2.868 1.216 5.043 5.043 0 0 0-.762 2.637c0 1.883 1.045 3.517 2.586 4.419a5.095 5.095 0 0 0-1.083 2.032h-2.819v2.58h2.819a5.08 5.08 0 0 0 1.083 2.033c-1.541.902-2.586 2.536-2.586 4.42 0 .966.29 1.861.762 2.634a5.275 5.275 0 0 0-2.868 1.217zm3.422 6.471c-1.45 0-2.631-1.159-2.631-2.58 0-1.424 1.181-2.581 2.631-2.581 1.45 0 2.632 1.157 2.632 2.58 0 1.422-1.182 2.581-2.632 2.581zm3.947-7.742c-1.45 0-2.631-1.159-2.631-2.58 0-1.424 1.181-2.581 2.631-2.581 1.45 0 2.632 1.157 2.632 2.58 0 1.422-1.182 2.581-2.632 2.581zm1.316-7.742c-1.45 0-2.631-1.158-2.631-2.58 0-1.424 1.181-2.581 2.631-2.581 1.45 0 2.632 1.157 2.632 2.58 0 1.422-1.182 2.581-2.632 2.581z" fill="currentColor"></path></symbol><symbol viewBox="0 0 80 80" fill="none" xmlns="http://www.w3.org/2000/svg" color="inherit" id="pendant-delivery-2"><path d="M40 5.333a3.99 3.99 0 0 0-1.333 7.755v1.579a1.333 1.333 0 1 0 2.666 0v-1.58A3.99 3.99 0 0 0 40 5.334zm0 5.334A1.333 1.333 0 1 1 40 8a1.333 1.333 0 0 1 0 2.667z" fill="currentColor"></path><path d="M79.957 10.893c.021-.074.036-.15.043-.226V4a4 4 0 0 0-4-4H4a4 4 0 0 0-4 4v6.667a1.2 1.2 0 0 0 .047.228c.004.08.017.161.037.24l7.867 20.968L.029 69.055a1.017 1.017 0 0 0 0 .141 1.247 1.247 0 0 0-.029.137V76a4 4 0 0 0 4 4h72a4 4 0 0 0 4-4v-6.667a1.262 1.262 0 0 0-.028-.133 1.011 1.011 0 0 0 0-.141l-7.92-36.956 7.867-20.968c.02-.08.033-.16.038-.242zM33.333 2.667h13.334v16H33.333v-16zm44 73.333c0 .736-.597 1.333-1.333 1.333H4A1.333 1.333 0 0 1 2.667 76v-5.333h74.666V76zm0-66.667h-24a1.333 1.333 0 1 0 0 2.667h23.41l-7.326 19.532c-.013.036-.006.072-.017.108a1.335 1.335 0 0 0-.041.267c-.01.088-.01.177 0 .266 0 .038-.007.072 0 .11L77.017 68H2.983l7.429-34.667h54.921a1.333 1.333 0 0 0 0-2.666H10.257L3.257 12h23.41a1.333 1.333 0 1 0 0-2.667h-24V4c0-.736.597-1.333 1.333-1.333h26.667v16a2.667 2.667 0 0 0 2.666 2.666h13.334a2.667 2.667 0 0 0 2.666-2.666v-16H76c.736 0 1.333.597 1.333 1.333v5.333z" fill="currentColor"></path><path d="M47.561 48.69a2.646 2.646 0 0 0-.513.644H43.96a10.864 10.864 0 0 0-1.2-4.36 12.792 12.792 0 0 0-3.317-4.02 15.658 15.658 0 0 0-4.824-2.656 18.283 18.283 0 0 0-11.684 0 15.64 15.64 0 0 0-4.823 2.655 12.813 12.813 0 0 0-3.318 4.022 1.334 1.334 0 0 0 2.367 1.227 10.15 10.15 0 0 1 2.636-3.182 13.054 13.054 0 0 1 4.008-2.203 15.61 15.61 0 0 1 9.944 0 13.041 13.041 0 0 1 4 2.203 10.117 10.117 0 0 1 2.636 3.183 8.123 8.123 0 0 1 0 7.6 10.142 10.142 0 0 1-2.634 3.181 13.068 13.068 0 0 1-4.008 2.203 15.6 15.6 0 0 1-9.944 0 13.054 13.054 0 0 1-4.008-2.203 10.147 10.147 0 0 1-2.636-3.181 1.333 1.333 0 1 0-2.368 1.226 12.814 12.814 0 0 0 3.318 4.022 15.64 15.64 0 0 0 4.828 2.652 18.184 18.184 0 0 0 11.684 0 15.664 15.664 0 0 0 4.825-2.656 12.787 12.787 0 0 0 3.317-4.022c.49-.952.839-1.971 1.035-3.025h3.254c.137.24.31.458.515.644 2.541 2.25 7.415 6.023 11.504 6.023 5.661 0 10.267-3.588 10.267-8s-4.606-8-10.267-8c-4.09 0-8.963 3.773-11.506 6.023zm19.106 1.977c0 2.941-3.41 5.333-7.6 5.333-2.31 0-5.95-2-9.733-5.313 3.783-3.353 7.423-5.353 9.733-5.353 4.19 0 7.6 2.391 7.6 5.333z" fill="currentColor"></path><path d="M54.844 49.968a1.334 1.334 0 0 0 .438 1.835 10.115 10.115 0 0 0 4.814 1.56 4.98 4.98 0 0 0 1.21-.143 3.937 3.937 0 0 0 2.489-1.887A1.334 1.334 0 1 0 61.49 50a1.26 1.26 0 0 1-.835.636 6.19 6.19 0 0 1-3.976-1.103 1.334 1.334 0 0 0-1.835.435z" fill="currentColor"></path></symbol><symbol viewBox="0 0 73 77" fill="none" xmlns="http://www.w3.org/2000/svg" color="inherit" id="pusets-delivery-1"><path d="M17.852 77c-8.294 0-15.04-6.746-15.04-15.039 0-8.292 6.746-15.038 15.04-15.038 8.293 0 15.039 6.746 15.039 15.038C32.89 70.254 26.145 77 17.85 77zm0-27.67c-6.967 0-12.633 5.666-12.633 12.631 0 6.966 5.666 12.633 12.633 12.633 6.966 0 12.632-5.667 12.632-12.633 0-6.965-5.666-12.632-12.632-12.632z" fill="currentColor"></path><path d="M16.05 49.447a1.202 1.202 0 0 1-1.204-1.203V32.467a1.203 1.203 0 0 1 2.406 0v15.776c0 .665-.537 1.204-1.203 1.204zm3.606 0a1.202 1.202 0 0 1-1.203-1.203V32.467a1.203 1.203 0 1 1 2.406 0v15.776c0 .665-.537 1.204-1.203 1.204zm0-45.237a1.202 1.202 0 0 1-1.203-1.202.602.602 0 0 0-1.2 0 1.203 1.203 0 1 1-2.407 0A3.01 3.01 0 0 1 17.852 0a3.011 3.011 0 0 1 3.007 3.008c0 .664-.537 1.203-1.203 1.203zM8.819 33.67c-4.638 0-8.413-3.774-8.413-8.412 0-4.638 3.775-8.412 8.413-8.412s8.412 3.774 8.412 8.412a1.203 1.203 0 1 1-2.407 0 6.012 6.012 0 0 0-6.005-6.006 6.012 6.012 0 0 0-6.007 6.006 6.012 6.012 0 0 0 6.007 6.006 1.203 1.203 0 0 1 0 2.406z" fill="currentColor"></path><path d="M8.819 30.08a4.826 4.826 0 0 1-4.82-4.821 4.826 4.826 0 0 1 4.82-4.822 4.827 4.827 0 0 1 4.822 4.822 1.203 1.203 0 1 1-2.407 0 2.418 2.418 0 0 0-2.415-2.416 2.416 2.416 0 0 0 0 4.83 1.203 1.203 0 0 1 0 2.406zm18.056 3.61a1.202 1.202 0 1 1 0-2.407 6.023 6.023 0 0 0 6.016-6.015 6.023 6.023 0 0 0-6.016-6.016 6.023 6.023 0 0 0-6.016 6.016 1.202 1.202 0 1 1-2.406 0c0-4.644 3.78-8.422 8.422-8.422 4.643 0 8.422 3.778 8.422 8.422s-3.78 8.422-8.422 8.422z" fill="currentColor"></path><path d="M26.875 30.08a1.202 1.202 0 1 1 0-2.406 2.409 2.409 0 0 0 2.406-2.406 2.409 2.409 0 0 0-2.406-2.406 2.409 2.409 0 0 0-2.406 2.406 1.202 1.202 0 1 1-2.407 0 4.817 4.817 0 0 1 4.813-4.813 4.817 4.817 0 0 1 4.813 4.813 4.817 4.817 0 0 1-4.813 4.812z" fill="currentColor"></path><path d="M26.875 30.08H8.819a1.202 1.202 0 1 1 0-2.406h18.056a1.203 1.203 0 1 1 0 2.406zm0 3.61H8.819a1.202 1.202 0 1 1 0-2.407h18.056a1.203 1.203 0 1 1 0 2.407z" fill="currentColor"></path><path d="M23.266 30.08a1.202 1.202 0 0 1-1.203-1.204v-3.608a1.203 1.203 0 1 1 2.406 0v3.608c0 .664-.538 1.203-1.203 1.203zm-7.239 0a1.203 1.203 0 0 1-1.203-1.203V3.007a1.203 1.203 0 0 1 2.407 0v25.87c0 .665-.538 1.204-1.204 1.204zm3.711 0a1.203 1.203 0 0 1-1.203-1.203V3.007a1.203 1.203 0 0 1 2.406 0v25.87c0 .665-.537 1.204-1.203 1.204zm-7.3 0a1.202 1.202 0 0 1-1.204-1.203V25.26a1.202 1.202 0 1 1 2.407 0v3.618c0 .665-.538 1.203-1.204 1.203zm14.437 33.084a1.202 1.202 0 0 1-1.203-1.203c0-4.312-3.509-7.82-7.82-7.82a1.202 1.202 0 0 1-1.204-1.203c0-.666.538-1.204 1.204-1.204 5.639 0 10.226 4.588 10.226 10.227 0 .666-.537 1.203-1.203 1.203zM55.153 77c-8.293 0-15.039-6.746-15.039-15.039 0-8.292 6.746-15.038 15.04-15.038 8.292 0 15.038 6.746 15.038 15.038C70.192 70.254 63.446 77 55.153 77zm0-27.67c-6.966 0-12.633 5.666-12.633 12.631 0 6.966 5.667 12.633 12.633 12.633 6.966 0 12.633-5.667 12.633-12.633 0-6.965-5.667-12.632-12.633-12.632z" fill="currentColor"></path><path d="M53.348 49.447a1.202 1.202 0 0 1-1.203-1.203V32.467a1.203 1.203 0 0 1 2.407 0v15.776c0 .665-.538 1.204-1.204 1.204zm3.61 0a1.202 1.202 0 0 1-1.203-1.203V32.467a1.203 1.203 0 0 1 2.406 0v15.776c0 .665-.538 1.204-1.203 1.204zm0-45.237a1.202 1.202 0 0 1-1.203-1.202.603.603 0 0 0-1.203 0 1.203 1.203 0 1 1-2.407 0A3.011 3.011 0 0 1 55.153 0a3.011 3.011 0 0 1 3.008 3.008c0 .664-.538 1.203-1.203 1.203zM46.12 33.67c-4.638 0-8.412-3.774-8.412-8.412 0-4.638 3.774-8.412 8.412-8.412 4.638 0 8.412 3.774 8.412 8.412a1.203 1.203 0 1 1-2.406 0 6.012 6.012 0 0 0-6.006-6.006 6.013 6.013 0 0 0-6.006 6.006 6.012 6.012 0 0 0 6.006 6.006 1.203 1.203 0 0 1 0 2.406z" fill="currentColor"></path><path d="M46.12 30.08a4.827 4.827 0 0 1-4.822-4.821 4.827 4.827 0 0 1 4.822-4.822 4.826 4.826 0 0 1 4.82 4.822 1.203 1.203 0 1 1-2.406 0 2.417 2.417 0 0 0-2.414-2.416 2.419 2.419 0 0 0-2.416 2.416 2.417 2.417 0 0 0 2.416 2.414 1.203 1.203 0 0 1 0 2.406zm18.057 3.61a1.203 1.203 0 1 1 0-2.407 6.022 6.022 0 0 0 6.015-6.015 6.022 6.022 0 0 0-6.015-6.016 6.023 6.023 0 0 0-6.016 6.016 1.202 1.202 0 1 1-2.406 0c0-4.644 3.779-8.422 8.422-8.422 4.642 0 8.421 3.778 8.421 8.422s-3.779 8.422-8.421 8.422z" fill="currentColor"></path><path d="M64.177 30.08a1.203 1.203 0 1 1 0-2.406 2.409 2.409 0 0 0 2.406-2.406 2.409 2.409 0 0 0-2.406-2.406 2.409 2.409 0 0 0-2.407 2.406 1.202 1.202 0 1 1-2.406 0 4.817 4.817 0 0 1 4.813-4.813 4.817 4.817 0 0 1 4.812 4.813 4.817 4.817 0 0 1-4.812 4.812z" fill="currentColor"></path><path d="M64.177 30.08H46.12a1.202 1.202 0 1 1 0-2.406h18.057a1.203 1.203 0 1 1 0 2.406zm0 3.61H46.12a1.202 1.202 0 1 1 0-2.407h18.057a1.203 1.203 0 1 1 0 2.407z" fill="currentColor"></path><path d="M60.567 30.08a1.203 1.203 0 0 1-1.203-1.204v-3.608a1.203 1.203 0 0 1 2.406 0v3.608c0 .664-.537 1.203-1.203 1.203zm-7.237 0a1.203 1.203 0 0 1-1.204-1.203V3.007a1.203 1.203 0 0 1 2.406 0v25.87c0 .665-.537 1.204-1.203 1.204zm3.71 0a1.203 1.203 0 0 1-1.204-1.203V3.007a1.203 1.203 0 0 1 2.407 0v25.87c0 .665-.538 1.204-1.204 1.204zm-7.303 0a1.203 1.203 0 0 1-1.203-1.203V25.26a1.203 1.203 0 1 1 2.406 0v3.618c0 .665-.538 1.203-1.203 1.203zm14.44 33.084a1.202 1.202 0 0 1-1.204-1.203c0-4.312-3.508-7.82-7.82-7.82a1.202 1.202 0 1 1 0-2.407c5.64 0 10.227 4.588 10.227 10.227 0 .666-.538 1.203-1.203 1.203z" fill="currentColor"></path></symbol><symbol viewBox="0 0 79 79" fill="none" xmlns="http://www.w3.org/2000/svg" color="inherit" id="pusets-delivery-2"><path d="M39.5 5.267a3.94 3.94 0 0 0-1.317 7.657v1.56a1.317 1.317 0 1 0 2.634 0v-1.56A3.94 3.94 0 0 0 39.5 5.267zm0 5.266a1.317 1.317 0 1 1 0-2.633 1.317 1.317 0 0 1 0 2.633z" fill="currentColor"></path><path d="M78.958 10.757c.02-.073.035-.148.042-.224V3.95A3.95 3.95 0 0 0 75.05 0H3.95A3.95 3.95 0 0 0 0 3.95v6.583c.008.077.023.152.046.226.005.08.017.159.037.236l7.768 20.706L.03 68.191a1.004 1.004 0 0 0 0 .14c-.012.045-.022.09-.029.136v6.583A3.95 3.95 0 0 0 3.95 79h71.1A3.95 3.95 0 0 0 79 75.05v-6.583a1.235 1.235 0 0 0-.028-.132 1.016 1.016 0 0 0 0-.14l-7.82-36.494 7.768-20.706c.02-.078.032-.157.038-.238zM32.917 2.633h13.166v15.8H32.917v-15.8zm43.45 72.417c0 .727-.59 1.317-1.317 1.317H3.95c-.727 0-1.317-.59-1.317-1.317v-5.267h73.734v5.267zm0-65.833h-23.7a1.317 1.317 0 1 0 0 2.633h23.116L68.55 31.138c-.013.035-.007.07-.017.106a1.324 1.324 0 0 0-.041.264 1.26 1.26 0 0 0 0 .263c0 .037-.007.071 0 .108l7.563 35.271H2.945l7.337-34.233h54.235a1.317 1.317 0 0 0 0-2.634H10.129L3.217 11.85h23.116a1.317 1.317 0 1 0 0-2.633h-23.7V3.95c0-.727.59-1.317 1.317-1.317h26.333v15.8a2.633 2.633 0 0 0 2.634 2.634h13.166a2.633 2.633 0 0 0 2.634-2.634v-15.8H75.05c.727 0 1.317.59 1.317 1.317v5.267z" fill="currentColor"></path></symbol><symbol viewBox="0 0 62 80" fill="none" xmlns="http://www.w3.org/2000/svg" color="inherit" id="rings-delivery-1"><path d="M11.684 10.857l-6.666 4a1.333 1.333 0 1 0 1.374 2.286l6.666-4a1.333 1.333 0 0 0-1.373-2.286zM4.371 8h8a1.333 1.333 0 1 0 0-2.667h-8a1.333 1.333 0 0 0 0 2.667zm46.019 2.857a1.333 1.333 0 0 0-1.372 2.286l6.666 4a1.334 1.334 0 1 0 1.374-2.286l-6.667-4zM49.705 8h8a1.333 1.333 0 0 0 0-2.667h-8a1.333 1.333 0 0 0 0 2.667z" fill="currentColor"></path><path d="M31.038 80c15.872-.018 29.107-12.143 30.512-27.952 1.404-15.81-9.486-30.078-25.105-32.895L45.427 7.48c.029-.047.053-.097.074-.148.047-.074.086-.154.117-.236.028-.087.046-.176.054-.267.015-.053.026-.107.033-.162a1.073 1.073 0 0 0-.016-.076 1.307 1.307 0 0 0-.055-.275 1.327 1.327 0 0 0-.072-.225 1.397 1.397 0 0 0-.133-.203 1.404 1.404 0 0 0-.173-.207c-.02-.017-.029-.04-.047-.055L38.542.292A1.332 1.332 0 0 0 37.705 0H24.37c-.302 0-.597.103-.833.292L16.87 5.626c-.018.015-.028.038-.046.055a1.334 1.334 0 0 0-.174.207c-.05.064-.095.131-.133.203a1.34 1.34 0 0 0-.072.225 1.27 1.27 0 0 0-.055.275.807.807 0 0 0-.02.076c.008.053.019.105.032.157.01.09.027.18.055.266.03.083.07.162.117.237.02.05.045.1.073.148l8.984 11.673C9.998 21.951-.908 36.227.497 52.048 1.903 67.867 15.155 79.996 31.038 80zm0-61.334c-.083 0-.164 0-.248.007L27.51 8h7.056l-3.28 10.673c-.084-.007-.166-.007-.248-.007zM37.356 8h4.307l-7.17 9.319 2.863-9.32zm-8.433-2.667l2.115-2.115 2.115 2.115h-4.23zM24.72 8l2.864 9.319-7.17-9.32h4.306zm15.85-2.667h-3.646l-2.666-2.666h2.98l3.333 2.666zM24.838 2.667h2.98L25.15 5.333h-3.644l3.33-2.666zm6.201 18.667c15.464 0 28 12.536 28 28 0 15.463-12.536 28-28 28s-28-12.537-28-28c.017-15.458 12.543-27.984 28-28z" fill="currentColor"></path><path d="M31.038 74.667c13.99 0 25.333-11.342 25.333-25.334C56.371 35.343 45.03 24 31.038 24 17.047 24 5.705 35.342 5.705 49.334 5.72 63.318 17.053 74.65 31.038 74.666zm0-48c12.518 0 22.667 10.148 22.667 22.666C53.705 61.852 43.556 72 31.038 72 18.52 72 8.37 61.852 8.37 49.334 8.385 36.82 18.525 26.68 31.038 26.666z" fill="currentColor"></path></symbol><symbol viewBox="0 0 81 54" fill="none" xmlns="http://www.w3.org/2000/svg" color="inherit" id="rings-delivery-2"><path d="M79.734 53.161H34.173c-.7 0-1.266-.565-1.266-1.265V20.259c0-.7.565-1.266 1.266-1.266h45.561c.7 0 1.266.566 1.266 1.266v31.637c0 .7-.566 1.265-1.266 1.265zM35.438 50.63h43.03V21.525h-43.03V50.63zm-6.322 2.531h-15.19a1.264 1.264 0 0 1-1.265-1.266V1.265c0-.699.566-1.265 1.266-1.265h15.189c.7 0 1.265.566 1.265 1.266v50.63c0 .7-.565 1.265-1.265 1.265zM15.193 50.63H27.85V2.53H15.193v48.1z" fill="currentColor"></path><path d="M53.14 53.161a1.264 1.264 0 0 1-1.265-1.265V20.259a1.265 1.265 0 1 1 2.532 0v31.637c0 .7-.566 1.265-1.266 1.265zm7.594 0c-.7 0-1.266-.565-1.266-1.265V20.259a1.265 1.265 0 1 1 2.532 0v31.637c0 .7-.566 1.265-1.266 1.265z" fill="currentColor"></path><path d="M40.948 21.522a1.266 1.266 0 0 1-1.232-1.557c1.898-8.022 8.988-13.626 17.244-13.626 8.253 0 15.345 5.604 17.244 13.626a1.265 1.265 0 1 1-2.462.584C70.115 13.673 64.035 8.87 56.96 8.87c-7.077 0-13.155 4.802-14.78 11.678a1.27 1.27 0 0 1-1.232.973z" fill="currentColor"></path><path d="M44.864 21.56a1.266 1.266 0 0 1-1.208-1.642c1.82-5.855 7.166-9.788 13.302-9.788a13.873 13.873 0 0 1 13.29 9.748 1.267 1.267 0 0 1-2.415.759 11.35 11.35 0 0 0-10.875-7.975c-5.02 0-9.395 3.219-10.885 8.008-.168.543-.668.89-1.21.89zM56.956 8.863a1.26 1.26 0 0 1-.895-.371L49.73 2.16A1.265 1.265 0 1 1 51.52.37l6.33 6.332a1.263 1.263 0 0 1-.894 2.16z" fill="currentColor"></path><path d="M56.956 8.863a1.264 1.264 0 0 1-.895-2.16L62.392.37a1.265 1.265 0 1 1 1.79 1.79l-6.33 6.33a1.263 1.263 0 0 1-.896.372z" fill="currentColor"></path><path d="M63.287 2.531H50.625a1.265 1.265 0 1 1 0-2.531h12.662a1.265 1.265 0 1 1 0 2.531zM7.597 44.307C3.407 44.307 0 40.899 0 36.709c0-4.188 3.407-7.596 7.597-7.596a1.265 1.265 0 1 1 0 2.532 5.07 5.07 0 0 0-5.066 5.064 5.071 5.071 0 0 0 5.066 5.066 5.07 5.07 0 0 0 5.064-5.066 1.265 1.265 0 1 1 2.532 0c0 4.19-3.409 7.598-7.596 7.598z" fill="currentColor"></path><path d="M13.927 31.645h-6.33a1.265 1.265 0 1 1 0-2.532h6.33a1.265 1.265 0 1 1 0 2.532zM7.598 24.05C3.408 24.05 0 20.641 0 16.453c0-4.19 3.407-7.597 7.597-7.597 4.188 0 7.596 3.407 7.596 7.597 0 .7-.566 1.265-1.266 1.265-.7 0-1.266-.565-1.266-1.265a5.07 5.07 0 0 0-5.064-5.066 5.07 5.07 0 0 0-5.066 5.066 5.07 5.07 0 0 0 5.066 5.064 1.265 1.265 0 1 1 0 2.531z" fill="currentColor"></path><path d="M13.928 24.05h-6.33a1.265 1.265 0 1 1 0-2.532h6.33a1.265 1.265 0 1 1 0 2.531z" fill="currentColor"></path><path d="M10.13 31.645a5.07 5.07 0 0 1-5.065-5.063 5.07 5.07 0 0 1 5.065-5.064 1.265 1.265 0 1 1 0 2.531 2.534 2.534 0 0 0-2.533 2.533 2.534 2.534 0 0 0 2.533 2.531 1.265 1.265 0 1 1 0 2.532zm18.98-7.595H13.928a1.265 1.265 0 1 1 0-2.532H29.11a1.265 1.265 0 1 1 0 2.531zm.006 7.595h-15.19a1.265 1.265 0 1 1 0-2.532h15.19a1.265 1.265 0 1 1 0 2.532z" fill="currentColor"></path></symbol><symbol viewBox="0 0 58 60" xmlns="http://www.w3.org/2000/svg" fill="none" color="inherit" id="step-1"><path d="M8.166 7.624a.95.95 0 0 1-.673-1.626L13.211.28a.95.95 0 0 1 1.347 0 .95.95 0 0 1 0 1.346L8.84 7.345a.95.95 0 0 1-.673.279zm11.431 0a.948.948 0 0 1-.673-.279l-5.718-5.719a.95.95 0 0 1 0-1.346.95.95 0 0 1 1.347 0l5.718 5.718a.952.952 0 0 1-.673 1.626zm-.003 0a.952.952 0 0 1-.673-1.626L24.639.28a.95.95 0 0 1 1.347 0 .95.95 0 0 1 0 1.346l-5.718 5.719a.951.951 0 0 1-.673.279zm11.432 0a.948.948 0 0 1-.673-.279l-5.718-5.719a.95.95 0 0 1 0-1.346.95.95 0 0 1 1.347 0L31.7 5.998a.952.952 0 0 1-.673 1.626zm-.003 0a.952.952 0 0 1-.673-1.626L36.068.28a.95.95 0 0 1 1.347 0 .95.95 0 0 1 0 1.346l-5.718 5.719a.951.951 0 0 1-.673.279zm11.431 0a.946.946 0 0 1-.673-.279l-5.718-5.719a.95.95 0 0 1 0-1.346.95.95 0 0 1 1.347 0l5.718 5.718a.95.95 0 0 1-.673 1.626zM25.313 24.769a.952.952 0 0 1-.673-.279L7.493 7.344c-.373-.373-.373-.974 0-1.347s.974-.373 1.347 0l17.147 17.146a.95.95 0 0 1-.673 1.626zm-.005 0a.95.95 0 0 1-.673-1.626L41.782 5.997a.952.952 0 1 1 1.347 1.347L25.982 24.49a.956.956 0 0 1-.673.279zM36.741 1.905H13.884a.952.952 0 1 1 .001-1.904h22.857a.952.952 0 1 1 0 1.904zm5.713 5.719H8.166a.951.951 0 1 1 0-1.904h34.288a.951.951 0 1 1 0 1.904zM25.313 24.77a.952.952 0 0 1-.903-.652L18.694 6.972a.952.952 0 1 1 1.807-.603l5.716 17.146a.951.951 0 0 1-.903 1.254zm0-.001a.952.952 0 0 1-.903-1.254l5.713-17.146a.952.952 0 0 1 1.806.603l-5.713 17.146a.953.953 0 0 1-.904.651zm19.023 19.064a.946.946 0 0 1-.673-.279L31.28 31.171a.951.951 0 0 1 0-1.346l12.383-12.384a.952.952 0 0 1 1.347 0l12.384 12.384a.95.95 0 0 1 0 1.346L45.01 43.554a.945.945 0 0 1-.673.279zM33.299 30.497l11.037 11.037 11.037-11.037-11.037-11.036-11.037 11.036zm11.037 6.666a.946.946 0 0 1-.673-.279l-5.715-5.715a.95.95 0 0 1 0-1.347l5.715-5.715a.952.952 0 0 1 1.347 0l5.715 5.715a.95.95 0 0 1 0 1.347l-5.715 5.715a.945.945 0 0 1-.673.279zm-4.368-6.667l4.368 4.368 4.368-4.368-4.368-4.368-4.368 4.368zm4.368-4.763a.951.951 0 0 1-.952-.953v-6.667a.951.951 0 1 1 1.905 0v6.667a.953.953 0 0 1-.953.953zm12.384 5.715h-6.668a.951.951 0 1 1 0-1.904h6.668a.951.951 0 1 1 0 1.904zM44.336 43.832a.951.951 0 0 1-.952-.952v-6.669a.953.953 0 0 1 1.905 0v6.669a.952.952 0 0 1-.953.952zM38.62 31.448h-6.668a.951.951 0 1 1 0-1.904h6.668a.952.952 0 1 1 0 1.904zM32.925 56.19a.95.95 0 0 1-.952-.952V42.854a.952.952 0 1 1 1.904 0v12.384a.951.951 0 0 1-.952.952zm0-12.384a.946.946 0 0 1-.673-.279l-3.811-3.81a.952.952 0 1 1 1.347-1.347l3.811 3.81a.952.952 0 0 1-.673 1.626zM18.641 56.19a.95.95 0 0 1-.952-.952V42.854a.951.951 0 1 1 1.904 0v12.384a.951.951 0 0 1-.952.952zm0-12.384a.95.95 0 0 1-.673-1.626l3.811-3.81a.952.952 0 1 1 1.347 1.347l-3.811 3.81a.951.951 0 0 1-.673.279zm10.473-3.809h-6.663a.951.951 0 1 1 0-1.905h6.663a.952.952 0 1 1 0 1.905zM22.451 60a.946.946 0 0 1-.673-.279l-3.811-3.81a.952.952 0 1 1 1.347-1.347l3.811 3.81A.952.952 0 0 1 22.452 60zm6.662 0a.95.95 0 0 1-.673-1.626l3.811-3.81a.952.952 0 1 1 1.347 1.347l-3.811 3.81a.95.95 0 0 1-.673.279zm0 0h-6.662a.952.952 0 1 1 0-1.905h6.662a.952.952 0 1 1 0 1.905zm.008-5.717a.952.952 0 0 1-.952-.952v-8.572a.952.952 0 1 1 1.904 0v8.572a.951.951 0 0 1-.952.952zm-.002-8.576a.952.952 0 0 1-.427-1.805l3.807-1.901a.952.952 0 1 1 .851 1.704l-3.807 1.901a.947.947 0 0 1-.424.101zm3.805 10.483a.942.942 0 0 1-.426-.101l-3.804-1.907a.952.952 0 1 1 .854-1.702l3.804 1.907a.952.952 0 0 1-.429 1.803zm-3.803-10.479a.948.948 0 0 1-.673-.279l-1.909-1.909c-.373-.373-.373-.974 0-1.347s.974-.373 1.347 0l1.909 1.909a.952.952 0 0 1-.673 1.626zm-1.909-1.908h-2.859a.95.95 0 0 1-.952-.952c0-.527.425-.953.952-.953h2.859a.952.952 0 1 1 0 1.905zm-4.766 1.906a.952.952 0 0 1-.673-1.626l1.907-1.907a.952.952 0 1 1 1.347 1.347L23.12 45.43a.95.95 0 0 1-.673.279zm0 8.578a.95.95 0 0 1-.952-.953v-8.578a.951.951 0 1 1 1.904 0v8.578a.952.952 0 0 1-.952.953zm-3.804 1.903a.951.951 0 0 1-.427-1.804l3.805-1.903a.953.953 0 0 1 .852 1.704l-3.805 1.903a.94.94 0 0 1-.425.101zm3.803-10.48a.95.95 0 0 1-.425-.1l-3.805-1.903a.952.952 0 1 1 .853-1.704l3.805 1.903a.953.953 0 0 1-.427 1.805zm1.907 10.482a.946.946 0 0 1-.673-.279l-1.906-1.905a.952.952 0 1 1 1.347-1.347l1.906 1.905a.952.952 0 0 1-.673 1.626zm0 0a.952.952 0 1 1-.002-1.904l2.858-.002h.001a.951.951 0 1 1 0 1.904l-2.859.002zm2.858-.002a.952.952 0 0 1-.673-1.626l1.909-1.909a.952.952 0 1 1 1.347 1.347l-1.909 1.909a.95.95 0 0 1-.673.279zM22.263 60a.951.951 0 0 1-.833-1.409l2.088-3.808a.951.951 0 1 1 1.669.916l-2.088 3.807a.953.953 0 0 1-.837.494zm6.851 0a.95.95 0 0 1-.853-.526l-1.903-3.81a.953.953 0 1 1 1.703-.852l1.903 3.81a.952.952 0 0 1-.851 1.379zm-1.903-16.197a.952.952 0 0 1-.85-1.378l1.902-3.806a.952.952 0 1 1 1.704.852l-1.902 3.806a.954.954 0 0 1-.853.526zm-2.857 0a.95.95 0 0 1-.853-.527L21.6 39.47a.953.953 0 1 1 1.703-.852l1.901 3.806a.952.952 0 0 1-.851 1.379zm-15.236-.931a.948.948 0 0 1-.627-.235l-7.62-6.663a.957.957 0 0 1-.326-.717l.001-8.578a.95.95 0 0 1 .325-.716L8.49 19.29a.955.955 0 0 1 1.256 0l7.618 6.673c.206.18.325.442.325.716l.003 8.578a.95.95 0 0 1-.326.717l-7.62 6.663a.95.95 0 0 1-.627.235zM2.45 34.823l6.668 5.831 6.668-5.831-.003-7.713-6.665-5.839-6.667 5.839-.001 7.713zm6.668 2.332a.948.948 0 0 1-.572-.191l-3.811-2.856a.95.95 0 0 1-.381-.762v-4.764c0-.299.141-.581.38-.762l3.811-2.861a.951.951 0 0 1 1.144 0L13.5 27.82c.239.18.38.462.38.762v4.764a.953.953 0 0 1-.381.762l-3.811 2.855a.944.944 0 0 1-.571.192zM6.26 32.871l2.858 2.141 2.858-2.141v-3.812l-2.858-2.147-2.858 2.147v3.812zm10.477 3.337a.957.957 0 0 1-.426-.1l-3.81-1.909a.954.954 0 0 1-.425-1.279.955.955 0 0 1 1.279-.425l3.81 1.909c.469.236.66.809.425 1.279a.957.957 0 0 1-.853.525zm-7.62 6.663a.95.95 0 0 1-.952-.952v-5.717a.951.951 0 1 1 1.904 0v5.717a.952.952 0 0 1-.952.952zm-7.619-6.663a.954.954 0 0 1-.428-1.805l3.81-1.909a.956.956 0 0 1 1.279.425.954.954 0 0 1-.425 1.279l-3.81 1.909a.961.961 0 0 1-.426.101zm3.808-6.673a.963.963 0 0 1-.425-.1L1.073 27.53a.952.952 0 1 1 .852-1.704l3.809 1.905a.952.952 0 0 1-.427 1.804zm3.811-2.861a.951.951 0 0 1-.952-.952v-5.716a.951.951 0 1 1 1.904 0v5.716a.952.952 0 0 1-.952.952zm3.812 2.861a.952.952 0 0 1-.427-1.805l3.806-1.905a.952.952 0 0 1 .852 1.703l-3.807 1.905a.954.954 0 0 1-.425.101z" fill="currentColor"></path></symbol><symbol viewBox="0 0 50 60" xmlns="http://www.w3.org/2000/svg" fill="none" color="inherit" id="step-2"><path d="M22.296 43.137C10.402 43.137.727 33.462.727 21.569.727 9.675 10.402 0 22.296 0c11.893 0 21.569 9.675 21.569 21.569 0 11.894-9.675 21.568-21.569 21.568zm0-41.262c-10.858 0-19.693 8.835-19.693 19.693s8.835 19.693 19.693 19.693 19.693-8.835 19.693-19.693S33.154 1.875 22.296 1.875zm0 38.449c-10.342 0-18.755-8.414-18.755-18.755S11.954 2.814 22.296 2.814c10.342 0 18.755 8.414 18.755 18.755s-8.414 18.755-18.755 18.755zm0-35.635c-9.308 0-16.88 7.573-16.88 16.88 0 9.307 7.572 16.88 16.88 16.88 9.307 0 16.88-7.573 16.88-16.88 0-9.307-7.573-16.88-16.88-16.88zm14.066 17.817a.937.937 0 0 1-.938-.938c0-7.24-5.889-13.129-13.129-13.129a.937.937 0 1 1 0-1.876c8.273 0 15.004 6.731 15.004 15.004a.937.937 0 0 1-.938.938zm9.376 2.813a.937.937 0 1 1 0-1.876c1.034 0 1.876-.841 1.876-1.875s-.841-1.876-1.876-1.876a.937.937 0 1 1 0-1.876c2.069 0 3.751 1.682 3.751 3.751s-1.682 3.751-3.751 3.751zm0 0h-3.002a.937.937 0 1 1 0-1.876h3.002a.937.937 0 1 1 0 1.876zm0-5.627h-3.002a.937.937 0 1 1 0-1.876h3.002a.937.937 0 1 1 0 1.876zm.002 11.257a.937.937 0 0 1-.938-.938v-6.566a.937.937 0 1 1 1.876 0v6.566a.937.937 0 0 1-.938.938zm0 11.249a.937.937 0 0 1-.938-.938v-6.566a.937.937 0 1 1 1.876 0v6.566a.937.937 0 0 1-.938.938zm0 12.182a.937.937 0 0 1-.938-.938v-6.566a.937.937 0 1 1 1.876 0v6.566a.937.937 0 0 1-.938.938zm1.875-22.493a.937.937 0 0 1-.938-.938.939.939 0 0 0-1.876 0 .937.937 0 1 1-1.876 0 2.816 2.816 0 0 1 2.813-2.813 2.816 2.816 0 0 1 2.813 2.813.937.937 0 0 1-.938.938zM45.74 36.57a2.816 2.816 0 0 1-2.813-2.813.937.937 0 1 1 1.876 0 .939.939 0 0 0 1.876 0 .937.937 0 1 1 1.876 0 2.816 2.816 0 0 1-2.813 2.813zm-1.876-1.875a.937.937 0 0 1-.938-.938v-2.808a.937.937 0 1 1 1.876 0v2.808a.937.937 0 0 1-.938.938zm3.751 0a.937.937 0 0 1-.938-.938v-2.808a.937.937 0 1 1 1.876 0v2.808a.937.937 0 0 1-.938.938zm-1.875 8.441a.937.937 0 0 1-.938-.938v-6.566a.937.937 0 1 1 1.876 0v6.566a.937.937 0 0 1-.938.938zm1.875.938a.937.937 0 0 1-.938-.938.938.938 0 0 0-1.876 0 .937.937 0 1 1-1.876 0 2.816 2.816 0 0 1 2.813-2.813 2.816 2.816 0 0 1 2.813 2.813.937.937 0 0 1-.938.938zm-1.875 4.678a2.816 2.816 0 0 1-2.813-2.813.937.937 0 1 1 1.876 0 .938.938 0 0 0 1.876 0 .937.937 0 1 1 1.876 0 2.816 2.816 0 0 1-2.813 2.813zm-1.876-1.875a.937.937 0 0 1-.938-.938v-2.803a.937.937 0 1 1 1.876 0v2.803a.937.937 0 0 1-.938.938zm3.751 0a.937.937 0 0 1-.938-.938v-2.803a.937.937 0 1 1 1.876 0v2.803a.937.937 0 0 1-.938.938zm0 8.439a.937.937 0 0 1-.938-.938.939.939 0 0 0-1.876 0 .937.937 0 1 1-1.876 0 2.816 2.816 0 0 1 2.813-2.813 2.816 2.816 0 0 1 2.813 2.813.937.937 0 0 1-.938.938zM45.74 60a2.816 2.816 0 0 1-2.813-2.813.937.937 0 1 1 1.876 0 .938.938 0 0 0 1.876 0 .937.937 0 1 1 1.876 0A2.816 2.816 0 0 1 45.742 60zm-1.876-1.876a.937.937 0 0 1-.938-.938v-2.808a.937.937 0 1 1 1.876 0v2.808a.937.937 0 0 1-.938.938zm3.751 0a.937.937 0 0 1-.938-.938v-2.808a.937.937 0 1 1 1.876 0v2.808a.937.937 0 0 1-.938.938z" fill="currentColor"></path></symbol><symbol viewBox="0 0 44 58" xmlns="http://www.w3.org/2000/svg" fill="none" color="inherit" id="step-3"><path d="M1.159 9.062a.905.905 0 0 1-.906-.906V5.437a.905.905 0 1 1 1.812 0v2.719a.905.905 0 0 1-.906.906zm-.001-2.719a.907.907 0 0 1-.17-1.796L24.553.016a.911.911 0 0 1 1.061.719.907.907 0 0 1-.719 1.061L1.329 6.327l-.172.015zm35.348-4.531H24.725a.905.905 0 1 1 0-1.812h11.781a.905.905 0 1 1 0 1.812zm-11.789 7.25H1.16a.905.905 0 1 1 0-1.812h23.557a.905.905 0 1 1 0 1.812zM1.159 25.381a.905.905 0 0 1-.906-.906v-2.719a.905.905 0 1 1 1.812 0v2.719a.905.905 0 0 1-.906.906zm23.567 4.53l-.172-.016L.989 25.364a.906.906 0 0 1-.719-1.061.916.916 0 0 1 1.061-.72l23.566 4.531a.908.908 0 0 1-.17 1.797zm-.009-7.249H1.16a.905.905 0 1 1 0-1.812h23.557a.905.905 0 1 1 0 1.812zM36.506 6.345a.905.905 0 0 1-.906-.906V.906a.905.905 0 1 1 1.812 0v4.533a.905.905 0 0 1-.906.906zm6.343 0h-6.343a.905.905 0 1 1 0-1.812h6.343a.905.905 0 1 1 0 1.812zM39.224 9.97a.905.905 0 1 1 0-1.812 2.722 2.722 0 0 0 2.719-2.719.905.905 0 1 1 1.812 0 4.537 4.537 0 0 1-4.531 4.531zM24.717 58a.905.905 0 0 1-.906-.906V8.156a.905.905 0 1 1 1.812 0v48.938a.905.905 0 0 1-.906.906zm11.789 0a.905.905 0 0 1-.906-.906V9.064a.905.905 0 1 1 1.812 0v48.03a.905.905 0 0 1-.906.906zm2.718-48.03h-2.719a.905.905 0 1 1 0-1.812h2.719a.905.905 0 1 1 0 1.812zm3.625 16.317h-6.343a.905.905 0 1 1 0-1.812h6.343a.905.905 0 1 1 0 1.812zm0 0a.905.905 0 0 1-.906-.906 2.722 2.722 0 0 0-2.719-2.719.905.905 0 1 1 0-1.812 4.537 4.537 0 0 1 4.531 4.531.905.905 0 0 1-.906.906zm-3.625-3.625h-2.719a.905.905 0 1 1 0-1.812h2.719a.905.905 0 1 1 0 1.812zm-11.78 19.03h-2.727a.905.905 0 0 1-.906-.906v-19.03c0-.501.405-.906.906-.906h2.727c.501 0 .906.405.906.906v19.03a.905.905 0 0 1-.906.906zm-1.821-1.812h.915V22.662h-.915V39.88zm10.891 1.812h-2.727a.905.905 0 0 1-.906-.906V21.754c0-.501.405-.906.906-.906h2.727c.501 0 .906.405.906.906v19.032a.906.906 0 0 1-.906.906zm-1.82-1.812h.914V22.66h-.914v17.22zm4.53-7.255h-2.711a.905.905 0 1 1 0-1.812h2.711a.905.905 0 1 1 0 1.812zm0 1.813a.905.905 0 0 1-.906-.906v-3.621a.905.905 0 1 1 1.812 0v3.621a.905.905 0 0 1-.906.906zM25.633 9.06h-.916a.905.905 0 1 1 0-1.812h.916a.905.905 0 1 1 0 1.812zm0 2.721h-.916a.905.905 0 1 1 0-1.812h.916a.905.905 0 1 1 0 1.812zm1.814 2.718h-2.731a.905.905 0 1 1 0-1.812h2.731a.905.905 0 1 1 0 1.812zm-1.814 2.721h-.916a.905.905 0 1 1 0-1.812h.916a.905.905 0 1 1 0 1.812zm0 2.72h-.916a.905.905 0 1 1 0-1.812h.916a.905.905 0 1 1 0 1.812zm0 24.467h-.916a.905.905 0 1 1 0-1.812h.916a.905.905 0 1 1 0 1.812zm0 2.719h-.916a.905.905 0 1 1 0-1.812h.916a.905.905 0 1 1 0 1.812zm1.814 2.72h-2.731a.905.905 0 1 1 0-1.812h2.731a.905.905 0 1 1 0 1.812zm-1.814 2.718h-.916a.905.905 0 1 1 0-1.812h.916a.905.905 0 1 1 0 1.812zm0 2.717h-.916a.905.905 0 1 1 0-1.812h.916a.905.905 0 1 1 0 1.812zm1.814 2.715h-2.731a.905.905 0 1 1 0-1.812h2.731a.905.905 0 1 1 0 1.812zm9.067-29.898H35.6a.905.905 0 1 1 0-1.812h.914a.905.905 0 1 1 0 1.812zm0 4.527H35.6a.905.905 0 1 1 0-1.812h.914a.905.905 0 1 1 0 1.812zm0 4.529H35.6a.905.905 0 1 1 0-1.812h.914a.905.905 0 1 1 0 1.812zM2.972 11.779a.905.905 0 0 1-.641-1.546l2.718-2.719A.905.905 0 1 1 6.33 8.795l-2.718 2.719a.906.906 0 0 1-.641.265zm9.066 10.879a.91.91 0 0 1-.698-.325l-9.065-10.88a.907.907 0 0 1 1.393-1.161l9.065 10.879a.906.906 0 0 1-.696 1.487zm9.064-10.881a.904.904 0 0 1-.641-.266l-2.718-2.717a.905.905 0 1 1 1.281-1.281l2.718 2.717a.905.905 0 0 1-.641 1.547zm-9.067 10.88a.907.907 0 0 1-.696-1.486l9.066-10.88a.908.908 0 0 1 1.392 1.161l-9.064 10.88a.907.907 0 0 1-.698.325zm9.067-10.878H2.972a.905.905 0 1 1 0-1.812h18.13a.905.905 0 1 1 0 1.812zm-9.065 10.879a.905.905 0 0 1-.906-.906v-9.973a.905.905 0 1 1 1.812 0v9.973a.905.905 0 0 1-.906.906z" fill="currentColor"></path></symbol><symbol viewBox="0 0 58 48" xmlns="http://www.w3.org/2000/svg" fill="none" color="inherit" id="step-4"><path d="M47.126 30.793a.905.905 0 0 1-.906-.906v-9.962a.905.905 0 1 1 1.812 0v9.962a.905.905 0 0 1-.906.906zm4.532 16.311a.905.905 0 0 1-.906-.906V34.796l-3.626-3.627-3.624 3.627v11.402a.905.905 0 1 1-1.812 0V34.421c0-.24.095-.471.265-.641l4.53-4.533a.932.932 0 0 1 1.281 0l4.532 4.533c.17.17.265.4.265.641v11.777a.905.905 0 0 1-.906.906zm5.436-28.989H37.159a.905.905 0 1 1 0-1.812h19.935a.905.905 0 1 1 0 1.812zm-16.309 2.716a.905.905 0 0 1-.906-.906v-2.734a.905.905 0 1 1 1.812 0v2.734a.905.905 0 0 1-.906.906zm12.682 0H40.785a.905.905 0 1 1 0-1.812h12.682a.905.905 0 1 1 0 1.812zm0 0a.905.905 0 0 1-.906-.906v-2.734a.905.905 0 1 1 1.812 0v2.734a.905.905 0 0 1-.906.906zm-6.341-2.733a.905.905 0 0 1-.906-.906v-1.796a.905.905 0 1 1 1.812 0v1.796c0 .5-.405.906-.906.906zm4.532 17.229h-9.061a.905.905 0 1 1 0-1.812h9.061a.905.905 0 1 1 0 1.812zm0 3.626h-9.061a.905.905 0 1 1 0-1.812h9.061a.905.905 0 1 1 0 1.812zm0 3.624h-9.061a.905.905 0 1 1 0-1.812h9.061a.905.905 0 1 1 0 1.812zm-6.342-.001a.905.905 0 0 1-.906-.906v-3.624a.905.905 0 1 1 1.812 0v3.624a.905.905 0 0 1-.906.906zm3.624 0a.905.905 0 0 1-.906-.906v-3.624a.905.905 0 1 1 1.812 0v3.624a.905.905 0 0 1-.906.906zM19.951 28.102a.903.903 0 0 1-.64-.265L.266 8.807a.905.905 0 1 1 1.281-1.281l19.044 19.031a.905.905 0 0 1-.639 1.546zm-.006 0a.905.905 0 0 1-.64-1.546L38.336 7.525a.905.905 0 1 1 1.281 1.281L20.586 27.837a.9.9 0 0 1-.641.265zm19.032-19.03H.907a.905.905 0 1 1 0-1.812h38.069a.905.905 0 1 1 .001 1.812zm-19.026 19.03a.905.905 0 0 1-.859-.62L12.741 8.44a.906.906 0 1 1 1.718-.574l6.351 19.042a.906.906 0 0 1-.859 1.193zm0 0a.907.907 0 0 1-.86-1.192l6.335-19.042a.908.908 0 0 1 1.721.572l-6.335 19.042a.908.908 0 0 1-.86.621zm-6.35-19.041a.903.903 0 0 1-.641-.265L6.618 2.454a.905.905 0 1 1 1.281-1.281l6.342 6.342a.905.905 0 0 1-.64 1.546zm-12.684 0a.905.905 0 0 1-.641-1.546l6.342-6.342a.905.905 0 1 1 1.281 1.281L1.557 8.796a.901.901 0 0 1-.641.265zm25.369 0a.9.9 0 0 1-.64-.265l-6.342-6.342a.905.905 0 1 1 1.281-1.281l6.342 6.342a.905.905 0 0 1-.641 1.546zm-12.684 0a.905.905 0 0 1-.64-1.546l6.342-6.342a.905.905 0 1 1 1.281 1.281l-6.342 6.342a.9.9 0 0 1-.64.265zm25.369 0a.903.903 0 0 1-.641-.265l-6.342-6.342a.905.905 0 1 1 1.281-1.281l6.342 6.342a.905.905 0 0 1-.641 1.546zm-12.684 0a.905.905 0 0 1-.64-1.546l6.342-6.342a.905.905 0 1 1 1.281 1.281l-6.342 6.342a.901.901 0 0 1-.641.265zm6.342-6.342H7.259a.905.905 0 1 1 0-1.812h25.37a.905.905 0 1 1 0 1.812zm4.528 12.677a.905.905 0 0 1-.641-1.546l1.812-1.812a.905.905 0 1 1 1.281 1.281l-1.812 1.812a.903.903 0 0 1-.641.265zm1.812 7.249a.907.907 0 0 1-.641-.265l-1.812-1.812a.905.905 0 1 1 1.281-1.281l1.812 1.812a.905.905 0 0 1-.641 1.546z" fill="currentColor"></path></symbol><symbol viewBox="0 0 47 46" xmlns="http://www.w3.org/2000/svg" fill="none" color="inherit" id="step-5"><path d="M46.017 31.238L30.602 4.539a2.675 2.675 0 0 0-1.635-1.255L17.203.125a3.594 3.594 0 0 0-1.199-.114l-.106-.007H3.788A3.27 3.27 0 0 0 .641 2.338 3.291 3.291 0 0 0 3.24 6.535l4.398.742-2.397 2.394a2.675 2.675 0 0 0-.79 1.907v30.828A3.598 3.598 0 0 0 8.045 46h16.711a3.603 3.603 0 0 0 2.648-1.168l.098.029a3.57 3.57 0 0 0 2.727-.359l14.472-8.355c.831-.48 1.426-1.255 1.674-2.182s.121-1.895-.359-2.727zM3.54 4.763a1.473 1.473 0 0 1-1.02-.685 1.468 1.468 0 0 1-.159-1.218 1.484 1.484 0 0 1 1.428-1.059h9.334L9.2 5.719l-5.66-.955zm8.527.632l-.207.773-.484-.082.692-.691zm12.69 38.809H10.562v-7.905a.898.898 0 1 0-1.796 0v7.905h-.719a1.799 1.799 0 0 1-1.797-1.797V11.579c0-.24.094-.466.264-.636l3.302-3.299 1.577.266-1.754 6.532a2.679 2.679 0 0 0 .269 2.047l15.414 26.698c.141.244.308.468.497.668a1.795 1.795 0 0 1-1.06.349zM44.64 33.5a1.785 1.785 0 0 1-.837 1.091l-14.472 8.355c-.416.24-.9.304-1.363.18a1.785 1.785 0 0 1-1.091-.837L11.463 15.591a.894.894 0 0 1-.09-.682l1.799-6.697 2.691.454c.063.339.183.668.361.975a3.033 3.033 0 0 0 1.855 1.423 3.049 3.049 0 0 0 3.741-2.161 3.036 3.036 0 0 0-.305-2.318 3.033 3.033 0 0 0-1.855-1.423 3.036 3.036 0 0 0-2.318.305 3.03 3.03 0 0 0-1.267 1.411l-2.434-.411.896-3.338c.125-.464.422-.851.838-1.091a1.784 1.784 0 0 1 1.364-.179l6.813 1.83.018.036 4.358 7.548a.897.897 0 1 0 1.556-.898l-3.48-6.027 2.497.671a.893.893 0 0 1 .545.418l15.415 26.699c.24.416.304.9.179 1.364zM18.138 7.227L18 7.204l.239-.18a1.25 1.25 0 0 1 .955-.126c.325.087.596.295.764.586.168.291.213.63.126.954a1.249 1.249 0 0 1-.586.764 1.253 1.253 0 0 1-1.508-.19h.002a.899.899 0 0 0 .149-1.784zm-7.84 23.846c-.167-.167-.399-.263-.635-.263s-.468.096-.635.263a.906.906 0 0 0-.263.636c0 .235.096.467.263.635a.904.904 0 0 0 1.27 0 .907.907 0 0 0 .263-.635.906.906 0 0 0-.263-.636zm21.338-16.909a.905.905 0 0 0-.635-.263.908.908 0 0 0-.636.263.904.904 0 0 0 0 1.27.903.903 0 0 0 1.271 0c.167-.167.263-.399.263-.635s-.096-.467-.263-.635z" fill="currentColor"></path></symbol></svg>