<svg width="100%" height="100%" preserveAspectRatio="none" viewBox="0 0 639 634" xmlns="http://www.w3.org/2000/svg" fill="none"><path fill="#FCF9F7" d="M0 0h639v634h-639z"/><g opacity=".3" fill="#403637"><path d="M299.596 309.584c2.923 4.388 5.347 8.023 7.77 11.658l-.256.351-9.505-9.276c-1.084 13.325-2.116 25.942-3.143 38.552l-.448.038c-.985-12.178-1.97-24.363-3.007-37.205-2.173 1.855-3.966 3.391-5.753 4.92l-.423-.388c1.574-2.702 3.143-5.397 5.019-8.612-13.946-1.316-27.47-2.595-40.999-3.874l-.005-.589c12.93-1.235 25.854-2.476 39.284-3.76-2.512-3.842-4.643-7.108-6.775-10.367l.251-.407c3.001 2.45 6.003 4.901 9.38 7.659 1.032-12.034 2.017-23.548 3.002-35.062l.448-.018c1.089 11.814 2.173 23.622 3.32 36.076 4.206-4.08 7.994-7.759 11.783-11.432l.214.282c-2.768 4.318-5.53 8.631-8.667 13.532 29.851.714 59.056 1.41 88.262 2.112v.263c-29.69 1.837-59.37 3.673-89.752 5.547zM393.292 307.021c-18.673 22.162-37.023 43.955-55.372 65.741l.469.589c14.675-16.841 29.351-33.682 44.323-50.862 1.84 3.968 3.586 7.716 5.514 11.865-22.024 19.304-43.99 38.565-65.962 57.825l-.317-.389c4.007-5.528 7.999-11.075 12.022-16.59 15.791-21.648 31.618-43.266 47.357-64.964 1.553-2.137 3.2-3.328 5.545-3.234 1.954.081 3.914.019 6.421.019zM317.048 391.859c-21.862-18.972-43.719-37.938-65.742-57.048 1.813-3.755 3.533-7.315 5.383-11.144 11.012 12.429 21.805 24.613 31.321 35.356-13.044-16.121-27.308-33.739-41.754-51.589 2.741.156 5.399.213 8.036.514.667.075 1.402.789 1.886 1.441 20.257 27.083 40.488 54.196 60.714 81.304.172.232.287.514.427.777l-.271.389zM368.24 300.741c-7.89 0-15.431.006-22.967-.007-1.839 0-1.417-1.698-1.407-2.946.084-9.915.224-19.837.297-29.752.047-6.236.011-12.473.011-18.709l.886-.658c.385.765.693 1.617 1.172 2.288 4.524 6.33 9.141 12.573 13.581 18.984 1.178 1.699 2.153 3.792 2.705 5.898 1.918 7.358 3.617 14.804 5.378 22.225.157.69.183 1.423.344 2.677zM325.439 383.235c-1.449 2.551-2.898 5.102-4.346 7.659l-.23-.106c1.783-7.152 3.539-14.316 5.352-21.461 4.957-19.555 9.97-39.091 14.843-58.677.552-2.225 1.349-3.059 3.2-3.021 4.487.087 8.974.025 13.789.025-2.382 5.428-4.701 10.755-7.051 16.064-7.786 17.593-15.593 35.174-23.363 52.773-.438.997-.646 2.138-.959 3.209-.412 1.185-.823 2.357-1.235 3.535zM245 303.68c11.293-17.374 22.118-34.027 32.942-50.674l.453.188c-1.23 8.317-2.47 16.628-3.695 24.945-1.016 6.882-1.965 13.776-3.09 20.627-.172 1.053-1.074 2.676-1.73 2.745-8.031.84-16.078 1.442-24.88 2.169zM360.402 252.166c11.721 16.735 23.05 32.911 34.781 49.665-2.788 0-4.914.031-7.035-.006-5.462-.088-10.918-.226-16.38-.289-1.261-.012-2.048-.332-2.381-2.074-2.898-15.005-5.879-29.991-8.823-44.983-.099-.502-.079-1.022-.162-2.313zM305.599 298.823c3.961-6.706 7.697-13.03 11.429-19.354l-.355-.508-8.348 4.525-.193-.395c3.804-3.704 7.609-7.402 11.126-10.824l22.702 26.562c-12.247-.006-24.067-.006-36.361-.006zM319.54 379.218c-5.685-19.285-11.371-38.571-17.057-57.856l.459-.257 16.515 32.936c6.176-14.221 12.122-27.916 18.068-41.611l.412.176c-5.946 22.168-11.888 44.337-17.834 66.506l-.563.106zM325.439 383.235l1.235-3.529c2.679-4.982 5.42-9.915 8.021-14.948 9.521-18.421 19.016-36.86 28.475-55.331.902-1.755 1.845-2.726 3.695-2.607 3.101.194 6.217.056 9.469.056-.25.483-.5 1.097-.844 1.617-16.234 24.45-32.473 48.888-48.727 73.319-.37.545-.881.953-1.324 1.423zM335.825 287.578c-5.326-6.813-10.647-13.619-16.119-20.62-5.154 5.866-9.907 11.269-14.654 16.678l-.558-.476c5.253-13.513 10.506-27.033 15.999-41.16 5.55 15.299 10.876 29.966 16.197 44.632l-.865.946zM289.579 290.322c-3.763-3.127-7.145-5.941-10.647-8.856-1.058 1.473-2.001 2.789-2.997 4.168-.813-3.804.746-13.168 2.596-15.92 5.185-7.69 10.37-15.374 15.561-23.052.526-.777 1.11-1.504 1.965-2.651v15.048l-.334.101c-.385-2.902-.771-5.804-1.157-8.7l-.536-.037c-1.465 13.118-2.924 26.236-4.451 39.899zM317.194 386.908c-5.597-15.481-10.819-31.181-16.942-46.361-3.054-7.578-3.19-14.88-2.158-22.67.037-.289.188-.558.479-1.404 6.442 23.76 12.753 47.038 19.059 70.323l-.438.112zM259.508 308.882c2.747 0 5.003-.144 7.234.076.802.081 1.844.814 2.267 1.629 6.253 12.141 12.424 24.344 18.307 36.835-9.198-12.742-18.391-25.49-27.808-38.54z"/></g></svg>