<svg width="129" height="132" viewBox="0 0 129 132" xmlns="http://www.w3.org/2000/svg" fill="none"><path fill="#fff" d="M0 0h129v132h-129z"/><path d="M52.531 26.188l3.239 4.438-.107.134-3.963-3.532-1.31 14.678-.187.014-1.254-14.165-2.399 1.873-.176-.148 2.092-3.279c-5.814-.501-11.452-.988-17.092-1.475l-.002-.224c5.39-.47 10.779-.943 16.378-1.432l-2.825-3.947.104-.155 3.911 2.916c.43-4.582.841-8.965 1.251-13.348l.187-.007 1.384 13.735 4.912-4.352.089.107c-1.154 1.644-2.305 3.286-3.613 5.152 12.445.272 24.621.537 36.796.804v.1c-12.378.699-24.751 1.398-37.418 2.112zM91.593 25.212c-7.785 8.438-15.435 16.735-23.085 25.029l.196.224c6.118-6.412 12.236-12.823 18.479-19.364l2.299 4.517c-9.182 7.349-18.34 14.682-27.5 22.015l-.133-.148c1.671-2.105 3.335-4.217 5.012-6.316 6.583-8.242 13.182-16.472 19.743-24.733.647-.814 1.334-1.267 2.312-1.231.815.031 1.632.007 2.677.007zM59.806 57.512c-9.114-7.223-18.227-14.444-27.408-21.719l2.244-4.243 13.058 13.461c-5.438-6.137-11.385-12.845-17.408-19.641 1.143.06 2.251.081 3.35.196.278.029.584.301.786.549 8.445 10.311 16.88 20.633 25.312 30.954l.178.296-.113.148zM81.149 22.821c-3.289 0-6.433.002-9.575-.002-.767 0-.591-.647-.587-1.122.035-3.775.093-7.552.124-11.327.019-2.374.004-4.749.004-7.123l.369-.251c.161.291.289.616.489.871 1.886 2.41 3.811 4.787 5.662 7.228.491.647.897 1.444 1.128 2.245.8 2.801 1.508 5.636 2.242 8.461.065.263.076.542.143 1.019zM63.304 54.229l-1.812 2.916-.096-.041c.743-2.723 1.475-5.45 2.231-8.17 2.066-7.445 4.156-14.883 6.188-22.34.23-.847.563-1.165 1.334-1.15 1.871.033 3.741.01 5.749.01-.993 2.066-1.96 4.095-2.94 6.116-3.246 6.698-6.501 13.391-9.74 20.092-.182.379-.269.814-.4 1.222l-.515 1.346zM29.769 23.94c4.708-6.615 9.221-12.955 13.733-19.292l.189.072c-.513 3.167-1.03 6.331-1.54 9.497-.424 2.62-.819 5.245-1.288 7.853-.072.401-.448 1.019-.721 1.045-3.348.32-6.703.549-10.372.826zM77.881 4.328c4.886 6.371 9.61 12.53 14.5 18.908-1.162 0-2.049.012-2.933-.002-2.277-.033-4.552-.086-6.829-.11-.526-.005-.854-.126-.993-.79-1.208-5.713-2.451-11.418-3.678-17.126-.041-.191-.033-.389-.067-.881zM55.033 22.091c1.651-2.553 3.209-4.961 4.765-7.369l-.148-.193-3.481 1.723-.08-.15 4.639-4.121 9.464 10.113c-5.106-.002-10.033-.002-15.159-.002zM60.845 52.699l-7.111-22.027.191-.098c2.251 4.099 4.502 8.199 6.885 12.54 2.575-5.414 5.054-10.628 7.533-15.842l.172.067-7.435 25.32-.235.041zM63.304 54.229l.515-1.343c1.117-1.897 2.26-3.775 3.344-5.691 3.969-7.013 7.928-14.033 11.871-21.066.376-.668.769-1.038 1.54-.993 1.293.074 2.592.021 3.948.021-.104.184-.209.418-.352.616-6.768 9.309-13.538 18.612-20.315 27.914-.154.208-.367.363-.552.542zM67.634 17.81c-2.221-2.594-4.439-5.185-6.72-7.851-2.149 2.233-4.13 4.29-6.11 6.35l-.232-.181c2.19-5.145 4.38-10.292 6.67-15.67 2.314 5.825 4.534 11.408 6.753 16.992l-.361.36zM48.354 18.855c-1.569-1.191-2.979-2.262-4.439-3.372l-1.249 1.587c-.339-1.448.311-5.013 1.082-6.061 2.162-2.928 4.324-5.853 6.488-8.776.219-.296.463-.573.819-1.009v5.729l-.139.038-.482-3.312-.224-.014c-.61 4.994-1.219 9.989-1.855 15.191zM59.868 55.627c-2.334-5.894-4.511-11.871-7.063-17.651-1.273-2.885-1.33-5.665-.899-8.631.015-.11.078-.212.2-.534 2.686 9.046 5.317 17.909 7.946 26.773l-.182.043zM35.818 25.921c1.145 0 2.086-.055 3.016.029.335.031.769.31.945.62 2.607 4.622 5.18 9.268 7.633 14.024-3.835-4.851-7.667-9.705-11.593-14.673zM16.255 85.311c1.404 0 2.478.348 3.222 1.044.744.684 1.116 1.596 1.116 2.736 0 1.08-.366 1.986-1.098 2.718-.72.72-1.932 1.08-3.636 1.08l-.774-.018c-.504-.024-1.002-.036-1.494-.036-.912 0-1.62.018-2.124.054v-.36c.432-.024.744-.072.936-.144.204-.072.342-.21.414-.414.072-.204.108-.534.108-.99v-8.928c0-.456-.036-.786-.108-.99-.072-.204-.21-.342-.414-.414-.192-.072-.504-.12-.936-.144v-.36c1.176.036 2.916.054 5.22.054 1.512 0 2.586-.018 3.222-.054-.084.792-.126 1.5-.126 2.124 0 .468.018.84.054 1.116h-.414c-.084-.78-.192-1.356-.324-1.728-.132-.384-.354-.66-.666-.828-.312-.18-.786-.27-1.422-.27h-.954c-.432 0-.75.036-.954.108-.192.06-.324.192-.396.396-.072.204-.108.534-.108.99v3.294l1.656-.036zm-.45 7.218c1.14 0 1.92-.3 2.34-.9.432-.6.648-1.44.648-2.52 0-1.212-.24-2.088-.72-2.628-.48-.552-1.29-.828-2.43-.828-.42 0-.768.006-1.044.018v5.31c0 .444.03.774.09.99.06.216.168.366.324.45.168.072.432.108.792.108zm11.893-9.162c.636 0 1.206.174 1.71.522.516.348.918.858 1.206 1.53.288.672.432 1.476.432 2.412 0 .924-.15 1.788-.45 2.592-.288.804-.744 1.458-1.368 1.962-.612.504-1.38.756-2.304.756-.456 0-.87-.09-1.242-.27-.372-.18-.66-.414-.864-.702v2.304c0 .492.144.828.432 1.008.288.192.72.288 1.296.288v.378l-.414-.018c-1.116-.036-1.842-.054-2.178-.054-.288 0-.936.024-1.944.072v-.378c.444 0 .75-.084.918-.252.18-.156.27-.444.27-.864v-9.072c0-.552-.102-.954-.306-1.206-.204-.252-.558-.378-1.062-.378v-.378c.372.036.744.054 1.116.054.756 0 1.38-.084 1.872-.252v1.908c.264-.624.648-1.104 1.152-1.44.504-.348 1.08-.522 1.728-.522zm-.972 9.36c1.716 0 2.574-1.548 2.574-4.644 0-2.784-.696-4.176-2.088-4.176-.54 0-1.026.198-1.458.594-.432.384-.744.942-.936 1.674v5.4c.168.348.414.63.738.846.324.204.714.306 1.17.306zm15.913-8.712c-.504 0-.858.096-1.062.288-.204.18-.306.516-.306 1.008v5.904c0 .492.102.834.306 1.026.204.18.558.27 1.062.27v.378c-1.104-.048-1.824-.072-2.16-.072-.336 0-1.008.024-2.016.072v-.378c.444 0 .75-.09.918-.27.18-.192.27-.534.27-1.026v-5.472l-4.23 5.85c.036.336.144.576.324.72.18.132.462.198.846.198v.378c-1.008-.048-1.68-.072-2.016-.072-.336 0-1.056.024-2.16.072v-.378c.504 0 .858-.09 1.062-.27.204-.192.306-.534.306-1.026v-5.904c0-.492-.102-.828-.306-1.008-.204-.192-.558-.288-1.062-.288v-.378c1.104.048 1.824.072 2.16.072.336 0 1.008-.024 2.016-.072v.378c-.444 0-.756.096-.936.288-.168.18-.252.516-.252 1.008v5.688l4.248-5.85c-.012-.432-.108-.726-.288-.882-.18-.168-.48-.252-.9-.252v-.378c1.008.048 1.68.072 2.016.072.336 0 1.056-.024 2.16-.072v.378zm10.134 0c-.504 0-.858.096-1.062.288-.204.18-.306.516-.306 1.008v5.904c0 .492.102.834.306 1.026.204.18.558.27 1.062.27v.378c-1.104-.048-1.836-.072-2.196-.072-.276 0-.972.018-2.088.054l-.432.018v-.378c.576 0 1.008-.09 1.296-.27.288-.192.432-.534.432-1.026v-5.904c0-.492-.09-.828-.27-1.008-.168-.192-.474-.288-.918-.288h-.162c-.288 0-.486.09-.594.27-.096.168-.168.51-.216 1.026-.132 1.428-.27 2.598-.414 3.51-.132.9-.342 1.71-.63 2.43-.516 1.26-1.194 1.89-2.034 1.89-.348 0-.648-.096-.9-.288-.24-.192-.36-.456-.36-.792 0-.288.09-.516.27-.684.18-.18.414-.27.702-.27.264 0 .48.078.648.234.168.144.252.354.252.63 0 .42-.228.714-.684.882l.18.018c.384 0 .708-.174.972-.522.276-.348.498-.744.666-1.188.48-1.236.816-3.186 1.008-5.85.036-.48-.066-.816-.306-1.008-.228-.192-.6-.288-1.116-.288v-.378c.528.048.936.072 1.224.072h3.492c.348 0 1.074-.024 2.178-.072v.378zm10.143 0c-.504 0-.858.096-1.062.288-.204.18-.306.516-.306 1.008v5.904c0 .492.102.834.306 1.026.204.18.558.27 1.062.27v.378c-1.104-.048-1.836-.072-2.196-.072-.276 0-.972.018-2.088.054l-.432.018v-.378c.576 0 1.008-.09 1.296-.27.288-.192.432-.534.432-1.026v-5.904c0-.492-.09-.828-.27-1.008-.168-.192-.474-.288-.918-.288h-.162c-.288 0-.486.09-.594.27-.096.168-.168.51-.216 1.026-.132 1.428-.27 2.598-.414 3.51-.132.9-.342 1.71-.63 2.43-.516 1.26-1.194 1.89-2.034 1.89-.348 0-.648-.096-.9-.288-.24-.192-.36-.456-.36-.792 0-.288.09-.516.27-.684.18-.18.414-.27.702-.27.264 0 .48.078.648.234.168.144.252.354.252.63 0 .42-.228.714-.684.882l.18.018c.384 0 .708-.174.972-.522.276-.348.498-.744.666-1.188.48-1.236.816-3.186 1.008-5.85.036-.48-.066-.816-.306-1.008-.228-.192-.6-.288-1.116-.288v-.378c.528.048.936.072 1.224.072h3.492c.348 0 1.074-.024 2.178-.072v.378zm11.277 0c-.504 0-.858.096-1.062.288-.204.18-.306.516-.306 1.008v5.904c0 .492.102.834.306 1.026.204.18.558.27 1.062.27v.378c-1.104-.048-1.824-.072-2.16-.072-.336 0-1.008.024-2.016.072v-.378c.444 0 .75-.09.918-.27.18-.192.27-.534.27-1.026v-5.472l-4.23 5.85c.036.336.144.576.324.72.18.132.462.198.846.198v.378c-1.008-.048-1.68-.072-2.016-.072-.336 0-1.056.024-2.16.072v-.378c.504 0 .858-.09 1.062-.27.204-.192.306-.534.306-1.026v-5.904c0-.492-.102-.828-.306-1.008-.204-.192-.558-.288-1.062-.288v-.378c1.104.048 1.824.072 2.16.072.336 0 1.008-.024 2.016-.072v.378c-.444 0-.756.096-.936.288-.168.18-.252.516-.252 1.008v5.688l4.248-5.85c-.012-.432-.108-.726-.288-.882-.18-.168-.48-.252-.9-.252v-.378c1.008.048 1.68.072 2.016.072.336 0 1.056-.024 2.16-.072v.378zm3.456 9c-.756 0-1.32-.186-1.692-.558-.36-.384-.54-.912-.54-1.584 0-.54.144-.984.432-1.332.3-.348.648-.624 1.044-.828.408-.204.942-.42 1.602-.648.672-.228 1.17-.438 1.494-.63.324-.192.486-.45.486-.774v-1.116c0-.696-.15-1.17-.45-1.422-.288-.264-.696-.396-1.224-.396-.84 0-1.434.216-1.782.648.24.06.438.186.594.378.168.192.252.432.252.72 0 .3-.096.54-.288.72-.192.168-.438.252-.738.252-.336 0-.588-.102-.756-.306-.168-.216-.252-.474-.252-.774 0-.288.066-.528.198-.72.144-.192.354-.384.63-.576.288-.204.654-.372 1.098-.504.444-.132.93-.198 1.458-.198.936 0 1.644.222 2.124.666.3.276.498.612.594 1.008.108.384.162.894.162 1.53v5.004c0 .3.042.516.126.648.084.132.228.198.432.198.144 0 .276-.03.396-.09.132-.072.27-.168.414-.288l.198.306c-.312.24-.582.414-.81.522-.216.096-.492.144-.828.144-.576 0-.978-.144-1.206-.432-.228-.288-.342-.678-.342-1.17-.36.6-.774 1.02-1.242 1.26-.468.228-.996.342-1.584.342zm.792-.72c.792 0 1.47-.456 2.034-1.368v-3.528c-.108.168-.258.306-.45.414-.192.108-.486.252-.882.432-.456.192-.828.378-1.116.558-.276.168-.516.402-.72.702-.204.3-.306.684-.306 1.152 0 .54.132.948.396 1.224s.612.414 1.044.414zm15.715-8.28c-.504 0-.858.096-1.062.288-.204.18-.306.516-.306 1.008v5.904c0 .492.102.834.306 1.026.204.18.558.27 1.062.27v.378c-1.104-.048-1.824-.072-2.16-.072-.336 0-1.008.024-2.016.072v-.378c.444 0 .75-.09.918-.27.18-.192.27-.534.27-1.026v-2.916h-3.978v2.916c0 .492.084.834.252 1.026.18.18.492.27.936.27v.378c-1.008-.048-1.68-.072-2.016-.072-.336 0-1.056.024-2.16.072v-.378c.504 0 .858-.09 1.062-.27.204-.192.306-.534.306-1.026v-5.904c0-.492-.102-.828-.306-1.008-.204-.192-.558-.288-1.062-.288v-.378c1.104.048 1.824.072 2.16.072.336 0 1.008-.024 2.016-.072v.378c-.444 0-.756.096-.936.288-.168.18-.252.516-.252 1.008v2.628h3.978v-2.628c0-.492-.09-.828-.27-1.008-.168-.192-.474-.288-.918-.288v-.378c1.008.048 1.68.072 2.016.072.336 0 1.056-.024 2.16-.072v.378zm9.924-.378c-.084.792-.126 1.488-.126 2.088 0 .468.018.84.054 1.116h-.414c-.06-.804-.186-1.41-.378-1.818-.18-.408-.432-.678-.756-.81-.312-.144-.738-.216-1.278-.216h-.702v7.038c0 .552.156.936.468 1.152.324.216.804.324 1.44.324v.378l-.45-.018c-1.188-.036-1.944-.054-2.268-.054-.324 0-1.08.018-2.268.054l-.45.018v-.378c.636 0 1.11-.108 1.422-.324.324-.216.486-.6.486-1.152v-7.038h-.882c-.528 0-.936.072-1.224.216-.288.132-.516.402-.684.81-.156.408-.264 1.02-.324 1.836h-.414c.036-.276.054-.648.054-1.116 0-.6-.042-1.296-.126-2.088h1.728c.552 0 .972.006 1.26.018l1.404.018c.324 0 .798-.012 1.422-.036l1.278-.018h1.728zm5.286 3.852c1.248 0 2.16.234 2.736.702.588.456.882 1.08.882 1.872 0 .48-.132.936-.396 1.368-.264.42-.69.768-1.278 1.044-.576.276-1.314.414-2.214.414-.132 0-.402-.012-.81-.036-.432-.024-.774-.036-1.026-.036-.312 0-1.02.024-2.124.072v-.378c.504 0 .858-.09 1.062-.27.204-.192.306-.534.306-1.026v-5.904c0-.492-.09-.828-.27-1.008-.168-.192-.474-.288-.918-.288v-.378c1.008.048 1.68.072 2.016.072.336 0 1.056-.024 2.16-.072v.378c-.504 0-.858.096-1.062.288-.204.18-.306.516-.306 1.008v2.178h1.242zm7.074 3.726c0 .492.102.834.306 1.026.204.18.558.27 1.062.27v.378c-1.104-.048-1.836-.072-2.196-.072-.312 0-.972.024-1.98.072v-.378c.444 0 .75-.09.918-.27.18-.192.27-.534.27-1.026v-5.904c0-.492-.09-.828-.27-1.008-.168-.192-.474-.288-.918-.288v-.378c1.008.048 1.668.072 1.98.072.336 0 1.008-.024 2.016-.072v.378c-.444 0-.756.096-.936.288-.168.18-.252.516-.252 1.008v5.904zm-7.542 1.296c.888 0 1.506-.21 1.854-.63.36-.432.54-1.002.54-1.71 0-.828-.234-1.428-.702-1.8-.468-.384-1.23-.576-2.286-.576h-.18v3.42c0 .48.054.816.162 1.008.12.192.324.288.612.288zm-76.154 23.478c-.264.396-.534.69-.81.882-.276.18-.648.27-1.116.27-.48 0-.882-.138-1.206-.414-.312-.276-.552-.786-.72-1.53l-.504-2.232c-.144-.612-.288-1.08-.432-1.404-.132-.336-.36-.6-.684-.792-.312-.204-.756-.306-1.332-.306h-1.188v4.518c0 .456.036.786.108.99.072.204.204.342.396.414.204.072.522.12.954.144v.36c-.552-.036-1.314-.054-2.286-.054-1.032 0-1.8.018-2.304.054v-.36c.432-.024.744-.072.936-.144.204-.072.342-.21.414-.414.072-.204.108-.534.108-.99v-8.928c0-.456-.036-.786-.108-.99-.072-.204-.21-.342-.414-.414-.192-.072-.504-.12-.936-.144v-.36c.504.036 1.272.054 2.304.054.96 0 1.722-.018 2.286-.054v.36c-.432.024-.75.072-.954.144-.192.072-.324.21-.396.414-.072.204-.108.534-.108.99v4.068c.888-.012 1.596-.36 2.124-1.044l1.728-2.196c.612-.756.918-1.332.918-1.728 0-.42-.372-.636-1.116-.648v-.36c.684.036 1.374.054 2.07.054.66 0 1.17-.018 1.53-.054v.36c-.816.12-1.524.558-2.124 1.314l-3.384 4.32c.96.036 1.74.246 2.34.63.612.372 1.026 1.026 1.242 1.962l.522 2.268c.132.576.252.966.36 1.17.12.204.294.306.522.306.204 0 .372-.054.504-.162.144-.108.306-.282.486-.522l.27.198zm5.005-8.622c1.224 0 2.208.408 2.952 1.224.756.804 1.134 2.028 1.134 3.672 0 1.644-.378 2.868-1.134 3.672-.744.804-1.728 1.206-2.952 1.206s-2.214-.402-2.97-1.206c-.744-.804-1.116-2.028-1.116-3.672 0-1.644.372-2.868 1.116-3.672.756-.816 1.746-1.224 2.97-1.224zm0 .36c-.72 0-1.29.372-1.71 1.116-.42.732-.63 1.872-.63 3.42 0 1.548.21 2.688.63 3.42.42.732.99 1.098 1.71 1.098s1.29-.366 1.71-1.098c.42-.732.63-1.872.63-3.42 0-1.548-.21-2.688-.63-3.42-.42-.744-.99-1.116-1.71-1.116zm9.951-.36c.804 0 1.5.192 2.088.576.564.372.846.834.846 1.386 0 .312-.09.558-.27.738-.18.18-.408.27-.684.27-.276 0-.51-.078-.702-.234-.192-.168-.288-.39-.288-.666 0-.252.072-.462.216-.63.144-.18.324-.3.54-.36-.12-.216-.336-.396-.648-.54-.3-.144-.624-.216-.972-.216-.444 0-.858.144-1.242.432-.384.276-.702.744-.954 1.404-.252.648-.378 1.506-.378 2.574 0 1.488.24 2.574.72 3.258.48.672 1.104 1.008 1.872 1.008.516 0 1.002-.15 1.458-.45.468-.3.852-.768 1.152-1.404l.342.126c-.204.684-.588 1.272-1.152 1.764-.552.492-1.272.738-2.16.738-.744 0-1.422-.192-2.034-.576-.6-.384-1.074-.936-1.422-1.656-.348-.732-.522-1.578-.522-2.538 0-.972.174-1.836.522-2.592.36-.756.858-1.344 1.494-1.764.636-.432 1.362-.648 2.178-.648zm13.128.27c-.084.792-.126 1.488-.126 2.088 0 .468.018.84.054 1.116h-.414c-.06-.804-.186-1.41-.378-1.818-.18-.408-.432-.678-.756-.81-.312-.144-.738-.216-1.278-.216h-.702v7.038c0 .552.156.936.468 1.152.324.216.804.324 1.44.324v.378l-.45-.018c-1.188-.036-1.944-.054-2.268-.054-.324 0-1.08.018-2.268.054l-.45.018v-.378c.636 0 1.11-.108 1.422-.324.324-.216.486-.6.486-1.152v-7.038h-.882c-.528 0-.936.072-1.224.216-.288.132-.516.402-.684.81-.156.408-.264 1.02-.324 1.836h-.414c.036-.276.054-.648.054-1.116 0-.6-.042-1.296-.126-2.088h1.728c.552 0 .972.006 1.26.018l1.404.018c.324 0 .798-.012 1.422-.036l1.278-.018h1.728zm6.835-.27c.636 0 1.206.174 1.71.522.516.348.918.858 1.206 1.53.288.672.432 1.476.432 2.412 0 .924-.15 1.788-.45 2.592-.288.804-.744 1.458-1.368 1.962-.612.504-1.38.756-2.304.756-.456 0-.87-.09-1.242-.27-.372-.18-.66-.414-.864-.702v2.304c0 .492.144.828.432 1.008.288.192.72.288 1.296.288v.378l-.414-.018c-1.116-.036-1.842-.054-2.178-.054-.288 0-.936.024-1.944.072v-.378c.444 0 .75-.084.918-.252.18-.156.27-.444.27-.864v-9.072c0-.552-.102-.954-.306-1.206-.204-.252-.558-.378-1.062-.378v-.378c.372.036.744.054 1.116.054.756 0 1.38-.084 1.872-.252v1.908c.264-.624.648-1.104 1.152-1.44.504-.348 1.08-.522 1.728-.522zm-.972 9.36c1.716 0 2.574-1.548 2.574-4.644 0-2.784-.696-4.176-2.088-4.176-.54 0-1.026.198-1.458.594-.432.384-.744.942-.936 1.674v5.4c.168.348.414.63.738.846.324.204.714.306 1.17.306zm10.099-9.36c1.224 0 2.208.408 2.952 1.224.756.804 1.134 2.028 1.134 3.672 0 1.644-.378 2.868-1.134 3.672-.744.804-1.728 1.206-2.952 1.206s-2.214-.402-2.97-1.206c-.744-.804-1.116-2.028-1.116-3.672 0-1.644.372-2.868 1.116-3.672.756-.816 1.746-1.224 2.97-1.224zm0 .36c-.72 0-1.29.372-1.71 1.116-.42.732-.63 1.872-.63 3.42 0 1.548.21 2.688.63 3.42.42.732.99 1.098 1.71 1.098s1.29-.366 1.71-1.098c.42-.732.63-1.872.63-3.42 0-1.548-.21-2.688-.63-3.42-.42-.744-.99-1.116-1.71-1.116zm17.205.252c-.432.024-.75.072-.954.144-.192.072-.324.21-.396.414-.072.204-.108.534-.108.99v5.454c0 .456.036.786.108.99.072.204.204.342.396.414.204.072.522.12.954.144v.36c-.552-.036-1.296-.054-2.232-.054-1.032 0-1.8.018-2.304.054v-.36c.432-.024.744-.072.936-.144.204-.072.342-.21.414-.414.072-.204.108-.534.108-.99v-6.318l-3.348 8.316h-.288l-3.204-8.208v6.21c0 .456.036.786.108.99.072.204.204.342.396.414.204.072.522.12.954.144v.36c-.432-.036-.978-.054-1.638-.054-.72 0-1.278.018-1.674.054v-.36c.432-.024.744-.072.936-.144.204-.072.342-.21.414-.414.072-.204.108-.534.108-.99v-5.454c0-.456-.036-.786-.108-.99-.072-.204-.21-.342-.414-.414-.192-.072-.504-.12-.936-.144v-.36c.396.036.954.054 1.674.054.528 0 .99-.018 1.386-.054l2.754 7.29 2.88-7.236h.846c.912 0 1.656-.018 2.232-.054v.36zm5.219 3.51c1.248 0 2.16.234 2.736.702.588.456.882 1.08.882 1.872 0 .48-.132.936-.396 1.368-.264.42-.69.768-1.278 1.044-.576.276-1.314.414-2.214.414-.132 0-.402-.012-.81-.036-.432-.024-.774-.036-1.026-.036-.312 0-1.02.024-2.124.072v-.378c.504 0 .858-.09 1.062-.27.204-.192.306-.534.306-1.026v-5.904c0-.492-.09-.828-.27-1.008-.168-.192-.474-.288-.918-.288v-.378c1.008.048 1.68.072 2.016.072.336 0 1.056-.024 2.16-.072v.378c-.504 0-.858.096-1.062.288-.204.18-.306.516-.306 1.008v2.178h1.242zm7.074 3.726c0 .492.102.834.306 1.026.204.18.558.27 1.062.27v.378c-1.104-.048-1.836-.072-2.196-.072-.312 0-.972.024-1.98.072v-.378c.444 0 .75-.09.918-.27.18-.192.27-.534.27-1.026v-5.904c0-.492-.09-.828-.27-1.008-.168-.192-.474-.288-.918-.288v-.378c1.008.048 1.668.072 1.98.072.336 0 1.008-.024 2.016-.072v.378c-.444 0-.756.096-.936.288-.168.18-.252.516-.252 1.008v5.904zm-7.542 1.296c.888 0 1.506-.21 1.854-.63.36-.432.54-1.002.54-1.71 0-.828-.234-1.428-.702-1.8-.468-.384-1.23-.576-2.286-.576h-.18v3.42c0 .48.054.816.162 1.008.12.192.324.288.612.288z" fill="#403637"/></svg>