<svg width="49" height="50" viewBox="0 0 49 50" xmlns="http://www.w3.org/2000/svg" fill="none"><path d="M17.58 22.583l2.502 3.754-.082.113-3.061-2.987c-.349 4.291-.681 8.353-1.012 12.414l-.144.012-.968-11.98-1.853 1.584-.136-.125 1.616-2.773-13.202-1.247-.002-.19 12.65-1.211-2.182-3.338.081-.131 3.021 2.466.967-11.29.144-.006c.351 3.804.7 7.607 1.069 11.617l3.794-3.681.069.091-2.791 4.357c9.612.23 19.016.454 28.421.68v.085c-9.56.591-19.117 1.183-28.901 1.786zM47.751 21.758c-6.013 7.136-11.921 14.154-17.83 21.169l.151.19 14.272-16.378c.592 1.278 1.155 2.484 1.776 3.82-7.092 6.216-14.165 12.418-21.24 18.62l-.102-.125c1.29-1.78 2.576-3.566 3.871-5.342 5.085-6.971 10.181-13.932 15.249-20.919.5-.688 1.03-1.072 1.786-1.041.629.026 1.26.006 2.067.006zM23.2 49.076c-7.04-6.109-14.078-12.216-21.169-18.37l1.733-3.588c3.546 4.002 7.021 7.926 10.085 11.385-4.2-5.191-8.793-10.864-13.445-16.612.883.05 1.739.069 2.588.166.215.024.451.254.607.464 6.523 8.721 13.037 17.452 19.55 26.18l.138.25-.087.125zM39.684 19.735c-2.541 0-4.969.002-7.395-.002-.592 0-.456-.547-.453-.949.027-3.193.072-6.388.096-9.58.015-2.008.003-4.016.003-6.024l.285-.212c.124.246.223.521.378.737 1.457 2.038 2.943 4.049 4.373 6.113.379.547.693 1.221.871 1.899.617 2.369 1.165 4.767 1.732 7.156.05.222.059.458.111.862zM25.902 46.299l-1.399 2.466-.074-.034c.574-2.303 1.139-4.61 1.723-6.91 1.596-6.297 3.21-12.588 4.779-18.894.178-.716.435-.985 1.03-.973 1.445.028 2.89.008 4.44.008-.767 1.748-1.514 3.463-2.27 5.173-2.507 5.665-5.021 11.326-7.523 16.993-.141.321-.208.688-.309 1.033l-.398 1.138zM0 20.682c3.636-5.594 7.122-10.957 10.607-16.317l.146.061c-.396 2.678-.795 5.354-1.19 8.032-.327 2.216-.633 4.436-.995 6.642-.055.339-.346.862-.557.884-2.586.271-5.177.464-8.011.698zM37.16 4.094c3.774 5.389 7.422 10.598 11.2 15.992-.898 0-1.582.01-2.265-.002-1.759-.028-3.516-.073-5.274-.093-.406-.004-.659-.107-.767-.668-.933-4.832-1.893-9.657-2.841-14.485-.032-.161-.025-.329-.052-.745zM19.513 19.118c1.275-2.159 2.479-4.196 3.68-6.232l-.114-.164-2.688 1.457-.062-.127 3.583-3.485 7.31 8.553c-3.944-.002-7.75-.002-11.708-.002zM24.002 45.005c-1.831-6.21-3.662-12.42-5.492-18.63l.148-.083c1.739 3.467 3.477 6.934 5.318 10.606l5.818-13.399.133.056c-1.915 7.138-3.828 14.277-5.742 21.415l-.181.034zM25.902 46.299l.398-1.136c.863-1.604 1.745-3.193 2.583-4.813 3.066-5.931 6.123-11.869 9.169-17.817.29-.565.594-.878 1.19-.84.998.063 2.002.018 3.049.018-.081.155-.161.353-.272.521-5.227 7.873-10.456 15.742-15.69 23.609-.119.176-.284.307-.426.458zM29.246 15.497l-5.191-6.64-4.719 5.37-.18-.153 5.152-13.253c1.787 4.926 3.502 9.649 5.216 14.372l-.279.305zM14.355 16.381c-1.212-1.007-2.301-1.913-3.428-2.852l-.965 1.342c-.262-1.225.24-4.24.836-5.126 1.67-2.476 3.339-4.951 5.011-7.423.169-.25.357-.484.633-.854v4.846l-.107.032-.373-2.801-.173-.012-1.433 12.848zM23.247 47.482c-1.802-4.985-3.484-10.041-5.456-14.929-.983-2.44-1.027-4.791-.695-7.3l.154-.452c2.074 7.651 4.106 15.147 6.137 22.644l-.141.036zM4.672 22.357c.884 0 1.611-.046 2.329.024.258.026.594.262.73.525 2.014 3.909 4.001 7.839 5.895 11.861-2.962-4.103-5.922-8.208-8.954-12.41z" fill="#403637"/></svg>