<svg width="100%" height="100%" viewBox="0 0 50 60" xmlns="http://www.w3.org/2000/svg" fill="none" style="color: inherit;"><path d="M22.296 43.137c-11.894 0-21.569-9.675-21.569-21.568 0-11.894 9.675-21.569 21.569-21.569 11.893 0 21.569 9.675 21.569 21.569 0 11.894-9.675 21.568-21.569 21.568zm0-41.262c-10.858 0-19.693 8.835-19.693 19.693s8.835 19.693 19.693 19.693 19.693-8.835 19.693-19.693-8.835-19.693-19.693-19.693zM22.296 40.324c-10.342 0-18.755-8.414-18.755-18.755s8.413-18.755 18.755-18.755c10.342 0 18.755 8.414 18.755 18.755s-8.414 18.755-18.755 18.755zm0-35.635c-9.308 0-16.88 7.573-16.88 16.88 0 9.307 7.572 16.88 16.88 16.88 9.307 0 16.88-7.573 16.88-16.88 0-9.307-7.573-16.88-16.88-16.88zM36.362 22.506c-.519 0-.938-.419-.938-.938 0-7.24-5.889-13.129-13.129-13.129-.519 0-.938-.419-.938-.938 0-.519.419-.938.938-.938 8.273 0 15.004 6.731 15.004 15.004 0 .519-.419.938-.938.938zM45.738 25.319c-.518 0-.938-.419-.938-.938 0-.519.419-.938.938-.938 1.034 0 1.876-.841 1.876-1.875s-.841-1.876-1.876-1.876c-.518 0-.938-.419-.938-.938 0-.519.419-.938.938-.938 2.069 0 3.751 1.682 3.751 3.751s-1.682 3.751-3.751 3.751zM45.738 25.319h-3.002c-.519 0-.938-.419-.938-.938 0-.519.419-.938.938-.938h3.002c.519 0 .938.419.938.938 0 .518-.419.938-.938.938zM45.738 19.692h-3.002c-.519 0-.938-.419-.938-.938 0-.519.419-.938.938-.938h3.002c.519 0 .938.419.938.938 0 .518-.419.938-.938.938zM45.74 30.949c-.519 0-.938-.419-.938-.938v-6.566c0-.518.419-.938.938-.938.518 0 .938.419.938.938v6.566c0 .518-.419.938-.938.938zM45.74 42.198c-.519 0-.938-.419-.938-.938v-6.566c0-.519.419-.938.938-.938.518 0 .938.419.938.938v6.566c0 .518-.419.938-.938.938zM45.74 54.38c-.519 0-.938-.419-.938-.938v-6.566c0-.518.419-.938.938-.938.518 0 .938.419.938.938v6.566c0 .519-.419.938-.938.938zM47.615 31.887c-.519 0-.938-.419-.938-.938 0-.517-.42-.938-.938-.938s-.938.42-.938.938c0 .519-.419.938-.938.938-.519 0-.938-.419-.938-.938 0-1.551 1.262-2.813 2.813-2.813 1.551 0 2.813 1.262 2.813 2.813 0 .518-.419.938-.938.938zM45.74 36.57c-1.551 0-2.813-1.262-2.813-2.813 0-.519.419-.938.938-.938.518 0 .938.419.938.938 0 .517.42.938.938.938.517 0 .938-.42.938-.938 0-.519.419-.938.938-.938.518 0 .938.419.938.938 0 1.551-1.262 2.813-2.813 2.813zM43.864 34.695c-.519 0-.938-.419-.938-.938v-2.808c0-.518.419-.938.938-.938.518 0 .938.42.938.938v2.808c0 .518-.419.938-.938.938zM47.615 34.695c-.519 0-.938-.419-.938-.938v-2.808c0-.518.419-.938.938-.938.518 0 .938.42.938.938v2.808c0 .518-.419.938-.938.938zM45.74 43.136c-.519 0-.938-.419-.938-.938v-6.566c0-.519.419-.938.938-.938.518 0 .938.419.938.938v6.566c0 .518-.419.938-.938.938zM47.615 44.074c-.519 0-.938-.419-.938-.938 0-.518-.42-.938-.938-.938s-.938.42-.938.938-.419.938-.938.938c-.519 0-.938-.419-.938-.938 0-1.551 1.262-2.813 2.813-2.813 1.551 0 2.813 1.262 2.813 2.813 0 .518-.419.938-.938.938zM45.74 48.752c-1.551 0-2.813-1.262-2.813-2.813 0-.518.419-.938.938-.938.518 0 .938.419.938.938 0 .518.42.938.938.938.517 0 .938-.42.938-.938s.419-.938.938-.938c.518 0 .938.419.938.938 0 1.551-1.262 2.813-2.813 2.813zM43.864 46.877c-.519 0-.938-.419-.938-.938v-2.803c0-.519.419-.938.938-.938.518 0 .938.419.938.938v2.803c0 .519-.419.938-.938.938zM47.615 46.877c-.519 0-.938-.419-.938-.938v-2.803c0-.519.419-.938.938-.938.518 0 .938.419.938.938v2.803c0 .519-.419.938-.938.938zM47.615 55.316c-.519 0-.938-.419-.938-.938 0-.517-.42-.938-.938-.938s-.938.42-.938.938c0 .519-.419.938-.938.938-.519 0-.938-.419-.938-.938 0-1.551 1.262-2.813 2.813-2.813 1.551 0 2.813 1.262 2.813 2.813 0 .519-.419.938-.938.938zM45.74 60c-1.551 0-2.813-1.262-2.813-2.813 0-.518.419-.938.938-.938.518 0 .938.419.938.938 0 .518.42.938.938.938.517 0 .938-.42.938-.938s.419-.938.938-.938c.518 0 .938.419.938.938 0 1.552-1.262 2.813-2.813 2.813zM43.864 58.124c-.519 0-.938-.419-.938-.938v-2.808c0-.518.419-.938.938-.938.518 0 .938.419.938.938v2.808c0 .519-.419.938-.938.938zM47.615 58.124c-.519 0-.938-.419-.938-.938v-2.808c0-.518.419-.938.938-.938.518 0 .938.419.938.938v2.808c0 .519-.419.938-.938.938z" fill="currentColor"/></svg>