<svg width="100%" height="100%" viewBox="0 0 47 46" xmlns="http://www.w3.org/2000/svg" fill="none" style="color: inherit;"><path d="M46.017 31.238l-15.415-26.699c-.36-.623-.94-1.069-1.635-1.255l-11.764-3.159c-.397-.106-.801-.144-1.199-.114l-.106-.007h-12.11c-1.459 0-2.724.938-3.147 2.334-.274.904-.146 1.883.351 2.686.497.803 1.317 1.354 2.248 1.511l4.398.742-2.397 2.394c-.51.509-.79 1.186-.79 1.907v30.828c0 1.982 1.612 3.594 3.594 3.594h16.711c1.017 0 1.974-.435 2.648-1.168l.098.029c.31.083.624.124.936.124.623 0 1.237-.163 1.791-.483l14.472-8.355c.831-.48 1.426-1.255 1.674-2.182s.121-1.895-.359-2.727zm-42.477-26.475c-.429-.072-.791-.316-1.02-.685-.229-.37-.286-.802-.159-1.218.192-.633.766-1.059 1.428-1.059h9.334l-3.923 3.918-5.66-.955zm8.527.632l-.207.773-.484-.082.692-.691zm12.69 38.809h-14.195v-7.905c0-.496-.402-.898-.898-.898s-.898.402-.898.898v7.905h-.719c-.991 0-1.797-.806-1.797-1.797v-30.828c0-.24.094-.466.264-.636l3.302-3.299 1.577.266-1.754 6.532c-.187.696-.091 1.423.269 2.047l15.414 26.698c.141.244.308.468.497.668-.303.222-.673.349-1.06.349zm19.883-10.704c-.124.464-.422.851-.837 1.091l-14.472 8.355c-.416.24-.9.304-1.363.18-.464-.124-.851-.422-1.091-.837l-15.414-26.698c-.12-.208-.152-.45-.09-.682l1.799-6.697 2.691.454c.063.339.183.668.361.975.408.707 1.067 1.212 1.855 1.423.263.071.53.105.796.105.529 0 1.052-.139 1.522-.411.707-.408 1.212-1.067 1.423-1.855.211-.788.103-1.611-.305-2.318-.408-.707-1.067-1.212-1.855-1.423-.788-.211-1.611-.103-2.318.305-.569.329-1.008.82-1.267 1.411l-2.434-.411.896-3.338c.125-.464.422-.851.838-1.091.277-.16.584-.241.895-.241.156 0 .314.021.469.062l6.813 1.83.018.036 4.358 7.548c.166.288.468.449.779.449.152 0 .307-.039.448-.12.43-.248.577-.798.329-1.227l-3.48-6.027 2.497.671c.232.062.425.211.545.418l15.415 26.699c.24.416.304.9.179 1.364zm-26.502-26.273l-.138-.023.239-.18c.194-.112.409-.169.627-.169.109 0 .219.014.328.043.325.087.596.295.764.586.168.291.213.63.126.954-.087.325-.295.596-.586.764-.291.168-.63.213-.954.126-.212-.057-.401-.166-.554-.316h.002c.43 0 .811-.31.885-.749.083-.489-.247-.953-.736-1.035zM10.298 31.073c-.167-.167-.399-.263-.635-.263s-.468.096-.635.263c-.167.167-.263.399-.263.636 0 .235.096.467.263.635.167.167.399.262.635.262s.468-.095.635-.262c.167-.168.263-.399.263-.635 0-.237-.096-.469-.263-.636zM31.636 14.164c-.167-.167-.399-.263-.635-.263-.237 0-.468.096-.636.263-.167.167-.262.399-.262.635 0 .237.095.468.262.635.168.168.4.263.636.263s.467-.095.635-.263c.167-.167.263-.399.263-.635s-.096-.467-.263-.635z" fill="currentColor"/></svg>