<svg width="79" height="79" viewBox="0 0 79 79" fill="none" xmlns="http://www.w3.org/2000/svg">
<path d="M78.1705 53.6471L51.6974 7.79391C51.0798 6.72401 50.0824 5.95838 48.8894 5.63775L28.6864 0.212501C28.0054 0.0296588 27.3112 -0.0342203 26.6279 0.0160807C26.5682 0.00913728 26.5077 0.00450835 26.4462 0.00450835H5.64796C3.14217 0.00450835 0.97012 1.61568 0.24307 4.01362C-0.227537 5.56616 -0.00766353 7.24739 0.846682 8.6265C1.70103 10.0056 3.10837 10.9513 4.70782 11.2213L12.2618 12.4964L8.14511 16.6085C7.26962 17.483 6.7876 18.6461 6.7876 19.8834V72.8278C6.7876 76.231 9.55631 78.9997 12.9595 78.9997H41.6587C43.4045 78.9997 45.0494 78.2534 46.2055 76.9942C46.2617 77.0108 46.3174 77.0286 46.3743 77.0438C46.906 77.1863 47.4456 77.2568 47.9816 77.2568C49.0511 77.2568 50.1066 76.9763 51.0575 76.4273L75.9118 62.0778C77.3395 61.2535 78.3608 59.9225 78.7874 58.3302C79.2139 56.7378 78.9948 55.0748 78.1705 53.6471ZM5.22163 8.17857C4.48548 8.05421 3.86335 7.63621 3.4702 7.00144C3.0769 6.36666 2.97969 5.62356 3.19632 4.90901C3.52606 3.82121 4.5114 3.09046 5.64811 3.09046H21.6784L14.9419 9.81937L5.22163 8.17857ZM19.8654 9.26313L19.509 10.5904L18.6771 10.45L19.8654 9.26313ZM41.6588 75.9139H17.2797V62.3381C17.2797 61.4859 16.5889 60.7951 15.7367 60.7951C14.8845 60.7951 14.1937 61.4859 14.1937 62.3381V75.9141H12.9593C11.2577 75.9141 9.87339 74.5297 9.87339 72.8281V19.8834C9.87339 19.471 10.0342 19.0832 10.3259 18.7918L15.9972 13.1269L18.7051 13.5841L15.6926 24.8018C15.3716 25.9968 15.5355 27.2453 16.1544 28.3169L42.6267 74.1682C42.8688 74.5877 43.1558 74.971 43.4794 75.3154C42.9583 75.6967 42.3232 75.9139 41.6588 75.9139ZM75.8064 57.5315C75.5932 58.3277 75.0824 58.9932 74.3687 59.4053L49.5144 73.7548C48.8005 74.167 47.9688 74.2762 47.1728 74.0631C46.3766 73.8497 45.7111 73.3392 45.299 72.6252L18.8267 26.7742C18.6205 26.417 18.5657 26.0009 18.6727 25.6026L21.7616 14.1004L26.3829 14.8805C26.4901 15.4623 26.6974 16.0278 27.002 16.5554C27.7026 17.7689 28.8339 18.637 30.1874 18.9996C30.6394 19.1207 31.0981 19.1806 31.5537 19.1806C32.4629 19.1806 33.3599 18.9422 34.1683 18.4755C35.3819 17.7748 36.2499 16.6435 36.6125 15.29C36.9753 13.9365 36.7892 12.5227 36.0885 11.3091C35.3879 10.0956 34.2566 9.22748 32.9031 8.86489C31.5496 8.50213 30.1357 8.68837 28.9222 9.38888C27.9446 9.9533 27.1916 10.7976 26.746 11.812L22.5656 11.1064L24.1053 5.37283C24.3192 4.5768 24.8301 3.91163 25.5442 3.49981C26.0194 3.22578 26.5465 3.08583 27.0806 3.08583C27.3493 3.08583 27.6196 3.12116 27.8859 3.19276L39.5874 6.33518C39.598 6.3557 39.6073 6.37668 39.619 6.3969L47.1037 19.3605C47.3894 19.8556 47.908 20.1321 48.4413 20.1321C48.703 20.1321 48.9684 20.0655 49.2114 19.9252C49.9494 19.4992 50.2023 18.5555 49.7761 17.8175L43.7999 7.46649L48.0887 8.61816C48.4865 8.72494 48.8188 8.9803 49.0248 9.33688L75.4981 55.1899C75.9104 55.9039 76.0196 56.7354 75.8064 57.5315ZM30.2927 12.4108L30.055 12.3707C30.1782 12.2536 30.3143 12.1486 30.4652 12.0615C30.798 11.8692 31.1674 11.7712 31.5417 11.7712C31.7293 11.7712 31.9182 11.7959 32.1043 11.8458C32.6616 11.9951 33.1274 12.3525 33.4159 12.8522C33.7045 13.352 33.781 13.934 33.6317 14.4915C33.4823 15.0488 33.1249 15.5146 32.6252 15.8032C32.1256 16.0919 31.5434 16.1684 30.9859 16.0189C30.6212 15.9212 30.297 15.733 30.0347 15.4755C30.0358 15.4753 30.0367 15.4755 30.0378 15.4755C30.777 15.4755 31.4301 14.9424 31.5573 14.1891C31.6991 13.3488 31.133 12.5526 30.2927 12.4108Z" fill="#D4A324"/>
<path d="M16.8275 53.364C16.5405 53.077 16.1424 52.9119 15.7366 52.9119C15.3308 52.9119 14.9327 53.077 14.6457 53.364C14.3587 53.6509 14.1936 54.049 14.1936 54.4564C14.1936 54.8606 14.3587 55.2587 14.6457 55.5473C14.9327 55.8343 15.3308 55.9978 15.7366 55.9978C16.1424 55.9978 16.5405 55.8343 16.8275 55.5473C17.1145 55.2587 17.2796 54.8622 17.2796 54.4564C17.2794 54.049 17.1143 53.6509 16.8275 53.364Z" fill="#D4A324"/>
<path d="M53.473 24.3251C53.186 24.0381 52.7879 23.873 52.3821 23.873C51.9747 23.873 51.5782 24.0381 51.2897 24.3251C51.0027 24.6121 50.8391 25.0102 50.8391 25.416C50.8391 25.8234 51.0027 26.2199 51.2897 26.5069C51.5782 26.7954 51.9763 26.959 52.3821 26.959C52.7879 26.959 53.1844 26.7954 53.473 26.5069C53.76 26.2199 53.9251 25.8218 53.9251 25.416C53.9251 25.0102 53.76 24.6137 53.473 24.3251Z" fill="#D4A324"/>
</svg>
