<svg width="80" height="72" viewBox="0 0 80 72" fill="none" xmlns="http://www.w3.org/2000/svg">
<path d="M78.75 71.7764H1.25C0.558472 71.7764 0 71.2173 0 70.5264V11.7764C0 11.0861 0.558472 10.5264 1.25 10.5264H78.75C79.4415 10.5264 80 11.0861 80 11.7764V70.5264C80 71.2173 79.4415 71.7764 78.75 71.7764ZM2.5 69.2764H77.5V13.0264H2.5V69.2764Z" fill="#D4A324"/>
<path d="M78.75 13.0264H1.25C0.558472 13.0264 0 12.4661 0 11.7764V1.78125C0 1.09155 0.558472 0.53125 1.25 0.53125H78.75C79.4415 0.53125 80 1.09155 80 1.78125V11.7764C80 12.4661 79.4415 13.0264 78.75 13.0264ZM2.5 10.5264H77.5V3.03125H2.5V10.5264Z" fill="#D4A324"/>
<path d="M48.7537 13.0251C48.0627 13.0251 47.5037 12.4648 47.5037 11.7751V8.02881C47.5037 7.3385 48.0627 6.77881 48.7537 6.77881C49.4452 6.77881 50.0037 7.3385 50.0037 8.02881V11.7751C50.0037 12.4648 49.4452 13.0251 48.7537 13.0251Z" fill="#D4A324"/>
<path d="M48.7538 9.27881H31.2275C30.5366 9.27881 29.9775 8.71851 29.9775 8.02881C29.9775 7.3385 30.5366 6.77881 31.2275 6.77881H48.7538C49.4453 6.77881 50.0038 7.3385 50.0038 8.02881C50.0038 8.71851 49.4453 9.27881 48.7538 9.27881Z" fill="#D4A324"/>
<path d="M31.2275 13.0251C30.5366 13.0251 29.9775 12.4648 29.9775 11.7751V8.02881C29.9775 7.3385 30.5366 6.77881 31.2275 6.77881C31.9191 6.77881 32.4775 7.3385 32.4775 8.02881V11.7751C32.4775 12.4648 31.9191 13.0251 31.2275 13.0251Z" fill="#D4A324"/>
<path d="M74.9988 68.0361H5.00122C4.3103 68.0361 3.75122 67.4777 3.75122 66.7861V15.5288C3.75122 14.8385 4.3103 14.2788 5.00122 14.2788H74.9988C75.6897 14.2788 76.2488 14.8385 76.2488 15.5288V66.7861C76.2488 67.4777 75.6897 68.0361 74.9988 68.0361ZM6.25122 65.5361H73.7488V16.7788H6.25122V65.5361Z" fill="#D4A324"/>
<path d="M27.5 59.28C22.6752 59.28 18.7488 55.3536 18.7488 50.5288C18.7488 45.704 22.6752 41.7776 27.5 41.7776C32.3248 41.7776 36.2512 45.704 36.2512 50.5288C36.2512 55.3536 32.3248 59.28 27.5 59.28ZM27.5 44.2776C24.0527 44.2776 21.2488 47.0815 21.2488 50.5288C21.2488 53.9761 24.0527 56.78 27.5 56.78C30.9473 56.78 33.7512 53.9761 33.7512 50.5288C33.7512 47.0815 30.9473 44.2776 27.5 44.2776Z" fill="#D4A324"/>
<path d="M27.5 41.7752C24.054 41.7752 21.2512 38.9724 21.2512 35.5264C21.2512 32.0828 24.054 29.28 27.5 29.28C30.946 29.28 33.7488 32.0828 33.7488 35.5264C33.7488 38.9724 30.946 41.7752 27.5 41.7752ZM27.5 31.78C25.434 31.78 23.7512 33.4597 23.7512 35.5264C23.7512 37.5924 25.434 39.2751 27.5 39.2751C29.566 39.2751 31.2488 37.5924 31.2488 35.5264C31.2488 33.4597 29.566 31.78 27.5 31.78Z" fill="#D4A324"/>
<path d="M27.5 31.7764C26.8085 31.7764 26.25 31.2161 26.25 30.5264V23.0264C26.25 22.3361 26.8085 21.7764 27.5 21.7764C28.1915 21.7764 28.75 22.3361 28.75 23.0264V30.5264C28.75 31.2161 28.1915 31.7764 27.5 31.7764Z" fill="#D4A324"/>
<path d="M30 24.2764H25C24.3085 24.2764 23.75 23.7161 23.75 23.0264C23.75 22.3361 24.3085 21.7764 25 21.7764H30C30.6915 21.7764 31.25 22.3361 31.25 23.0264C31.25 23.7161 30.6915 24.2764 30 24.2764Z" fill="#D4A324"/>
<path d="M27.5 44.2776C26.8085 44.2776 26.25 43.7185 26.25 43.0276V40.5251C26.25 39.8336 26.8085 39.2751 27.5 39.2751C28.1915 39.2751 28.75 39.8336 28.75 40.5251V43.0276C28.75 43.7185 28.1915 44.2776 27.5 44.2776Z" fill="#D4A324"/>
<path d="M27.5 60.5325C26.8085 60.5325 26.25 59.974 26.25 59.2825V58.03C26.25 57.3385 26.8085 56.78 27.5 56.78C28.1915 56.78 28.75 57.3385 28.75 58.03V59.2825C28.75 59.974 28.1915 60.5325 27.5 60.5325Z" fill="#D4A324"/>
<path d="M52.5 59.28C47.6752 59.28 43.7488 55.3536 43.7488 50.5288C43.7488 45.704 47.6752 41.7776 52.5 41.7776C57.3248 41.7776 61.2512 45.704 61.2512 50.5288C61.2512 55.3536 57.3248 59.28 52.5 59.28ZM52.5 44.2776C49.0527 44.2776 46.2488 47.0815 46.2488 50.5288C46.2488 53.9761 49.0527 56.78 52.5 56.78C55.9473 56.78 58.7512 53.9761 58.7512 50.5288C58.7512 47.0815 55.9473 44.2776 52.5 44.2776Z" fill="#D4A324"/>
<path d="M52.5 41.7752C49.054 41.7752 46.2512 38.9724 46.2512 35.5264C46.2512 32.0828 49.054 29.28 52.5 29.28C55.946 29.28 58.7488 32.0828 58.7488 35.5264C58.7488 38.9724 55.946 41.7752 52.5 41.7752ZM52.5 31.78C50.434 31.78 48.7512 33.4597 48.7512 35.5264C48.7512 37.5924 50.434 39.2751 52.5 39.2751C54.566 39.2751 56.2488 37.5924 56.2488 35.5264C56.2488 33.4597 54.566 31.78 52.5 31.78Z" fill="#D4A324"/>
<path d="M52.5 31.7764C51.8085 31.7764 51.25 31.2161 51.25 30.5264V23.0264C51.25 22.3361 51.8085 21.7764 52.5 21.7764C53.1915 21.7764 53.75 22.3361 53.75 23.0264V30.5264C53.75 31.2161 53.1915 31.7764 52.5 31.7764Z" fill="#D4A324"/>
<path d="M55 24.2764H50C49.3085 24.2764 48.75 23.7161 48.75 23.0264C48.75 22.3361 49.3085 21.7764 50 21.7764H55C55.6915 21.7764 56.25 22.3361 56.25 23.0264C56.25 23.7161 55.6915 24.2764 55 24.2764Z" fill="#D4A324"/>
<path d="M52.5 44.2776C51.8085 44.2776 51.25 43.7185 51.25 43.0276V40.5251C51.25 39.8336 51.8085 39.2751 52.5 39.2751C53.1915 39.2751 53.75 39.8336 53.75 40.5251V43.0276C53.75 43.7185 53.1915 44.2776 52.5 44.2776Z" fill="#D4A324"/>
<path d="M52.5 60.5325C51.8085 60.5325 51.25 59.974 51.25 59.2825V58.03C51.25 57.3385 51.8085 56.78 52.5 56.78C53.1915 56.78 53.75 57.3385 53.75 58.03V59.2825C53.75 59.974 53.1915 60.5325 52.5 60.5325Z" fill="#D4A324"/>
</svg>
