<svg width="79" height="79" viewBox="0 0 79 79" fill="none" xmlns="http://www.w3.org/2000/svg">
<path d="M39.5001 5.26661C37.5785 5.26291 35.9344 6.64587 35.6089 8.53955C35.2833 10.4334 36.3709 12.2859 38.1835 12.9242V14.4832C38.1835 15.2104 38.7729 15.7998 39.5001 15.7998C40.2273 15.7998 40.8167 15.2103 40.8167 14.4832V12.9244C42.6292 12.286 43.7169 10.4334 43.3913 8.53971C43.0657 6.64587 41.4217 5.26306 39.5001 5.26661ZM39.5001 10.5334C38.7729 10.5334 38.1835 9.94396 38.1835 9.21676C38.1835 8.48956 38.7729 7.89999 39.5001 7.89999C40.2273 7.89999 40.8167 8.48941 40.8167 9.21661C40.8167 9.94381 40.2273 10.5334 39.5001 10.5334Z" fill="#034C3B"/>
<path d="M78.9579 10.7571C78.9786 10.684 78.9927 10.609 79 10.5332V3.95C79 1.7684 77.2316 0 75.05 0H3.95C1.7684 0 0 1.7684 0 3.95V10.5334C0.00802344 10.6098 0.0234531 10.6852 0.0461348 10.7585C0.0506094 10.8386 0.0629531 10.9179 0.0830117 10.9955L7.8514 31.7014L0.0290078 68.1915C0.0257676 68.2379 0.0257676 68.2845 0.0290078 68.3311C0.0168184 68.3757 0.00709766 68.4211 0 68.4668V75.05C0 77.2316 1.7684 79 3.95 79H75.05C77.2314 79 79 77.2316 79 75.05V68.4666C78.9932 68.4223 78.984 68.3784 78.9724 68.335C78.9756 68.2886 78.9756 68.242 78.9724 68.1954L71.1514 31.7014L78.9198 10.9955C78.9397 10.9174 78.9525 10.8377 78.9579 10.7571ZM32.9166 2.63338H46.0832V18.4334H32.9166V2.63338ZM76.3666 75.05C76.3666 75.7772 75.7772 76.3666 75.05 76.3666H3.95C3.2228 76.3666 2.63338 75.7772 2.63338 75.05V69.7834H76.3668V75.05H76.3666ZM76.3666 9.21662H52.6666C51.9394 9.21662 51.35 9.80603 51.35 10.5332C51.35 11.2604 51.9396 11.8498 52.6666 11.8498H75.7834L68.5496 31.1377C68.5365 31.1732 68.543 31.2089 68.5325 31.2443C68.51 31.3304 68.4964 31.4187 68.4916 31.5077C68.4824 31.5952 68.4824 31.6835 68.4916 31.7711C68.4916 31.808 68.485 31.8422 68.4916 31.8791L76.0546 67.15H2.94537L10.2819 32.9166H64.5168C65.244 32.9166 65.8334 32.327 65.8334 31.6C65.8334 30.873 65.244 30.2834 64.5168 30.2834H10.1291L3.21663 11.85H26.3334C27.0606 11.85 27.65 11.2606 27.65 10.5334C27.65 9.80618 27.0606 9.21677 26.3334 9.21677H2.63338V3.95C2.63338 3.2228 3.2228 2.63338 3.95 2.63338H30.2834V18.4334C30.2834 19.8878 31.4624 21.0668 32.9168 21.0668H46.0834C47.5378 21.0668 48.7168 19.8878 48.7168 18.4334V2.63338H75.05C75.7772 2.63338 76.3666 3.2228 76.3666 3.95V9.21662Z" fill="#034C3B"/>
<path d="M46.967 48.0808C46.7659 48.265 46.5948 48.4796 46.4601 48.7168H43.4107C43.322 47.2149 42.9182 45.7484 42.2257 44.4127C41.418 42.8782 40.3029 41.5264 38.9498 40.4415C37.5294 39.2928 35.9165 38.4048 34.1861 37.8188C30.4436 36.5568 26.3905 36.5568 22.6481 37.8188C20.9179 38.4045 19.3055 39.2927 17.8857 40.4415C16.5327 41.5267 15.4173 42.8784 14.6086 44.4127C14.3923 44.8304 14.4151 45.3318 14.6686 45.7281C14.9221 46.1243 15.3679 46.3551 15.8379 46.3337C16.3079 46.3122 16.7306 46.0416 16.947 45.6239C17.5901 44.4093 18.476 43.34 19.5499 42.4823C20.7309 41.53 22.0708 40.7937 23.5078 40.3072C26.6936 39.2366 30.1418 39.2366 33.3276 40.3072C34.7619 40.7943 36.0991 41.5306 37.2776 42.4823C38.3523 43.3397 39.2384 44.4096 39.8806 45.6252C41.1231 47.9725 41.1231 50.7828 39.8806 53.1302C39.2381 54.3448 38.3524 55.4141 37.2788 56.2718C36.0977 57.2238 34.7578 57.9603 33.3209 58.4469C30.1353 59.518 26.6868 59.518 23.5012 58.4469C22.0642 57.9604 20.7243 57.2241 19.5433 56.2718C18.4694 55.4142 17.5833 54.3448 16.9403 53.1302C16.724 52.7125 16.3011 52.4418 15.8312 52.4204C15.3614 52.3989 14.9156 52.6298 14.662 53.026C14.4085 53.4222 14.3855 53.9237 14.602 54.3414C15.4106 55.8757 16.5262 57.2274 17.8792 58.3125C19.3009 59.4606 20.9152 60.3474 22.6468 60.9314C26.3881 62.2007 30.4435 62.2007 34.1848 60.9314C35.9151 60.3454 37.528 59.4574 38.9486 58.3087C40.3016 57.224 41.4167 55.8722 42.2245 54.3375C42.7087 53.3968 43.0529 52.3903 43.2462 51.35H46.4602C46.5951 51.5875 46.7667 51.8021 46.9685 51.986C49.4781 54.2073 54.2905 57.9334 58.3288 57.9334C63.9194 57.9334 68.4671 54.3903 68.4671 50.0334C68.4671 45.6765 63.9194 42.1334 58.3288 42.1334C54.2902 42.1334 49.4778 45.8595 46.967 48.0808ZM65.8335 50.0334C65.8335 52.9381 62.4667 55.3 58.3285 55.3C56.0479 55.3 52.4534 53.325 48.7168 50.0532C52.4536 46.7418 56.0481 44.7668 58.3285 44.7668C62.4667 44.7666 65.8335 47.1288 65.8335 50.0334Z" fill="#034C3B"/>
<path d="M54.1584 49.3435C53.9754 49.6409 53.918 49.9991 53.999 50.3388C54.08 50.6786 54.2926 50.9724 54.5903 51.1552C56.0189 52.0632 57.6549 52.5934 59.3448 52.6957C59.747 52.6974 60.1482 52.6502 60.5391 52.5548C61.5802 52.2993 62.4698 51.6252 62.9973 50.6917C63.2622 50.2836 63.2804 49.7627 63.0448 49.337C62.8091 48.9113 62.3579 48.6504 61.8714 48.6584C61.3849 48.6664 60.9425 48.942 60.7208 49.3751C60.5505 49.6943 60.2496 49.9236 59.8966 50.0031C58.5017 50.0998 57.116 49.7155 55.9703 48.9142C55.3513 48.5326 54.5401 48.7247 54.1584 49.3435Z" fill="#034C3B"/>
</svg>
