<svg width="80" height="80" viewBox="0 0 80 80" fill="none" xmlns="http://www.w3.org/2000/svg">
<path d="M40 5.33326C38.0541 5.32951 36.3892 6.72998 36.0595 8.64763C35.7299 10.5654 36.8313 12.4414 38.6667 13.0878V14.6665C38.6667 15.4029 39.2636 15.9998 40 15.9998C40.7364 15.9998 41.3333 15.4028 41.3333 14.6665V13.0879C43.1688 12.4415 44.2702 10.5654 43.9405 8.64779C43.6108 6.72998 41.9459 5.32967 40 5.33326ZM40 10.6667C39.2636 10.6667 38.6667 10.0698 38.6667 9.33342C38.6667 8.59701 39.2636 7.99998 40 7.99998C40.7364 7.99998 41.3333 8.59685 41.3333 9.33326C41.3333 10.0697 40.7364 10.6667 40 10.6667Z" fill="#644D7B"/>
<path d="M79.9573 10.8933C79.9783 10.8192 79.9927 10.7433 80 10.6666V4C80 1.79078 78.2092 0 76 0H4C1.79078 0 0 1.79078 0 4V10.6667C0.008125 10.7441 0.02375 10.8205 0.0467188 10.8947C0.05125 10.9758 0.06375 11.0561 0.0840625 11.1347L7.95078 32.1027L0.029375 69.0547C0.0260937 69.1017 0.0260937 69.1489 0.029375 69.1961C0.0170312 69.2412 0.0071875 69.2872 0 69.3334V76C0 78.2092 1.79078 80 4 80H76C78.2091 80 80 78.2092 80 76V69.3333C79.9931 69.2884 79.9837 69.2439 79.972 69.2C79.9753 69.153 79.9753 69.1058 79.972 69.0586L72.052 32.1027L79.9188 11.1347C79.9389 11.0556 79.9519 10.9748 79.9573 10.8933ZM33.3333 2.66672H46.6666V18.6667H33.3333V2.66672ZM77.3333 76C77.3333 76.7364 76.7364 77.3333 76 77.3333H4C3.26359 77.3333 2.66672 76.7364 2.66672 76V70.6667H77.3334V76H77.3333ZM77.3333 9.33328H53.3333C52.5969 9.33328 52 9.93016 52 10.6666C52 11.403 52.597 11.9998 53.3333 11.9998H76.7427L69.4173 31.5319C69.4041 31.5678 69.4106 31.6039 69.4 31.6398C69.3772 31.727 69.3634 31.8164 69.3586 31.9066C69.3492 31.9952 69.3492 32.0845 69.3586 32.1733C69.3586 32.2106 69.3519 32.2453 69.3586 32.2827L77.0173 68H2.98266L10.412 33.3333H65.3334C66.0698 33.3333 66.6667 32.7363 66.6667 32C66.6667 31.2638 66.0698 30.6667 65.3334 30.6667H10.2573L3.25734 12H26.6667C27.4031 12 28 11.4031 28 10.6667C28 9.93031 27.4031 9.33344 26.6667 9.33344H2.66672V4C2.66672 3.26359 3.26359 2.66672 4 2.66672H30.6667V18.6667C30.6667 20.1395 31.8606 21.3334 33.3334 21.3334H46.6667C48.1395 21.3334 49.3334 20.1395 49.3334 18.6667V2.66672H76C76.7364 2.66672 77.3333 3.26359 77.3333 4V9.33328Z" fill="#644D7B"/>
<path d="M47.5614 48.6895C47.3578 48.876 47.1846 49.0934 47.0482 49.3335H43.9602C43.8703 47.8126 43.4614 46.3276 42.7602 44.9749C41.9422 43.421 40.813 42.0521 39.4428 40.9535C38.0044 39.7902 36.3711 38.891 34.6188 38.2976C30.8289 37.0196 26.7246 37.0196 22.9347 38.2976C21.1827 38.8907 19.5499 39.7901 18.1121 40.9535C16.7419 42.0524 15.6124 43.4212 14.7935 44.9749C14.5744 45.3979 14.5975 45.9057 14.8542 46.307C15.111 46.7082 15.5624 46.942 16.0383 46.9202C16.5142 46.8985 16.9424 46.6245 17.1614 46.2015C17.8127 44.9715 18.7099 43.8887 19.7974 43.0201C20.9933 42.0557 22.3502 41.3101 23.8053 40.8174C27.0314 39.7334 30.5233 39.7334 33.7494 40.8174C35.2019 41.3107 36.556 42.0563 37.7494 43.0201C38.8377 43.8884 39.735 44.9718 40.3853 46.2027C41.6436 48.5798 41.6436 51.4257 40.3853 53.8028C39.7347 55.0328 38.8378 56.1156 37.7507 56.9842C36.5546 57.9482 35.1977 58.694 33.7427 59.1868C30.5167 60.2715 27.0246 60.2715 23.7986 59.1868C22.3435 58.6942 20.9866 57.9485 19.7907 56.9842C18.7032 56.1157 17.8058 55.0328 17.1547 53.8028C16.9357 53.3798 16.5074 53.1057 16.0316 53.084C15.5558 53.0623 15.1044 53.296 14.8475 53.6973C14.5908 54.0985 14.5675 54.6063 14.7867 55.0293C15.6057 56.5831 16.7353 57.9518 18.1055 59.0507C19.5452 60.2134 21.1799 61.1113 22.9335 61.7028C26.7221 62.9881 30.8288 62.9881 34.6175 61.7028C36.3697 61.1093 38.003 60.2101 39.4416 59.0468C40.8117 57.9484 41.941 56.5795 42.7589 55.0254C43.2492 54.0727 43.5978 53.0535 43.7936 52.0001H47.0483C47.1849 52.2406 47.3586 52.4579 47.563 52.6442C50.1044 54.8935 54.9777 58.6668 59.0671 58.6668C64.7285 58.6668 69.3338 55.0788 69.3338 50.6668C69.3338 46.2548 64.7285 42.6668 59.0671 42.6668C54.9774 42.6668 50.1041 46.4401 47.5614 48.6895ZM66.6667 50.6668C66.6667 53.6082 63.2574 56.0001 59.0667 56.0001C56.7574 56.0001 53.1174 54.0001 49.3335 50.6868C53.1175 47.3335 56.7575 45.3335 59.0667 45.3335C63.2574 45.3334 66.6667 47.7254 66.6667 50.6668Z" fill="#644D7B"/>
<path d="M54.8441 49.9681C54.6588 50.2694 54.6007 50.632 54.6827 50.9761C54.7647 51.3201 54.98 51.6176 55.2815 51.8028C56.7282 52.7223 58.3849 53.2592 60.0961 53.3628C60.5035 53.3645 60.9097 53.3167 61.3055 53.2201C62.3599 52.9614 63.2607 52.2787 63.7949 51.3334C64.0632 50.9201 64.0816 50.3926 63.843 49.9615C63.6043 49.5304 63.1474 49.2662 62.6547 49.2744C62.1621 49.2825 61.7141 49.5615 61.4896 50.0001C61.3171 50.3234 61.0124 50.5556 60.6549 50.6361C59.2424 50.734 57.8391 50.3448 56.679 49.5334C56.0521 49.147 55.2307 49.3415 54.8441 49.9681Z" fill="#644D7B"/>
</svg>
