<?xml version="1.0" standalone="no"?>
<!DOCTYPE svg PUBLIC "-//W3C//DTD SVG 20010904//EN"
 "http://www.w3.org/TR/2001/REC-SVG-20010904/DTD/svg10.dtd">
<svg version="1.0" xmlns="http://www.w3.org/2000/svg"
 width="800.000000pt" height="800.000000pt" viewBox="0 0 800.000000 800.000000"
 preserveAspectRatio="xMidYMid meet">
<metadata>
Created by potrace 1.11, written by Peter Selinger 2001-2013
</metadata>
<g transform="translate(0.000000,800.000000) scale(0.100000,-0.100000)"
fill="#000000" stroke="none">
<path d="M3960 7853 c0 -7 -5 -24 -12 -40 -6 -15 -12 -30 -12 -33 -1 -5 -61
-157 -211 -540 -29 -74 -128 -328 -219 -565 -92 -236 -171 -439 -176 -450 -5
-11 -28 -69 -50 -130 -23 -60 -48 -123 -55 -140 -7 -16 -27 -69 -45 -117 -27
-72 -31 -90 -21 -102 11 -13 17 -10 46 24 18 21 39 45 46 53 17 18 100 112
209 237 46 52 86 97 89 100 3 3 33 37 65 75 33 39 64 75 70 80 6 6 26 28 45
50 19 22 62 72 97 110 34 39 71 81 82 94 23 29 0 52 187 -189 75 -96 141 -182
148 -190 7 -8 28 -35 47 -60 19 -25 37 -47 40 -50 3 -3 19 -23 36 -45 16 -22
36 -49 46 -60 28 -34 142 -180 163 -210 11 -15 25 -32 30 -39 6 -6 43 -52 82
-103 l71 -92 22 24 c20 22 21 26 9 62 -7 21 -14 43 -15 48 -1 6 -17 48 -35 95
-18 46 -32 90 -32 97 0 7 -4 13 -7 13 -4 0 -11 15 -15 33 -4 17 -9 34 -10 37
-5 14 -26 67 -32 80 -3 8 -7 20 -9 25 -1 6 -21 62 -44 125 -104 286 -122 337
-132 365 -5 17 -14 39 -18 50 -5 11 -29 79 -55 150 -26 72 -53 146 -60 165 -7
19 -32 87 -55 150 -23 63 -50 137 -61 164 -10 27 -19 56 -19 65 0 10 -4 21 -9
27 -5 5 -21 45 -36 89 -16 44 -33 91 -38 105 -6 14 -11 30 -13 35 -1 6 -16 48
-34 95 -17 47 -42 116 -56 155 -23 66 -44 103 -44 78z"/>
<path d="M2653 7690 c-55 -77 -245 -356 -258 -378 -24 -41 -99 -148 -109 -154
-6 -4 -7 -8 -3 -8 5 0 -4 -17 -20 -37 -29 -38 -179 -259 -198 -291 -5 -9 -12
-19 -15 -22 -3 -3 -54 -79 -115 -170 -60 -91 -113 -167 -116 -170 -27 -22
-101 -230 -114 -318 -2 -15 -6 -36 -9 -48 -2 -12 -7 -45 -11 -74 -4 -29 -9
-62 -11 -74 -8 -33 -11 -278 -5 -303 5 -18 18 -5 81 83 41 57 78 103 82 102 6
-3 297 -240 322 -263 6 -6 49 -41 96 -79 47 -39 92 -78 101 -89 21 -26 28 -13
34 60 3 32 7 69 10 83 2 14 7 50 10 80 3 30 8 71 10 90 2 19 6 62 9 95 4 33 9
76 11 95 3 19 8 60 10 90 3 31 7 71 10 90 5 40 13 115 20 180 2 25 7 67 10 94
7 51 10 80 20 186 4 35 8 71 10 80 3 16 15 119 20 179 4 44 14 134 21 180 2
18 7 61 10 95 3 33 7 72 10 86 2 14 6 57 10 95 3 39 9 87 14 109 5 21 6 44 4
51 -3 7 2 15 10 18 15 6 25 -20 32 -83 1 -14 6 -52 10 -85 3 -33 8 -69 10 -79
2 -11 6 -40 9 -65 3 -25 7 -55 9 -66 3 -11 5 -30 5 -42 1 -13 6 -23 11 -23 6
0 10 133 10 380 0 209 -3 380 -7 380 -5 0 -27 -27 -50 -60z"/>
<path d="M5209 7507 c-15 -11 -17 -105 -23 -997 -3 -542 -8 -1128 -10 -1303
-5 -386 -13 -362 123 -362 50 0 91 -4 91 -9 0 -5 6 -5 13 0 6 5 237 9 519 8
l507 -1 -5 46 c-7 66 -18 128 -29 161 -6 20 -13 50 -20 90 -3 14 -12 52 -20
85 -9 33 -18 69 -20 80 -3 11 -16 70 -31 130 -14 61 -28 118 -30 128 -13 68
-148 598 -159 624 -8 18 -12 33 -10 33 13 0 -106 213 -148 265 -16 20 -308
431 -332 466 -13 20 -29 42 -37 50 -7 8 -17 22 -23 31 -5 9 -66 94 -135 188
-69 95 -140 201 -159 236 -19 35 -37 64 -40 64 -3 0 -13 -6 -22 -13z"/>
<path d="M6031 7284 c2 -32 10 -97 20 -144 9 -47 20 -98 22 -115 3 -16 20
-100 37 -185 17 -85 33 -166 35 -180 3 -14 7 -36 10 -50 8 -34 24 -119 31
-155 2 -16 7 -37 9 -45 2 -8 7 -31 10 -50 3 -19 10 -54 16 -78 5 -23 11 -58
14 -77 2 -20 6 -39 9 -43 2 -4 7 -29 10 -56 4 -27 9 -52 11 -55 1 -3 6 -22 9
-41 3 -19 8 -46 11 -60 3 -14 8 -38 11 -54 3 -17 19 -98 35 -180 17 -83 33
-162 35 -176 2 -14 9 -47 14 -75 5 -27 12 -61 14 -75 3 -14 7 -36 10 -50 9
-41 15 -73 21 -105 5 -32 11 -63 20 -105 3 -14 8 -41 11 -60 4 -19 7 -39 8
-45 2 -5 8 -37 15 -70 21 -104 30 -122 62 -135 43 -18 48 -19 454 -26 564 -9
794 -11 805 -4 6 4 -58 104 -142 224 -84 119 -157 225 -163 234 -5 9 -12 19
-16 22 -3 3 -30 41 -60 85 -175 254 -574 821 -581 823 -4 2 -8 8 -8 12 0 5
-44 71 -98 147 -53 76 -105 149 -114 163 -10 14 -35 50 -58 80 -22 30 -43 62
-47 70 -4 8 -9 17 -13 20 -3 3 -84 118 -180 255 -96 138 -177 252 -180 255 -3
3 -29 41 -58 84 l-53 80 2 -60z"/>
<path d="M1705 7190 c-38 -61 -76 -118 -83 -128 -7 -9 -46 -69 -87 -132 -41
-63 -79 -122 -84 -130 -19 -27 -87 -132 -299 -460 -116 -179 -215 -330 -221
-337 -6 -7 -11 -17 -11 -23 0 -5 -3 -10 -8 -10 -4 0 -12 -9 -17 -20 -6 -11
-34 -57 -63 -102 -78 -122 -240 -371 -252 -388 -6 -8 -39 -60 -75 -115 -35
-55 -69 -107 -75 -115 -6 -8 -29 -44 -52 -80 -23 -36 -78 -121 -123 -190 -45
-69 -90 -140 -100 -157 -11 -18 -23 -33 -27 -33 -4 0 -8 -6 -8 -14 0 -7 -7
-19 -15 -26 -8 -7 -15 -19 -15 -27 0 -11 9 -13 37 -9 21 3 74 9 118 12 44 3
100 8 125 10 25 2 74 5 110 8 90 7 196 15 255 21 28 3 79 7 115 10 36 3 85 7
110 10 25 2 79 7 120 10 41 4 86 8 100 10 14 3 59 7 100 10 99 7 101 8 133 59
25 41 43 108 62 236 3 25 8 56 10 70 2 14 9 57 14 95 6 39 13 79 15 91 2 12 7
45 11 75 3 30 8 61 10 69 2 8 7 36 10 62 6 54 10 86 31 218 8 52 17 110 19
130 3 19 7 46 10 60 3 14 7 41 9 60 7 57 17 133 22 160 3 14 6 36 8 50 4 36
26 190 32 225 10 63 13 81 19 125 3 25 10 70 15 100 5 30 11 71 14 90 12 92
19 137 22 155 2 11 6 40 9 65 3 25 8 56 10 70 3 14 7 41 10 60 3 19 9 60 14
89 19 119 2 115 -84 -19z"/>
<path d="M2607 6773 c-3 -4 -8 -44 -11 -88 -4 -44 -9 -105 -11 -135 -3 -30 -7
-84 -11 -120 -3 -36 -7 -87 -10 -115 -2 -27 -6 -77 -9 -110 -2 -33 -6 -81 -9
-106 -3 -26 -8 -86 -11 -135 -3 -49 -8 -100 -10 -114 -2 -14 -7 -63 -10 -110
-4 -47 -8 -101 -10 -120 -3 -19 -7 -69 -10 -110 -3 -41 -8 -100 -10 -130 -3
-30 -8 -80 -10 -110 -2 -30 -7 -80 -10 -110 -3 -30 -7 -84 -11 -120 -3 -35 -6
-66 -8 -67 -1 -2 -11 5 -22 15 -10 10 -95 80 -189 156 -93 76 -181 147 -195
159 -105 91 -106 68 -4 -86 46 -70 84 -130 84 -133 0 -3 5 -10 11 -17 6 -7 46
-66 89 -132 91 -138 94 -128 -47 -139 -43 -4 -98 -9 -123 -11 -25 -3 -67 -7
-95 -9 -97 -9 -180 -17 -220 -21 -22 -3 -67 -7 -100 -10 -33 -3 -80 -7 -105
-10 -25 -3 -72 -7 -105 -10 -33 -3 -76 -7 -95 -9 -19 -3 -66 -8 -105 -11 -38
-3 -86 -8 -105 -10 -19 -2 -66 -7 -105 -10 -38 -4 -86 -8 -105 -10 -19 -2 -69
-6 -110 -10 -41 -3 -86 -8 -100 -10 -14 -2 -61 -7 -105 -10 -104 -8 -148 -13
-215 -21 -30 -4 -65 -6 -77 -5 -22 1 -33 -22 -15 -32 6 -4 106 -15 212 -23 68
-5 150 -13 195 -18 42 -5 155 -16 215 -21 34 -2 114 -10 210 -20 25 -3 74 -8
110 -11 36 -3 81 -7 100 -9 19 -2 69 -6 110 -10 41 -4 91 -8 110 -10 19 -2 67
-6 105 -10 68 -6 105 -9 203 -20 26 -3 76 -8 112 -10 36 -3 83 -7 105 -9 22
-2 74 -7 115 -11 41 -4 84 -9 95 -11 11 -2 39 -5 62 -6 l42 -1 -19 -36 c-11
-20 -68 -119 -128 -221 -121 -206 -130 -242 -38 -167 28 23 53 45 56 48 9 11
184 158 186 156 5 -4 14 -87 20 -172 3 -49 7 -108 9 -130 2 -22 6 -74 9 -115
5 -70 8 -100 21 -247 3 -32 8 -92 10 -133 3 -41 8 -97 10 -125 3 -27 7 -75 9
-105 3 -30 7 -86 11 -125 3 -38 7 -101 10 -140 2 -38 6 -88 9 -110 3 -22 8
-78 11 -125 3 -47 8 -105 10 -130 2 -25 7 -81 10 -125 8 -108 10 -118 23 -123
7 -2 13 8 13 25 3 52 7 108 9 108 0 0 3 34 6 75 2 41 6 93 8 115 3 22 8 81 11
130 4 50 9 106 11 125 2 19 6 73 9 120 3 47 7 99 10 115 2 17 7 71 10 120 4
50 8 108 11 130 4 46 13 154 19 240 7 105 23 298 31 366 3 26 7 78 9 115 4 83
15 187 19 191 3 3 83 -74 382 -368 99 -98 114 -109 114 -89 0 9 -106 176 -120
190 -3 3 -39 57 -80 120 -41 63 -81 121 -87 128 -7 7 -13 20 -13 28 0 8 -4 14
-8 14 -5 0 -17 16 -28 35 -10 19 -21 35 -25 35 -6 0 -31 51 -27 55 2 2 53 6
113 10 61 4 135 8 165 10 126 8 240 15 325 20 50 2 122 7 160 10 64 5 110 8
330 20 39 3 106 7 150 10 81 5 201 12 330 20 39 2 108 7 155 10 209 13 293 18
500 30 41 2 111 7 155 10 44 3 118 8 165 11 47 2 119 7 160 9 41 3 113 7 160
10 47 3 117 7 155 10 39 2 120 8 180 11 61 3 130 7 155 9 25 2 95 6 155 10 61
4 135 8 165 10 30 2 109 7 175 10 66 4 140 8 165 11 25 2 90 6 145 9 55 3 129
8 165 10 36 2 112 7 170 10 58 4 108 10 112 14 5 4 -52 8 -125 10 -142 3 -244
6 -627 16 -135 3 -329 7 -432 10 -103 2 -193 7 -199 11 -8 5 -9 3 -4 -6 5 -9
4 -11 -4 -6 -7 4 -105 10 -219 12 -192 3 -294 5 -827 19 -110 3 -299 7 -420
10 -121 3 -308 7 -415 10 -107 3 -298 7 -425 10 -126 3 -304 8 -395 10 -91 2
-227 5 -302 6 -91 2 -138 6 -138 13 0 6 12 29 27 51 42 61 153 236 153 241 0
3 5 10 11 17 13 15 113 169 122 188 4 8 33 55 66 104 32 50 54 92 49 94 -5 1
-41 -29 -81 -67 -40 -39 -126 -123 -192 -187 -66 -64 -166 -161 -222 -216 -57
-55 -106 -98 -111 -95 -5 3 -9 18 -10 33 -1 15 -4 60 -7 98 -4 39 -7 89 -8
112 -1 24 -4 43 -7 43 -3 0 -5 19 -6 43 0 23 -4 71 -8 107 -4 37 -9 91 -11
120 -3 30 -7 82 -11 115 -3 33 -7 80 -10 105 -2 25 -5 68 -8 95 -3 28 -7 84
-11 125 -3 41 -8 91 -10 110 -3 19 -7 67 -10 105 -3 39 -8 88 -10 110 -8 79
-23 247 -30 325 -14 176 -22 219 -38 193z"/>
<path d="M3755 6164 c-363 -353 -422 -413 -416 -423 4 -6 43 10 96 40 50 28
137 76 195 106 58 31 113 61 122 67 13 8 21 7 29 -1 9 -9 0 -32 -37 -95 -26
-46 -52 -84 -56 -86 -4 -2 -8 -7 -8 -12 0 -4 -50 -93 -111 -197 -61 -103 -120
-202 -130 -220 -10 -17 -29 -50 -43 -72 -15 -22 -26 -43 -26 -46 0 -2 -16 -29
-35 -59 -19 -30 -35 -60 -35 -66 0 -5 -4 -10 -9 -10 -5 0 -14 -12 -20 -27 -6
-16 -23 -46 -36 -68 -14 -22 -25 -44 -25 -48 0 -4 24 -7 53 -6 28 1 57 0 62
-1 6 -1 13 -2 18 -1 4 1 52 2 107 2 55 0 103 -1 108 -2 4 -1 12 0 17 1 12 2
206 2 220 0 6 -1 15 -1 20 0 12 2 686 2 700 -1 6 -1 15 0 20 1 12 2 206 2 220
0 6 -1 14 -2 20 0 22 4 215 1 223 -4 4 -2 14 -1 21 3 7 5 23 6 34 3 l21 -5
-21 29 c-12 16 -33 40 -47 53 -14 14 -26 28 -26 32 0 4 -12 20 -27 36 -16 16
-39 42 -53 58 -14 17 -61 73 -105 125 -44 52 -100 118 -125 146 -25 28 -52 60
-60 70 -24 30 -142 167 -159 186 -9 9 -21 23 -26 30 -11 14 -114 135 -157 183
-14 17 -45 53 -68 80 -23 28 -63 74 -89 104 -54 63 -63 74 -116 136 -22 26
-51 61 -65 76 l-25 28 -150 -145z"/>
<path d="M6270 4512 c-17 -8 -43 -31 -59 -51 -28 -35 -92 -155 -90 -167 0 -4
-3 -10 -8 -13 -4 -3 -34 -58 -66 -121 -99 -195 -296 -578 -372 -725 -40 -77
-128 -248 -195 -380 -67 -132 -146 -285 -175 -340 -29 -55 -99 -190 -155 -300
-56 -110 -131 -254 -165 -320 -34 -66 -104 -201 -155 -300 -51 -99 -112 -216
-135 -260 -23 -44 -59 -114 -81 -155 -21 -41 -43 -78 -49 -82 -5 -4 -6 -8 -1
-8 5 0 4 -6 -1 -13 -6 -6 -29 -48 -53 -92 -43 -81 -75 -139 -125 -230 -16 -27
-41 -76 -57 -107 -28 -58 -45 -79 -29 -35 5 13 11 37 14 53 4 24 81 206 177
419 10 22 55 123 100 225 45 102 92 208 106 237 13 28 24 54 24 57 0 4 43 101
80 181 5 11 73 164 150 340 78 176 150 340 162 365 11 25 36 81 55 125 20 44
46 105 60 135 14 30 31 69 38 85 7 17 24 55 38 85 13 30 39 89 57 130 18 41
46 103 61 138 16 34 29 64 29 66 0 2 18 44 41 93 22 48 46 102 54 118 40 91
56 127 85 195 18 41 43 99 56 128 13 28 24 54 24 57 1 4 45 105 80 180 30 66
81 182 85 195 1 3 7 18 13 33 7 16 12 29 12 31 0 1 -175 2 -388 2 -422 -1
-401 2 -444 -58 -20 -29 -72 -197 -63 -206 3 -3 1 -10 -4 -16 -7 -10 -25 -75
-36 -132 -2 -11 -4 -19 -5 -19 -1 0 -3 -7 -5 -15 -1 -8 -28 -116 -60 -240 -31
-124 -59 -236 -61 -249 -3 -14 -14 -57 -25 -97 -11 -40 -22 -84 -25 -96 -16
-66 -26 -107 -64 -253 -23 -88 -43 -167 -45 -175 -2 -8 -11 -44 -20 -80 -9
-36 -18 -72 -20 -80 -2 -8 -11 -44 -20 -80 -9 -36 -18 -72 -20 -80 -2 -8 -8
-35 -15 -60 -7 -25 -13 -52 -15 -60 -2 -8 -15 -60 -30 -115 -15 -55 -28 -107
-30 -115 -1 -8 -8 -35 -14 -60 -7 -25 -14 -52 -16 -60 -7 -36 -27 -116 -32
-130 -3 -8 -7 -22 -9 -30 -1 -8 -14 -60 -29 -115 -14 -55 -26 -107 -27 -115 0
-8 -5 -21 -11 -27 -5 -7 -7 -13 -3 -13 3 0 1 -11 -4 -25 -5 -14 -12 -36 -14
-48 -2 -12 -25 -105 -51 -207 -26 -102 -48 -192 -50 -200 -2 -8 -8 -35 -15
-60 -7 -25 -13 -52 -15 -60 -2 -8 -8 -35 -15 -60 -7 -25 -14 -54 -17 -65 -8
-37 -11 -50 -13 -52 -3 -3 -3 -3 -15 -58 -4 -22 -9 -44 -11 -50 -2 -5 -5 -19
-7 -30 -3 -11 -15 -58 -27 -105 -12 -47 -24 -93 -26 -103 -2 -10 -6 -27 -9
-37 -3 -10 -7 -27 -10 -37 -2 -10 -19 -82 -39 -160 -41 -160 -39 -153 -26
-153 6 0 10 5 10 10 0 6 16 36 35 66 19 30 35 57 35 60 0 3 28 53 62 112 34
59 66 116 72 127 6 11 25 35 43 52 18 18 81 106 140 195 59 90 111 165 115
166 5 2 8 7 8 12 0 5 47 79 105 165 58 86 105 161 105 166 0 5 4 9 9 9 5 0 16
15 25 34 8 18 22 39 31 46 8 7 15 18 15 25 0 8 3 15 8 17 7 3 103 144 111 163
2 6 21 33 41 60 20 28 39 55 41 60 8 19 84 130 92 133 4 2 7 7 7 12 0 4 38 65
85 134 47 70 85 131 85 135 0 5 4 11 8 13 5 2 168 244 363 538 918 1383 1074
1615 1081 1618 4 2 6 8 2 13 -3 5 2 12 10 15 9 3 16 10 16 15 0 10 50 91 62
99 3 3 9 16 13 30 l6 25 -270 1 c-221 1 -275 -2 -301 -14z"/>
<path d="M7310 4513 c-71 -21 -134 -68 -192 -143 -35 -45 -151 -203 -203 -275
-22 -31 -46 -64 -53 -73 -15 -20 -219 -302 -324 -447 -39 -55 -104 -143 -142
-195 -96 -128 -219 -298 -231 -318 -5 -9 -13 -19 -16 -22 -3 -3 -79 -106 -169
-230 -90 -124 -185 -254 -211 -290 -26 -36 -102 -139 -168 -230 -66 -91 -124
-170 -129 -175 -5 -6 -25 -34 -44 -63 -20 -28 -43 -59 -52 -68 -9 -8 -21 -25
-27 -37 -7 -11 -16 -26 -21 -31 -5 -6 -43 -58 -85 -116 -138 -190 -222 -305
-231 -315 -4 -5 -28 -39 -52 -74 -25 -36 -52 -72 -60 -81 -8 -9 -22 -27 -30
-39 -8 -12 -42 -59 -76 -104 -33 -45 -77 -107 -98 -137 -21 -30 -41 -57 -44
-60 -4 -3 -11 -13 -17 -22 -14 -24 -360 -499 -398 -548 -7 -8 -21 -29 -31 -45
-11 -17 -24 -35 -30 -42 -29 -33 -36 -43 -36 -53 0 -5 -4 -10 -10 -10 -5 0
-10 -6 -10 -14 0 -8 -3 -16 -7 -18 -13 -5 -63 -76 -63 -87 0 -17 28 -13 42 7
7 10 23 25 35 33 12 9 46 38 76 65 58 53 84 76 192 169 39 33 75 64 81 70 15
14 135 120 160 142 99 85 139 119 163 142 15 14 52 46 81 71 29 25 66 56 81
70 15 14 53 48 84 75 31 28 62 55 68 60 7 6 48 42 92 80 72 63 96 83 171 150
12 11 46 40 75 65 29 25 60 52 69 60 9 8 49 44 90 80 41 36 77 67 80 70 3 3
57 51 120 105 63 55 117 102 120 105 8 8 163 144 177 155 7 6 33 29 58 53 25
23 47 42 50 42 3 0 18 12 33 27 15 16 57 53 92 83 35 30 71 62 80 70 9 8 45
40 80 70 35 30 72 62 80 70 26 24 77 69 205 179 66 58 122 107 125 110 3 3 39
35 80 71 41 36 80 70 86 75 59 52 160 141 262 230 68 59 122 110 120 114 -2 3
-27 55 -56 115 -28 59 -52 110 -52 112 0 2 -30 66 -66 141 -36 76 -75 160 -86
187 l-21 48 -36 -39 c-20 -22 -59 -67 -87 -99 -64 -74 -196 -225 -209 -240 -5
-6 -32 -38 -60 -70 -27 -32 -59 -68 -71 -80 -11 -12 -31 -34 -43 -50 -12 -16
-39 -47 -59 -69 -33 -36 -117 -132 -192 -219 -14 -16 -30 -34 -35 -40 -6 -6
-37 -42 -70 -81 -33 -38 -64 -75 -70 -81 -5 -6 -37 -42 -70 -79 -33 -38 -70
-79 -82 -92 -11 -13 -35 -42 -53 -63 -18 -21 -42 -50 -53 -63 -12 -13 -44 -49
-72 -81 -27 -32 -69 -78 -91 -102 -23 -24 -40 -44 -37 -44 4 0 -50 -61 -104
-117 -13 -13 -23 -26 -23 -29 0 -3 -10 -15 -22 -28 -13 -12 -45 -49 -73 -81
-65 -75 -125 -143 -150 -171 -11 -12 -38 -43 -60 -70 -22 -26 -45 -52 -50 -58
-6 -6 -37 -42 -70 -81 -33 -38 -69 -79 -80 -90 -11 -11 -33 -36 -49 -55 -27
-33 -113 -132 -182 -209 -18 -20 -36 -31 -42 -27 -16 10 -15 19 6 42 18 21
107 127 132 158 8 10 20 23 25 30 12 12 228 270 254 301 21 27 123 147 136
161 6 6 25 29 43 52 19 23 41 50 50 60 10 11 37 43 62 72 25 29 50 58 55 64 6
6 28 33 50 61 22 27 47 56 55 65 8 9 24 28 35 41 45 55 121 144 135 159 8 9
31 36 50 60 19 24 89 107 154 184 65 78 137 163 160 190 23 27 50 59 61 72 11
12 34 40 52 61 17 21 39 48 50 59 10 12 34 41 53 64 19 23 43 52 54 64 10 11
35 41 55 66 20 25 39 47 42 50 3 3 41 48 84 100 43 52 81 97 84 100 4 3 40 46
81 95 41 50 80 95 85 101 6 6 28 33 50 59 22 27 45 53 50 59 6 6 57 67 114
136 57 69 108 127 113 128 4 2 8 10 8 18 0 8 4 14 8 14 4 0 42 42 84 93 42 50
86 103 98 117 12 14 36 42 53 64 18 21 41 48 52 60 28 30 95 114 95 119 0 5
-380 5 -400 0z"/>
<path d="M154 4489 c-3 -5 -1 -9 3 -9 5 0 16 -12 25 -27 9 -16 27 -39 40 -53
13 -14 50 -59 83 -100 33 -41 62 -77 65 -80 3 -3 32 -39 65 -80 33 -41 65 -82
72 -90 7 -8 76 -94 153 -190 77 -96 153 -189 168 -206 15 -17 38 -46 52 -64
14 -19 48 -61 76 -94 28 -34 126 -155 218 -271 92 -115 177 -218 188 -227 11
-10 16 -18 12 -18 -5 0 -4 -4 2 -8 5 -4 37 -41 70 -82 71 -89 76 -95 150 -186
33 -39 70 -86 84 -104 14 -18 30 -38 35 -44 6 -6 69 -83 140 -171 70 -88 140
-174 154 -191 14 -17 40 -48 56 -69 17 -21 42 -52 57 -69 15 -16 41 -50 58
-75 18 -25 22 -35 10 -21 -11 14 -35 41 -53 60 -17 19 -65 73 -106 120 -41 47
-79 90 -85 96 -6 6 -33 37 -61 69 -27 32 -66 75 -85 95 -19 21 -60 66 -90 100
-30 35 -63 73 -73 84 -10 12 -42 48 -70 80 -29 33 -57 64 -63 70 -5 6 -44 49
-84 96 -41 47 -84 94 -95 106 -11 12 -31 34 -45 50 -91 104 -248 282 -263 299
-11 11 -42 47 -70 79 -29 33 -73 82 -98 110 -25 28 -61 69 -80 90 -59 69 -76
86 -85 86 -5 0 -20 -24 -34 -53 -13 -28 -70 -148 -127 -264 -57 -117 -103
-217 -103 -222 0 -5 -5 -11 -11 -13 -7 -2 37 -46 97 -98 60 -52 111 -97 114
-100 5 -6 192 -167 244 -211 16 -13 44 -37 62 -54 18 -16 51 -46 74 -64 24
-19 48 -40 54 -45 6 -6 45 -40 86 -76 41 -35 82 -71 91 -80 9 -8 42 -37 74
-65 81 -69 139 -119 220 -190 37 -33 81 -71 98 -85 17 -14 40 -34 51 -45 12
-11 33 -29 47 -40 24 -19 126 -107 173 -150 19 -17 49 -43 156 -135 10 -8 41
-35 70 -60 29 -25 63 -54 74 -65 12 -11 50 -45 86 -75 35 -30 72 -62 81 -70 9
-8 45 -40 80 -70 34 -30 81 -71 104 -90 22 -19 42 -37 45 -40 3 -3 52 -45 110
-95 58 -49 120 -103 139 -120 19 -16 44 -39 57 -50 12 -11 44 -38 70 -60 26
-22 62 -53 80 -70 18 -16 43 -39 56 -49 56 -47 224 -192 233 -202 6 -6 60 -53
120 -105 61 -51 115 -98 121 -104 6 -5 35 -30 64 -55 29 -25 65 -56 80 -70 53
-47 66 -56 78 -52 14 4 -9 49 -45 90 -13 14 -23 28 -23 33 0 4 -6 14 -13 21
-7 7 -55 69 -106 138 -51 69 -101 136 -111 150 -11 14 -125 167 -254 340 -129
173 -239 320 -243 325 -4 6 -21 28 -38 50 -16 22 -33 45 -37 50 -5 6 -27 35
-49 65 -22 30 -48 66 -59 80 -10 14 -96 129 -190 255 -215 289 -193 260 -294
393 -47 62 -86 116 -86 118 0 3 -6 11 -12 18 -7 7 -22 25 -33 40 -33 46 -89
120 -98 131 -5 6 -107 143 -228 305 -121 162 -228 306 -239 320 -10 14 -51 68
-89 120 -39 52 -74 100 -79 105 -4 6 -34 46 -67 90 -32 44 -62 82 -67 83 -4 2
-8 10 -8 18 0 8 -4 14 -8 14 -4 0 -15 12 -24 28 -9 15 -26 38 -37 52 -11 14
-151 201 -311 415 -161 215 -309 407 -330 427 -42 42 -48 43 -260 53 -63 3
-134 7 -158 9 -23 2 -45 0 -48 -5z"/>
<path d="M841 4422 c-8 -3 -3 -15 12 -35 13 -18 61 -84 106 -147 45 -63 88
-122 94 -130 22 -28 162 -221 172 -238 6 -9 12 -19 16 -22 3 -3 21 -27 40 -55
18 -27 36 -52 39 -55 7 -6 121 -166 135 -189 6 -9 13 -18 16 -21 3 -3 46 -61
95 -130 48 -69 91 -127 94 -130 3 -3 68 -93 144 -200 77 -107 142 -197 146
-200 4 -3 15 -20 25 -37 11 -18 23 -33 27 -33 4 0 8 -4 8 -10 0 -5 6 -18 14
-27 41 -51 86 -114 86 -122 0 -5 3 -11 8 -13 4 -1 32 -37 61 -78 64 -89 79
-106 58 -65 -8 17 -25 53 -37 80 -13 28 -49 103 -80 168 -32 64 -55 117 -52
117 4 0 3 4 -3 8 -15 10 -35 49 -35 67 0 8 -4 15 -10 15 -5 0 -10 5 -10 11 0
14 -362 742 -373 750 -5 3 -8 9 -8 13 2 11 -289 583 -321 631 -28 42 -64 66
-106 72 -47 6 -346 10 -361 5z"/>
<path d="M4773 4071 c-40 -92 -73 -172 -73 -179 0 -7 -4 -12 -10 -12 -5 0 -10
-6 -10 -13 0 -11 -50 -130 -116 -275 -13 -29 -24 -55 -24 -57 0 -2 -11 -28
-24 -57 -13 -29 -51 -117 -85 -195 -33 -79 -69 -162 -80 -185 -11 -24 -56
-128 -102 -233 -45 -104 -89 -208 -99 -230 -10 -22 -32 -74 -50 -115 -18 -41
-42 -95 -53 -120 -12 -25 -21 -47 -22 -50 -1 -10 -108 -250 -110 -248 -7 9
-259 514 -258 518 1 3 -2 10 -7 15 -15 18 -199 385 -193 385 3 0 0 6 -6 14 -7
8 -95 180 -197 382 -102 203 -187 370 -190 373 -2 3 -8 0 -13 -5 -5 -5 1 -43
15 -89 14 -44 27 -87 29 -95 2 -8 4 -15 5 -15 1 0 3 -8 5 -17 2 -9 10 -39 19
-65 8 -26 17 -60 20 -75 3 -15 8 -32 11 -38 9 -14 45 -137 52 -175 3 -16 10
-36 15 -42 6 -7 7 -13 3 -13 -4 0 -2 -6 4 -13 6 -8 8 -17 4 -20 -3 -4 -1 -12
5 -19 6 -7 11 -17 11 -23 1 -5 6 -28 12 -50 6 -22 11 -42 11 -45 0 -3 5 -18
12 -35 7 -16 14 -34 15 -40 1 -5 7 -28 13 -50 6 -22 12 -45 14 -51 2 -12 28
-100 71 -239 14 -44 26 -84 27 -90 1 -5 5 -16 9 -22 5 -7 6 -13 2 -13 -3 0 1
-16 9 -35 9 -20 15 -39 16 -43 1 -12 21 -86 27 -102 3 -8 7 -19 8 -25 2 -5 8
-30 16 -55 7 -25 14 -49 15 -55 9 -32 71 -241 110 -375 9 -30 20 -66 25 -80 9
-29 150 -510 154 -525 1 -5 5 -17 8 -25 9 -22 56 -185 74 -257 14 -53 36 -84
50 -70 2 2 13 39 24 83 12 43 34 126 50 184 16 58 31 112 33 120 2 8 20 78 40
155 21 77 44 163 52 191 8 28 16 60 19 70 2 11 8 34 14 52 5 18 11 36 12 40 4
15 8 30 29 112 12 47 24 96 27 109 2 14 6 27 8 31 3 4 115 421 141 520 2 8 8
31 13 50 48 177 102 378 106 392 2 9 15 61 30 115 15 54 28 105 30 113 10 37
67 248 76 280 5 19 11 42 13 50 2 8 11 42 20 75 9 33 18 67 20 76 3 8 11 39
20 67 8 29 13 52 11 52 -3 0 0 12 6 28 12 29 56 190 65 232 3 14 8 34 11 45 9
26 10 32 23 85 6 25 13 52 17 60 11 27 11 39 0 43 -7 2 -41 -63 -84 -162z"/>
<path d="M2827 3990 c-32 -73 -51 -426 -33 -630 8 -95 12 -125 32 -225 8 -38
16 -79 19 -90 2 -11 11 -45 20 -75 9 -30 19 -65 22 -78 3 -12 9 -25 14 -28 5
-3 9 -15 9 -28 0 -12 4 -26 8 -31 5 -6 19 -37 31 -70 13 -33 27 -69 31 -80 15
-35 47 -117 90 -230 24 -60 53 -137 65 -170 24 -62 134 -362 224 -611 28 -77
51 -146 51 -153 0 -6 4 -19 10 -29 5 -9 32 -82 60 -162 28 -80 55 -153 60
-162 6 -10 10 -24 10 -32 0 -7 9 -35 19 -62 11 -27 33 -87 49 -134 50 -141
112 -314 121 -335 15 -38 33 -90 38 -115 7 -32 29 -64 36 -53 3 5 -7 59 -23
119 -17 60 -32 118 -35 129 -2 11 -11 45 -20 75 -9 30 -25 89 -36 130 -10 41
-21 82 -23 90 -3 8 -11 40 -19 70 -8 30 -18 62 -21 70 -3 8 -8 26 -10 40 -3
14 -14 55 -25 93 -11 37 -17 67 -15 67 3 0 0 8 -5 18 -6 11 -12 30 -15 43 -3
13 -15 58 -26 99 -12 41 -23 83 -25 93 -2 9 -18 68 -35 130 -17 61 -35 128
-40 147 -5 19 -18 67 -29 105 -20 74 -30 117 -30 125 0 3 -4 18 -10 33 -6 16
-20 63 -32 105 -11 43 -34 127 -50 187 -16 61 -31 117 -34 125 -2 8 -31 116
-65 240 -34 124 -63 233 -65 243 -2 9 -6 21 -9 25 -3 5 -7 22 -10 38 -6 32
-129 490 -145 539 -6 17 -17 57 -25 90 -8 33 -27 103 -41 155 -15 52 -33 118
-40 145 l-12 50 -16 -35z"/>
</g>
</svg>
